%TF.GenerationSoftware,KiCad,Pcbnew,(7.0.0-0)*%
%TF.CreationDate,2023-03-07T12:57:00-05:00*%
%TF.ProjectId,Spatial Sense Module,53706174-6961-46c2-9053-656e7365204d,rev?*%
%TF.SameCoordinates,Original*%
%TF.FileFunction,Copper,L4,Bot*%
%TF.FilePolarity,Positive*%
%FSLAX46Y46*%
G04 Gerber Fmt 4.6, Leading zero omitted, Abs format (unit mm)*
G04 Created by KiCad (PCBNEW (7.0.0-0)) date 2023-03-07 12:57:00*
%MOMM*%
%LPD*%
G01*
G04 APERTURE LIST*
G04 Aperture macros list*
%AMRoundRect*
0 Rectangle with rounded corners*
0 $1 Rounding radius*
0 $2 $3 $4 $5 $6 $7 $8 $9 X,Y pos of 4 corners*
0 Add a 4 corners polygon primitive as box body*
4,1,4,$2,$3,$4,$5,$6,$7,$8,$9,$2,$3,0*
0 Add four circle primitives for the rounded corners*
1,1,$1+$1,$2,$3*
1,1,$1+$1,$4,$5*
1,1,$1+$1,$6,$7*
1,1,$1+$1,$8,$9*
0 Add four rect primitives between the rounded corners*
20,1,$1+$1,$2,$3,$4,$5,0*
20,1,$1+$1,$4,$5,$6,$7,0*
20,1,$1+$1,$6,$7,$8,$9,0*
20,1,$1+$1,$8,$9,$2,$3,0*%
G04 Aperture macros list end*
%TA.AperFunction,ComponentPad*%
%ADD10C,1.000000*%
%TD*%
%TA.AperFunction,ComponentPad*%
%ADD11O,1.000000X1.000000*%
%TD*%
%TA.AperFunction,ComponentPad*%
%ADD12O,2.100000X1.000000*%
%TD*%
%TA.AperFunction,ComponentPad*%
%ADD13O,1.800000X1.000000*%
%TD*%
%TA.AperFunction,SMDPad,CuDef*%
%ADD14C,1.000000*%
%TD*%
%TA.AperFunction,SMDPad,CuDef*%
%ADD15RoundRect,0.200000X-0.275000X0.200000X-0.275000X-0.200000X0.275000X-0.200000X0.275000X0.200000X0*%
%TD*%
%TA.AperFunction,SMDPad,CuDef*%
%ADD16RoundRect,0.225000X-0.250000X0.225000X-0.250000X-0.225000X0.250000X-0.225000X0.250000X0.225000X0*%
%TD*%
%TA.AperFunction,SMDPad,CuDef*%
%ADD17RoundRect,0.218750X-0.218750X-0.256250X0.218750X-0.256250X0.218750X0.256250X-0.218750X0.256250X0*%
%TD*%
%TA.AperFunction,SMDPad,CuDef*%
%ADD18R,2.500000X2.000000*%
%TD*%
%TA.AperFunction,SMDPad,CuDef*%
%ADD19R,2.000000X1.000000*%
%TD*%
%TA.AperFunction,ViaPad*%
%ADD20C,0.600000*%
%TD*%
%TA.AperFunction,Conductor*%
%ADD21C,0.400000*%
%TD*%
%TA.AperFunction,Conductor*%
%ADD22C,0.200000*%
%TD*%
%TA.AperFunction,Conductor*%
%ADD23C,0.127000*%
%TD*%
%TA.AperFunction,Conductor*%
%ADD24C,0.150000*%
%TD*%
G04 APERTURE END LIST*
D10*
%TO.P,J1,1,Pin_1*%
%TO.N,Net-(J1-Pin_1)*%
X193100000Y-150400000D03*
D11*
%TO.P,J1,2,Pin_2*%
%TO.N,Net-(J1-Pin_2)*%
X194369999Y-150399999D03*
%TD*%
D10*
%TO.P,J4,1,Pin_1*%
%TO.N,+3V3*%
X196800000Y-150400000D03*
D11*
%TO.P,J4,2,Pin_2*%
%TO.N,GND*%
X198069999Y-150399999D03*
%TO.P,J4,3,Pin_3*%
%TO.N,/SWCLK*%
X199339999Y-150399999D03*
%TO.P,J4,4,Pin_4*%
%TO.N,/SWDIO*%
X200609999Y-150399999D03*
%TO.P,J4,5,Pin_5*%
%TO.N,/~{RESET}*%
X201879999Y-150399999D03*
%TD*%
D12*
%TO.P,J3,S1,SHIELD*%
%TO.N,unconnected-(J3-SHIELD-PadS1)*%
X183804999Y-134269999D03*
D13*
X179624999Y-134269999D03*
D12*
X183804999Y-142909999D03*
D13*
X179624999Y-142909999D03*
%TD*%
D14*
%TO.P,D5_LC1,1,1*%
%TO.N,/D2*%
X187150000Y-124900000D03*
%TD*%
D15*
%TO.P,R10,1*%
%TO.N,/D11*%
X198400000Y-124975000D03*
%TO.P,R10,2*%
%TO.N,GND*%
X198400000Y-126625000D03*
%TD*%
D16*
%TO.P,C20,1*%
%TO.N,Net-(U5-ANT)*%
X192800000Y-146975000D03*
%TO.P,C20,2*%
%TO.N,GND*%
X192800000Y-148525000D03*
%TD*%
D17*
%TO.P,L1,1,1*%
%TO.N,Net-(U5-ANT)*%
X194662500Y-147000000D03*
%TO.P,L1,2,2*%
%TO.N,Net-(ANT1-A)*%
X196237500Y-147000000D03*
%TD*%
D14*
%TO.P,D6_LC1,1,1*%
%TO.N,/D5*%
X185050000Y-124900000D03*
%TD*%
D18*
%TO.P,ANT1,1,A*%
%TO.N,Net-(ANT1-A)*%
X205739999Y-146974999D03*
%TO.P,ANT1,2,Shield*%
%TO.N,GND*%
X205739999Y-136774999D03*
%TD*%
D14*
%TO.P,GND_LC1,1,1*%
%TO.N,GND*%
X189250000Y-124850000D03*
%TD*%
%TO.P,3V3_LC1,1,1*%
%TO.N,+3V3*%
X191350000Y-124850000D03*
%TD*%
D16*
%TO.P,C21,1*%
%TO.N,Net-(ANT1-A)*%
X198150000Y-146975000D03*
%TO.P,C21,2*%
%TO.N,GND*%
X198150000Y-148525000D03*
%TD*%
D14*
%TO.P,3V3_B1,1,1*%
%TO.N,+3V3*%
X194300000Y-124850000D03*
%TD*%
D19*
%TO.P,U5,1,GND*%
%TO.N,GND*%
X202499999Y-129749999D03*
%TO.P,U5,2,MISO*%
%TO.N,/MISO*%
X202499999Y-131749999D03*
%TO.P,U5,3,MOSI*%
%TO.N,/MOSI*%
X202499999Y-133749999D03*
%TO.P,U5,4,SCK*%
%TO.N,/SCK*%
X202499999Y-135749999D03*
%TO.P,U5,5,NSS*%
%TO.N,/D8_CS*%
X202499999Y-137749999D03*
%TO.P,U5,6,RESET*%
%TO.N,/D4_RST*%
X202499999Y-139749999D03*
%TO.P,U5,7,DIO5*%
%TO.N,unconnected-(U5-DIO5-Pad7)*%
X202499999Y-141749999D03*
%TO.P,U5,8,GND*%
%TO.N,GND*%
X202499999Y-143749999D03*
%TO.P,U5,9,ANT*%
%TO.N,Net-(U5-ANT)*%
X186499999Y-143749999D03*
%TO.P,U5,10,GND*%
%TO.N,GND*%
X186499999Y-141749999D03*
%TO.P,U5,11,DIO3*%
%TO.N,/DIO3*%
X186499999Y-139749999D03*
%TO.P,U5,12,DIO4*%
%TO.N,unconnected-(U5-DIO4-Pad12)*%
X186499999Y-137749999D03*
%TO.P,U5,13,3.3V*%
%TO.N,+3V3*%
X186499999Y-135749999D03*
%TO.P,U5,14,DIO0*%
%TO.N,/D3_IRQ*%
X186499999Y-133749999D03*
%TO.P,U5,15,DIO1*%
%TO.N,/DIO1*%
X186499999Y-131749999D03*
%TO.P,U5,16,DIO2*%
%TO.N,/DIO2*%
X186499999Y-129749999D03*
%TD*%
D14*
%TO.P,GND_B1,1,1*%
%TO.N,/D11*%
X196400000Y-124850000D03*
%TD*%
D16*
%TO.P,C19,1*%
%TO.N,+3V3*%
X184000000Y-137425000D03*
%TO.P,C19,2*%
%TO.N,GND*%
X184000000Y-138975000D03*
%TD*%
D20*
%TO.N,GND*%
X207300000Y-125550000D03*
X185075000Y-150525000D03*
X192875000Y-140975000D03*
X192500000Y-129200000D03*
X201100000Y-132575000D03*
%TO.N,+3V3*%
X191875000Y-130875000D03*
X190000000Y-127000000D03*
X188750000Y-135000000D03*
X188950000Y-138850000D03*
%TO.N,GND*%
X202500000Y-127650000D03*
X200300000Y-142100000D03*
X191300000Y-146250000D03*
X181200000Y-125950000D03*
X201800000Y-151900000D03*
X186000000Y-127650000D03*
X190250000Y-137300000D03*
X188850000Y-139700000D03*
X182150000Y-147950000D03*
X177550000Y-150400000D03*
X181250000Y-129950000D03*
X181300000Y-135750000D03*
X203300000Y-149850000D03*
X190600000Y-134300000D03*
X188150000Y-123950000D03*
X184700000Y-151900000D03*
X200250000Y-125800000D03*
X196600000Y-142000000D03*
X181700000Y-144250000D03*
X203360000Y-132750000D03*
X203475000Y-140750000D03*
X188750000Y-143600000D03*
X185750000Y-145000000D03*
X188100000Y-126000000D03*
X180850000Y-152000000D03*
X189550000Y-141775000D03*
X181400000Y-139700000D03*
X203200000Y-147750000D03*
X198750000Y-135600000D03*
X203200000Y-146000000D03*
X182450000Y-142000000D03*
X195300000Y-136750000D03*
X199050000Y-145400000D03*
X198000000Y-123900000D03*
X184850000Y-132900000D03*
X201950000Y-147750000D03*
X199250000Y-127725000D03*
X194000000Y-126550000D03*
X188200000Y-146600000D03*
X199625000Y-129775000D03*
X182450000Y-150000000D03*
X195530000Y-150480000D03*
X188400000Y-130700000D03*
X202600000Y-124550000D03*
X196975000Y-130700000D03*
X196800000Y-134800000D03*
X195500000Y-145700000D03*
X197200000Y-138200000D03*
X196150000Y-148850000D03*
X183950000Y-123950000D03*
X201950000Y-146000000D03*
X188450000Y-149975000D03*
X192000000Y-150100000D03*
X177500000Y-146150000D03*
X193450000Y-145500000D03*
X179250000Y-147700000D03*
X199400000Y-138100000D03*
X200700000Y-147750000D03*
X200700000Y-146000000D03*
X178450000Y-141750000D03*
X192550000Y-125900000D03*
X200350000Y-123700000D03*
%TO.N,/~{RESET}*%
X183300000Y-145975000D03*
X192810378Y-141876428D03*
%TO.N,/D13*%
X192000000Y-134300000D03*
X183600000Y-144150000D03*
%TO.N,/SCL*%
X198150000Y-145400000D03*
X191900000Y-137250000D03*
X191600000Y-138850000D03*
%TO.N,/SDA*%
X190600000Y-138850000D03*
X191100000Y-136850000D03*
X197150000Y-143750000D03*
%TO.N,/D8_CS*%
X200250000Y-134500000D03*
%TO.N,/D4_RST*%
X199250000Y-134500000D03*
%TO.N,/D3_IRQ*%
X199300000Y-131223500D03*
%TO.N,/MOSI*%
X197537115Y-133907423D03*
%TO.N,/SCK*%
X196750000Y-133750000D03*
%TO.N,/MISO*%
X195750000Y-133750000D03*
%TO.N,/D2*%
X195050000Y-131150000D03*
%TO.N,/D5*%
X194300000Y-131250000D03*
%TO.N,/D11*%
X192450000Y-132800000D03*
%TO.N,/STAT*%
X181800000Y-146025000D03*
X199900000Y-124400000D03*
%TO.N,Net-(U2-~{BOOT_LOAD_PIN})*%
X194300000Y-146000000D03*
X190250000Y-144950000D03*
%TD*%
D21*
%TO.N,GND*%
X207300000Y-125600000D02*
X203800000Y-125600000D01*
D22*
%TO.N,+3V3*%
X191350000Y-124850000D02*
X194300000Y-124850000D01*
X190000000Y-129000000D02*
X190000000Y-127000000D01*
X184000000Y-137425000D02*
X185675000Y-135750000D01*
X191875000Y-130875000D02*
X190000000Y-129000000D01*
X188950000Y-135200000D02*
X188750000Y-135000000D01*
X188000000Y-135750000D02*
X186500000Y-135750000D01*
X191350000Y-124850000D02*
X191350000Y-125650000D01*
X191350000Y-125650000D02*
X190000000Y-127000000D01*
X188950000Y-138850000D02*
X188950000Y-135200000D01*
X188750000Y-135000000D02*
X188000000Y-135750000D01*
D21*
%TO.N,GND*%
X204025000Y-136775000D02*
X205740000Y-136775000D01*
D23*
%TO.N,/~{RESET}*%
X183300000Y-145975000D02*
X184700000Y-144575000D01*
X185450000Y-142900000D02*
X191786806Y-142900000D01*
X184700000Y-144575000D02*
X184700000Y-143650000D01*
X191786806Y-142900000D02*
X192810378Y-141876428D01*
X184700000Y-143650000D02*
X185450000Y-142900000D01*
%TO.N,/D13*%
X189750000Y-139600000D02*
X188600000Y-140750000D01*
X185100000Y-140750000D02*
X184850000Y-140500000D01*
X182500000Y-140500000D02*
X181900000Y-141100000D01*
X182650000Y-144150000D02*
X183600000Y-144150000D01*
X181900000Y-141100000D02*
X181900000Y-143400000D01*
X189750000Y-136550000D02*
X189750000Y-139600000D01*
X192000000Y-134300000D02*
X189750000Y-136550000D01*
X188600000Y-140750000D02*
X185100000Y-140750000D01*
X184850000Y-140500000D02*
X182500000Y-140500000D01*
X181900000Y-143400000D02*
X182650000Y-144150000D01*
D24*
%TO.N,/SCL*%
X191900000Y-138550000D02*
X191900000Y-137250000D01*
X191600000Y-138850000D02*
X191900000Y-138550000D01*
X198090064Y-145400000D02*
X198150000Y-145400000D01*
X193200000Y-140509936D02*
X198090064Y-145400000D01*
X193200000Y-138550000D02*
X193200000Y-140509936D01*
X191900000Y-137250000D02*
X193200000Y-138550000D01*
%TO.N,/SDA*%
X190600000Y-138850000D02*
X191100000Y-138350000D01*
X191100000Y-138350000D02*
X191100000Y-136850000D01*
X191202000Y-136748000D02*
X191100000Y-136850000D01*
X193650000Y-138290064D02*
X192107936Y-136748000D01*
X193650000Y-140250000D02*
X193650000Y-138290064D01*
X197150000Y-143750000D02*
X193650000Y-140250000D01*
X192107936Y-136748000D02*
X191202000Y-136748000D01*
D22*
%TO.N,/D8_CS*%
X200250000Y-135500000D02*
X202500000Y-137750000D01*
X200250000Y-134500000D02*
X200250000Y-135500000D01*
%TO.N,/D4_RST*%
X199250000Y-134500000D02*
X199646800Y-134896800D01*
X199646800Y-136896800D02*
X202500000Y-139750000D01*
X199646800Y-134896800D02*
X199646800Y-136896800D01*
%TO.N,/D3_IRQ*%
X197276500Y-131223500D02*
X195103200Y-133396800D01*
X195103200Y-133396800D02*
X186853200Y-133396800D01*
X199300000Y-131223500D02*
X197276500Y-131223500D01*
%TO.N,/MOSI*%
X197537115Y-133907423D02*
X198297738Y-133146800D01*
X198297738Y-133146800D02*
X201896800Y-133146800D01*
X201896800Y-133146800D02*
X202500000Y-133750000D01*
%TO.N,/SCK*%
X197476638Y-134700000D02*
X198196946Y-134700000D01*
X199000146Y-133896800D02*
X200646800Y-133896800D01*
X196750000Y-133973362D02*
X197476638Y-134700000D01*
X198196946Y-134700000D02*
X199000146Y-133896800D01*
X196750000Y-133750000D02*
X196750000Y-133973362D01*
X200646800Y-133896800D02*
X202500000Y-135750000D01*
%TO.N,/MISO*%
X195750000Y-133750000D02*
X197750000Y-131750000D01*
X197750000Y-131750000D02*
X202500000Y-131750000D01*
D23*
%TO.N,/D2*%
X191671828Y-131365500D02*
X187150000Y-126843672D01*
X187150000Y-126843672D02*
X187150000Y-124900000D01*
X193250000Y-130500000D02*
X192384500Y-131365500D01*
X195050000Y-131150000D02*
X194400000Y-130500000D01*
X192384500Y-131365500D02*
X191671828Y-131365500D01*
X194400000Y-130500000D02*
X193250000Y-130500000D01*
%TO.N,/D5*%
X185050000Y-124900000D02*
X185050000Y-125607106D01*
X193800000Y-131750000D02*
X194300000Y-131250000D01*
X185050000Y-125607106D02*
X191192894Y-131750000D01*
X191192894Y-131750000D02*
X193800000Y-131750000D01*
%TO.N,/D11*%
X194093672Y-132800000D02*
X196400000Y-130493672D01*
X192450000Y-132800000D02*
X194093672Y-132800000D01*
X196400000Y-130493672D02*
X196400000Y-124850000D01*
X196400000Y-124850000D02*
X198275000Y-124850000D01*
X198275000Y-124850000D02*
X198400000Y-124975000D01*
D22*
%TO.N,/STAT*%
X181800000Y-146025000D02*
X179675000Y-146025000D01*
X179675000Y-146025000D02*
X177750000Y-144100000D01*
X178500000Y-123250000D02*
X198750000Y-123250000D01*
X177750000Y-124000000D02*
X178500000Y-123250000D01*
X198750000Y-123250000D02*
X199900000Y-124400000D01*
X177750000Y-144100000D02*
X177750000Y-124000000D01*
D21*
%TO.N,Net-(U5-ANT)*%
X189725000Y-146975000D02*
X192800000Y-146975000D01*
X194662500Y-147000000D02*
X192825000Y-147000000D01*
X186500000Y-143750000D02*
X189725000Y-146975000D01*
%TO.N,Net-(ANT1-A)*%
X198150000Y-146975000D02*
X205740000Y-146975000D01*
X198150000Y-146975000D02*
X196262500Y-146975000D01*
D24*
%TO.N,Net-(U2-~{BOOT_LOAD_PIN})*%
X193609936Y-144950000D02*
X190250000Y-144950000D01*
X194300000Y-146000000D02*
X194300000Y-145640064D01*
X194300000Y-145640064D02*
X193609936Y-144950000D01*
%TD*%
%TA.AperFunction,Conductor*%
%TO.N,GND*%
G36*
X182986623Y-140779027D02*
G01*
X183031450Y-140820465D01*
X183051073Y-140878271D01*
X183040735Y-140938435D01*
X183002941Y-140986376D01*
X182900994Y-141064602D01*
X182900987Y-141064608D01*
X182894549Y-141069549D01*
X182889608Y-141075987D01*
X182889605Y-141075991D01*
X182807248Y-141183319D01*
X182807242Y-141183328D01*
X182802302Y-141189767D01*
X182799193Y-141197272D01*
X182799191Y-141197276D01*
X182747423Y-141322254D01*
X182747421Y-141322259D01*
X182744313Y-141329764D01*
X182743252Y-141337815D01*
X182743251Y-141337823D01*
X182725760Y-141470683D01*
X182724534Y-141480000D01*
X182725595Y-141488059D01*
X182743251Y-141622176D01*
X182743252Y-141622182D01*
X182744313Y-141630236D01*
X182747422Y-141637742D01*
X182747423Y-141637745D01*
X182790918Y-141742750D01*
X182802302Y-141770233D01*
X182807245Y-141776674D01*
X182807248Y-141776680D01*
X182877054Y-141867651D01*
X182894549Y-141890451D01*
X182900991Y-141895394D01*
X183008319Y-141977751D01*
X183008322Y-141977753D01*
X183014767Y-141982698D01*
X183065234Y-142003602D01*
X183112554Y-142038201D01*
X183138695Y-142090673D01*
X183137810Y-142149289D01*
X183110097Y-142200948D01*
X183061751Y-142234104D01*
X182934087Y-142282520D01*
X182934081Y-142282523D01*
X182927070Y-142285182D01*
X182920897Y-142289442D01*
X182920893Y-142289445D01*
X182793241Y-142377557D01*
X182793235Y-142377562D01*
X182787071Y-142381817D01*
X182782099Y-142387428D01*
X182782098Y-142387430D01*
X182679241Y-142503531D01*
X182679236Y-142503537D01*
X182674266Y-142509148D01*
X182670780Y-142515788D01*
X182670779Y-142515791D01*
X182598695Y-142653133D01*
X182598692Y-142653140D01*
X182595210Y-142659775D01*
X182593416Y-142667050D01*
X182593415Y-142667055D01*
X182556294Y-142817662D01*
X182556293Y-142817668D01*
X182554500Y-142824944D01*
X182554500Y-142995056D01*
X182556293Y-143002332D01*
X182556294Y-143002337D01*
X182592952Y-143151065D01*
X182595210Y-143160225D01*
X182598693Y-143166862D01*
X182598695Y-143166866D01*
X182643377Y-143251999D01*
X182674266Y-143310852D01*
X182679239Y-143316466D01*
X182679241Y-143316468D01*
X182717252Y-143359374D01*
X182787071Y-143438183D01*
X182927070Y-143534818D01*
X182934088Y-143537479D01*
X182934087Y-143537479D01*
X183073452Y-143590333D01*
X183086128Y-143595140D01*
X183143656Y-143602125D01*
X183155447Y-143603557D01*
X183216704Y-143628832D01*
X183256198Y-143682045D01*
X183262649Y-143747997D01*
X183234215Y-143807853D01*
X183203583Y-143843204D01*
X183161386Y-143874794D01*
X183109873Y-143886000D01*
X182810714Y-143886000D01*
X182763261Y-143876561D01*
X182723033Y-143849681D01*
X182200319Y-143326967D01*
X182173439Y-143286739D01*
X182164000Y-143239286D01*
X182164000Y-141260714D01*
X182173439Y-141213261D01*
X182200319Y-141173033D01*
X182573033Y-140800319D01*
X182613261Y-140773439D01*
X182660714Y-140764000D01*
X182927455Y-140764000D01*
X182986623Y-140779027D01*
G37*
%TD.AperFunction*%
%TA.AperFunction,Conductor*%
G36*
X198760803Y-122708960D02*
G01*
X198794997Y-122700500D01*
X203876000Y-122700500D01*
X203938000Y-122717113D01*
X203983387Y-122762500D01*
X204000000Y-122824500D01*
X204000000Y-128751997D01*
X203981495Y-128817164D01*
X203931504Y-128862881D01*
X203864947Y-128875503D01*
X203801689Y-128851263D01*
X203749194Y-128811964D01*
X203733777Y-128803547D01*
X203614641Y-128759111D01*
X203599667Y-128755573D01*
X203551114Y-128750353D01*
X203544518Y-128750000D01*
X202766326Y-128750000D01*
X202753450Y-128753450D01*
X202750000Y-128766326D01*
X202750000Y-130733674D01*
X202753450Y-130746549D01*
X202766326Y-130750000D01*
X203544518Y-130750000D01*
X203551114Y-130749646D01*
X203599667Y-130744426D01*
X203614641Y-130740888D01*
X203733777Y-130696452D01*
X203749194Y-130688035D01*
X203801689Y-130648737D01*
X203864947Y-130624497D01*
X203931504Y-130637119D01*
X203981495Y-130682836D01*
X204000000Y-130748003D01*
X204000000Y-142751997D01*
X203981495Y-142817164D01*
X203931504Y-142862881D01*
X203864947Y-142875503D01*
X203801689Y-142851263D01*
X203749194Y-142811964D01*
X203733777Y-142803547D01*
X203614641Y-142759111D01*
X203599667Y-142755573D01*
X203551114Y-142750353D01*
X203544518Y-142750000D01*
X202766326Y-142750000D01*
X202753450Y-142753450D01*
X202750000Y-142766326D01*
X202750000Y-144733674D01*
X202753450Y-144746549D01*
X202766326Y-144750000D01*
X203544518Y-144750000D01*
X203551114Y-144749646D01*
X203599667Y-144744426D01*
X203614641Y-144740888D01*
X203733777Y-144696452D01*
X203749194Y-144688035D01*
X203801689Y-144648737D01*
X203864947Y-144624497D01*
X203931504Y-144637119D01*
X203981495Y-144682836D01*
X204000000Y-144748003D01*
X204000000Y-146450500D01*
X203983387Y-146512500D01*
X203938000Y-146557887D01*
X203876000Y-146574500D01*
X198864115Y-146574500D01*
X198799324Y-146556226D01*
X198759302Y-146512929D01*
X198758695Y-146513371D01*
X198754966Y-146508238D01*
X198753629Y-146506792D01*
X198748528Y-146496780D01*
X198653220Y-146401472D01*
X198533126Y-146340281D01*
X198523489Y-146338754D01*
X198523484Y-146338753D01*
X198438308Y-146325263D01*
X198438302Y-146325262D01*
X198433488Y-146324500D01*
X197866512Y-146324500D01*
X197861698Y-146325262D01*
X197861691Y-146325263D01*
X197776515Y-146338753D01*
X197776508Y-146338755D01*
X197766874Y-146340281D01*
X197758178Y-146344711D01*
X197758177Y-146344712D01*
X197655475Y-146397041D01*
X197655471Y-146397043D01*
X197646780Y-146401472D01*
X197639881Y-146408370D01*
X197639878Y-146408373D01*
X197558372Y-146489879D01*
X197558369Y-146489882D01*
X197551472Y-146496780D01*
X197546370Y-146506792D01*
X197545033Y-146508238D01*
X197541305Y-146513371D01*
X197540697Y-146512929D01*
X197500676Y-146556226D01*
X197435885Y-146574500D01*
X196916536Y-146574500D01*
X196851748Y-146556228D01*
X196806053Y-146506798D01*
X196804091Y-146502947D01*
X196804087Y-146502941D01*
X196799658Y-146494249D01*
X196705751Y-146400342D01*
X196587420Y-146340049D01*
X196577783Y-146338522D01*
X196577778Y-146338521D01*
X196494066Y-146325263D01*
X196494060Y-146325262D01*
X196489246Y-146324500D01*
X195985754Y-146324500D01*
X195980940Y-146325262D01*
X195980933Y-146325263D01*
X195897221Y-146338521D01*
X195897214Y-146338523D01*
X195887580Y-146340049D01*
X195878884Y-146344479D01*
X195878883Y-146344480D01*
X195777944Y-146395911D01*
X195777941Y-146395913D01*
X195769249Y-146400342D01*
X195762350Y-146407240D01*
X195762347Y-146407243D01*
X195682243Y-146487347D01*
X195682240Y-146487350D01*
X195675342Y-146494249D01*
X195670913Y-146502941D01*
X195670911Y-146502944D01*
X195619480Y-146603883D01*
X195615049Y-146612580D01*
X195613523Y-146622214D01*
X195613521Y-146622221D01*
X195600263Y-146705933D01*
X195600262Y-146705940D01*
X195599500Y-146710754D01*
X195599500Y-147289246D01*
X195600262Y-147294060D01*
X195600263Y-147294066D01*
X195613521Y-147377778D01*
X195613522Y-147377783D01*
X195615049Y-147387420D01*
X195619480Y-147396116D01*
X195658231Y-147472170D01*
X195675342Y-147505751D01*
X195769249Y-147599658D01*
X195887580Y-147659951D01*
X195985754Y-147675500D01*
X196484368Y-147675500D01*
X196489246Y-147675500D01*
X196587420Y-147659951D01*
X196705751Y-147599658D01*
X196799658Y-147505751D01*
X196831526Y-147443205D01*
X196877222Y-147393773D01*
X196942012Y-147375500D01*
X197435885Y-147375500D01*
X197500676Y-147393774D01*
X197540697Y-147437070D01*
X197541305Y-147436629D01*
X197545033Y-147441761D01*
X197546370Y-147443207D01*
X197551472Y-147453220D01*
X197558372Y-147460120D01*
X197570425Y-147472173D01*
X197599870Y-147519143D01*
X197605906Y-147574249D01*
X197587325Y-147626479D01*
X197547842Y-147665392D01*
X197453416Y-147723635D01*
X197442157Y-147732537D01*
X197332537Y-147842157D01*
X197323632Y-147853419D01*
X197242246Y-147985366D01*
X197236180Y-147998374D01*
X197187272Y-148145969D01*
X197184456Y-148159125D01*
X197175319Y-148248555D01*
X197175000Y-148254832D01*
X197175000Y-148258674D01*
X197178450Y-148271549D01*
X197191326Y-148275000D01*
X199108673Y-148275000D01*
X199121548Y-148271549D01*
X199124999Y-148258674D01*
X199124999Y-148254835D01*
X199124678Y-148248552D01*
X199115544Y-148159132D01*
X199112725Y-148145963D01*
X199063819Y-147998374D01*
X199057753Y-147985366D01*
X198976367Y-147853419D01*
X198967462Y-147842157D01*
X198857842Y-147732537D01*
X198846580Y-147723632D01*
X198752158Y-147665392D01*
X198712674Y-147626478D01*
X198694093Y-147574248D01*
X198700129Y-147519140D01*
X198729572Y-147472175D01*
X198748528Y-147453220D01*
X198753629Y-147443207D01*
X198754966Y-147441761D01*
X198758695Y-147436629D01*
X198759302Y-147437070D01*
X198799324Y-147393774D01*
X198864115Y-147375500D01*
X203876000Y-147375500D01*
X203938000Y-147392113D01*
X203983387Y-147437500D01*
X204000000Y-147499500D01*
X204000000Y-152175500D01*
X203983387Y-152237500D01*
X203938000Y-152282887D01*
X203876000Y-152299500D01*
X178504875Y-152299500D01*
X178495146Y-152299118D01*
X178306440Y-152284266D01*
X178287222Y-152281222D01*
X178107921Y-152238176D01*
X178089415Y-152232163D01*
X177919053Y-152161596D01*
X177901716Y-152152762D01*
X177744495Y-152056417D01*
X177728753Y-152044980D01*
X177588535Y-151925222D01*
X177574777Y-151911464D01*
X177455019Y-151771246D01*
X177443582Y-151755504D01*
X177347237Y-151598283D01*
X177338403Y-151580946D01*
X177324272Y-151546833D01*
X177267833Y-151410577D01*
X177261825Y-151392085D01*
X177218776Y-151212772D01*
X177215733Y-151193559D01*
X177209502Y-151114390D01*
X177200881Y-151004853D01*
X177200500Y-150995125D01*
X177200500Y-150400000D01*
X192394355Y-150400000D01*
X192395259Y-150407445D01*
X192413955Y-150561423D01*
X192413956Y-150561427D01*
X192414860Y-150568872D01*
X192417518Y-150575882D01*
X192417520Y-150575888D01*
X192472520Y-150720912D01*
X192475182Y-150727930D01*
X192479444Y-150734105D01*
X192479445Y-150734106D01*
X192567053Y-150861028D01*
X192571817Y-150867929D01*
X192699148Y-150980734D01*
X192849775Y-151059790D01*
X193014944Y-151100500D01*
X193177556Y-151100500D01*
X193185056Y-151100500D01*
X193350225Y-151059790D01*
X193500852Y-150980734D01*
X193628183Y-150867929D01*
X193632947Y-150861026D01*
X193633612Y-150860437D01*
X193637419Y-150856141D01*
X193637940Y-150856602D01*
X193677371Y-150821667D01*
X193735000Y-150807462D01*
X193792629Y-150821667D01*
X193832059Y-150856602D01*
X193832581Y-150856141D01*
X193836387Y-150860437D01*
X193837052Y-150861026D01*
X193841817Y-150867929D01*
X193969148Y-150980734D01*
X194119775Y-151059790D01*
X194284944Y-151100500D01*
X194447556Y-151100500D01*
X194455056Y-151100500D01*
X194620225Y-151059790D01*
X194770852Y-150980734D01*
X194898183Y-150867929D01*
X194994818Y-150727930D01*
X195055140Y-150568872D01*
X195075645Y-150400000D01*
X196094355Y-150400000D01*
X196095259Y-150407445D01*
X196113955Y-150561423D01*
X196113956Y-150561427D01*
X196114860Y-150568872D01*
X196117518Y-150575882D01*
X196117520Y-150575888D01*
X196172520Y-150720912D01*
X196175182Y-150727930D01*
X196179444Y-150734105D01*
X196179445Y-150734106D01*
X196267053Y-150861028D01*
X196271817Y-150867929D01*
X196399148Y-150980734D01*
X196549775Y-151059790D01*
X196714944Y-151100500D01*
X196877556Y-151100500D01*
X196885056Y-151100500D01*
X197050225Y-151059790D01*
X197147852Y-151008550D01*
X197202043Y-150994395D01*
X197256936Y-151005529D01*
X197301330Y-151039682D01*
X197355609Y-151105821D01*
X197364178Y-151114390D01*
X197507029Y-151231625D01*
X197517117Y-151238366D01*
X197680094Y-151325479D01*
X197691287Y-151330116D01*
X197806103Y-151364945D01*
X197817387Y-151365638D01*
X197820000Y-151354637D01*
X198320000Y-151354637D01*
X198322612Y-151365638D01*
X198333896Y-151364945D01*
X198448712Y-151330116D01*
X198459905Y-151325479D01*
X198622882Y-151238366D01*
X198632970Y-151231625D01*
X198775821Y-151114390D01*
X198784389Y-151105822D01*
X198838668Y-151039683D01*
X198883062Y-151005529D01*
X198937955Y-150994395D01*
X198992148Y-151008551D01*
X199089775Y-151059790D01*
X199254944Y-151100500D01*
X199417556Y-151100500D01*
X199425056Y-151100500D01*
X199590225Y-151059790D01*
X199740852Y-150980734D01*
X199868183Y-150867929D01*
X199872947Y-150861026D01*
X199873612Y-150860437D01*
X199877419Y-150856141D01*
X199877940Y-150856602D01*
X199917371Y-150821667D01*
X199975000Y-150807462D01*
X200032629Y-150821667D01*
X200072059Y-150856602D01*
X200072581Y-150856141D01*
X200076387Y-150860437D01*
X200077052Y-150861026D01*
X200081817Y-150867929D01*
X200209148Y-150980734D01*
X200359775Y-151059790D01*
X200524944Y-151100500D01*
X200687556Y-151100500D01*
X200695056Y-151100500D01*
X200860225Y-151059790D01*
X201010852Y-150980734D01*
X201138183Y-150867929D01*
X201142947Y-150861026D01*
X201143612Y-150860437D01*
X201147419Y-150856141D01*
X201147940Y-150856602D01*
X201187371Y-150821667D01*
X201245000Y-150807462D01*
X201302629Y-150821667D01*
X201342059Y-150856602D01*
X201342581Y-150856141D01*
X201346387Y-150860437D01*
X201347052Y-150861026D01*
X201351817Y-150867929D01*
X201479148Y-150980734D01*
X201629775Y-151059790D01*
X201794944Y-151100500D01*
X201957556Y-151100500D01*
X201965056Y-151100500D01*
X202130225Y-151059790D01*
X202280852Y-150980734D01*
X202408183Y-150867929D01*
X202504818Y-150727930D01*
X202565140Y-150568872D01*
X202585645Y-150400000D01*
X202565140Y-150231128D01*
X202504818Y-150072070D01*
X202408183Y-149932071D01*
X202280852Y-149819266D01*
X202227852Y-149791449D01*
X202136866Y-149743695D01*
X202136862Y-149743693D01*
X202130225Y-149740210D01*
X202122947Y-149738416D01*
X202122944Y-149738415D01*
X201972337Y-149701294D01*
X201972332Y-149701293D01*
X201965056Y-149699500D01*
X201794944Y-149699500D01*
X201787668Y-149701293D01*
X201787662Y-149701294D01*
X201637055Y-149738415D01*
X201637050Y-149738416D01*
X201629775Y-149740210D01*
X201623140Y-149743692D01*
X201623133Y-149743695D01*
X201485791Y-149815779D01*
X201485788Y-149815780D01*
X201479148Y-149819266D01*
X201473537Y-149824236D01*
X201473531Y-149824241D01*
X201357430Y-149927098D01*
X201351817Y-149932071D01*
X201347562Y-149938234D01*
X201347555Y-149938243D01*
X201347049Y-149938978D01*
X201346380Y-149939569D01*
X201342581Y-149943859D01*
X201342060Y-149943397D01*
X201302625Y-149978334D01*
X201245000Y-149992537D01*
X201187375Y-149978334D01*
X201147939Y-149943397D01*
X201147419Y-149943859D01*
X201143619Y-149939569D01*
X201142951Y-149938978D01*
X201142444Y-149938243D01*
X201142440Y-149938239D01*
X201138183Y-149932071D01*
X201010852Y-149819266D01*
X200957852Y-149791449D01*
X200866866Y-149743695D01*
X200866862Y-149743693D01*
X200860225Y-149740210D01*
X200852947Y-149738416D01*
X200852944Y-149738415D01*
X200702337Y-149701294D01*
X200702332Y-149701293D01*
X200695056Y-149699500D01*
X200524944Y-149699500D01*
X200517668Y-149701293D01*
X200517662Y-149701294D01*
X200367055Y-149738415D01*
X200367050Y-149738416D01*
X200359775Y-149740210D01*
X200353140Y-149743692D01*
X200353133Y-149743695D01*
X200215791Y-149815779D01*
X200215788Y-149815780D01*
X200209148Y-149819266D01*
X200203537Y-149824236D01*
X200203531Y-149824241D01*
X200087430Y-149927098D01*
X200081817Y-149932071D01*
X200077562Y-149938234D01*
X200077555Y-149938243D01*
X200077049Y-149938978D01*
X200076380Y-149939569D01*
X200072581Y-149943859D01*
X200072060Y-149943397D01*
X200032625Y-149978334D01*
X199975000Y-149992537D01*
X199917375Y-149978334D01*
X199877939Y-149943397D01*
X199877419Y-149943859D01*
X199873619Y-149939569D01*
X199872951Y-149938978D01*
X199872444Y-149938243D01*
X199872440Y-149938239D01*
X199868183Y-149932071D01*
X199740852Y-149819266D01*
X199687852Y-149791449D01*
X199596866Y-149743695D01*
X199596862Y-149743693D01*
X199590225Y-149740210D01*
X199582947Y-149738416D01*
X199582944Y-149738415D01*
X199432337Y-149701294D01*
X199432332Y-149701293D01*
X199425056Y-149699500D01*
X199254944Y-149699500D01*
X199247668Y-149701293D01*
X199247662Y-149701294D01*
X199097055Y-149738415D01*
X199097050Y-149738416D01*
X199089775Y-149740210D01*
X199083139Y-149743692D01*
X199083136Y-149743694D01*
X198992147Y-149791449D01*
X198937955Y-149805604D01*
X198883062Y-149794470D01*
X198838669Y-149760317D01*
X198784390Y-149694178D01*
X198775821Y-149685609D01*
X198690041Y-149615211D01*
X198653508Y-149565243D01*
X198645681Y-149503841D01*
X198668510Y-149446305D01*
X198709246Y-149412783D01*
X198708484Y-149411547D01*
X198846580Y-149326367D01*
X198857842Y-149317462D01*
X198967462Y-149207842D01*
X198976367Y-149196580D01*
X199057753Y-149064633D01*
X199063819Y-149051625D01*
X199112727Y-148904030D01*
X199115543Y-148890874D01*
X199124680Y-148801444D01*
X199125000Y-148795168D01*
X199125000Y-148791326D01*
X199121549Y-148778450D01*
X199108674Y-148775000D01*
X198416326Y-148775000D01*
X198403450Y-148778450D01*
X198400000Y-148791326D01*
X198400000Y-149402790D01*
X198388382Y-149455195D01*
X198355705Y-149497780D01*
X198329611Y-149511363D01*
X198323788Y-149517186D01*
X198320000Y-149531326D01*
X198320000Y-151354637D01*
X197820000Y-151354637D01*
X197820000Y-149472210D01*
X197831618Y-149419805D01*
X197864295Y-149377220D01*
X197890388Y-149363636D01*
X197896211Y-149357813D01*
X197900000Y-149343674D01*
X197900000Y-148791326D01*
X197896549Y-148778450D01*
X197883674Y-148775000D01*
X197191327Y-148775000D01*
X197178451Y-148778450D01*
X197175001Y-148791326D01*
X197175001Y-148795165D01*
X197175321Y-148801447D01*
X197184455Y-148890867D01*
X197187274Y-148904036D01*
X197236180Y-149051625D01*
X197242246Y-149064633D01*
X197323632Y-149196580D01*
X197332537Y-149207842D01*
X197442157Y-149317462D01*
X197453419Y-149326367D01*
X197505289Y-149358361D01*
X197547915Y-149402485D01*
X197564171Y-149461643D01*
X197550078Y-149521354D01*
X197511541Y-149564264D01*
X197511741Y-149564507D01*
X197510154Y-149565808D01*
X197509085Y-149567000D01*
X197507030Y-149568372D01*
X197364178Y-149685609D01*
X197355613Y-149694174D01*
X197301330Y-149760318D01*
X197256936Y-149794470D01*
X197202044Y-149805604D01*
X197147852Y-149791449D01*
X197050225Y-149740210D01*
X197042947Y-149738416D01*
X197042944Y-149738415D01*
X196892337Y-149701294D01*
X196892332Y-149701293D01*
X196885056Y-149699500D01*
X196714944Y-149699500D01*
X196707668Y-149701293D01*
X196707662Y-149701294D01*
X196557055Y-149738415D01*
X196557050Y-149738416D01*
X196549775Y-149740210D01*
X196543140Y-149743692D01*
X196543133Y-149743695D01*
X196405791Y-149815779D01*
X196405788Y-149815780D01*
X196399148Y-149819266D01*
X196393537Y-149824236D01*
X196393531Y-149824241D01*
X196277430Y-149927098D01*
X196271817Y-149932071D01*
X196267562Y-149938235D01*
X196267557Y-149938241D01*
X196179445Y-150065893D01*
X196179442Y-150065897D01*
X196175182Y-150072070D01*
X196172523Y-150079081D01*
X196172520Y-150079087D01*
X196117520Y-150224111D01*
X196117517Y-150224119D01*
X196114860Y-150231128D01*
X196113956Y-150238570D01*
X196113955Y-150238576D01*
X196095356Y-150391755D01*
X196094355Y-150400000D01*
X195075645Y-150400000D01*
X195055140Y-150231128D01*
X194994818Y-150072070D01*
X194898183Y-149932071D01*
X194770852Y-149819266D01*
X194717852Y-149791449D01*
X194626866Y-149743695D01*
X194626862Y-149743693D01*
X194620225Y-149740210D01*
X194612947Y-149738416D01*
X194612944Y-149738415D01*
X194462337Y-149701294D01*
X194462332Y-149701293D01*
X194455056Y-149699500D01*
X194284944Y-149699500D01*
X194277668Y-149701293D01*
X194277662Y-149701294D01*
X194127055Y-149738415D01*
X194127050Y-149738416D01*
X194119775Y-149740210D01*
X194113140Y-149743692D01*
X194113133Y-149743695D01*
X193975791Y-149815779D01*
X193975788Y-149815780D01*
X193969148Y-149819266D01*
X193963537Y-149824236D01*
X193963531Y-149824241D01*
X193847430Y-149927098D01*
X193841817Y-149932071D01*
X193837562Y-149938234D01*
X193837555Y-149938243D01*
X193837049Y-149938978D01*
X193836380Y-149939569D01*
X193832581Y-149943859D01*
X193832060Y-149943397D01*
X193792625Y-149978334D01*
X193735000Y-149992537D01*
X193677375Y-149978334D01*
X193637939Y-149943397D01*
X193637419Y-149943859D01*
X193633619Y-149939569D01*
X193632951Y-149938978D01*
X193632444Y-149938243D01*
X193632440Y-149938239D01*
X193628183Y-149932071D01*
X193500852Y-149819266D01*
X193447852Y-149791449D01*
X193356866Y-149743695D01*
X193356862Y-149743693D01*
X193350225Y-149740210D01*
X193342947Y-149738416D01*
X193342944Y-149738415D01*
X193202736Y-149703857D01*
X193145248Y-149671657D01*
X193112373Y-149614553D01*
X193113391Y-149548670D01*
X193148017Y-149492610D01*
X193198159Y-149466527D01*
X193197606Y-149464856D01*
X193351625Y-149413819D01*
X193364633Y-149407753D01*
X193496580Y-149326367D01*
X193507842Y-149317462D01*
X193617462Y-149207842D01*
X193626367Y-149196580D01*
X193707753Y-149064633D01*
X193713819Y-149051625D01*
X193762727Y-148904030D01*
X193765543Y-148890874D01*
X193774680Y-148801444D01*
X193775000Y-148795168D01*
X193775000Y-148791326D01*
X193771549Y-148778450D01*
X193758674Y-148775000D01*
X193066326Y-148775000D01*
X193053450Y-148778450D01*
X193050000Y-148791326D01*
X193050000Y-149458673D01*
X193053788Y-149472812D01*
X193072507Y-149491531D01*
X193104761Y-149547722D01*
X193104272Y-149612510D01*
X193071173Y-149668208D01*
X193014501Y-149699609D01*
X192857055Y-149738415D01*
X192857050Y-149738416D01*
X192849775Y-149740210D01*
X192843140Y-149743692D01*
X192843133Y-149743695D01*
X192705791Y-149815779D01*
X192705788Y-149815780D01*
X192699148Y-149819266D01*
X192693537Y-149824236D01*
X192693531Y-149824241D01*
X192577430Y-149927098D01*
X192571817Y-149932071D01*
X192567562Y-149938235D01*
X192567557Y-149938241D01*
X192479445Y-150065893D01*
X192479442Y-150065897D01*
X192475182Y-150072070D01*
X192472523Y-150079081D01*
X192472520Y-150079087D01*
X192417520Y-150224111D01*
X192417517Y-150224119D01*
X192414860Y-150231128D01*
X192413956Y-150238570D01*
X192413955Y-150238576D01*
X192395356Y-150391755D01*
X192394355Y-150400000D01*
X177200500Y-150400000D01*
X177200500Y-148795165D01*
X191825001Y-148795165D01*
X191825321Y-148801447D01*
X191834455Y-148890867D01*
X191837274Y-148904036D01*
X191886180Y-149051625D01*
X191892246Y-149064633D01*
X191973632Y-149196580D01*
X191982537Y-149207842D01*
X192092157Y-149317462D01*
X192103419Y-149326367D01*
X192235366Y-149407753D01*
X192248374Y-149413819D01*
X192395969Y-149462727D01*
X192409125Y-149465543D01*
X192498555Y-149474680D01*
X192504832Y-149475000D01*
X192533674Y-149475000D01*
X192546549Y-149471549D01*
X192550000Y-149458674D01*
X192550000Y-148791326D01*
X192546549Y-148778450D01*
X192533674Y-148775000D01*
X191841327Y-148775000D01*
X191828451Y-148778450D01*
X191825001Y-148791326D01*
X191825001Y-148795165D01*
X177200500Y-148795165D01*
X177200500Y-144088173D01*
X177204766Y-144072002D01*
X177200500Y-144055312D01*
X177200500Y-124022296D01*
X177212989Y-123973436D01*
X177434311Y-123973436D01*
X177447311Y-124005165D01*
X177448311Y-124012334D01*
X177449500Y-124029465D01*
X177449500Y-144048144D01*
X177449251Y-144051724D01*
X177447227Y-144057765D01*
X177447757Y-144069243D01*
X177447311Y-144072445D01*
X177446131Y-144075322D01*
X177448368Y-144082447D01*
X177449368Y-144104080D01*
X177449500Y-144109806D01*
X177449500Y-144127844D01*
X177450552Y-144133471D01*
X177450635Y-144134368D01*
X177451031Y-144140072D01*
X177451690Y-144154311D01*
X177452415Y-144169992D01*
X177457054Y-144180499D01*
X177458792Y-144187888D01*
X177460082Y-144192052D01*
X177462827Y-144199137D01*
X177464939Y-144210433D01*
X177479001Y-144233146D01*
X177487003Y-144248327D01*
X177493152Y-144262254D01*
X177493153Y-144262256D01*
X177497794Y-144272765D01*
X177505917Y-144280888D01*
X177510209Y-144287153D01*
X177512915Y-144290569D01*
X177518031Y-144296181D01*
X177524081Y-144305952D01*
X177545396Y-144322048D01*
X177558351Y-144333322D01*
X179425841Y-146200812D01*
X179428202Y-146203525D01*
X179431042Y-146209228D01*
X179439530Y-146216966D01*
X179439531Y-146216967D01*
X179465317Y-146240474D01*
X179469458Y-146244429D01*
X179482203Y-146257174D01*
X179486930Y-146260412D01*
X179487621Y-146260986D01*
X179491928Y-146264733D01*
X179514067Y-146284916D01*
X179524782Y-146289067D01*
X179531246Y-146293069D01*
X179535074Y-146295087D01*
X179542039Y-146298162D01*
X179551519Y-146304656D01*
X179562706Y-146307287D01*
X179577506Y-146310768D01*
X179593912Y-146315848D01*
X179608108Y-146321348D01*
X179608111Y-146321348D01*
X179618827Y-146325500D01*
X179630320Y-146325500D01*
X179637794Y-146326897D01*
X179642094Y-146327396D01*
X179649692Y-146327747D01*
X179660881Y-146330379D01*
X179687332Y-146326689D01*
X179704465Y-146325500D01*
X181341499Y-146325500D01*
X181393011Y-146336706D01*
X181435212Y-146368298D01*
X181463063Y-146400441D01*
X181463069Y-146400446D01*
X181468872Y-146407143D01*
X181589947Y-146484953D01*
X181728039Y-146525500D01*
X181863090Y-146525500D01*
X181871961Y-146525500D01*
X182010053Y-146484953D01*
X182131128Y-146407143D01*
X182225377Y-146298373D01*
X182285165Y-146167457D01*
X182305647Y-146025000D01*
X182285165Y-145882543D01*
X182225377Y-145751627D01*
X182164787Y-145681702D01*
X182136934Y-145649557D01*
X182136932Y-145649555D01*
X182131128Y-145642857D01*
X182010053Y-145565047D01*
X181933118Y-145542457D01*
X181880473Y-145526999D01*
X181880470Y-145526998D01*
X181871961Y-145524500D01*
X181728039Y-145524500D01*
X181719530Y-145526998D01*
X181719526Y-145526999D01*
X181598461Y-145562547D01*
X181589947Y-145565047D01*
X181582484Y-145569842D01*
X181582484Y-145569843D01*
X181476329Y-145638064D01*
X181476325Y-145638066D01*
X181468872Y-145642857D01*
X181463073Y-145649549D01*
X181463063Y-145649558D01*
X181435212Y-145681702D01*
X181393011Y-145713294D01*
X181341499Y-145724500D01*
X179850833Y-145724500D01*
X179803380Y-145715061D01*
X179763152Y-145688181D01*
X178086819Y-144011848D01*
X178059939Y-143971620D01*
X178050500Y-143924167D01*
X178050500Y-142995056D01*
X178524500Y-142995056D01*
X178526293Y-143002332D01*
X178526294Y-143002337D01*
X178562952Y-143151065D01*
X178565210Y-143160225D01*
X178568693Y-143166862D01*
X178568695Y-143166866D01*
X178613377Y-143251999D01*
X178644266Y-143310852D01*
X178649239Y-143316466D01*
X178649241Y-143316468D01*
X178687252Y-143359374D01*
X178757071Y-143438183D01*
X178897070Y-143534818D01*
X178904088Y-143537479D01*
X178904087Y-143537479D01*
X179043452Y-143590333D01*
X179056128Y-143595140D01*
X179182628Y-143610500D01*
X180063623Y-143610500D01*
X180067372Y-143610500D01*
X180193872Y-143595140D01*
X180352930Y-143534818D01*
X180492929Y-143438183D01*
X180526756Y-143400000D01*
X181630828Y-143400000D01*
X181633211Y-143411980D01*
X181636000Y-143426002D01*
X181648934Y-143491032D01*
X181648935Y-143491036D01*
X181651317Y-143503008D01*
X181709667Y-143590333D01*
X181721438Y-143598198D01*
X181721553Y-143598275D01*
X181740345Y-143613697D01*
X182436299Y-144309651D01*
X182451719Y-144328439D01*
X182452883Y-144330181D01*
X182459667Y-144340333D01*
X182546992Y-144398683D01*
X182623998Y-144414000D01*
X182624002Y-144414000D01*
X182650000Y-144419171D01*
X182664022Y-144416381D01*
X182688212Y-144414000D01*
X183109873Y-144414000D01*
X183161385Y-144425206D01*
X183203585Y-144456797D01*
X183207867Y-144461739D01*
X183263065Y-144525442D01*
X183263067Y-144525444D01*
X183268872Y-144532143D01*
X183389947Y-144609953D01*
X183528039Y-144650500D01*
X183663090Y-144650500D01*
X183671961Y-144650500D01*
X183810053Y-144609953D01*
X183931128Y-144532143D01*
X184025377Y-144423373D01*
X184085165Y-144292457D01*
X184105647Y-144150000D01*
X184085165Y-144007543D01*
X184025377Y-143876627D01*
X183972584Y-143815700D01*
X183943561Y-143752146D01*
X183953505Y-143682988D01*
X183999260Y-143630184D01*
X184066299Y-143610500D01*
X184312000Y-143610500D01*
X184374000Y-143627113D01*
X184419387Y-143672500D01*
X184436000Y-143734500D01*
X184436000Y-144414286D01*
X184426561Y-144461739D01*
X184399681Y-144501967D01*
X183462985Y-145438661D01*
X183414474Y-145468631D01*
X183371961Y-145472441D01*
X183371961Y-145474500D01*
X183228039Y-145474500D01*
X183219530Y-145476998D01*
X183219526Y-145476999D01*
X183098461Y-145512547D01*
X183089947Y-145515047D01*
X183082484Y-145519842D01*
X183082484Y-145519843D01*
X182976329Y-145588064D01*
X182976325Y-145588066D01*
X182968872Y-145592857D01*
X182963070Y-145599551D01*
X182963065Y-145599557D01*
X182880431Y-145694923D01*
X182880428Y-145694927D01*
X182874623Y-145701627D01*
X182870941Y-145709689D01*
X182870938Y-145709694D01*
X182822644Y-145815443D01*
X182814835Y-145832543D01*
X182813573Y-145841316D01*
X182813572Y-145841322D01*
X182805064Y-145900500D01*
X182794353Y-145975000D01*
X182797423Y-145996359D01*
X182813572Y-146108677D01*
X182813573Y-146108681D01*
X182814835Y-146117457D01*
X182818519Y-146125525D01*
X182818520Y-146125526D01*
X182841354Y-146175526D01*
X182874623Y-146248373D01*
X182880430Y-146255075D01*
X182880431Y-146255076D01*
X182963065Y-146350442D01*
X182963067Y-146350444D01*
X182968872Y-146357143D01*
X183089947Y-146434953D01*
X183228039Y-146475500D01*
X183363090Y-146475500D01*
X183371961Y-146475500D01*
X183510053Y-146434953D01*
X183631128Y-146357143D01*
X183725377Y-146248373D01*
X183785165Y-146117457D01*
X183805647Y-145975000D01*
X183797850Y-145920770D01*
X183802934Y-145863965D01*
X183832905Y-145815445D01*
X184859655Y-144788695D01*
X184878448Y-144773274D01*
X184880178Y-144772118D01*
X184880177Y-144772118D01*
X184890333Y-144765333D01*
X184948683Y-144678008D01*
X184964000Y-144601002D01*
X184969172Y-144575000D01*
X184966381Y-144560969D01*
X184964000Y-144536787D01*
X184964000Y-143810714D01*
X184973439Y-143763261D01*
X185000319Y-143723033D01*
X185087819Y-143635533D01*
X185137182Y-143605283D01*
X185194898Y-143600741D01*
X185248385Y-143622896D01*
X185285985Y-143666919D01*
X185299500Y-143723214D01*
X185299500Y-144269748D01*
X185300688Y-144275723D01*
X185300689Y-144275728D01*
X185305543Y-144300128D01*
X185311133Y-144328231D01*
X185317916Y-144338383D01*
X185317917Y-144338384D01*
X185332570Y-144360314D01*
X185355448Y-144394552D01*
X185421769Y-144438867D01*
X185480252Y-144450500D01*
X186582745Y-144450500D01*
X186630198Y-144459939D01*
X186670426Y-144486819D01*
X189464091Y-147280484D01*
X189464094Y-147280486D01*
X189486658Y-147303050D01*
X189495353Y-147307480D01*
X189495354Y-147307481D01*
X189506396Y-147313107D01*
X189522980Y-147323269D01*
X189540911Y-147336296D01*
X189561982Y-147343142D01*
X189579951Y-147350585D01*
X189599696Y-147360646D01*
X189621576Y-147364111D01*
X189640501Y-147368655D01*
X189661567Y-147375500D01*
X189693481Y-147375500D01*
X189788433Y-147375500D01*
X192085885Y-147375500D01*
X192150676Y-147393774D01*
X192190697Y-147437070D01*
X192191305Y-147436629D01*
X192195033Y-147441761D01*
X192196370Y-147443207D01*
X192201472Y-147453220D01*
X192208372Y-147460120D01*
X192220425Y-147472173D01*
X192249870Y-147519143D01*
X192255906Y-147574249D01*
X192237325Y-147626479D01*
X192197842Y-147665392D01*
X192103416Y-147723635D01*
X192092157Y-147732537D01*
X191982537Y-147842157D01*
X191973632Y-147853419D01*
X191892246Y-147985366D01*
X191886180Y-147998374D01*
X191837272Y-148145969D01*
X191834456Y-148159125D01*
X191825319Y-148248555D01*
X191825000Y-148254832D01*
X191825000Y-148258674D01*
X191828450Y-148271549D01*
X191841326Y-148275000D01*
X193758673Y-148275000D01*
X193771548Y-148271549D01*
X193774999Y-148258674D01*
X193774999Y-148254835D01*
X193774678Y-148248552D01*
X193765544Y-148159132D01*
X193762725Y-148145963D01*
X193713819Y-147998374D01*
X193707753Y-147985366D01*
X193626367Y-147853419D01*
X193617462Y-147842157D01*
X193507842Y-147732537D01*
X193496580Y-147723632D01*
X193402158Y-147665392D01*
X193362674Y-147626478D01*
X193344093Y-147574248D01*
X193350129Y-147519140D01*
X193379572Y-147472175D01*
X193398528Y-147453220D01*
X193400531Y-147449288D01*
X193441830Y-147414015D01*
X193498125Y-147400500D01*
X193970726Y-147400500D01*
X194035515Y-147418772D01*
X194081210Y-147468204D01*
X194095909Y-147497053D01*
X194095912Y-147497058D01*
X194100342Y-147505751D01*
X194194249Y-147599658D01*
X194312580Y-147659951D01*
X194410754Y-147675500D01*
X194909368Y-147675500D01*
X194914246Y-147675500D01*
X195012420Y-147659951D01*
X195130751Y-147599658D01*
X195224658Y-147505751D01*
X195284951Y-147387420D01*
X195300500Y-147289246D01*
X195300500Y-146710754D01*
X195284951Y-146612580D01*
X195224658Y-146494249D01*
X195130751Y-146400342D01*
X195012420Y-146340049D01*
X195002783Y-146338522D01*
X195002778Y-146338521D01*
X194919066Y-146325263D01*
X194919060Y-146325262D01*
X194914246Y-146324500D01*
X194909368Y-146324500D01*
X194894976Y-146324500D01*
X194835548Y-146309331D01*
X194790659Y-146267537D01*
X194771292Y-146209341D01*
X194780300Y-146159420D01*
X194778982Y-146159033D01*
X194781479Y-146150526D01*
X194785165Y-146142457D01*
X194805647Y-146000000D01*
X194785165Y-145857543D01*
X194725377Y-145726627D01*
X194631128Y-145617857D01*
X194623668Y-145613063D01*
X194623665Y-145613060D01*
X194610828Y-145604811D01*
X194582718Y-145580011D01*
X194563304Y-145547945D01*
X194561898Y-145544551D01*
X194559515Y-145532569D01*
X194498624Y-145441440D01*
X194488470Y-145434655D01*
X194488469Y-145434654D01*
X194485775Y-145432854D01*
X194466986Y-145417434D01*
X193832563Y-144783011D01*
X193817146Y-144764226D01*
X193808560Y-144751376D01*
X193785559Y-144736007D01*
X193785558Y-144736006D01*
X193749118Y-144711658D01*
X193717431Y-144690485D01*
X193705453Y-144688102D01*
X193705450Y-144688101D01*
X193637069Y-144674500D01*
X193637068Y-144674500D01*
X193609936Y-144669103D01*
X193597956Y-144671486D01*
X193594784Y-144672117D01*
X193570592Y-144674500D01*
X190730163Y-144674500D01*
X190678652Y-144663294D01*
X190636450Y-144631703D01*
X190630206Y-144624497D01*
X190581128Y-144567857D01*
X190570422Y-144560977D01*
X190525556Y-144532143D01*
X190460053Y-144490047D01*
X190363644Y-144461739D01*
X190330473Y-144451999D01*
X190330470Y-144451998D01*
X190321961Y-144449500D01*
X190178039Y-144449500D01*
X190169530Y-144451998D01*
X190169526Y-144451999D01*
X190048461Y-144487547D01*
X190039947Y-144490047D01*
X190032484Y-144494842D01*
X190032484Y-144494843D01*
X189926329Y-144563064D01*
X189926325Y-144563066D01*
X189918872Y-144567857D01*
X189913070Y-144574551D01*
X189913065Y-144574557D01*
X189830431Y-144669923D01*
X189830428Y-144669927D01*
X189824623Y-144676627D01*
X189820941Y-144684689D01*
X189820938Y-144684694D01*
X189773440Y-144788700D01*
X189764835Y-144807543D01*
X189763573Y-144816316D01*
X189763572Y-144816322D01*
X189751614Y-144899500D01*
X189744353Y-144950000D01*
X189745615Y-144958777D01*
X189763572Y-145083677D01*
X189763573Y-145083681D01*
X189764835Y-145092457D01*
X189824623Y-145223373D01*
X189830430Y-145230075D01*
X189830431Y-145230076D01*
X189913065Y-145325442D01*
X189913067Y-145325444D01*
X189918872Y-145332143D01*
X190039947Y-145409953D01*
X190178039Y-145450500D01*
X190313090Y-145450500D01*
X190321961Y-145450500D01*
X190460053Y-145409953D01*
X190581128Y-145332143D01*
X190636451Y-145268296D01*
X190678652Y-145236706D01*
X190730163Y-145225500D01*
X193444458Y-145225500D01*
X193491911Y-145234939D01*
X193532139Y-145261819D01*
X193852735Y-145582415D01*
X193882233Y-145629537D01*
X193888178Y-145684811D01*
X193873356Y-145726048D01*
X193874623Y-145726627D01*
X193829938Y-145824473D01*
X193814835Y-145857543D01*
X193813573Y-145866316D01*
X193813572Y-145866322D01*
X193805744Y-145920771D01*
X193794353Y-146000000D01*
X193797423Y-146021359D01*
X193813572Y-146133677D01*
X193813573Y-146133681D01*
X193814835Y-146142457D01*
X193818519Y-146150525D01*
X193818520Y-146150526D01*
X193863205Y-146248373D01*
X193874623Y-146273373D01*
X193880430Y-146280075D01*
X193880431Y-146280076D01*
X193951362Y-146361935D01*
X193968872Y-146382143D01*
X193972105Y-146384220D01*
X194004738Y-146430514D01*
X194012378Y-146489637D01*
X193991544Y-146545492D01*
X193947052Y-146585170D01*
X193889186Y-146599500D01*
X193526853Y-146599500D01*
X193462063Y-146581227D01*
X193416368Y-146531794D01*
X193411887Y-146523000D01*
X193408023Y-146515416D01*
X193402958Y-146505474D01*
X193402956Y-146505471D01*
X193398528Y-146496780D01*
X193303220Y-146401472D01*
X193183126Y-146340281D01*
X193173489Y-146338754D01*
X193173484Y-146338753D01*
X193088308Y-146325263D01*
X193088302Y-146325262D01*
X193083488Y-146324500D01*
X192516512Y-146324500D01*
X192511698Y-146325262D01*
X192511691Y-146325263D01*
X192426515Y-146338753D01*
X192426508Y-146338755D01*
X192416874Y-146340281D01*
X192408178Y-146344711D01*
X192408177Y-146344712D01*
X192305475Y-146397041D01*
X192305471Y-146397043D01*
X192296780Y-146401472D01*
X192289881Y-146408370D01*
X192289878Y-146408373D01*
X192208372Y-146489879D01*
X192208369Y-146489882D01*
X192201472Y-146496780D01*
X192196370Y-146506792D01*
X192195033Y-146508238D01*
X192191305Y-146513371D01*
X192190697Y-146512929D01*
X192150676Y-146556226D01*
X192085885Y-146574500D01*
X189942255Y-146574500D01*
X189894802Y-146565061D01*
X189854574Y-146538181D01*
X187728393Y-144412000D01*
X187697413Y-144360314D01*
X187694457Y-144300128D01*
X187696358Y-144290569D01*
X187700500Y-144269748D01*
X187700500Y-143288000D01*
X187717113Y-143226000D01*
X187762500Y-143180613D01*
X187824500Y-143164000D01*
X191748593Y-143164000D01*
X191772775Y-143166381D01*
X191786806Y-143169172D01*
X191889814Y-143148683D01*
X191933051Y-143119792D01*
X191955096Y-143105063D01*
X191955104Y-143105056D01*
X191966984Y-143097118D01*
X191966983Y-143097118D01*
X191977139Y-143090333D01*
X191985079Y-143078448D01*
X192000501Y-143059655D01*
X192647392Y-142412764D01*
X192695910Y-142382793D01*
X192738417Y-142378989D01*
X192738417Y-142376928D01*
X192873468Y-142376928D01*
X192882339Y-142376928D01*
X193020431Y-142336381D01*
X193141506Y-142258571D01*
X193235755Y-142149801D01*
X193295543Y-142018885D01*
X193316025Y-141876428D01*
X193295543Y-141733971D01*
X193235755Y-141603055D01*
X193141506Y-141494285D01*
X193020431Y-141416475D01*
X192965241Y-141400269D01*
X192890851Y-141378427D01*
X192890848Y-141378426D01*
X192882339Y-141375928D01*
X192738417Y-141375928D01*
X192729908Y-141378426D01*
X192729904Y-141378427D01*
X192608839Y-141413975D01*
X192600325Y-141416475D01*
X192592862Y-141421270D01*
X192592862Y-141421271D01*
X192486707Y-141489492D01*
X192486703Y-141489494D01*
X192479250Y-141494285D01*
X192473448Y-141500979D01*
X192473443Y-141500985D01*
X192390809Y-141596351D01*
X192390806Y-141596355D01*
X192385001Y-141603055D01*
X192381319Y-141611117D01*
X192381316Y-141611122D01*
X192369158Y-141637745D01*
X192325213Y-141733971D01*
X192323951Y-141742744D01*
X192323950Y-141742750D01*
X192319999Y-141770233D01*
X192304731Y-141876428D01*
X192305993Y-141885205D01*
X192305993Y-141885206D01*
X192312527Y-141930655D01*
X192307443Y-141987461D01*
X192277470Y-142035982D01*
X191713773Y-142599681D01*
X191673545Y-142626561D01*
X191626092Y-142636000D01*
X188068271Y-142636000D01*
X188010796Y-142621876D01*
X187966415Y-142582720D01*
X187945238Y-142527454D01*
X187952089Y-142468667D01*
X187990888Y-142364641D01*
X187994426Y-142349667D01*
X187999646Y-142301114D01*
X188000000Y-142294518D01*
X188000000Y-142016326D01*
X187996549Y-142003450D01*
X187983674Y-142000000D01*
X185016326Y-142000000D01*
X185003450Y-142003450D01*
X185000000Y-142016326D01*
X185000000Y-142267778D01*
X184982117Y-142331928D01*
X184933625Y-142377575D01*
X184868513Y-142391552D01*
X184805560Y-142369828D01*
X184689106Y-142289445D01*
X184689105Y-142289444D01*
X184682930Y-142285182D01*
X184675915Y-142282521D01*
X184675912Y-142282520D01*
X184530888Y-142227520D01*
X184530882Y-142227518D01*
X184523872Y-142224860D01*
X184516427Y-142223956D01*
X184516423Y-142223955D01*
X184401092Y-142209951D01*
X184401080Y-142209950D01*
X184397372Y-142209500D01*
X183663054Y-142209500D01*
X183601054Y-142192887D01*
X183555667Y-142147500D01*
X183539054Y-142085500D01*
X183555667Y-142023500D01*
X183595769Y-141983397D01*
X183595233Y-141982698D01*
X183595233Y-141982697D01*
X183715451Y-141890451D01*
X183807698Y-141770233D01*
X183865687Y-141630236D01*
X183885466Y-141480000D01*
X183865687Y-141329764D01*
X183807698Y-141189767D01*
X183802753Y-141183322D01*
X183802751Y-141183319D01*
X183720394Y-141075991D01*
X183715451Y-141069549D01*
X183709008Y-141064605D01*
X183709005Y-141064602D01*
X183607059Y-140986376D01*
X183569265Y-140938435D01*
X183558927Y-140878271D01*
X183578550Y-140820465D01*
X183623377Y-140779027D01*
X183682545Y-140764000D01*
X184689286Y-140764000D01*
X184736739Y-140773439D01*
X184776967Y-140800319D01*
X184886299Y-140909651D01*
X184901719Y-140928439D01*
X184902883Y-140930181D01*
X184909667Y-140940333D01*
X184919817Y-140947115D01*
X184919819Y-140947117D01*
X184965923Y-140977923D01*
X185003673Y-141017750D01*
X185020538Y-141069969D01*
X185013216Y-141124354D01*
X185009111Y-141135359D01*
X185005574Y-141150330D01*
X185000353Y-141198885D01*
X185000000Y-141205482D01*
X185000000Y-141483674D01*
X185003450Y-141496549D01*
X185016326Y-141500000D01*
X187983674Y-141500000D01*
X187996549Y-141496549D01*
X188000000Y-141483674D01*
X188000000Y-141205482D01*
X187999646Y-141198885D01*
X187994526Y-141151255D01*
X188006280Y-141083819D01*
X188052023Y-141032894D01*
X188117816Y-141014000D01*
X188561787Y-141014000D01*
X188585969Y-141016381D01*
X188600000Y-141019172D01*
X188703008Y-140998683D01*
X188746245Y-140969792D01*
X188768290Y-140955063D01*
X188768298Y-140955056D01*
X188780178Y-140947118D01*
X188780177Y-140947118D01*
X188790333Y-140940333D01*
X188798273Y-140928448D01*
X188813695Y-140909655D01*
X189909658Y-139813693D01*
X189928445Y-139798275D01*
X189940333Y-139790333D01*
X189955059Y-139768293D01*
X189955063Y-139768290D01*
X189981315Y-139728999D01*
X189998683Y-139703008D01*
X190014000Y-139626002D01*
X190019172Y-139600000D01*
X190016381Y-139585969D01*
X190014000Y-139561787D01*
X190014000Y-139270461D01*
X190028330Y-139212594D01*
X190068009Y-139168102D01*
X190123865Y-139147269D01*
X190182988Y-139154910D01*
X190231713Y-139189259D01*
X190263065Y-139225442D01*
X190263067Y-139225444D01*
X190268872Y-139232143D01*
X190389947Y-139309953D01*
X190528039Y-139350500D01*
X190663090Y-139350500D01*
X190671961Y-139350500D01*
X190810053Y-139309953D01*
X190931128Y-139232143D01*
X191006287Y-139145403D01*
X191048488Y-139113812D01*
X191100000Y-139102606D01*
X191151512Y-139113812D01*
X191193713Y-139145404D01*
X191263065Y-139225442D01*
X191263067Y-139225444D01*
X191268872Y-139232143D01*
X191389947Y-139309953D01*
X191528039Y-139350500D01*
X191663090Y-139350500D01*
X191671961Y-139350500D01*
X191810053Y-139309953D01*
X191931128Y-139232143D01*
X192025377Y-139123373D01*
X192085165Y-138992457D01*
X192105647Y-138850000D01*
X192099170Y-138804953D01*
X192100982Y-138759872D01*
X192118805Y-138718421D01*
X192148234Y-138674378D01*
X192159515Y-138657495D01*
X192175500Y-138577133D01*
X192175500Y-138577132D01*
X192180897Y-138550000D01*
X192177881Y-138534838D01*
X192175500Y-138510656D01*
X192175500Y-138214478D01*
X192189015Y-138158183D01*
X192226615Y-138114160D01*
X192280102Y-138092005D01*
X192337818Y-138096547D01*
X192387181Y-138126797D01*
X192888181Y-138627797D01*
X192915061Y-138668025D01*
X192924500Y-138715478D01*
X192924500Y-140470592D01*
X192922117Y-140494783D01*
X192919103Y-140509936D01*
X192924500Y-140537068D01*
X192924500Y-140537069D01*
X192940485Y-140617431D01*
X193001376Y-140708560D01*
X193014226Y-140717146D01*
X193033011Y-140732563D01*
X197609296Y-145308848D01*
X197636176Y-145349076D01*
X197645172Y-145394302D01*
X197644353Y-145400000D01*
X197645615Y-145408777D01*
X197663572Y-145533677D01*
X197663573Y-145533681D01*
X197664835Y-145542457D01*
X197668519Y-145550525D01*
X197668520Y-145550526D01*
X197710686Y-145642857D01*
X197724623Y-145673373D01*
X197730430Y-145680075D01*
X197730431Y-145680076D01*
X197813065Y-145775442D01*
X197813067Y-145775444D01*
X197818872Y-145782143D01*
X197939947Y-145859953D01*
X198078039Y-145900500D01*
X198213090Y-145900500D01*
X198221961Y-145900500D01*
X198360053Y-145859953D01*
X198481128Y-145782143D01*
X198575377Y-145673373D01*
X198635165Y-145542457D01*
X198655647Y-145400000D01*
X198635165Y-145257543D01*
X198575377Y-145126627D01*
X198481128Y-145017857D01*
X198360053Y-144940047D01*
X198298379Y-144921938D01*
X198230473Y-144901999D01*
X198230470Y-144901998D01*
X198221961Y-144899500D01*
X198078039Y-144899500D01*
X198069532Y-144901997D01*
X198060751Y-144903260D01*
X198060486Y-144901423D01*
X198006598Y-144902378D01*
X197949594Y-144869914D01*
X197425989Y-144346309D01*
X197396733Y-144299880D01*
X197396108Y-144294518D01*
X201000000Y-144294518D01*
X201000353Y-144301114D01*
X201005573Y-144349667D01*
X201009111Y-144364641D01*
X201053547Y-144483777D01*
X201061962Y-144499189D01*
X201137498Y-144600092D01*
X201149907Y-144612501D01*
X201250810Y-144688037D01*
X201266222Y-144696452D01*
X201385358Y-144740888D01*
X201400332Y-144744426D01*
X201448885Y-144749646D01*
X201455482Y-144750000D01*
X202233674Y-144750000D01*
X202246549Y-144746549D01*
X202250000Y-144733674D01*
X202250000Y-144016326D01*
X202246549Y-144003450D01*
X202233674Y-144000000D01*
X201016326Y-144000000D01*
X201003450Y-144003450D01*
X201000000Y-144016326D01*
X201000000Y-144294518D01*
X197396108Y-144294518D01*
X197390381Y-144245372D01*
X197408175Y-144193460D01*
X197446628Y-144154314D01*
X197481128Y-144132143D01*
X197575377Y-144023373D01*
X197635165Y-143892457D01*
X197655647Y-143750000D01*
X197635165Y-143607543D01*
X197578595Y-143483674D01*
X201000000Y-143483674D01*
X201003450Y-143496549D01*
X201016326Y-143500000D01*
X202233674Y-143500000D01*
X202246549Y-143496549D01*
X202250000Y-143483674D01*
X202250000Y-142766326D01*
X202246549Y-142753450D01*
X202233674Y-142750000D01*
X201455482Y-142750000D01*
X201448885Y-142750353D01*
X201400332Y-142755573D01*
X201385358Y-142759111D01*
X201266222Y-142803547D01*
X201250810Y-142811962D01*
X201149907Y-142887498D01*
X201137498Y-142899907D01*
X201061962Y-143000810D01*
X201053547Y-143016222D01*
X201009111Y-143135358D01*
X201005573Y-143150332D01*
X201000353Y-143198885D01*
X201000000Y-143205482D01*
X201000000Y-143483674D01*
X197578595Y-143483674D01*
X197575377Y-143476627D01*
X197545756Y-143442442D01*
X197486934Y-143374557D01*
X197486932Y-143374555D01*
X197481128Y-143367857D01*
X197360053Y-143290047D01*
X197304863Y-143273841D01*
X197230473Y-143251999D01*
X197230470Y-143251998D01*
X197221961Y-143249500D01*
X197090478Y-143249500D01*
X197043025Y-143240061D01*
X197002797Y-143213181D01*
X196059364Y-142269748D01*
X201299500Y-142269748D01*
X201300688Y-142275723D01*
X201300689Y-142275728D01*
X201302570Y-142285182D01*
X201311133Y-142328231D01*
X201317916Y-142338383D01*
X201317917Y-142338384D01*
X201346938Y-142381817D01*
X201355448Y-142394552D01*
X201421769Y-142438867D01*
X201480252Y-142450500D01*
X203513652Y-142450500D01*
X203519748Y-142450500D01*
X203578231Y-142438867D01*
X203644552Y-142394552D01*
X203688867Y-142328231D01*
X203700500Y-142269748D01*
X203700500Y-141230252D01*
X203688867Y-141171769D01*
X203644552Y-141105448D01*
X203612182Y-141083819D01*
X203588384Y-141067917D01*
X203588383Y-141067916D01*
X203578231Y-141061133D01*
X203566253Y-141058750D01*
X203566252Y-141058750D01*
X203525728Y-141050689D01*
X203525723Y-141050688D01*
X203519748Y-141049500D01*
X201480252Y-141049500D01*
X201474277Y-141050688D01*
X201474271Y-141050689D01*
X201433747Y-141058750D01*
X201433745Y-141058750D01*
X201421769Y-141061133D01*
X201411618Y-141067915D01*
X201411615Y-141067917D01*
X201365601Y-141098663D01*
X201365598Y-141098665D01*
X201355448Y-141105448D01*
X201348665Y-141115598D01*
X201348663Y-141115601D01*
X201317917Y-141161615D01*
X201317915Y-141161618D01*
X201311133Y-141171769D01*
X201308750Y-141183745D01*
X201308750Y-141183747D01*
X201300689Y-141224271D01*
X201300688Y-141224277D01*
X201299500Y-141230252D01*
X201299500Y-142269748D01*
X196059364Y-142269748D01*
X193961819Y-140172203D01*
X193934939Y-140131975D01*
X193925500Y-140084522D01*
X193925500Y-138329408D01*
X193927883Y-138305216D01*
X193928514Y-138302044D01*
X193930897Y-138290064D01*
X193909515Y-138182570D01*
X193909515Y-138182569D01*
X193848624Y-138091440D01*
X193838470Y-138084655D01*
X193838469Y-138084654D01*
X193835775Y-138082854D01*
X193816986Y-138067434D01*
X192330563Y-136581011D01*
X192315146Y-136562226D01*
X192306560Y-136549376D01*
X192283559Y-136534007D01*
X192283558Y-136534006D01*
X192257401Y-136516528D01*
X192215431Y-136488485D01*
X192203453Y-136486102D01*
X192203450Y-136486101D01*
X192135069Y-136472500D01*
X192135066Y-136472499D01*
X192119917Y-136469486D01*
X192119916Y-136469486D01*
X192107936Y-136467103D01*
X192095956Y-136469486D01*
X192092784Y-136470117D01*
X192068592Y-136472500D01*
X191474763Y-136472500D01*
X191407724Y-136452816D01*
X191375461Y-136432082D01*
X191310053Y-136390047D01*
X191241159Y-136369818D01*
X191180473Y-136351999D01*
X191180470Y-136351998D01*
X191171961Y-136349500D01*
X191028039Y-136349500D01*
X191019530Y-136351998D01*
X191019526Y-136351999D01*
X190898461Y-136387547D01*
X190889947Y-136390047D01*
X190882484Y-136394842D01*
X190882484Y-136394843D01*
X190776329Y-136463064D01*
X190776325Y-136463066D01*
X190768872Y-136467857D01*
X190763070Y-136474551D01*
X190763065Y-136474557D01*
X190680431Y-136569923D01*
X190680428Y-136569927D01*
X190674623Y-136576627D01*
X190670941Y-136584689D01*
X190670938Y-136584694D01*
X190636843Y-136659352D01*
X190614835Y-136707543D01*
X190613573Y-136716316D01*
X190613572Y-136716322D01*
X190606565Y-136765061D01*
X190594353Y-136850000D01*
X190595615Y-136858777D01*
X190613572Y-136983677D01*
X190613573Y-136983681D01*
X190614835Y-136992457D01*
X190618519Y-137000525D01*
X190618520Y-137000526D01*
X190666436Y-137105448D01*
X190674623Y-137123373D01*
X190680430Y-137130075D01*
X190680431Y-137130076D01*
X190707825Y-137161691D01*
X190768872Y-137232143D01*
X190776332Y-137236937D01*
X190781705Y-137241593D01*
X190813295Y-137283794D01*
X190824500Y-137335304D01*
X190824500Y-138184521D01*
X190815061Y-138231974D01*
X190788180Y-138272203D01*
X190747200Y-138313182D01*
X190706972Y-138340061D01*
X190659520Y-138349500D01*
X190528039Y-138349500D01*
X190519530Y-138351998D01*
X190519526Y-138351999D01*
X190402504Y-138386360D01*
X190389947Y-138390047D01*
X190382484Y-138394842D01*
X190382484Y-138394843D01*
X190276329Y-138463064D01*
X190276325Y-138463066D01*
X190268872Y-138467857D01*
X190263070Y-138474551D01*
X190263065Y-138474557D01*
X190231713Y-138510741D01*
X190182988Y-138545090D01*
X190123865Y-138552731D01*
X190068009Y-138531898D01*
X190028330Y-138487406D01*
X190014000Y-138429539D01*
X190014000Y-136710714D01*
X190023439Y-136663261D01*
X190050319Y-136623033D01*
X190475601Y-136197751D01*
X191837014Y-134836336D01*
X191885532Y-134806365D01*
X191928039Y-134802561D01*
X191928039Y-134800500D01*
X192063090Y-134800500D01*
X192071961Y-134800500D01*
X192210053Y-134759953D01*
X192331128Y-134682143D01*
X192425377Y-134573373D01*
X192485165Y-134442457D01*
X192505647Y-134300000D01*
X192485165Y-134157543D01*
X192425377Y-134026627D01*
X192331128Y-133917857D01*
X192325267Y-133914090D01*
X192291569Y-133866287D01*
X192283929Y-133807164D01*
X192304763Y-133751308D01*
X192349255Y-133711630D01*
X192407121Y-133697300D01*
X195051344Y-133697300D01*
X195054924Y-133697548D01*
X195060965Y-133699573D01*
X195107279Y-133697432D01*
X195113006Y-133697300D01*
X195129329Y-133697300D01*
X195186149Y-133711084D01*
X195230336Y-133749373D01*
X195252067Y-133803653D01*
X195263572Y-133883677D01*
X195263573Y-133883681D01*
X195264835Y-133892457D01*
X195268519Y-133900525D01*
X195268520Y-133900526D01*
X195320256Y-134013812D01*
X195324623Y-134023373D01*
X195330430Y-134030075D01*
X195330431Y-134030076D01*
X195413065Y-134125442D01*
X195413067Y-134125444D01*
X195418872Y-134132143D01*
X195539947Y-134209953D01*
X195678039Y-134250500D01*
X195813090Y-134250500D01*
X195821961Y-134250500D01*
X195960053Y-134209953D01*
X196081128Y-134132143D01*
X196156287Y-134045403D01*
X196198488Y-134013812D01*
X196250000Y-134002606D01*
X196301512Y-134013812D01*
X196343713Y-134045404D01*
X196413065Y-134125442D01*
X196413067Y-134125444D01*
X196418872Y-134132143D01*
X196539947Y-134209953D01*
X196548453Y-134212450D01*
X196556524Y-134216136D01*
X196555229Y-134218971D01*
X196593008Y-134241341D01*
X197227479Y-134875812D01*
X197229840Y-134878525D01*
X197232680Y-134884228D01*
X197241168Y-134891966D01*
X197241169Y-134891967D01*
X197266955Y-134915474D01*
X197271097Y-134919430D01*
X197283841Y-134932174D01*
X197288568Y-134935412D01*
X197289259Y-134935986D01*
X197293566Y-134939733D01*
X197315705Y-134959916D01*
X197326420Y-134964067D01*
X197332884Y-134968069D01*
X197336712Y-134970087D01*
X197343677Y-134973162D01*
X197353157Y-134979656D01*
X197364344Y-134982287D01*
X197379144Y-134985768D01*
X197395550Y-134990848D01*
X197409746Y-134996348D01*
X197409749Y-134996348D01*
X197420465Y-135000500D01*
X197431958Y-135000500D01*
X197439432Y-135001897D01*
X197443732Y-135002396D01*
X197451330Y-135002747D01*
X197462519Y-135005379D01*
X197488970Y-135001689D01*
X197506103Y-135000500D01*
X198145090Y-135000500D01*
X198148670Y-135000748D01*
X198154711Y-135002773D01*
X198201025Y-135000632D01*
X198206752Y-135000500D01*
X198219057Y-135000500D01*
X198224790Y-135000500D01*
X198230424Y-134999445D01*
X198231297Y-134999365D01*
X198237018Y-134998967D01*
X198266938Y-134997585D01*
X198277452Y-134992941D01*
X198284854Y-134991201D01*
X198288984Y-134989922D01*
X198296081Y-134987172D01*
X198307379Y-134985061D01*
X198330090Y-134970998D01*
X198345265Y-134962999D01*
X198369711Y-134952206D01*
X198377838Y-134944077D01*
X198384121Y-134939774D01*
X198387501Y-134937096D01*
X198393122Y-134931970D01*
X198402898Y-134925919D01*
X198418999Y-134904595D01*
X198430260Y-134891655D01*
X198611786Y-134710129D01*
X198662412Y-134679477D01*
X198721481Y-134675782D01*
X198775535Y-134699887D01*
X198812259Y-134746300D01*
X198820937Y-134765303D01*
X198824623Y-134773373D01*
X198830430Y-134780075D01*
X198830431Y-134780076D01*
X198913065Y-134875442D01*
X198913067Y-134875444D01*
X198918872Y-134882143D01*
X199039947Y-134959953D01*
X199178039Y-135000500D01*
X199186910Y-135000500D01*
X199222300Y-135000500D01*
X199284300Y-135017113D01*
X199329687Y-135062500D01*
X199346300Y-135124500D01*
X199346300Y-136844944D01*
X199346051Y-136848524D01*
X199344027Y-136854565D01*
X199344557Y-136866039D01*
X199344557Y-136866043D01*
X199346168Y-136900880D01*
X199346300Y-136906606D01*
X199346300Y-136924644D01*
X199347352Y-136930271D01*
X199347435Y-136931168D01*
X199347831Y-136936872D01*
X199348684Y-136955316D01*
X199349215Y-136966792D01*
X199353854Y-136977299D01*
X199355592Y-136984688D01*
X199356882Y-136988852D01*
X199359627Y-136995937D01*
X199361739Y-137007233D01*
X199375801Y-137029946D01*
X199383803Y-137045127D01*
X199389952Y-137059054D01*
X199389953Y-137059056D01*
X199394594Y-137069565D01*
X199402717Y-137077688D01*
X199407009Y-137083953D01*
X199409715Y-137087369D01*
X199414831Y-137092981D01*
X199420881Y-137102752D01*
X199430049Y-137109675D01*
X199442196Y-137118848D01*
X199455151Y-137130122D01*
X201313541Y-138988512D01*
X201343279Y-139036333D01*
X201348800Y-139092375D01*
X201328965Y-139145080D01*
X201317917Y-139161614D01*
X201317914Y-139161619D01*
X201311133Y-139171769D01*
X201308750Y-139183745D01*
X201308750Y-139183747D01*
X201300689Y-139224271D01*
X201300688Y-139224277D01*
X201299500Y-139230252D01*
X201299500Y-140269748D01*
X201300688Y-140275723D01*
X201300689Y-140275728D01*
X201306091Y-140302884D01*
X201311133Y-140328231D01*
X201355448Y-140394552D01*
X201421769Y-140438867D01*
X201480252Y-140450500D01*
X203513652Y-140450500D01*
X203519748Y-140450500D01*
X203578231Y-140438867D01*
X203644552Y-140394552D01*
X203688867Y-140328231D01*
X203700500Y-140269748D01*
X203700500Y-139230252D01*
X203688867Y-139171769D01*
X203644552Y-139105448D01*
X203578231Y-139061133D01*
X203566253Y-139058750D01*
X203566252Y-139058750D01*
X203525728Y-139050689D01*
X203525723Y-139050688D01*
X203519748Y-139049500D01*
X203513652Y-139049500D01*
X202275833Y-139049500D01*
X202228380Y-139040061D01*
X202188152Y-139013181D01*
X201837152Y-138662181D01*
X201806902Y-138612818D01*
X201802360Y-138555102D01*
X201824515Y-138501615D01*
X201868538Y-138464015D01*
X201924833Y-138450500D01*
X203513652Y-138450500D01*
X203519748Y-138450500D01*
X203578231Y-138438867D01*
X203644552Y-138394552D01*
X203688867Y-138328231D01*
X203700500Y-138269748D01*
X203700500Y-137230252D01*
X203688867Y-137171769D01*
X203644552Y-137105448D01*
X203617495Y-137087369D01*
X203588384Y-137067917D01*
X203588383Y-137067916D01*
X203578231Y-137061133D01*
X203566253Y-137058750D01*
X203566252Y-137058750D01*
X203525728Y-137050689D01*
X203525723Y-137050688D01*
X203519748Y-137049500D01*
X203513652Y-137049500D01*
X202275833Y-137049500D01*
X202228380Y-137040061D01*
X202188152Y-137013181D01*
X201837152Y-136662181D01*
X201806902Y-136612818D01*
X201802360Y-136555102D01*
X201824515Y-136501615D01*
X201868538Y-136464015D01*
X201924833Y-136450500D01*
X203513652Y-136450500D01*
X203519748Y-136450500D01*
X203578231Y-136438867D01*
X203644552Y-136394552D01*
X203688867Y-136328231D01*
X203700500Y-136269748D01*
X203700500Y-135230252D01*
X203688867Y-135171769D01*
X203644552Y-135105448D01*
X203628167Y-135094500D01*
X203588384Y-135067917D01*
X203588383Y-135067916D01*
X203578231Y-135061133D01*
X203566253Y-135058750D01*
X203566252Y-135058750D01*
X203525728Y-135050689D01*
X203525723Y-135050688D01*
X203519748Y-135049500D01*
X203513652Y-135049500D01*
X202275833Y-135049500D01*
X202228380Y-135040061D01*
X202188152Y-135013181D01*
X201837152Y-134662181D01*
X201806902Y-134612818D01*
X201802360Y-134555102D01*
X201824515Y-134501615D01*
X201868538Y-134464015D01*
X201924833Y-134450500D01*
X203513652Y-134450500D01*
X203519748Y-134450500D01*
X203578231Y-134438867D01*
X203644552Y-134394552D01*
X203688867Y-134328231D01*
X203700500Y-134269748D01*
X203700500Y-133230252D01*
X203688867Y-133171769D01*
X203644552Y-133105448D01*
X203630861Y-133096300D01*
X203588384Y-133067917D01*
X203588383Y-133067916D01*
X203578231Y-133061133D01*
X203566253Y-133058750D01*
X203566252Y-133058750D01*
X203525728Y-133050689D01*
X203525723Y-133050688D01*
X203519748Y-133049500D01*
X203513652Y-133049500D01*
X202275833Y-133049500D01*
X202228380Y-133040061D01*
X202188152Y-133013181D01*
X202145955Y-132970984D01*
X202143597Y-132968274D01*
X202140758Y-132962572D01*
X202132266Y-132954830D01*
X202132265Y-132954829D01*
X202106481Y-132931324D01*
X202102339Y-132927368D01*
X202093652Y-132918681D01*
X202093652Y-132918680D01*
X202089597Y-132914626D01*
X202084866Y-132911384D01*
X202084186Y-132910820D01*
X202079867Y-132907062D01*
X202079792Y-132906994D01*
X202073860Y-132901585D01*
X202066223Y-132894623D01*
X202066221Y-132894621D01*
X202057733Y-132886884D01*
X202047020Y-132882733D01*
X202040580Y-132878746D01*
X202036702Y-132876702D01*
X202029758Y-132873635D01*
X202020281Y-132867144D01*
X202009102Y-132864514D01*
X202009094Y-132864511D01*
X201994284Y-132861028D01*
X201977886Y-132855950D01*
X201963691Y-132850451D01*
X201963685Y-132850449D01*
X201952973Y-132846300D01*
X201941482Y-132846300D01*
X201934008Y-132844903D01*
X201929705Y-132844403D01*
X201922102Y-132844051D01*
X201910919Y-132841421D01*
X201899541Y-132843008D01*
X201899537Y-132843008D01*
X201884467Y-132845111D01*
X201867335Y-132846300D01*
X198349594Y-132846300D01*
X198346013Y-132846051D01*
X198339973Y-132844027D01*
X198328497Y-132844557D01*
X198328494Y-132844557D01*
X198293658Y-132846168D01*
X198287932Y-132846300D01*
X198269894Y-132846300D01*
X198264268Y-132847351D01*
X198263377Y-132847434D01*
X198257670Y-132847831D01*
X198239223Y-132848684D01*
X198239220Y-132848684D01*
X198227746Y-132849215D01*
X198217237Y-132853854D01*
X198209865Y-132855588D01*
X198205659Y-132856891D01*
X198198593Y-132859628D01*
X198187305Y-132861739D01*
X198177540Y-132867784D01*
X198177534Y-132867787D01*
X198164589Y-132875801D01*
X198149414Y-132883800D01*
X198135485Y-132889951D01*
X198135481Y-132889953D01*
X198124972Y-132894594D01*
X198116849Y-132902715D01*
X198110604Y-132906994D01*
X198107148Y-132909732D01*
X198101551Y-132914834D01*
X198091786Y-132920881D01*
X198084863Y-132930047D01*
X198084860Y-132930051D01*
X198075689Y-132942195D01*
X198064418Y-132955147D01*
X197648961Y-133370604D01*
X197608733Y-133397484D01*
X197561280Y-133406923D01*
X197465154Y-133406923D01*
X197456645Y-133409421D01*
X197456641Y-133409422D01*
X197354856Y-133439309D01*
X197327062Y-133447470D01*
X197319604Y-133452262D01*
X197319597Y-133452266D01*
X197303790Y-133462425D01*
X197248538Y-133481546D01*
X197190666Y-133473224D01*
X197143041Y-133439309D01*
X197086934Y-133374557D01*
X197086932Y-133374555D01*
X197081128Y-133367857D01*
X196960053Y-133290047D01*
X196929869Y-133281184D01*
X196909244Y-133275128D01*
X196854947Y-133242252D01*
X196824032Y-133186816D01*
X196824598Y-133123345D01*
X196856497Y-133068472D01*
X197838151Y-132086819D01*
X197878380Y-132059939D01*
X197925833Y-132050500D01*
X201175500Y-132050500D01*
X201237500Y-132067113D01*
X201282887Y-132112500D01*
X201299500Y-132174500D01*
X201299500Y-132269748D01*
X201311133Y-132328231D01*
X201355448Y-132394552D01*
X201421769Y-132438867D01*
X201480252Y-132450500D01*
X203513652Y-132450500D01*
X203519748Y-132450500D01*
X203578231Y-132438867D01*
X203644552Y-132394552D01*
X203688867Y-132328231D01*
X203700500Y-132269748D01*
X203700500Y-131230252D01*
X203688867Y-131171769D01*
X203644552Y-131105448D01*
X203621166Y-131089822D01*
X203588384Y-131067917D01*
X203588383Y-131067916D01*
X203578231Y-131061133D01*
X203566253Y-131058750D01*
X203566252Y-131058750D01*
X203525728Y-131050689D01*
X203525723Y-131050688D01*
X203519748Y-131049500D01*
X201480252Y-131049500D01*
X201474277Y-131050688D01*
X201474271Y-131050689D01*
X201433747Y-131058750D01*
X201433745Y-131058750D01*
X201421769Y-131061133D01*
X201411618Y-131067915D01*
X201411615Y-131067917D01*
X201365601Y-131098663D01*
X201365598Y-131098665D01*
X201355448Y-131105448D01*
X201348665Y-131115598D01*
X201348663Y-131115601D01*
X201317917Y-131161615D01*
X201317915Y-131161618D01*
X201311133Y-131171769D01*
X201308750Y-131183745D01*
X201308750Y-131183747D01*
X201300689Y-131224271D01*
X201300688Y-131224277D01*
X201299500Y-131230252D01*
X201299500Y-131236348D01*
X201299500Y-131325500D01*
X201282887Y-131387500D01*
X201237500Y-131432887D01*
X201175500Y-131449500D01*
X199916257Y-131449500D01*
X199849218Y-131429815D01*
X199803463Y-131377012D01*
X199793519Y-131307853D01*
X199804385Y-131232277D01*
X199805647Y-131223500D01*
X199785165Y-131081043D01*
X199725377Y-130950127D01*
X199699902Y-130920727D01*
X199636934Y-130848057D01*
X199636932Y-130848055D01*
X199631128Y-130841357D01*
X199510053Y-130763547D01*
X199408314Y-130733674D01*
X199380473Y-130725499D01*
X199380470Y-130725498D01*
X199371961Y-130723000D01*
X199228039Y-130723000D01*
X199219530Y-130725498D01*
X199219526Y-130725499D01*
X199136084Y-130750000D01*
X199089947Y-130763547D01*
X199082484Y-130768342D01*
X199082484Y-130768343D01*
X198976329Y-130836564D01*
X198976325Y-130836566D01*
X198968872Y-130841357D01*
X198963073Y-130848049D01*
X198963063Y-130848058D01*
X198935212Y-130880202D01*
X198893011Y-130911794D01*
X198841499Y-130923000D01*
X197328356Y-130923000D01*
X197324775Y-130922751D01*
X197318735Y-130920727D01*
X197307259Y-130921257D01*
X197307256Y-130921257D01*
X197272420Y-130922868D01*
X197266694Y-130923000D01*
X197248656Y-130923000D01*
X197243030Y-130924051D01*
X197242139Y-130924134D01*
X197236432Y-130924531D01*
X197217985Y-130925384D01*
X197217982Y-130925384D01*
X197206508Y-130925915D01*
X197195999Y-130930554D01*
X197188627Y-130932288D01*
X197184421Y-130933591D01*
X197177355Y-130936328D01*
X197166067Y-130938439D01*
X197156302Y-130944484D01*
X197156296Y-130944487D01*
X197143351Y-130952501D01*
X197128176Y-130960500D01*
X197114247Y-130966651D01*
X197114243Y-130966653D01*
X197103734Y-130971294D01*
X197095611Y-130979415D01*
X197089366Y-130983694D01*
X197085910Y-130986432D01*
X197080312Y-130991534D01*
X197070548Y-130997581D01*
X197063627Y-131006744D01*
X197063623Y-131006749D01*
X197054452Y-131018894D01*
X197043182Y-131031844D01*
X195015048Y-133059981D01*
X194974820Y-133086861D01*
X194927367Y-133096300D01*
X194470085Y-133096300D01*
X194413790Y-133082785D01*
X194369767Y-133045185D01*
X194347612Y-132991698D01*
X194352154Y-132933982D01*
X194382404Y-132884619D01*
X195466171Y-131800852D01*
X196559655Y-130707367D01*
X196578448Y-130691946D01*
X196580178Y-130690790D01*
X196580177Y-130690790D01*
X196590333Y-130684005D01*
X196648683Y-130596680D01*
X196664000Y-130519674D01*
X196664000Y-130519670D01*
X196669171Y-130493672D01*
X196666381Y-130479649D01*
X196664000Y-130455460D01*
X196664000Y-130294518D01*
X201000000Y-130294518D01*
X201000353Y-130301114D01*
X201005573Y-130349667D01*
X201009111Y-130364641D01*
X201053547Y-130483777D01*
X201061962Y-130499189D01*
X201137498Y-130600092D01*
X201149907Y-130612501D01*
X201250810Y-130688037D01*
X201266222Y-130696452D01*
X201385358Y-130740888D01*
X201400332Y-130744426D01*
X201448885Y-130749646D01*
X201455482Y-130750000D01*
X202233674Y-130750000D01*
X202246549Y-130746549D01*
X202250000Y-130733674D01*
X202250000Y-130016326D01*
X202246549Y-130003450D01*
X202233674Y-130000000D01*
X201016326Y-130000000D01*
X201003450Y-130003450D01*
X201000000Y-130016326D01*
X201000000Y-130294518D01*
X196664000Y-130294518D01*
X196664000Y-129483674D01*
X201000000Y-129483674D01*
X201003450Y-129496549D01*
X201016326Y-129500000D01*
X202233674Y-129500000D01*
X202246549Y-129496549D01*
X202250000Y-129483674D01*
X202250000Y-128766326D01*
X202246549Y-128753450D01*
X202233674Y-128750000D01*
X201455482Y-128750000D01*
X201448885Y-128750353D01*
X201400332Y-128755573D01*
X201385358Y-128759111D01*
X201266222Y-128803547D01*
X201250810Y-128811962D01*
X201149907Y-128887498D01*
X201137498Y-128899907D01*
X201061962Y-129000810D01*
X201053547Y-129016222D01*
X201009111Y-129135358D01*
X201005574Y-129150330D01*
X201000353Y-129198885D01*
X201000000Y-129205482D01*
X201000000Y-129483674D01*
X196664000Y-129483674D01*
X196664000Y-126888856D01*
X197425662Y-126888856D01*
X197430815Y-126945570D01*
X197433361Y-126958369D01*
X197479748Y-127107232D01*
X197485864Y-127120820D01*
X197566045Y-127253456D01*
X197575228Y-127265177D01*
X197684822Y-127374771D01*
X197696543Y-127383954D01*
X197829179Y-127464135D01*
X197842767Y-127470251D01*
X197991627Y-127516638D01*
X198004431Y-127519184D01*
X198065615Y-127524744D01*
X198071244Y-127525000D01*
X198133674Y-127525000D01*
X198146549Y-127521549D01*
X198150000Y-127508674D01*
X198150000Y-127508673D01*
X198650000Y-127508673D01*
X198653450Y-127521548D01*
X198666326Y-127524999D01*
X198728753Y-127524999D01*
X198734386Y-127524743D01*
X198795570Y-127519184D01*
X198808369Y-127516638D01*
X198957232Y-127470251D01*
X198970820Y-127464135D01*
X199103456Y-127383954D01*
X199115177Y-127374771D01*
X199224771Y-127265177D01*
X199233954Y-127253456D01*
X199314135Y-127120820D01*
X199320251Y-127107232D01*
X199366638Y-126958372D01*
X199369184Y-126945568D01*
X199374338Y-126888856D01*
X199371549Y-126878450D01*
X199358674Y-126875000D01*
X198666326Y-126875000D01*
X198653450Y-126878450D01*
X198650000Y-126891326D01*
X198650000Y-127508673D01*
X198150000Y-127508673D01*
X198150000Y-126891326D01*
X198146549Y-126878450D01*
X198133674Y-126875000D01*
X197441327Y-126875000D01*
X197428451Y-126878450D01*
X197425662Y-126888856D01*
X196664000Y-126888856D01*
X196664000Y-125577520D01*
X196681883Y-125513370D01*
X196730374Y-125467724D01*
X196736025Y-125464758D01*
X196800852Y-125430734D01*
X196928183Y-125317929D01*
X197024818Y-125177930D01*
X197024819Y-125177926D01*
X197068158Y-125131885D01*
X197132310Y-125114000D01*
X197603941Y-125114000D01*
X197660236Y-125127515D01*
X197704260Y-125165115D01*
X197726415Y-125218604D01*
X197739354Y-125300304D01*
X197743780Y-125308991D01*
X197743782Y-125308996D01*
X197776344Y-125372901D01*
X197796950Y-125413342D01*
X197886658Y-125503050D01*
X197912225Y-125516077D01*
X197935611Y-125527993D01*
X197979810Y-125565835D01*
X198001883Y-125619671D01*
X197996967Y-125677649D01*
X197966148Y-125727002D01*
X197916209Y-125756863D01*
X197842764Y-125779750D01*
X197829179Y-125785864D01*
X197696543Y-125866045D01*
X197684822Y-125875228D01*
X197575228Y-125984822D01*
X197566045Y-125996543D01*
X197485864Y-126129179D01*
X197479748Y-126142767D01*
X197433361Y-126291627D01*
X197430815Y-126304431D01*
X197425661Y-126361143D01*
X197428450Y-126371549D01*
X197441326Y-126375000D01*
X199358673Y-126375000D01*
X199371548Y-126371549D01*
X199374337Y-126361143D01*
X199369184Y-126304429D01*
X199366638Y-126291630D01*
X199320251Y-126142767D01*
X199314135Y-126129179D01*
X199233954Y-125996543D01*
X199224771Y-125984822D01*
X199115177Y-125875228D01*
X199103456Y-125866045D01*
X198970820Y-125785864D01*
X198957236Y-125779750D01*
X198883790Y-125756863D01*
X198833851Y-125727002D01*
X198803031Y-125677649D01*
X198798117Y-125619671D01*
X198820189Y-125565834D01*
X198864386Y-125527994D01*
X198913342Y-125503050D01*
X199003050Y-125413342D01*
X199060646Y-125300304D01*
X199075500Y-125206519D01*
X199075499Y-124743482D01*
X199060646Y-124649696D01*
X199003050Y-124536658D01*
X198913342Y-124446950D01*
X198884140Y-124432071D01*
X198856822Y-124418151D01*
X198800304Y-124389354D01*
X198790667Y-124387827D01*
X198790662Y-124387826D01*
X198711339Y-124375263D01*
X198711333Y-124375262D01*
X198706519Y-124374500D01*
X198701640Y-124374500D01*
X198098352Y-124374500D01*
X198098339Y-124374500D01*
X198093482Y-124374501D01*
X198088680Y-124375261D01*
X198088673Y-124375262D01*
X198009331Y-124387828D01*
X198009330Y-124387828D01*
X197999696Y-124389354D01*
X197991010Y-124393779D01*
X197991003Y-124393782D01*
X197895353Y-124442519D01*
X197895349Y-124442521D01*
X197886658Y-124446950D01*
X197879759Y-124453848D01*
X197879756Y-124453851D01*
X197803851Y-124529756D01*
X197803848Y-124529759D01*
X197796950Y-124536658D01*
X197796102Y-124538321D01*
X197756101Y-124572485D01*
X197699807Y-124586000D01*
X197132310Y-124586000D01*
X197068158Y-124568115D01*
X197024819Y-124522073D01*
X197024818Y-124522070D01*
X196982037Y-124460092D01*
X196932442Y-124388241D01*
X196932441Y-124388240D01*
X196928183Y-124382071D01*
X196800852Y-124269266D01*
X196742071Y-124238415D01*
X196656866Y-124193695D01*
X196656862Y-124193693D01*
X196650225Y-124190210D01*
X196642947Y-124188416D01*
X196642944Y-124188415D01*
X196492337Y-124151294D01*
X196492332Y-124151293D01*
X196485056Y-124149500D01*
X196314944Y-124149500D01*
X196307668Y-124151293D01*
X196307662Y-124151294D01*
X196157055Y-124188415D01*
X196157050Y-124188416D01*
X196149775Y-124190210D01*
X196143140Y-124193692D01*
X196143133Y-124193695D01*
X196005791Y-124265779D01*
X196005788Y-124265780D01*
X195999148Y-124269266D01*
X195993537Y-124274236D01*
X195993531Y-124274241D01*
X195877430Y-124377098D01*
X195871817Y-124382071D01*
X195867562Y-124388235D01*
X195867557Y-124388241D01*
X195779445Y-124515893D01*
X195779442Y-124515897D01*
X195775182Y-124522070D01*
X195772523Y-124529081D01*
X195772520Y-124529087D01*
X195717520Y-124674111D01*
X195717517Y-124674119D01*
X195714860Y-124681128D01*
X195713956Y-124688570D01*
X195713955Y-124688576D01*
X195695757Y-124838456D01*
X195694355Y-124850000D01*
X195695259Y-124857445D01*
X195713955Y-125011423D01*
X195713956Y-125011427D01*
X195714860Y-125018872D01*
X195717518Y-125025882D01*
X195717520Y-125025888D01*
X195770322Y-125165115D01*
X195775182Y-125177930D01*
X195779444Y-125184105D01*
X195779445Y-125184106D01*
X195865653Y-125309000D01*
X195871817Y-125317929D01*
X195999148Y-125430734D01*
X196033124Y-125448566D01*
X196069626Y-125467724D01*
X196118117Y-125513370D01*
X196136000Y-125577520D01*
X196136000Y-130332958D01*
X196126561Y-130380411D01*
X196099681Y-130420639D01*
X195647691Y-130872627D01*
X195589244Y-130905451D01*
X195522253Y-130903058D01*
X195466297Y-130866148D01*
X195386934Y-130774557D01*
X195386932Y-130774555D01*
X195381128Y-130767857D01*
X195260053Y-130690047D01*
X195204863Y-130673841D01*
X195130473Y-130651999D01*
X195130470Y-130651998D01*
X195121961Y-130649500D01*
X194978039Y-130649500D01*
X194978039Y-130647443D01*
X194935519Y-130643629D01*
X194887013Y-130613661D01*
X194613697Y-130340345D01*
X194598275Y-130321553D01*
X194597118Y-130319822D01*
X194590333Y-130309667D01*
X194580179Y-130302882D01*
X194580178Y-130302881D01*
X194521468Y-130263652D01*
X194503008Y-130251317D01*
X194491036Y-130248935D01*
X194491032Y-130248934D01*
X194426002Y-130236000D01*
X194426001Y-130235999D01*
X194400000Y-130230828D01*
X194385969Y-130233618D01*
X194361787Y-130236000D01*
X193288213Y-130236000D01*
X193264030Y-130233618D01*
X193250000Y-130230828D01*
X193223998Y-130235999D01*
X193223998Y-130236000D01*
X193158967Y-130248934D01*
X193158961Y-130248936D01*
X193146992Y-130251317D01*
X193136839Y-130258100D01*
X193136839Y-130258101D01*
X193069817Y-130302884D01*
X193069814Y-130302886D01*
X193059667Y-130309667D01*
X193052885Y-130319815D01*
X193052882Y-130319819D01*
X193051718Y-130321562D01*
X193036302Y-130340344D01*
X192571022Y-130805624D01*
X192511857Y-130838620D01*
X192444180Y-130835597D01*
X192388192Y-130797458D01*
X192366604Y-130749045D01*
X192363926Y-130749832D01*
X192361427Y-130741323D01*
X192360165Y-130732543D01*
X192300377Y-130601627D01*
X192229365Y-130519674D01*
X192211934Y-130499557D01*
X192211932Y-130499555D01*
X192206128Y-130492857D01*
X192085053Y-130415047D01*
X192015253Y-130394552D01*
X191955473Y-130376999D01*
X191955470Y-130376998D01*
X191946961Y-130374500D01*
X191850834Y-130374500D01*
X191803381Y-130365061D01*
X191763153Y-130338181D01*
X190336819Y-128911848D01*
X190309939Y-128871620D01*
X190300500Y-128824167D01*
X190300500Y-127463640D01*
X190311726Y-127412083D01*
X190332970Y-127383739D01*
X190331128Y-127382143D01*
X190337516Y-127374771D01*
X190425377Y-127273373D01*
X190485165Y-127142457D01*
X190505647Y-127000000D01*
X190504340Y-126990912D01*
X190504385Y-126990413D01*
X190504385Y-126982352D01*
X190505106Y-126982352D01*
X190509419Y-126934102D01*
X190539393Y-126885576D01*
X191525823Y-125899146D01*
X191528522Y-125896798D01*
X191534228Y-125893958D01*
X191565487Y-125859667D01*
X191569402Y-125855567D01*
X191582174Y-125842797D01*
X191585422Y-125838054D01*
X191585965Y-125837401D01*
X191589733Y-125833072D01*
X191602174Y-125819425D01*
X191602173Y-125819425D01*
X191609916Y-125810933D01*
X191614067Y-125800214D01*
X191618070Y-125793751D01*
X191620077Y-125789944D01*
X191623158Y-125782965D01*
X191629656Y-125773481D01*
X191635772Y-125747472D01*
X191640843Y-125731097D01*
X191650500Y-125706173D01*
X191650500Y-125694677D01*
X191651896Y-125687210D01*
X191652396Y-125682905D01*
X191652747Y-125675307D01*
X191655379Y-125664119D01*
X191651689Y-125637667D01*
X191650500Y-125620535D01*
X191650500Y-125558363D01*
X191668383Y-125494213D01*
X191716871Y-125448568D01*
X191750852Y-125430734D01*
X191878183Y-125317929D01*
X191956782Y-125204058D01*
X192001207Y-125164703D01*
X192058832Y-125150500D01*
X193591168Y-125150500D01*
X193648793Y-125164703D01*
X193693217Y-125204058D01*
X193771817Y-125317929D01*
X193899148Y-125430734D01*
X194049775Y-125509790D01*
X194214944Y-125550500D01*
X194377556Y-125550500D01*
X194385056Y-125550500D01*
X194550225Y-125509790D01*
X194700852Y-125430734D01*
X194828183Y-125317929D01*
X194924818Y-125177930D01*
X194985140Y-125018872D01*
X195005645Y-124850000D01*
X194985140Y-124681128D01*
X194924818Y-124522070D01*
X194828183Y-124382071D01*
X194700852Y-124269266D01*
X194642071Y-124238415D01*
X194556866Y-124193695D01*
X194556862Y-124193693D01*
X194550225Y-124190210D01*
X194542947Y-124188416D01*
X194542944Y-124188415D01*
X194392337Y-124151294D01*
X194392332Y-124151293D01*
X194385056Y-124149500D01*
X194214944Y-124149500D01*
X194207668Y-124151293D01*
X194207662Y-124151294D01*
X194057055Y-124188415D01*
X194057050Y-124188416D01*
X194049775Y-124190210D01*
X194043140Y-124193692D01*
X194043133Y-124193695D01*
X193905791Y-124265779D01*
X193905788Y-124265780D01*
X193899148Y-124269266D01*
X193893537Y-124274236D01*
X193893531Y-124274241D01*
X193777430Y-124377098D01*
X193771817Y-124382071D01*
X193730093Y-124442519D01*
X193693218Y-124495941D01*
X193648793Y-124535297D01*
X193591168Y-124549500D01*
X192058832Y-124549500D01*
X192001207Y-124535297D01*
X191956782Y-124495941D01*
X191922966Y-124446950D01*
X191878183Y-124382071D01*
X191750852Y-124269266D01*
X191692071Y-124238415D01*
X191606866Y-124193695D01*
X191606862Y-124193693D01*
X191600225Y-124190210D01*
X191592947Y-124188416D01*
X191592944Y-124188415D01*
X191442337Y-124151294D01*
X191442332Y-124151293D01*
X191435056Y-124149500D01*
X191264944Y-124149500D01*
X191257668Y-124151293D01*
X191257662Y-124151294D01*
X191107055Y-124188415D01*
X191107050Y-124188416D01*
X191099775Y-124190210D01*
X191093140Y-124193692D01*
X191093133Y-124193695D01*
X190955791Y-124265779D01*
X190955788Y-124265780D01*
X190949148Y-124269266D01*
X190943537Y-124274236D01*
X190943531Y-124274241D01*
X190827430Y-124377098D01*
X190821817Y-124382071D01*
X190817562Y-124388235D01*
X190817557Y-124388241D01*
X190729445Y-124515893D01*
X190729442Y-124515897D01*
X190725182Y-124522070D01*
X190722523Y-124529081D01*
X190722520Y-124529087D01*
X190667520Y-124674111D01*
X190667517Y-124674119D01*
X190664860Y-124681128D01*
X190663956Y-124688570D01*
X190663955Y-124688576D01*
X190645757Y-124838456D01*
X190644355Y-124850000D01*
X190645259Y-124857445D01*
X190663955Y-125011423D01*
X190663956Y-125011427D01*
X190664860Y-125018872D01*
X190667518Y-125025882D01*
X190667520Y-125025888D01*
X190720322Y-125165115D01*
X190725182Y-125177930D01*
X190729444Y-125184105D01*
X190729445Y-125184106D01*
X190815653Y-125309000D01*
X190821817Y-125317929D01*
X190937306Y-125420243D01*
X190949148Y-125430734D01*
X190948529Y-125431432D01*
X190979432Y-125464758D01*
X190995853Y-125516077D01*
X190988956Y-125569517D01*
X190960043Y-125614985D01*
X190111847Y-126463181D01*
X190071619Y-126490061D01*
X190024166Y-126499500D01*
X189928039Y-126499500D01*
X189919530Y-126501998D01*
X189919526Y-126501999D01*
X189798461Y-126537547D01*
X189789947Y-126540047D01*
X189782484Y-126544842D01*
X189782484Y-126544843D01*
X189676329Y-126613064D01*
X189676325Y-126613066D01*
X189668872Y-126617857D01*
X189663070Y-126624551D01*
X189663065Y-126624557D01*
X189580431Y-126719923D01*
X189580428Y-126719927D01*
X189574623Y-126726627D01*
X189570941Y-126734689D01*
X189570938Y-126734694D01*
X189518520Y-126849473D01*
X189514835Y-126857543D01*
X189513573Y-126866316D01*
X189513572Y-126866322D01*
X189500338Y-126958372D01*
X189494353Y-127000000D01*
X189495615Y-127008777D01*
X189513572Y-127133677D01*
X189513573Y-127133681D01*
X189514835Y-127142457D01*
X189574623Y-127273373D01*
X189580430Y-127280075D01*
X189580431Y-127280076D01*
X189668872Y-127382143D01*
X189667029Y-127383739D01*
X189688274Y-127412083D01*
X189699500Y-127463640D01*
X189699500Y-128720458D01*
X189685985Y-128776753D01*
X189648385Y-128820776D01*
X189594898Y-128842931D01*
X189537182Y-128838389D01*
X189487819Y-128808139D01*
X187450319Y-126770639D01*
X187423439Y-126730411D01*
X187414000Y-126682958D01*
X187414000Y-125711432D01*
X188745813Y-125711432D01*
X188754285Y-125718923D01*
X188860092Y-125775478D01*
X188871292Y-125780117D01*
X189048135Y-125833762D01*
X189060030Y-125836128D01*
X189243939Y-125854242D01*
X189256061Y-125854242D01*
X189439969Y-125836128D01*
X189451864Y-125833762D01*
X189628707Y-125780117D01*
X189639907Y-125775478D01*
X189745713Y-125718923D01*
X189754185Y-125711432D01*
X189748254Y-125701808D01*
X189261542Y-125215095D01*
X189250000Y-125208431D01*
X189238457Y-125215095D01*
X188751743Y-125701809D01*
X188745813Y-125711432D01*
X187414000Y-125711432D01*
X187414000Y-125627520D01*
X187431883Y-125563370D01*
X187480374Y-125517724D01*
X187488670Y-125513370D01*
X187550852Y-125480734D01*
X187678183Y-125367929D01*
X187774818Y-125227930D01*
X187835140Y-125068872D01*
X187855645Y-124900000D01*
X187850310Y-124856061D01*
X188245758Y-124856061D01*
X188263871Y-125039969D01*
X188266237Y-125051864D01*
X188319882Y-125228707D01*
X188324520Y-125239904D01*
X188381076Y-125345716D01*
X188388565Y-125354185D01*
X188398189Y-125348255D01*
X188884903Y-124861541D01*
X188891567Y-124849999D01*
X189608431Y-124849999D01*
X189615095Y-124861541D01*
X190101807Y-125348253D01*
X190111433Y-125354184D01*
X190118923Y-125345713D01*
X190175478Y-125239907D01*
X190180117Y-125228707D01*
X190233762Y-125051864D01*
X190236128Y-125039969D01*
X190254242Y-124856061D01*
X190254242Y-124843939D01*
X190236128Y-124660030D01*
X190233762Y-124648135D01*
X190180117Y-124471292D01*
X190175478Y-124460092D01*
X190118923Y-124354285D01*
X190111432Y-124345813D01*
X190101808Y-124351744D01*
X189615095Y-124838456D01*
X189608431Y-124849999D01*
X188891567Y-124849999D01*
X188884903Y-124838456D01*
X188398190Y-124351744D01*
X188388566Y-124345813D01*
X188381075Y-124354284D01*
X188324520Y-124460093D01*
X188319882Y-124471292D01*
X188266237Y-124648135D01*
X188263871Y-124660030D01*
X188245758Y-124843939D01*
X188245758Y-124856061D01*
X187850310Y-124856061D01*
X187835140Y-124731128D01*
X187774818Y-124572070D01*
X187708952Y-124476647D01*
X187682442Y-124438241D01*
X187682441Y-124438240D01*
X187678183Y-124432071D01*
X187593507Y-124357055D01*
X187556468Y-124324241D01*
X187556466Y-124324239D01*
X187550852Y-124319266D01*
X187465065Y-124274241D01*
X187406866Y-124243695D01*
X187406862Y-124243693D01*
X187400225Y-124240210D01*
X187392947Y-124238416D01*
X187392944Y-124238415D01*
X187242337Y-124201294D01*
X187242332Y-124201293D01*
X187235056Y-124199500D01*
X187064944Y-124199500D01*
X187057668Y-124201293D01*
X187057662Y-124201294D01*
X186907055Y-124238415D01*
X186907050Y-124238416D01*
X186899775Y-124240210D01*
X186893140Y-124243692D01*
X186893133Y-124243695D01*
X186755791Y-124315779D01*
X186755788Y-124315780D01*
X186749148Y-124319266D01*
X186743537Y-124324236D01*
X186743531Y-124324241D01*
X186627430Y-124427098D01*
X186621817Y-124432071D01*
X186617562Y-124438235D01*
X186617557Y-124438241D01*
X186529445Y-124565893D01*
X186529442Y-124565897D01*
X186525182Y-124572070D01*
X186522523Y-124579081D01*
X186522520Y-124579087D01*
X186467520Y-124724111D01*
X186467517Y-124724119D01*
X186464860Y-124731128D01*
X186463956Y-124738570D01*
X186463955Y-124738576D01*
X186451828Y-124838456D01*
X186444355Y-124900000D01*
X186445259Y-124907445D01*
X186463955Y-125061423D01*
X186463956Y-125061427D01*
X186464860Y-125068872D01*
X186467518Y-125075882D01*
X186467520Y-125075888D01*
X186522520Y-125220912D01*
X186525182Y-125227930D01*
X186529444Y-125234105D01*
X186529445Y-125234106D01*
X186608235Y-125348253D01*
X186621817Y-125367929D01*
X186749148Y-125480734D01*
X186800106Y-125507479D01*
X186819626Y-125517724D01*
X186868117Y-125563370D01*
X186886000Y-125627520D01*
X186886000Y-126770392D01*
X186872485Y-126826687D01*
X186834885Y-126870710D01*
X186781398Y-126892865D01*
X186723682Y-126888323D01*
X186674319Y-126858073D01*
X185462407Y-125646161D01*
X185429691Y-125588155D01*
X185431703Y-125521589D01*
X185467858Y-125465667D01*
X185578183Y-125367929D01*
X185674818Y-125227930D01*
X185735140Y-125068872D01*
X185755645Y-124900000D01*
X185735140Y-124731128D01*
X185674818Y-124572070D01*
X185608952Y-124476647D01*
X185582442Y-124438241D01*
X185582441Y-124438240D01*
X185578183Y-124432071D01*
X185493507Y-124357055D01*
X185456468Y-124324241D01*
X185456466Y-124324239D01*
X185450852Y-124319266D01*
X185365065Y-124274241D01*
X185306866Y-124243695D01*
X185306862Y-124243693D01*
X185300225Y-124240210D01*
X185292947Y-124238416D01*
X185292944Y-124238415D01*
X185142337Y-124201294D01*
X185142332Y-124201293D01*
X185135056Y-124199500D01*
X184964944Y-124199500D01*
X184957668Y-124201293D01*
X184957662Y-124201294D01*
X184807055Y-124238415D01*
X184807050Y-124238416D01*
X184799775Y-124240210D01*
X184793140Y-124243692D01*
X184793133Y-124243695D01*
X184655791Y-124315779D01*
X184655788Y-124315780D01*
X184649148Y-124319266D01*
X184643537Y-124324236D01*
X184643531Y-124324241D01*
X184527430Y-124427098D01*
X184521817Y-124432071D01*
X184517562Y-124438235D01*
X184517557Y-124438241D01*
X184429445Y-124565893D01*
X184429442Y-124565897D01*
X184425182Y-124572070D01*
X184422523Y-124579081D01*
X184422520Y-124579087D01*
X184367520Y-124724111D01*
X184367517Y-124724119D01*
X184364860Y-124731128D01*
X184363956Y-124738570D01*
X184363955Y-124738576D01*
X184351828Y-124838456D01*
X184344355Y-124900000D01*
X184345259Y-124907445D01*
X184363955Y-125061423D01*
X184363956Y-125061427D01*
X184364860Y-125068872D01*
X184367518Y-125075882D01*
X184367520Y-125075888D01*
X184422520Y-125220912D01*
X184425182Y-125227930D01*
X184429444Y-125234105D01*
X184429445Y-125234106D01*
X184508235Y-125348253D01*
X184521817Y-125367929D01*
X184649148Y-125480734D01*
X184716488Y-125516077D01*
X184716837Y-125516260D01*
X184765328Y-125561906D01*
X184778080Y-125607652D01*
X184780828Y-125607106D01*
X184786000Y-125633108D01*
X184798934Y-125698138D01*
X184798935Y-125698142D01*
X184801317Y-125710114D01*
X184815320Y-125731070D01*
X184851932Y-125785864D01*
X184859667Y-125797439D01*
X184871438Y-125805304D01*
X184871553Y-125805381D01*
X184890345Y-125820803D01*
X190979193Y-131909651D01*
X190994613Y-131928439D01*
X190995774Y-131930177D01*
X190995776Y-131930179D01*
X191002561Y-131940333D01*
X191024603Y-131955061D01*
X191024604Y-131955062D01*
X191089886Y-131998683D01*
X191192894Y-132019172D01*
X191206924Y-132016381D01*
X191231107Y-132014000D01*
X193761787Y-132014000D01*
X193785969Y-132016381D01*
X193800000Y-132019172D01*
X193903008Y-131998683D01*
X193946245Y-131969792D01*
X193968290Y-131955063D01*
X193968298Y-131955056D01*
X193980178Y-131947118D01*
X193980177Y-131947118D01*
X193990333Y-131940333D01*
X193998273Y-131928448D01*
X194013695Y-131909655D01*
X194137014Y-131786336D01*
X194185532Y-131756365D01*
X194228039Y-131752561D01*
X194228039Y-131750500D01*
X194363090Y-131750500D01*
X194371961Y-131750500D01*
X194469058Y-131721989D01*
X194533796Y-131720603D01*
X194590409Y-131752042D01*
X194623453Y-131807734D01*
X194623915Y-131872490D01*
X194591670Y-131928648D01*
X194020639Y-132499681D01*
X193980411Y-132526561D01*
X193932958Y-132536000D01*
X192940127Y-132536000D01*
X192888615Y-132524794D01*
X192846414Y-132493202D01*
X192786934Y-132424557D01*
X192786932Y-132424555D01*
X192781128Y-132417857D01*
X192660053Y-132340047D01*
X192579014Y-132316252D01*
X192530473Y-132301999D01*
X192530470Y-132301998D01*
X192521961Y-132299500D01*
X192378039Y-132299500D01*
X192369530Y-132301998D01*
X192369526Y-132301999D01*
X192248461Y-132337547D01*
X192239947Y-132340047D01*
X192232484Y-132344842D01*
X192232484Y-132344843D01*
X192126329Y-132413064D01*
X192126325Y-132413066D01*
X192118872Y-132417857D01*
X192113070Y-132424551D01*
X192113065Y-132424557D01*
X192030431Y-132519923D01*
X192030428Y-132519927D01*
X192024623Y-132526627D01*
X192020941Y-132534689D01*
X192020938Y-132534694D01*
X192020342Y-132536000D01*
X191964835Y-132657543D01*
X191963573Y-132666316D01*
X191963572Y-132666322D01*
X191947120Y-132780754D01*
X191944353Y-132800000D01*
X191945615Y-132808777D01*
X191962958Y-132929406D01*
X191964835Y-132942457D01*
X191964940Y-132942687D01*
X191967708Y-132994317D01*
X191944945Y-133046611D01*
X191901182Y-133083184D01*
X191845678Y-133096300D01*
X187668478Y-133096300D01*
X187632483Y-133090961D01*
X187599587Y-133075402D01*
X187588388Y-133067919D01*
X187588384Y-133067917D01*
X187578231Y-133061133D01*
X187566253Y-133058750D01*
X187566250Y-133058749D01*
X187525728Y-133050689D01*
X187525723Y-133050688D01*
X187519748Y-133049500D01*
X185480252Y-133049500D01*
X185474277Y-133050688D01*
X185474271Y-133050689D01*
X185433747Y-133058750D01*
X185433745Y-133058750D01*
X185421769Y-133061133D01*
X185411618Y-133067915D01*
X185411615Y-133067917D01*
X185365601Y-133098663D01*
X185365598Y-133098665D01*
X185355448Y-133105448D01*
X185348665Y-133115598D01*
X185348663Y-133115601D01*
X185317917Y-133161615D01*
X185317915Y-133161618D01*
X185311133Y-133171769D01*
X185308750Y-133183745D01*
X185308750Y-133183747D01*
X185300689Y-133224271D01*
X185300688Y-133224277D01*
X185299500Y-133230252D01*
X185299500Y-133236348D01*
X185299500Y-134153658D01*
X185285297Y-134211284D01*
X185274874Y-134223048D01*
X185275353Y-134223403D01*
X185301117Y-134277877D01*
X185307263Y-134308778D01*
X185311133Y-134328231D01*
X185317916Y-134338383D01*
X185317917Y-134338384D01*
X185328502Y-134354226D01*
X185355448Y-134394552D01*
X185421769Y-134438867D01*
X185480252Y-134450500D01*
X187513652Y-134450500D01*
X187519748Y-134450500D01*
X187578231Y-134438867D01*
X187644552Y-134394552D01*
X187688867Y-134328231D01*
X187700500Y-134269748D01*
X187700500Y-133821300D01*
X187717113Y-133759300D01*
X187762500Y-133713913D01*
X187824500Y-133697300D01*
X191592879Y-133697300D01*
X191650745Y-133711630D01*
X191695237Y-133751308D01*
X191716071Y-133807164D01*
X191708431Y-133866287D01*
X191674732Y-133914090D01*
X191668872Y-133917857D01*
X191663065Y-133924557D01*
X191663062Y-133924561D01*
X191580431Y-134019923D01*
X191580428Y-134019927D01*
X191574623Y-134026627D01*
X191570941Y-134034689D01*
X191570938Y-134034694D01*
X191524246Y-134136935D01*
X191514835Y-134157543D01*
X191513573Y-134166316D01*
X191513572Y-134166322D01*
X191497843Y-134275728D01*
X191494353Y-134300000D01*
X191495615Y-134308777D01*
X191495615Y-134308778D01*
X191502149Y-134354226D01*
X191497065Y-134411032D01*
X191467092Y-134459553D01*
X189590344Y-136336302D01*
X189571562Y-136351718D01*
X189569819Y-136352882D01*
X189569815Y-136352885D01*
X189559667Y-136359667D01*
X189552885Y-136369815D01*
X189552883Y-136369818D01*
X189545012Y-136381598D01*
X189544938Y-136381709D01*
X189544938Y-136381710D01*
X189509601Y-136434595D01*
X189501317Y-136446992D01*
X189498935Y-136458963D01*
X189498934Y-136458968D01*
X189496118Y-136473129D01*
X189470354Y-136527603D01*
X189421953Y-136563500D01*
X189362346Y-136572342D01*
X189305610Y-136552041D01*
X189265142Y-136507392D01*
X189250500Y-136448939D01*
X189250500Y-135251857D01*
X189250748Y-135248276D01*
X189252773Y-135242236D01*
X189250632Y-135195921D01*
X189250500Y-135190195D01*
X189250500Y-135177894D01*
X189250500Y-135172156D01*
X189249444Y-135166512D01*
X189249365Y-135165656D01*
X189248967Y-135159926D01*
X189248809Y-135156500D01*
X189247585Y-135130009D01*
X189245280Y-135124790D01*
X189243501Y-135084472D01*
X189255647Y-135000000D01*
X189235165Y-134857543D01*
X189175377Y-134726627D01*
X189134522Y-134679477D01*
X189086934Y-134624557D01*
X189086932Y-134624555D01*
X189081128Y-134617857D01*
X188960053Y-134540047D01*
X188867748Y-134512944D01*
X188830473Y-134501999D01*
X188830470Y-134501998D01*
X188821961Y-134499500D01*
X188678039Y-134499500D01*
X188669530Y-134501998D01*
X188669526Y-134501999D01*
X188548461Y-134537547D01*
X188539947Y-134540047D01*
X188532484Y-134544842D01*
X188532484Y-134544843D01*
X188426329Y-134613064D01*
X188426325Y-134613066D01*
X188418872Y-134617857D01*
X188413070Y-134624551D01*
X188413065Y-134624557D01*
X188330431Y-134719923D01*
X188330428Y-134719927D01*
X188324623Y-134726627D01*
X188320941Y-134734689D01*
X188320938Y-134734694D01*
X188288207Y-134806365D01*
X188264835Y-134857543D01*
X188263573Y-134866316D01*
X188263572Y-134866322D01*
X188249009Y-134967615D01*
X188244353Y-135000000D01*
X188245615Y-135008776D01*
X188245615Y-135008787D01*
X188245661Y-135009107D01*
X188245615Y-135009621D01*
X188245615Y-135017647D01*
X188244896Y-135017647D01*
X188240575Y-135065907D01*
X188210603Y-135114424D01*
X187912179Y-135412849D01*
X187862818Y-135443098D01*
X187805102Y-135447640D01*
X187751615Y-135425485D01*
X187714015Y-135381462D01*
X187700500Y-135325167D01*
X187700500Y-135236348D01*
X187700500Y-135230252D01*
X187688867Y-135171769D01*
X187644552Y-135105448D01*
X187628167Y-135094500D01*
X187588384Y-135067917D01*
X187588383Y-135067916D01*
X187578231Y-135061133D01*
X187566253Y-135058750D01*
X187566252Y-135058750D01*
X187525728Y-135050689D01*
X187525723Y-135050688D01*
X187519748Y-135049500D01*
X185480252Y-135049500D01*
X185474277Y-135050688D01*
X185474271Y-135050689D01*
X185433747Y-135058750D01*
X185433745Y-135058750D01*
X185421769Y-135061133D01*
X185411618Y-135067915D01*
X185411615Y-135067917D01*
X185365601Y-135098663D01*
X185365598Y-135098665D01*
X185355448Y-135105448D01*
X185348665Y-135115598D01*
X185348663Y-135115601D01*
X185317917Y-135161615D01*
X185317915Y-135161618D01*
X185311133Y-135171769D01*
X185308750Y-135183745D01*
X185308750Y-135183747D01*
X185300689Y-135224271D01*
X185300688Y-135224277D01*
X185299500Y-135230252D01*
X185299500Y-135236348D01*
X185299500Y-135649167D01*
X185290061Y-135696620D01*
X185263181Y-135736848D01*
X184261848Y-136738181D01*
X184221620Y-136765061D01*
X184174167Y-136774500D01*
X183716512Y-136774500D01*
X183711698Y-136775262D01*
X183711691Y-136775263D01*
X183626515Y-136788753D01*
X183626508Y-136788755D01*
X183616874Y-136790281D01*
X183608178Y-136794711D01*
X183608177Y-136794712D01*
X183505475Y-136847041D01*
X183505471Y-136847043D01*
X183496780Y-136851472D01*
X183489881Y-136858370D01*
X183489878Y-136858373D01*
X183408373Y-136939878D01*
X183408370Y-136939881D01*
X183401472Y-136946780D01*
X183397043Y-136955471D01*
X183397041Y-136955475D01*
X183344712Y-137058177D01*
X183340281Y-137066874D01*
X183338755Y-137076508D01*
X183338753Y-137076515D01*
X183325263Y-137161691D01*
X183325262Y-137161698D01*
X183324500Y-137166512D01*
X183324500Y-137683488D01*
X183325262Y-137688302D01*
X183325263Y-137688308D01*
X183338753Y-137773484D01*
X183338754Y-137773489D01*
X183340281Y-137783126D01*
X183401472Y-137903220D01*
X183408373Y-137910121D01*
X183420425Y-137922173D01*
X183449870Y-137969143D01*
X183455906Y-138024249D01*
X183437325Y-138076479D01*
X183397842Y-138115392D01*
X183303416Y-138173635D01*
X183292157Y-138182537D01*
X183182537Y-138292157D01*
X183173632Y-138303419D01*
X183092246Y-138435366D01*
X183086180Y-138448374D01*
X183037272Y-138595969D01*
X183034456Y-138609125D01*
X183025319Y-138698555D01*
X183025000Y-138704832D01*
X183025000Y-138708674D01*
X183028450Y-138721549D01*
X183041326Y-138725000D01*
X184958673Y-138725000D01*
X184971548Y-138721549D01*
X184974999Y-138708674D01*
X184974999Y-138704835D01*
X184974678Y-138698552D01*
X184965544Y-138609132D01*
X184962725Y-138595963D01*
X184913819Y-138448374D01*
X184907753Y-138435366D01*
X184826367Y-138303419D01*
X184817462Y-138292157D01*
X184795053Y-138269748D01*
X185299500Y-138269748D01*
X185300688Y-138275723D01*
X185300689Y-138275728D01*
X185308750Y-138316252D01*
X185311133Y-138328231D01*
X185317916Y-138338383D01*
X185317917Y-138338384D01*
X185331247Y-138358334D01*
X185355448Y-138394552D01*
X185421769Y-138438867D01*
X185480252Y-138450500D01*
X187513652Y-138450500D01*
X187519748Y-138450500D01*
X187578231Y-138438867D01*
X187644552Y-138394552D01*
X187688867Y-138328231D01*
X187700500Y-138269748D01*
X187700500Y-137230252D01*
X187688867Y-137171769D01*
X187644552Y-137105448D01*
X187617495Y-137087369D01*
X187588384Y-137067917D01*
X187588383Y-137067916D01*
X187578231Y-137061133D01*
X187566253Y-137058750D01*
X187566252Y-137058750D01*
X187525728Y-137050689D01*
X187525723Y-137050688D01*
X187519748Y-137049500D01*
X185480252Y-137049500D01*
X185474277Y-137050688D01*
X185474271Y-137050689D01*
X185433747Y-137058750D01*
X185433745Y-137058750D01*
X185421769Y-137061133D01*
X185411618Y-137067915D01*
X185411615Y-137067917D01*
X185365601Y-137098663D01*
X185365598Y-137098665D01*
X185355448Y-137105448D01*
X185348665Y-137115598D01*
X185348663Y-137115601D01*
X185317917Y-137161615D01*
X185317915Y-137161618D01*
X185311133Y-137171769D01*
X185308750Y-137183745D01*
X185308750Y-137183747D01*
X185300689Y-137224271D01*
X185300688Y-137224277D01*
X185299500Y-137230252D01*
X185299500Y-138269748D01*
X184795053Y-138269748D01*
X184707842Y-138182537D01*
X184696580Y-138173632D01*
X184602158Y-138115392D01*
X184562674Y-138076478D01*
X184544093Y-138024248D01*
X184550129Y-137969140D01*
X184579572Y-137922175D01*
X184598528Y-137903220D01*
X184659719Y-137783126D01*
X184675500Y-137683488D01*
X184675500Y-137225833D01*
X184684939Y-137178380D01*
X184711819Y-137138152D01*
X184866294Y-136983677D01*
X185366008Y-136483961D01*
X185417710Y-136452978D01*
X185468039Y-136450516D01*
X185468217Y-136448714D01*
X185474271Y-136449310D01*
X185480252Y-136450500D01*
X187513652Y-136450500D01*
X187519748Y-136450500D01*
X187578231Y-136438867D01*
X187644552Y-136394552D01*
X187688867Y-136328231D01*
X187700500Y-136269748D01*
X187700500Y-136174500D01*
X187717113Y-136112500D01*
X187762500Y-136067113D01*
X187824500Y-136050500D01*
X187948144Y-136050500D01*
X187951724Y-136050748D01*
X187957765Y-136052773D01*
X188004079Y-136050632D01*
X188009806Y-136050500D01*
X188022111Y-136050500D01*
X188027844Y-136050500D01*
X188033478Y-136049445D01*
X188034351Y-136049365D01*
X188040072Y-136048967D01*
X188069992Y-136047585D01*
X188080506Y-136042941D01*
X188087908Y-136041201D01*
X188092038Y-136039922D01*
X188099135Y-136037172D01*
X188110433Y-136035061D01*
X188133144Y-136020998D01*
X188148319Y-136012999D01*
X188172765Y-136002206D01*
X188180892Y-135994077D01*
X188187175Y-135989774D01*
X188190555Y-135987096D01*
X188196176Y-135981970D01*
X188205952Y-135975919D01*
X188222053Y-135954595D01*
X188233314Y-135941655D01*
X188437820Y-135737150D01*
X188487182Y-135706901D01*
X188544898Y-135702359D01*
X188598385Y-135724514D01*
X188635985Y-135768537D01*
X188649500Y-135824832D01*
X188649500Y-138386360D01*
X188638274Y-138437917D01*
X188617029Y-138466260D01*
X188618872Y-138467857D01*
X188530431Y-138569923D01*
X188530428Y-138569927D01*
X188524623Y-138576627D01*
X188520941Y-138584689D01*
X188520938Y-138584694D01*
X188468520Y-138699473D01*
X188464835Y-138707543D01*
X188463573Y-138716316D01*
X188463572Y-138716322D01*
X188457311Y-138759872D01*
X188444353Y-138850000D01*
X188445615Y-138858777D01*
X188463572Y-138983677D01*
X188463573Y-138983681D01*
X188464835Y-138992457D01*
X188468519Y-139000525D01*
X188468520Y-139000526D01*
X188520256Y-139113812D01*
X188524623Y-139123373D01*
X188530430Y-139130075D01*
X188530431Y-139130076D01*
X188613065Y-139225442D01*
X188613067Y-139225444D01*
X188618872Y-139232143D01*
X188739947Y-139309953D01*
X188878039Y-139350500D01*
X189013090Y-139350500D01*
X189021961Y-139350500D01*
X189160053Y-139309953D01*
X189281128Y-139232143D01*
X189283614Y-139229272D01*
X189330474Y-139204546D01*
X189386623Y-139202941D01*
X189437719Y-139226275D01*
X189473277Y-139269760D01*
X189486000Y-139324472D01*
X189486000Y-139439285D01*
X189476561Y-139486738D01*
X189449681Y-139526966D01*
X188526967Y-140449681D01*
X188486739Y-140476561D01*
X188439286Y-140486000D01*
X187806517Y-140486000D01*
X187748065Y-140471359D01*
X187703416Y-140430892D01*
X187683114Y-140374157D01*
X187689895Y-140328435D01*
X187688867Y-140328231D01*
X187689508Y-140325007D01*
X187700500Y-140269748D01*
X187700500Y-139230252D01*
X187688867Y-139171769D01*
X187644552Y-139105448D01*
X187578231Y-139061133D01*
X187566253Y-139058750D01*
X187566252Y-139058750D01*
X187525728Y-139050689D01*
X187525723Y-139050688D01*
X187519748Y-139049500D01*
X185480252Y-139049500D01*
X185474277Y-139050688D01*
X185474271Y-139050689D01*
X185433747Y-139058750D01*
X185433745Y-139058750D01*
X185421769Y-139061133D01*
X185411618Y-139067915D01*
X185411615Y-139067917D01*
X185365601Y-139098663D01*
X185365598Y-139098665D01*
X185355448Y-139105448D01*
X185348665Y-139115598D01*
X185348663Y-139115601D01*
X185317917Y-139161615D01*
X185317915Y-139161618D01*
X185311133Y-139171769D01*
X185308750Y-139183745D01*
X185308750Y-139183747D01*
X185300689Y-139224271D01*
X185300688Y-139224277D01*
X185299500Y-139230252D01*
X185299500Y-140266560D01*
X185299500Y-140269748D01*
X185299027Y-140269748D01*
X185290830Y-140325007D01*
X185254934Y-140373408D01*
X185200461Y-140399172D01*
X185140274Y-140396216D01*
X185088588Y-140365236D01*
X185063697Y-140340345D01*
X185048275Y-140321553D01*
X185047118Y-140319822D01*
X185040333Y-140309667D01*
X185030179Y-140302882D01*
X185030178Y-140302881D01*
X184971468Y-140263652D01*
X184953008Y-140251317D01*
X184941036Y-140248935D01*
X184941032Y-140248934D01*
X184876002Y-140236000D01*
X184876001Y-140235999D01*
X184850000Y-140230828D01*
X184835969Y-140233618D01*
X184811787Y-140236000D01*
X182538212Y-140236000D01*
X182514022Y-140233618D01*
X182511976Y-140233211D01*
X182500000Y-140230829D01*
X182488024Y-140233211D01*
X182488023Y-140233211D01*
X182474005Y-140235999D01*
X182473996Y-140236000D01*
X182408967Y-140248934D01*
X182408961Y-140248936D01*
X182396992Y-140251317D01*
X182386839Y-140258100D01*
X182386839Y-140258101D01*
X182319817Y-140302884D01*
X182319814Y-140302886D01*
X182309667Y-140309667D01*
X182302885Y-140319815D01*
X182302882Y-140319819D01*
X182301718Y-140321562D01*
X182286302Y-140340344D01*
X181740344Y-140886302D01*
X181721562Y-140901718D01*
X181719819Y-140902882D01*
X181719815Y-140902885D01*
X181709667Y-140909667D01*
X181702885Y-140919815D01*
X181702883Y-140919818D01*
X181695959Y-140930181D01*
X181694938Y-140931709D01*
X181694938Y-140931710D01*
X181658411Y-140986376D01*
X181651317Y-140996992D01*
X181648936Y-141008961D01*
X181648934Y-141008967D01*
X181633210Y-141088023D01*
X181630828Y-141100000D01*
X181633618Y-141114030D01*
X181636000Y-141138213D01*
X181636000Y-143361787D01*
X181633618Y-143385969D01*
X181630828Y-143400000D01*
X180526756Y-143400000D01*
X180605734Y-143310852D01*
X180684790Y-143160225D01*
X180725500Y-142995056D01*
X180725500Y-142824944D01*
X180684790Y-142659775D01*
X180605734Y-142509148D01*
X180492929Y-142381817D01*
X180486760Y-142377558D01*
X180486758Y-142377557D01*
X180359106Y-142289445D01*
X180359105Y-142289444D01*
X180352930Y-142285182D01*
X180345915Y-142282521D01*
X180345912Y-142282520D01*
X180200888Y-142227520D01*
X180200882Y-142227518D01*
X180193872Y-142224860D01*
X180186427Y-142223956D01*
X180186423Y-142223955D01*
X180071092Y-142209951D01*
X180071080Y-142209950D01*
X180067372Y-142209500D01*
X179182628Y-142209500D01*
X179178920Y-142209950D01*
X179178907Y-142209951D01*
X179063576Y-142223955D01*
X179063570Y-142223956D01*
X179056128Y-142224860D01*
X179049119Y-142227517D01*
X179049111Y-142227520D01*
X178904087Y-142282520D01*
X178904081Y-142282523D01*
X178897070Y-142285182D01*
X178890897Y-142289442D01*
X178890893Y-142289445D01*
X178763241Y-142377557D01*
X178763235Y-142377562D01*
X178757071Y-142381817D01*
X178752099Y-142387428D01*
X178752098Y-142387430D01*
X178649241Y-142503531D01*
X178649236Y-142503537D01*
X178644266Y-142509148D01*
X178640780Y-142515788D01*
X178640779Y-142515791D01*
X178568695Y-142653133D01*
X178568692Y-142653140D01*
X178565210Y-142659775D01*
X178563416Y-142667050D01*
X178563415Y-142667055D01*
X178526294Y-142817662D01*
X178526293Y-142817668D01*
X178524500Y-142824944D01*
X178524500Y-142995056D01*
X178050500Y-142995056D01*
X178050500Y-139245165D01*
X183025001Y-139245165D01*
X183025321Y-139251447D01*
X183034455Y-139340867D01*
X183037274Y-139354036D01*
X183086180Y-139501625D01*
X183092246Y-139514633D01*
X183173632Y-139646580D01*
X183182537Y-139657842D01*
X183292157Y-139767462D01*
X183303419Y-139776367D01*
X183435366Y-139857753D01*
X183448374Y-139863819D01*
X183595969Y-139912727D01*
X183609125Y-139915543D01*
X183698555Y-139924680D01*
X183704832Y-139925000D01*
X183733674Y-139925000D01*
X183746549Y-139921549D01*
X183750000Y-139908674D01*
X183750000Y-139908673D01*
X184250000Y-139908673D01*
X184253450Y-139921548D01*
X184266326Y-139924999D01*
X184295165Y-139924999D01*
X184301447Y-139924678D01*
X184390867Y-139915544D01*
X184404036Y-139912725D01*
X184551625Y-139863819D01*
X184564633Y-139857753D01*
X184696580Y-139776367D01*
X184707842Y-139767462D01*
X184817462Y-139657842D01*
X184826367Y-139646580D01*
X184907753Y-139514633D01*
X184913819Y-139501625D01*
X184962727Y-139354030D01*
X184965543Y-139340874D01*
X184974680Y-139251444D01*
X184975000Y-139245168D01*
X184975000Y-139241326D01*
X184971549Y-139228450D01*
X184958674Y-139225000D01*
X184266326Y-139225000D01*
X184253450Y-139228450D01*
X184250000Y-139241326D01*
X184250000Y-139908673D01*
X183750000Y-139908673D01*
X183750000Y-139241326D01*
X183746549Y-139228450D01*
X183733674Y-139225000D01*
X183041327Y-139225000D01*
X183028451Y-139228450D01*
X183025001Y-139241326D01*
X183025001Y-139245165D01*
X178050500Y-139245165D01*
X178050500Y-134355056D01*
X178524500Y-134355056D01*
X178526293Y-134362332D01*
X178526294Y-134362337D01*
X178563415Y-134512944D01*
X178565210Y-134520225D01*
X178568693Y-134526862D01*
X178568695Y-134526866D01*
X178611937Y-134609255D01*
X178644266Y-134670852D01*
X178757071Y-134798183D01*
X178763240Y-134802441D01*
X178763241Y-134802442D01*
X178801647Y-134828952D01*
X178897070Y-134894818D01*
X178904767Y-134897737D01*
X179048391Y-134952206D01*
X179056128Y-134955140D01*
X179182628Y-134970500D01*
X180063623Y-134970500D01*
X180067372Y-134970500D01*
X180193872Y-134955140D01*
X180352930Y-134894818D01*
X180492929Y-134798183D01*
X180605734Y-134670852D01*
X180684790Y-134520225D01*
X180725500Y-134355056D01*
X182554500Y-134355056D01*
X182556293Y-134362332D01*
X182556294Y-134362337D01*
X182593415Y-134512944D01*
X182595210Y-134520225D01*
X182598693Y-134526862D01*
X182598695Y-134526866D01*
X182641937Y-134609255D01*
X182674266Y-134670852D01*
X182787071Y-134798183D01*
X182793240Y-134802441D01*
X182793241Y-134802442D01*
X182831647Y-134828952D01*
X182927070Y-134894818D01*
X182934088Y-134897479D01*
X182934089Y-134897480D01*
X183061750Y-134945895D01*
X183110096Y-134979050D01*
X183137809Y-135030709D01*
X183138695Y-135089325D01*
X183112556Y-135141797D01*
X183065233Y-135176398D01*
X183022276Y-135194191D01*
X183022272Y-135194193D01*
X183014767Y-135197302D01*
X183008328Y-135202242D01*
X183008319Y-135202248D01*
X182900991Y-135284605D01*
X182900987Y-135284608D01*
X182894549Y-135289549D01*
X182889608Y-135295987D01*
X182889605Y-135295991D01*
X182807248Y-135403319D01*
X182807242Y-135403328D01*
X182802302Y-135409767D01*
X182799193Y-135417272D01*
X182799191Y-135417276D01*
X182747423Y-135542254D01*
X182747421Y-135542259D01*
X182744313Y-135549764D01*
X182743252Y-135557815D01*
X182743251Y-135557823D01*
X182726136Y-135687833D01*
X182724534Y-135700000D01*
X182725595Y-135708059D01*
X182743251Y-135842176D01*
X182743252Y-135842182D01*
X182744313Y-135850236D01*
X182747422Y-135857742D01*
X182747423Y-135857745D01*
X182775482Y-135925485D01*
X182802302Y-135990233D01*
X182807245Y-135996674D01*
X182807248Y-135996680D01*
X182861294Y-136067113D01*
X182894549Y-136110451D01*
X182900991Y-136115394D01*
X183008319Y-136197751D01*
X183008322Y-136197753D01*
X183014767Y-136202698D01*
X183154764Y-136260687D01*
X183267280Y-136275500D01*
X183338667Y-136275500D01*
X183342720Y-136275500D01*
X183455236Y-136260687D01*
X183595233Y-136202698D01*
X183715451Y-136110451D01*
X183807698Y-135990233D01*
X183865687Y-135850236D01*
X183885466Y-135700000D01*
X183865687Y-135549764D01*
X183807698Y-135409767D01*
X183802753Y-135403322D01*
X183802751Y-135403319D01*
X183720394Y-135295991D01*
X183715451Y-135289549D01*
X183709008Y-135284605D01*
X183601677Y-135202246D01*
X183601673Y-135202243D01*
X183595233Y-135197302D01*
X183595769Y-135196602D01*
X183555667Y-135156500D01*
X183539054Y-135094500D01*
X183555667Y-135032500D01*
X183601054Y-134987113D01*
X183663054Y-134970500D01*
X184393623Y-134970500D01*
X184397372Y-134970500D01*
X184523872Y-134955140D01*
X184682930Y-134894818D01*
X184822929Y-134798183D01*
X184935734Y-134670852D01*
X185014790Y-134520225D01*
X185055500Y-134355056D01*
X185055500Y-134302068D01*
X185070142Y-134243615D01*
X185080653Y-134232016D01*
X185055103Y-134183333D01*
X185040609Y-134124529D01*
X185014790Y-134019775D01*
X184935734Y-133869148D01*
X184822929Y-133741817D01*
X184816760Y-133737558D01*
X184816758Y-133737557D01*
X184689106Y-133649445D01*
X184689105Y-133649444D01*
X184682930Y-133645182D01*
X184675915Y-133642521D01*
X184675912Y-133642520D01*
X184530888Y-133587520D01*
X184530882Y-133587518D01*
X184523872Y-133584860D01*
X184516427Y-133583956D01*
X184516423Y-133583955D01*
X184401092Y-133569951D01*
X184401080Y-133569950D01*
X184397372Y-133569500D01*
X183212628Y-133569500D01*
X183208920Y-133569950D01*
X183208907Y-133569951D01*
X183093576Y-133583955D01*
X183093570Y-133583956D01*
X183086128Y-133584860D01*
X183079119Y-133587517D01*
X183079111Y-133587520D01*
X182934087Y-133642520D01*
X182934081Y-133642523D01*
X182927070Y-133645182D01*
X182920897Y-133649442D01*
X182920893Y-133649445D01*
X182793241Y-133737557D01*
X182793235Y-133737562D01*
X182787071Y-133741817D01*
X182782099Y-133747428D01*
X182782098Y-133747430D01*
X182679241Y-133863531D01*
X182679236Y-133863537D01*
X182674266Y-133869148D01*
X182670780Y-133875788D01*
X182670779Y-133875791D01*
X182598695Y-134013133D01*
X182598692Y-134013140D01*
X182595210Y-134019775D01*
X182593416Y-134027050D01*
X182593415Y-134027055D01*
X182556294Y-134177662D01*
X182556293Y-134177668D01*
X182554500Y-134184944D01*
X182554500Y-134355056D01*
X180725500Y-134355056D01*
X180725500Y-134184944D01*
X180684790Y-134019775D01*
X180605734Y-133869148D01*
X180492929Y-133741817D01*
X180486760Y-133737558D01*
X180486758Y-133737557D01*
X180359106Y-133649445D01*
X180359105Y-133649444D01*
X180352930Y-133645182D01*
X180345915Y-133642521D01*
X180345912Y-133642520D01*
X180200888Y-133587520D01*
X180200882Y-133587518D01*
X180193872Y-133584860D01*
X180186427Y-133583956D01*
X180186423Y-133583955D01*
X180071092Y-133569951D01*
X180071080Y-133569950D01*
X180067372Y-133569500D01*
X179182628Y-133569500D01*
X179178920Y-133569950D01*
X179178907Y-133569951D01*
X179063576Y-133583955D01*
X179063570Y-133583956D01*
X179056128Y-133584860D01*
X179049119Y-133587517D01*
X179049111Y-133587520D01*
X178904087Y-133642520D01*
X178904081Y-133642523D01*
X178897070Y-133645182D01*
X178890897Y-133649442D01*
X178890893Y-133649445D01*
X178763241Y-133737557D01*
X178763235Y-133737562D01*
X178757071Y-133741817D01*
X178752099Y-133747428D01*
X178752098Y-133747430D01*
X178649241Y-133863531D01*
X178649236Y-133863537D01*
X178644266Y-133869148D01*
X178640780Y-133875788D01*
X178640779Y-133875791D01*
X178568695Y-134013133D01*
X178568692Y-134013140D01*
X178565210Y-134019775D01*
X178563416Y-134027050D01*
X178563415Y-134027055D01*
X178526294Y-134177662D01*
X178526293Y-134177668D01*
X178524500Y-134184944D01*
X178524500Y-134355056D01*
X178050500Y-134355056D01*
X178050500Y-132269748D01*
X185299500Y-132269748D01*
X185311133Y-132328231D01*
X185355448Y-132394552D01*
X185421769Y-132438867D01*
X185480252Y-132450500D01*
X187513652Y-132450500D01*
X187519748Y-132450500D01*
X187578231Y-132438867D01*
X187644552Y-132394552D01*
X187688867Y-132328231D01*
X187700500Y-132269748D01*
X187700500Y-131230252D01*
X187688867Y-131171769D01*
X187644552Y-131105448D01*
X187621166Y-131089822D01*
X187588384Y-131067917D01*
X187588383Y-131067916D01*
X187578231Y-131061133D01*
X187566253Y-131058750D01*
X187566252Y-131058750D01*
X187525728Y-131050689D01*
X187525723Y-131050688D01*
X187519748Y-131049500D01*
X185480252Y-131049500D01*
X185474277Y-131050688D01*
X185474271Y-131050689D01*
X185433747Y-131058750D01*
X185433745Y-131058750D01*
X185421769Y-131061133D01*
X185411618Y-131067915D01*
X185411615Y-131067917D01*
X185365601Y-131098663D01*
X185365598Y-131098665D01*
X185355448Y-131105448D01*
X185348665Y-131115598D01*
X185348663Y-131115601D01*
X185317917Y-131161615D01*
X185317915Y-131161618D01*
X185311133Y-131171769D01*
X185308750Y-131183745D01*
X185308750Y-131183747D01*
X185300689Y-131224271D01*
X185300688Y-131224277D01*
X185299500Y-131230252D01*
X185299500Y-132269748D01*
X178050500Y-132269748D01*
X178050500Y-131485056D01*
X180549500Y-131485056D01*
X180551293Y-131492332D01*
X180551294Y-131492337D01*
X180580284Y-131609953D01*
X180590210Y-131650225D01*
X180593693Y-131656862D01*
X180593695Y-131656866D01*
X180636264Y-131737973D01*
X180669266Y-131800852D01*
X180782071Y-131928183D01*
X180922070Y-132024818D01*
X181081128Y-132085140D01*
X181207628Y-132100500D01*
X181288623Y-132100500D01*
X181292372Y-132100500D01*
X181418872Y-132085140D01*
X181577930Y-132024818D01*
X181717929Y-131928183D01*
X181830734Y-131800852D01*
X181909790Y-131650225D01*
X181950500Y-131485056D01*
X181950500Y-131314944D01*
X181909790Y-131149775D01*
X181830734Y-130999148D01*
X181819408Y-130986364D01*
X181793417Y-130957026D01*
X181717929Y-130871817D01*
X181711760Y-130867558D01*
X181711758Y-130867557D01*
X181584106Y-130779445D01*
X181584105Y-130779444D01*
X181577930Y-130775182D01*
X181570915Y-130772521D01*
X181570912Y-130772520D01*
X181425888Y-130717520D01*
X181425882Y-130717518D01*
X181418872Y-130714860D01*
X181411427Y-130713956D01*
X181411423Y-130713955D01*
X181296092Y-130699951D01*
X181296080Y-130699950D01*
X181292372Y-130699500D01*
X181207628Y-130699500D01*
X181203920Y-130699950D01*
X181203907Y-130699951D01*
X181088576Y-130713955D01*
X181088570Y-130713956D01*
X181081128Y-130714860D01*
X181074119Y-130717517D01*
X181074111Y-130717520D01*
X180929087Y-130772520D01*
X180929081Y-130772523D01*
X180922070Y-130775182D01*
X180915897Y-130779442D01*
X180915893Y-130779445D01*
X180788241Y-130867557D01*
X180788235Y-130867562D01*
X180782071Y-130871817D01*
X180777099Y-130877428D01*
X180777098Y-130877430D01*
X180674241Y-130993531D01*
X180674236Y-130993537D01*
X180669266Y-130999148D01*
X180665780Y-131005788D01*
X180665779Y-131005791D01*
X180593695Y-131143133D01*
X180593692Y-131143140D01*
X180590210Y-131149775D01*
X180588416Y-131157050D01*
X180588415Y-131157055D01*
X180551294Y-131307662D01*
X180551293Y-131307668D01*
X180549500Y-131314944D01*
X180549500Y-131485056D01*
X178050500Y-131485056D01*
X178050500Y-130269748D01*
X185299500Y-130269748D01*
X185300688Y-130275723D01*
X185300689Y-130275728D01*
X185306091Y-130302884D01*
X185311133Y-130328231D01*
X185355448Y-130394552D01*
X185421769Y-130438867D01*
X185480252Y-130450500D01*
X187513652Y-130450500D01*
X187519748Y-130450500D01*
X187578231Y-130438867D01*
X187644552Y-130394552D01*
X187688867Y-130328231D01*
X187700500Y-130269748D01*
X187700500Y-129230252D01*
X187688867Y-129171769D01*
X187644552Y-129105448D01*
X187578231Y-129061133D01*
X187566253Y-129058750D01*
X187566252Y-129058750D01*
X187525728Y-129050689D01*
X187525723Y-129050688D01*
X187519748Y-129049500D01*
X185480252Y-129049500D01*
X185474277Y-129050688D01*
X185474271Y-129050689D01*
X185433747Y-129058750D01*
X185433745Y-129058750D01*
X185421769Y-129061133D01*
X185411618Y-129067915D01*
X185411615Y-129067917D01*
X185365601Y-129098663D01*
X185365598Y-129098665D01*
X185355448Y-129105448D01*
X185348665Y-129115598D01*
X185348663Y-129115601D01*
X185317917Y-129161615D01*
X185317915Y-129161618D01*
X185311133Y-129171769D01*
X185308750Y-129183745D01*
X185308750Y-129183747D01*
X185300689Y-129224271D01*
X185300688Y-129224277D01*
X185299500Y-129230252D01*
X185299500Y-130269748D01*
X178050500Y-130269748D01*
X178050500Y-124685056D01*
X180549500Y-124685056D01*
X180551293Y-124692332D01*
X180551294Y-124692337D01*
X180588415Y-124842944D01*
X180590210Y-124850225D01*
X180593693Y-124856862D01*
X180593695Y-124856866D01*
X180656129Y-124975823D01*
X180669266Y-125000852D01*
X180674239Y-125006466D01*
X180674241Y-125006468D01*
X180712252Y-125049374D01*
X180782071Y-125128183D01*
X180788240Y-125132441D01*
X180788241Y-125132442D01*
X180826647Y-125158952D01*
X180922070Y-125224818D01*
X181081128Y-125285140D01*
X181207628Y-125300500D01*
X181288623Y-125300500D01*
X181292372Y-125300500D01*
X181418872Y-125285140D01*
X181577930Y-125224818D01*
X181717929Y-125128183D01*
X181830734Y-125000852D01*
X181909790Y-124850225D01*
X181950500Y-124685056D01*
X181950500Y-124514944D01*
X181909790Y-124349775D01*
X181830734Y-124199148D01*
X181821225Y-124188415D01*
X181732400Y-124088152D01*
X181717929Y-124071817D01*
X181711760Y-124067558D01*
X181711758Y-124067557D01*
X181597320Y-123988566D01*
X188745813Y-123988566D01*
X188751743Y-123998189D01*
X189238457Y-124484903D01*
X189250000Y-124491567D01*
X189261542Y-124484903D01*
X189748254Y-123998190D01*
X189754185Y-123988565D01*
X189745716Y-123981076D01*
X189639904Y-123924520D01*
X189628707Y-123919882D01*
X189451864Y-123866237D01*
X189439969Y-123863871D01*
X189256061Y-123845758D01*
X189243939Y-123845758D01*
X189060030Y-123863871D01*
X189048135Y-123866237D01*
X188871292Y-123919882D01*
X188860093Y-123924520D01*
X188754284Y-123981075D01*
X188745813Y-123988566D01*
X181597320Y-123988566D01*
X181584106Y-123979445D01*
X181584105Y-123979444D01*
X181577930Y-123975182D01*
X181570915Y-123972521D01*
X181570912Y-123972520D01*
X181425888Y-123917520D01*
X181425882Y-123917518D01*
X181418872Y-123914860D01*
X181411427Y-123913956D01*
X181411423Y-123913955D01*
X181296092Y-123899951D01*
X181296080Y-123899950D01*
X181292372Y-123899500D01*
X181207628Y-123899500D01*
X181203920Y-123899950D01*
X181203907Y-123899951D01*
X181088576Y-123913955D01*
X181088570Y-123913956D01*
X181081128Y-123914860D01*
X181074119Y-123917517D01*
X181074111Y-123917520D01*
X180929087Y-123972520D01*
X180929081Y-123972523D01*
X180922070Y-123975182D01*
X180915897Y-123979442D01*
X180915893Y-123979445D01*
X180788241Y-124067557D01*
X180788235Y-124067562D01*
X180782071Y-124071817D01*
X180777099Y-124077428D01*
X180777098Y-124077430D01*
X180674241Y-124193531D01*
X180674236Y-124193537D01*
X180669266Y-124199148D01*
X180665780Y-124205788D01*
X180665779Y-124205791D01*
X180593695Y-124343133D01*
X180593692Y-124343140D01*
X180590210Y-124349775D01*
X180588416Y-124357050D01*
X180588415Y-124357055D01*
X180551294Y-124507662D01*
X180551293Y-124507668D01*
X180549500Y-124514944D01*
X180549500Y-124685056D01*
X178050500Y-124685056D01*
X178050500Y-124175833D01*
X178059939Y-124128380D01*
X178086819Y-124088152D01*
X178588152Y-123586819D01*
X178628380Y-123559939D01*
X178675833Y-123550500D01*
X198574167Y-123550500D01*
X198621620Y-123559939D01*
X198661848Y-123586819D01*
X199360604Y-124285575D01*
X199390577Y-124334096D01*
X199394896Y-124382354D01*
X199395615Y-124382354D01*
X199395615Y-124390388D01*
X199395661Y-124390902D01*
X199394353Y-124400000D01*
X199395615Y-124408777D01*
X199413572Y-124533677D01*
X199413573Y-124533681D01*
X199414835Y-124542457D01*
X199418519Y-124550525D01*
X199418520Y-124550526D01*
X199434720Y-124586000D01*
X199474623Y-124673373D01*
X199480430Y-124680075D01*
X199480431Y-124680076D01*
X199563065Y-124775442D01*
X199563067Y-124775444D01*
X199568872Y-124782143D01*
X199689947Y-124859953D01*
X199828039Y-124900500D01*
X199963090Y-124900500D01*
X199971961Y-124900500D01*
X200110053Y-124859953D01*
X200231128Y-124782143D01*
X200325377Y-124673373D01*
X200385165Y-124542457D01*
X200405647Y-124400000D01*
X200385165Y-124257543D01*
X200325377Y-124126627D01*
X200319568Y-124119923D01*
X200236934Y-124024557D01*
X200236932Y-124024555D01*
X200231128Y-124017857D01*
X200110053Y-123940047D01*
X200038083Y-123918915D01*
X199980473Y-123901999D01*
X199980470Y-123901998D01*
X199971961Y-123899500D01*
X199875833Y-123899500D01*
X199828380Y-123890061D01*
X199788152Y-123863181D01*
X198999155Y-123074184D01*
X198996797Y-123071474D01*
X198993958Y-123065772D01*
X198985466Y-123058030D01*
X198985465Y-123058029D01*
X198959681Y-123034524D01*
X198955539Y-123030568D01*
X198946852Y-123021881D01*
X198946851Y-123021880D01*
X198942797Y-123017826D01*
X198938066Y-123014584D01*
X198937386Y-123014020D01*
X198933067Y-123010262D01*
X198933004Y-123010205D01*
X198927060Y-123004785D01*
X198919423Y-122997823D01*
X198919421Y-122997821D01*
X198910933Y-122990084D01*
X198900220Y-122985933D01*
X198893780Y-122981946D01*
X198889902Y-122979902D01*
X198882958Y-122976835D01*
X198873481Y-122970344D01*
X198862302Y-122967714D01*
X198862294Y-122967711D01*
X198847484Y-122964228D01*
X198831086Y-122959150D01*
X198816891Y-122953651D01*
X198816885Y-122953649D01*
X198806173Y-122949500D01*
X198794686Y-122949500D01*
X198787213Y-122948103D01*
X198770862Y-122946207D01*
X198766607Y-122945206D01*
X198759216Y-122941418D01*
X198744835Y-122947311D01*
X198737666Y-122948311D01*
X198720535Y-122949500D01*
X178551856Y-122949500D01*
X178548275Y-122949251D01*
X178542235Y-122947227D01*
X178530756Y-122947757D01*
X178527555Y-122947311D01*
X178483230Y-122929150D01*
X178439386Y-122951981D01*
X178430008Y-122952415D01*
X178419499Y-122957054D01*
X178412134Y-122958787D01*
X178407917Y-122960092D01*
X178400852Y-122962828D01*
X178389567Y-122964939D01*
X178379803Y-122970983D01*
X178379798Y-122970986D01*
X178366858Y-122978998D01*
X178351677Y-122987000D01*
X178337746Y-122993151D01*
X178337739Y-122993155D01*
X178327235Y-122997794D01*
X178319113Y-123005914D01*
X178312851Y-123010205D01*
X178309422Y-123012921D01*
X178303813Y-123018033D01*
X178294048Y-123024081D01*
X178287124Y-123033248D01*
X178287122Y-123033251D01*
X178277949Y-123045398D01*
X178266679Y-123058348D01*
X177574187Y-123750840D01*
X177571471Y-123753203D01*
X177565772Y-123756042D01*
X177558039Y-123764523D01*
X177558034Y-123764528D01*
X177534521Y-123790320D01*
X177530575Y-123794452D01*
X177521877Y-123803151D01*
X177521873Y-123803155D01*
X177517826Y-123807203D01*
X177514592Y-123811921D01*
X177514006Y-123812628D01*
X177510259Y-123816934D01*
X177497822Y-123830578D01*
X177490084Y-123839067D01*
X177485935Y-123849773D01*
X177481956Y-123856201D01*
X177479895Y-123860112D01*
X177476834Y-123867043D01*
X177470344Y-123876519D01*
X177467714Y-123887696D01*
X177467711Y-123887705D01*
X177464228Y-123902516D01*
X177459150Y-123918915D01*
X177449500Y-123943826D01*
X177448375Y-123943390D01*
X177434311Y-123973436D01*
X177212989Y-123973436D01*
X177215709Y-123962793D01*
X177219068Y-123959192D01*
X177208453Y-123898943D01*
X177209152Y-123890061D01*
X177215733Y-123806434D01*
X177218775Y-123787229D01*
X177261826Y-123607910D01*
X177267832Y-123589425D01*
X177338404Y-123419050D01*
X177347237Y-123401716D01*
X177443582Y-123244495D01*
X177455019Y-123228753D01*
X177574781Y-123088530D01*
X177588530Y-123074781D01*
X177728755Y-122955017D01*
X177744495Y-122943582D01*
X177901719Y-122847235D01*
X177919050Y-122838404D01*
X178089425Y-122767832D01*
X178107910Y-122761826D01*
X178287229Y-122718775D01*
X178306434Y-122715733D01*
X178399883Y-122708379D01*
X178460132Y-122718756D01*
X178471928Y-122728077D01*
X178485185Y-122715709D01*
X178544688Y-122700500D01*
X198727704Y-122700500D01*
X198760803Y-122708960D01*
G37*
%TD.AperFunction*%
%TD*%
M02*
