%TF.GenerationSoftware,KiCad,Pcbnew,(7.0.0-0)*%
%TF.CreationDate,2023-03-07T12:57:00-05:00*%
%TF.ProjectId,Spatial Sense Module,53706174-6961-46c2-9053-656e7365204d,rev?*%
%TF.SameCoordinates,Original*%
%TF.FileFunction,Soldermask,Bot*%
%TF.FilePolarity,Negative*%
%FSLAX46Y46*%
G04 Gerber Fmt 4.6, Leading zero omitted, Abs format (unit mm)*
G04 Created by KiCad (PCBNEW (7.0.0-0)) date 2023-03-07 12:57:00*
%MOMM*%
%LPD*%
G01*
G04 APERTURE LIST*
G04 Aperture macros list*
%AMRoundRect*
0 Rectangle with rounded corners*
0 $1 Rounding radius*
0 $2 $3 $4 $5 $6 $7 $8 $9 X,Y pos of 4 corners*
0 Add a 4 corners polygon primitive as box body*
4,1,4,$2,$3,$4,$5,$6,$7,$8,$9,$2,$3,0*
0 Add four circle primitives for the rounded corners*
1,1,$1+$1,$2,$3*
1,1,$1+$1,$4,$5*
1,1,$1+$1,$6,$7*
1,1,$1+$1,$8,$9*
0 Add four rect primitives between the rounded corners*
20,1,$1+$1,$2,$3,$4,$5,0*
20,1,$1+$1,$4,$5,$6,$7,0*
20,1,$1+$1,$6,$7,$8,$9,0*
20,1,$1+$1,$8,$9,$2,$3,0*%
G04 Aperture macros list end*
%ADD10C,1.000000*%
%ADD11O,1.000000X1.000000*%
%ADD12C,0.900000*%
%ADD13C,0.650000*%
%ADD14O,2.100000X1.000000*%
%ADD15O,1.800000X1.000000*%
%ADD16RoundRect,0.200000X-0.275000X0.200000X-0.275000X-0.200000X0.275000X-0.200000X0.275000X0.200000X0*%
%ADD17RoundRect,0.225000X-0.250000X0.225000X-0.250000X-0.225000X0.250000X-0.225000X0.250000X0.225000X0*%
%ADD18RoundRect,0.218750X-0.218750X-0.256250X0.218750X-0.256250X0.218750X0.256250X-0.218750X0.256250X0*%
%ADD19R,2.500000X2.000000*%
%ADD20R,2.000000X1.000000*%
G04 APERTURE END LIST*
D10*
%TO.C,J1*%
X193100000Y-150400000D03*
D11*
X194369999Y-150399999D03*
%TD*%
D12*
%TO.C,SW2*%
X181250000Y-124600000D03*
X181250000Y-131400000D03*
%TD*%
D10*
%TO.C,J4*%
X196800000Y-150400000D03*
D11*
X198069999Y-150399999D03*
X199339999Y-150399999D03*
X200609999Y-150399999D03*
X201879999Y-150399999D03*
%TD*%
D13*
%TO.C,J3*%
X183305000Y-135700000D03*
X183305000Y-141480000D03*
D14*
X183804999Y-134269999D03*
D15*
X179624999Y-134269999D03*
D14*
X183804999Y-142909999D03*
D15*
X179624999Y-142909999D03*
%TD*%
D10*
%TO.C,D5_LC1*%
X187150000Y-124900000D03*
%TD*%
D16*
%TO.C,R10*%
X198400000Y-124975000D03*
X198400000Y-126625000D03*
%TD*%
D17*
%TO.C,C20*%
X192800000Y-146975000D03*
X192800000Y-148525000D03*
%TD*%
D18*
%TO.C,L1*%
X194662500Y-147000000D03*
X196237500Y-147000000D03*
%TD*%
D10*
%TO.C,D6_LC1*%
X185050000Y-124900000D03*
%TD*%
D19*
%TO.C,ANT1*%
X205739999Y-146974999D03*
X205739999Y-136774999D03*
%TD*%
D10*
%TO.C,GND_LC1*%
X189250000Y-124850000D03*
%TD*%
%TO.C,3V3_LC1*%
X191350000Y-124850000D03*
%TD*%
D17*
%TO.C,C21*%
X198150000Y-146975000D03*
X198150000Y-148525000D03*
%TD*%
D10*
%TO.C,3V3_B1*%
X194300000Y-124850000D03*
%TD*%
D20*
%TO.C,U5*%
X202499999Y-129749999D03*
X202499999Y-131749999D03*
X202499999Y-133749999D03*
X202499999Y-135749999D03*
X202499999Y-137749999D03*
X202499999Y-139749999D03*
X202499999Y-141749999D03*
X202499999Y-143749999D03*
X186499999Y-143749999D03*
X186499999Y-141749999D03*
X186499999Y-139749999D03*
X186499999Y-137749999D03*
X186499999Y-135749999D03*
X186499999Y-133749999D03*
X186499999Y-131749999D03*
X186499999Y-129749999D03*
%TD*%
D10*
%TO.C,GND_B1*%
X196400000Y-124850000D03*
%TD*%
D17*
%TO.C,C19*%
X184000000Y-137425000D03*
X184000000Y-138975000D03*
%TD*%
G36*
X194413000Y-146816613D02*
G01*
X194458387Y-146862000D01*
X194475000Y-146924000D01*
X194475000Y-147076000D01*
X194458387Y-147138000D01*
X194413000Y-147183387D01*
X194351000Y-147200000D01*
X193124000Y-147200000D01*
X193062000Y-147183387D01*
X193016613Y-147138000D01*
X193000000Y-147076000D01*
X193000000Y-146924000D01*
X193016613Y-146862000D01*
X193062000Y-146816613D01*
X193124000Y-146800000D01*
X194351000Y-146800000D01*
X194413000Y-146816613D01*
G37*
G36*
X204638000Y-146791613D02*
G01*
X204683387Y-146837000D01*
X204700000Y-146899000D01*
X204700000Y-147051000D01*
X204683387Y-147113000D01*
X204638000Y-147158387D01*
X204576000Y-147175000D01*
X196549000Y-147175000D01*
X196487000Y-147158387D01*
X196441613Y-147113000D01*
X196425000Y-147051000D01*
X196425000Y-146899000D01*
X196441613Y-146837000D01*
X196487000Y-146791613D01*
X196549000Y-146775000D01*
X204576000Y-146775000D01*
X204638000Y-146791613D01*
G37*
G36*
X186948502Y-143916525D02*
G01*
X186995673Y-143946288D01*
X189791354Y-146766279D01*
X189800944Y-146772732D01*
X189812280Y-146775000D01*
X192351000Y-146775000D01*
X192413000Y-146791613D01*
X192458387Y-146837000D01*
X192475000Y-146899000D01*
X192475000Y-147051000D01*
X192458387Y-147113000D01*
X192413000Y-147158387D01*
X192351000Y-147175000D01*
X189704272Y-147175000D01*
X189648818Y-147161909D01*
X189642998Y-147158999D01*
X189610771Y-147135771D01*
X186683790Y-144208790D01*
X186654536Y-144162366D01*
X186648181Y-144107863D01*
X186665969Y-144055953D01*
X186704417Y-144016803D01*
X186840559Y-143929283D01*
X186893058Y-143910446D01*
X186948502Y-143916525D01*
G37*
G36*
X197676414Y-147173586D02*
G01*
X197677000Y-147175000D01*
X197677000Y-147199801D01*
X197689793Y-147264120D01*
X197689256Y-147265913D01*
X197687471Y-147266477D01*
X197686001Y-147265318D01*
X197679293Y-147250125D01*
X197679136Y-147249547D01*
X197677296Y-147233681D01*
X197658125Y-147196794D01*
X197619274Y-147182000D01*
X196735397Y-147182000D01*
X196694103Y-147199103D01*
X196676848Y-147240764D01*
X196675518Y-147241931D01*
X196673782Y-147241586D01*
X196673000Y-147239999D01*
X196673000Y-147175000D01*
X196673586Y-147173586D01*
X196675000Y-147173000D01*
X197675000Y-147173000D01*
X197676414Y-147173586D01*
G37*
G36*
X186726414Y-144248586D02*
G01*
X189626184Y-147148356D01*
X189675472Y-147173000D01*
X192325000Y-147173000D01*
X192326414Y-147173586D01*
X192327000Y-147175000D01*
X192327000Y-147199801D01*
X192339793Y-147264120D01*
X192339256Y-147265913D01*
X192337471Y-147266477D01*
X192336001Y-147265318D01*
X192329293Y-147250125D01*
X192329136Y-147249547D01*
X192327296Y-147233681D01*
X192308125Y-147196794D01*
X192269274Y-147182000D01*
X189681986Y-147182000D01*
X189681526Y-147181946D01*
X189666056Y-147178294D01*
X189665622Y-147178137D01*
X189626192Y-147158422D01*
X189625917Y-147158255D01*
X189616880Y-147151741D01*
X189616635Y-147151533D01*
X186734228Y-144269126D01*
X186715257Y-144256450D01*
X186692691Y-144251962D01*
X186691233Y-144250765D01*
X186691418Y-144248889D01*
X186693081Y-144248000D01*
X186725000Y-144248000D01*
X186726414Y-144248586D01*
G37*
G36*
X194226414Y-147198586D02*
G01*
X194227000Y-147200000D01*
X194227000Y-147256053D01*
X194227171Y-147256915D01*
X194226663Y-147258677D01*
X194224932Y-147259285D01*
X194223434Y-147258226D01*
X194204500Y-147221794D01*
X194165649Y-147207000D01*
X193327826Y-147207000D01*
X193288954Y-147221811D01*
X193277730Y-147243444D01*
X193276619Y-147244410D01*
X193275147Y-147244353D01*
X193273563Y-147243653D01*
X193263998Y-147265316D01*
X193262528Y-147266475D01*
X193260743Y-147265911D01*
X193260206Y-147264118D01*
X193273038Y-147199610D01*
X193273731Y-147198454D01*
X193275000Y-147198000D01*
X194225000Y-147198000D01*
X194226414Y-147198586D01*
G37*
G36*
X204491414Y-147173586D02*
G01*
X204492000Y-147175000D01*
X204492000Y-147239997D01*
X204491218Y-147241584D01*
X204489482Y-147241929D01*
X204488152Y-147240762D01*
X204470897Y-147199103D01*
X204429604Y-147182000D01*
X198680727Y-147182000D01*
X198641876Y-147196793D01*
X198622704Y-147233679D01*
X198620863Y-147249548D01*
X198620706Y-147250125D01*
X198613998Y-147265314D01*
X198612528Y-147266473D01*
X198610743Y-147265909D01*
X198610206Y-147264116D01*
X198623000Y-147199801D01*
X198623000Y-147175000D01*
X198623586Y-147173586D01*
X198625000Y-147173000D01*
X204490000Y-147173000D01*
X204491414Y-147173586D01*
G37*
G36*
X193263998Y-146684683D02*
G01*
X193270706Y-146699874D01*
X193270863Y-146700452D01*
X193275603Y-146741318D01*
X193294774Y-146778205D01*
X193333626Y-146793000D01*
X194165648Y-146793000D01*
X194204498Y-146778206D01*
X194223435Y-146741772D01*
X194224934Y-146740713D01*
X194226664Y-146741321D01*
X194227172Y-146743084D01*
X194227000Y-146743949D01*
X194227000Y-146800000D01*
X194226414Y-146801414D01*
X194225000Y-146802000D01*
X193275000Y-146802000D01*
X193273586Y-146801414D01*
X193273000Y-146800000D01*
X193273000Y-146750199D01*
X193260206Y-146685881D01*
X193260743Y-146684088D01*
X193262528Y-146683524D01*
X193263998Y-146684683D01*
G37*
G36*
X198613998Y-146684683D02*
G01*
X198620706Y-146699874D01*
X198620863Y-146700452D01*
X198622703Y-146716318D01*
X198641874Y-146753205D01*
X198680726Y-146768000D01*
X204429603Y-146768000D01*
X204470896Y-146750896D01*
X204488152Y-146709236D01*
X204489482Y-146708069D01*
X204491218Y-146708414D01*
X204492000Y-146710001D01*
X204492000Y-146775000D01*
X204491414Y-146776414D01*
X204490000Y-146777000D01*
X198625000Y-146777000D01*
X198623586Y-146776414D01*
X198623000Y-146775000D01*
X198623000Y-146750199D01*
X198610206Y-146685881D01*
X198610743Y-146684088D01*
X198612528Y-146683524D01*
X198613998Y-146684683D01*
G37*
G36*
X196664380Y-146680352D02*
G01*
X196670872Y-146695054D01*
X196671029Y-146695632D01*
X196673428Y-146716318D01*
X196692599Y-146753205D01*
X196731451Y-146768000D01*
X197619273Y-146768000D01*
X197658123Y-146753206D01*
X197677295Y-146716320D01*
X197679136Y-146700452D01*
X197679293Y-146699874D01*
X197686002Y-146684679D01*
X197687472Y-146683520D01*
X197689257Y-146684084D01*
X197689794Y-146685877D01*
X197677000Y-146750199D01*
X197677000Y-146775000D01*
X197676414Y-146776414D01*
X197675000Y-146777000D01*
X196675000Y-146777000D01*
X196673586Y-146776414D01*
X196673000Y-146775000D01*
X196673000Y-146743949D01*
X196660588Y-146681550D01*
X196661125Y-146679757D01*
X196662910Y-146679193D01*
X196664380Y-146680352D01*
G37*
G36*
X187449360Y-144248783D02*
G01*
X187449705Y-144250519D01*
X187448537Y-144251848D01*
X187406938Y-144269043D01*
X187389940Y-144309830D01*
X187406867Y-144351115D01*
X189785759Y-146750693D01*
X189804793Y-146763500D01*
X189827286Y-146768000D01*
X192269273Y-146768000D01*
X192308123Y-146753206D01*
X192327295Y-146716320D01*
X192329136Y-146700452D01*
X192329293Y-146699874D01*
X192336002Y-146684679D01*
X192337472Y-146683520D01*
X192339257Y-146684084D01*
X192339794Y-146685877D01*
X192327000Y-146750199D01*
X192327000Y-146775000D01*
X192326414Y-146776414D01*
X192325000Y-146777000D01*
X189800000Y-146777000D01*
X189798580Y-146776408D01*
X187295347Y-144251408D01*
X187294767Y-144249994D01*
X187295355Y-144248584D01*
X187296767Y-144248000D01*
X187447773Y-144248000D01*
X187449360Y-144248783D01*
G37*
M02*
