%TF.GenerationSoftware,KiCad,Pcbnew,(7.0.0-0)*%
%TF.CreationDate,2023-03-07T12:57:00-05:00*%
%TF.ProjectId,Spatial Sense Module,53706174-6961-46c2-9053-656e7365204d,rev?*%
%TF.SameCoordinates,Original*%
%TF.FileFunction,Copper,L1,Top*%
%TF.FilePolarity,Positive*%
%FSLAX46Y46*%
G04 Gerber Fmt 4.6, Leading zero omitted, Abs format (unit mm)*
G04 Created by KiCad (PCBNEW (7.0.0-0)) date 2023-03-07 12:57:00*
%MOMM*%
%LPD*%
G01*
G04 APERTURE LIST*
G04 Aperture macros list*
%AMRoundRect*
0 Rectangle with rounded corners*
0 $1 Rounding radius*
0 $2 $3 $4 $5 $6 $7 $8 $9 X,Y pos of 4 corners*
0 Add a 4 corners polygon primitive as box body*
4,1,4,$2,$3,$4,$5,$6,$7,$8,$9,$2,$3,0*
0 Add four circle primitives for the rounded corners*
1,1,$1+$1,$2,$3*
1,1,$1+$1,$4,$5*
1,1,$1+$1,$6,$7*
1,1,$1+$1,$8,$9*
0 Add four rect primitives between the rounded corners*
20,1,$1+$1,$2,$3,$4,$5,0*
20,1,$1+$1,$4,$5,$6,$7,0*
20,1,$1+$1,$6,$7,$8,$9,0*
20,1,$1+$1,$8,$9,$2,$3,0*%
G04 Aperture macros list end*
%TA.AperFunction,SMDPad,CuDef*%
%ADD10RoundRect,0.250001X1.449999X-0.499999X1.449999X0.499999X-1.449999X0.499999X-1.449999X-0.499999X0*%
%TD*%
%TA.AperFunction,SMDPad,CuDef*%
%ADD11RoundRect,0.250000X1.500000X-0.250000X1.500000X0.250000X-1.500000X0.250000X-1.500000X-0.250000X0*%
%TD*%
%TA.AperFunction,SMDPad,CuDef*%
%ADD12RoundRect,0.225000X0.250000X-0.225000X0.250000X0.225000X-0.250000X0.225000X-0.250000X-0.225000X0*%
%TD*%
%TA.AperFunction,SMDPad,CuDef*%
%ADD13RoundRect,0.225000X0.225000X0.250000X-0.225000X0.250000X-0.225000X-0.250000X0.225000X-0.250000X0*%
%TD*%
%TA.AperFunction,SMDPad,CuDef*%
%ADD14RoundRect,0.225000X-0.225000X-0.250000X0.225000X-0.250000X0.225000X0.250000X-0.225000X0.250000X0*%
%TD*%
%TA.AperFunction,SMDPad,CuDef*%
%ADD15RoundRect,0.225000X-0.250000X0.225000X-0.250000X-0.225000X0.250000X-0.225000X0.250000X0.225000X0*%
%TD*%
%TA.AperFunction,ComponentPad*%
%ADD16C,1.000000*%
%TD*%
%TA.AperFunction,ComponentPad*%
%ADD17O,1.000000X1.000000*%
%TD*%
%TA.AperFunction,SMDPad,CuDef*%
%ADD18RoundRect,0.250000X-0.300000X-0.300000X0.300000X-0.300000X0.300000X0.300000X-0.300000X0.300000X0*%
%TD*%
%TA.AperFunction,SMDPad,CuDef*%
%ADD19RoundRect,0.200000X-0.200000X-0.275000X0.200000X-0.275000X0.200000X0.275000X-0.200000X0.275000X0*%
%TD*%
%TA.AperFunction,SMDPad,CuDef*%
%ADD20R,2.500000X1.250000*%
%TD*%
%TA.AperFunction,SMDPad,CuDef*%
%ADD21RoundRect,0.075000X-0.650000X-0.075000X0.650000X-0.075000X0.650000X0.075000X-0.650000X0.075000X0*%
%TD*%
%TA.AperFunction,SMDPad,CuDef*%
%ADD22RoundRect,0.200000X0.200000X0.275000X-0.200000X0.275000X-0.200000X-0.275000X0.200000X-0.275000X0*%
%TD*%
%TA.AperFunction,SMDPad,CuDef*%
%ADD23R,0.254000X0.675000*%
%TD*%
%TA.AperFunction,SMDPad,CuDef*%
%ADD24R,0.675000X0.254000*%
%TD*%
%TA.AperFunction,SMDPad,CuDef*%
%ADD25RoundRect,0.250000X0.300000X0.300000X-0.300000X0.300000X-0.300000X-0.300000X0.300000X-0.300000X0*%
%TD*%
%TA.AperFunction,SMDPad,CuDef*%
%ADD26RoundRect,0.150000X0.512500X0.150000X-0.512500X0.150000X-0.512500X-0.150000X0.512500X-0.150000X0*%
%TD*%
%TA.AperFunction,SMDPad,CuDef*%
%ADD27RoundRect,0.075000X0.662500X0.075000X-0.662500X0.075000X-0.662500X-0.075000X0.662500X-0.075000X0*%
%TD*%
%TA.AperFunction,SMDPad,CuDef*%
%ADD28RoundRect,0.075000X0.075000X0.662500X-0.075000X0.662500X-0.075000X-0.662500X0.075000X-0.662500X0*%
%TD*%
%TA.AperFunction,SMDPad,CuDef*%
%ADD29RoundRect,0.218750X0.256250X-0.218750X0.256250X0.218750X-0.256250X0.218750X-0.256250X-0.218750X0*%
%TD*%
%TA.AperFunction,SMDPad,CuDef*%
%ADD30R,0.600000X1.100000*%
%TD*%
%TA.AperFunction,SMDPad,CuDef*%
%ADD31R,1.150000X0.600000*%
%TD*%
%TA.AperFunction,SMDPad,CuDef*%
%ADD32R,1.150000X0.300000*%
%TD*%
%TA.AperFunction,ComponentPad*%
%ADD33O,2.100000X1.000000*%
%TD*%
%TA.AperFunction,ComponentPad*%
%ADD34O,1.800000X1.000000*%
%TD*%
%TA.AperFunction,SMDPad,CuDef*%
%ADD35R,0.900000X1.700000*%
%TD*%
%TA.AperFunction,SMDPad,CuDef*%
%ADD36RoundRect,0.200000X0.275000X-0.200000X0.275000X0.200000X-0.275000X0.200000X-0.275000X-0.200000X0*%
%TD*%
%TA.AperFunction,ViaPad*%
%ADD37C,0.600000*%
%TD*%
%TA.AperFunction,Conductor*%
%ADD38C,0.400000*%
%TD*%
%TA.AperFunction,Conductor*%
%ADD39C,0.200000*%
%TD*%
%TA.AperFunction,Conductor*%
%ADD40C,0.150000*%
%TD*%
%TA.AperFunction,Conductor*%
%ADD41C,0.127000*%
%TD*%
%TA.AperFunction,Conductor*%
%ADD42C,0.152400*%
%TD*%
%TA.AperFunction,Conductor*%
%ADD43C,0.300000*%
%TD*%
G04 APERTURE END LIST*
D10*
%TO.P,J2,MP,Pin_3*%
%TO.N,unconnected-(J2-Pin_3-PadMP)*%
X213050000Y-131000000D03*
X213050000Y-124300000D03*
D11*
%TO.P,J2,2,Pin_2*%
%TO.N,GND*%
X207300000Y-126650000D03*
%TO.P,J2,1,Pin_1*%
%TO.N,VBAT*%
X207300000Y-128650000D03*
%TD*%
D12*
%TO.P,C3,1*%
%TO.N,+3V3*%
X189050000Y-147375000D03*
%TO.P,C3,2*%
%TO.N,GND*%
X189050000Y-145825000D03*
%TD*%
%TO.P,C23,1*%
%TO.N,+3V3*%
X200250000Y-130550000D03*
%TO.P,C23,2*%
%TO.N,GND*%
X200250000Y-129000000D03*
%TD*%
D13*
%TO.P,C22,1*%
%TO.N,+3V3*%
X191825000Y-140950000D03*
%TO.P,C22,2*%
%TO.N,GND*%
X190275000Y-140950000D03*
%TD*%
D14*
%TO.P,C9,1*%
%TO.N,+3V3*%
X190950000Y-127000000D03*
%TO.P,C9,2*%
%TO.N,GND*%
X192500000Y-127000000D03*
%TD*%
D12*
%TO.P,C1,1*%
%TO.N,+3V3*%
X190550000Y-147375000D03*
%TO.P,C1,2*%
%TO.N,GND*%
X190550000Y-145825000D03*
%TD*%
%TO.P,C5,1*%
%TO.N,/DRV_REG*%
X186050000Y-147375000D03*
%TO.P,C5,2*%
%TO.N,GND*%
X186050000Y-145825000D03*
%TD*%
D15*
%TO.P,C12,1*%
%TO.N,/AREF*%
X203380000Y-137465000D03*
%TO.P,C12,2*%
%TO.N,GND*%
X203380000Y-139015000D03*
%TD*%
D12*
%TO.P,C18,1*%
%TO.N,GND*%
X202800000Y-144450000D03*
%TO.P,C18,2*%
%TO.N,Net-(U6-PA01)*%
X202800000Y-142900000D03*
%TD*%
D14*
%TO.P,C4,1*%
%TO.N,GND*%
X186475000Y-144300000D03*
%TO.P,C4,2*%
%TO.N,+3V3*%
X188025000Y-144300000D03*
%TD*%
D16*
%TO.P,J1,1,Pin_1*%
%TO.N,Net-(J1-Pin_1)*%
X193100000Y-150400000D03*
D17*
%TO.P,J1,2,Pin_2*%
%TO.N,Net-(J1-Pin_2)*%
X194369999Y-150399999D03*
%TD*%
D12*
%TO.P,C24,1*%
%TO.N,+3V3*%
X203380000Y-136055000D03*
%TO.P,C24,2*%
%TO.N,GND*%
X203380000Y-134505000D03*
%TD*%
D18*
%TO.P,D2,1,K*%
%TO.N,Net-(D1-K)*%
X195850000Y-129250000D03*
%TO.P,D2,2,A*%
%TO.N,VBAT*%
X198650000Y-129250000D03*
%TD*%
D19*
%TO.P,R6,1*%
%TO.N,Net-(D3-K)*%
X180935000Y-146730000D03*
%TO.P,R6,2*%
%TO.N,/STAT*%
X182585000Y-146730000D03*
%TD*%
D15*
%TO.P,C16,1*%
%TO.N,VBAT*%
X203300000Y-123725000D03*
%TO.P,C16,2*%
%TO.N,GND*%
X203300000Y-125275000D03*
%TD*%
D19*
%TO.P,R3,1*%
%TO.N,+3V3*%
X189425000Y-144300000D03*
%TO.P,R3,2*%
%TO.N,Net-(U2-~{BOOT_LOAD_PIN})*%
X191075000Y-144300000D03*
%TD*%
%TO.P,R4,1*%
%TO.N,/REG_ON*%
X194925000Y-127000000D03*
%TO.P,R4,2*%
%TO.N,Net-(D1-K)*%
X196575000Y-127000000D03*
%TD*%
D20*
%TO.P,SW2,1,C*%
%TO.N,GND*%
X183999999Y-125499999D03*
%TO.P,SW2,2,B*%
%TO.N,/REG_EN*%
X183999999Y-127999999D03*
%TO.P,SW2,3,A*%
%TO.N,/REG_ON*%
X183999999Y-130499999D03*
%TD*%
D19*
%TO.P,R1,1*%
%TO.N,+3V3*%
X186425000Y-142800000D03*
%TO.P,R1,2*%
%TO.N,/SCL*%
X188075000Y-142800000D03*
%TD*%
D16*
%TO.P,J4,1,Pin_1*%
%TO.N,+3V3*%
X196800000Y-150400000D03*
D17*
%TO.P,J4,2,Pin_2*%
%TO.N,GND*%
X198069999Y-150399999D03*
%TO.P,J4,3,Pin_3*%
%TO.N,/SWCLK*%
X199339999Y-150399999D03*
%TO.P,J4,4,Pin_4*%
%TO.N,/SWDIO*%
X200609999Y-150399999D03*
%TO.P,J4,5,Pin_5*%
%TO.N,/~{RESET}*%
X201879999Y-150399999D03*
%TD*%
D21*
%TO.P,U1,1,REG*%
%TO.N,/DRV_REG*%
X186300000Y-149000000D03*
%TO.P,U1,2,SCL*%
%TO.N,/SCL*%
X186300000Y-149500000D03*
%TO.P,U1,3,SDA*%
%TO.N,/SDA*%
X186300000Y-150000000D03*
%TO.P,U1,4,IN/TRIG*%
%TO.N,GND*%
X186300000Y-150500000D03*
%TO.P,U1,5,EN*%
%TO.N,+3V3*%
X186300000Y-151000000D03*
%TO.P,U1,6,VDD/NC*%
X190700000Y-151000000D03*
%TO.P,U1,7,OUT+*%
%TO.N,Net-(J1-Pin_1)*%
X190700000Y-150500000D03*
%TO.P,U1,8,GND*%
%TO.N,GND*%
X190700000Y-150000000D03*
%TO.P,U1,9,OUT-*%
%TO.N,Net-(J1-Pin_2)*%
X190700000Y-149500000D03*
%TO.P,U1,10,VDD*%
%TO.N,+3V3*%
X190700000Y-149000000D03*
%TD*%
D22*
%TO.P,R7,1*%
%TO.N,/D9*%
X203325000Y-127000000D03*
%TO.P,R7,2*%
%TO.N,GND*%
X201675000Y-127000000D03*
%TD*%
D12*
%TO.P,C14,1*%
%TO.N,VBUS*%
X197200000Y-125275000D03*
%TO.P,C14,2*%
%TO.N,GND*%
X197200000Y-123725000D03*
%TD*%
%TO.P,C2,1*%
%TO.N,+3V3*%
X187550000Y-147375000D03*
%TO.P,C2,2*%
%TO.N,GND*%
X187550000Y-145825000D03*
%TD*%
D23*
%TO.P,U2,1,PIN1*%
%TO.N,unconnected-(U2-PIN1-Pad1)*%
X192649999Y-144637499D03*
D24*
%TO.P,U2,2,GND*%
%TO.N,GND*%
X192512499Y-145549999D03*
%TO.P,U2,3,VDD*%
%TO.N,+3V3*%
X192512499Y-146049999D03*
%TO.P,U2,4,~{BOOT_LOAD_PIN}*%
%TO.N,Net-(U2-~{BOOT_LOAD_PIN})*%
X192512499Y-146549999D03*
%TO.P,U2,5,PS1*%
%TO.N,GND*%
X192512499Y-147049999D03*
D23*
%TO.P,U2,6,PS0*%
X192649999Y-147962499D03*
%TO.P,U2,7,PIN7*%
%TO.N,unconnected-(U2-PIN7-Pad7)*%
X193149999Y-147962499D03*
%TO.P,U2,8,PIN8*%
%TO.N,unconnected-(U2-PIN8-Pad8)*%
X193649999Y-147962499D03*
%TO.P,U2,9,CAP*%
%TO.N,Net-(U2-CAP)*%
X194149999Y-147962499D03*
%TO.P,U2,10,BL_IND*%
%TO.N,GND*%
X194649999Y-147962499D03*
%TO.P,U2,11,~{RESET}*%
%TO.N,unconnected-(U2-~{RESET}-Pad11)*%
X195149999Y-147962499D03*
%TO.P,U2,12,PIN12*%
%TO.N,unconnected-(U2-PIN12-Pad12)*%
X195649999Y-147962499D03*
%TO.P,U2,13,PIN13*%
%TO.N,unconnected-(U2-PIN13-Pad13)*%
X196149999Y-147962499D03*
%TO.P,U2,14,INT*%
%TO.N,unconnected-(U2-INT-Pad14)*%
X196649999Y-147962499D03*
%TO.P,U2,15,GNDIO*%
%TO.N,GND*%
X197149999Y-147962499D03*
D24*
%TO.P,U2,16,GNDIO*%
X197287499Y-147049999D03*
%TO.P,U2,17,COM3*%
%TO.N,unconnected-(U2-COM3-Pad17)*%
X197287499Y-146549999D03*
%TO.P,U2,18,COM2*%
%TO.N,unconnected-(U2-COM2-Pad18)*%
X197287499Y-146049999D03*
%TO.P,U2,19,COM1*%
%TO.N,/SCL*%
X197287499Y-145549999D03*
D23*
%TO.P,U2,20,COM0*%
%TO.N,/SDA*%
X197149999Y-144637499D03*
%TO.P,U2,21,PIN21*%
%TO.N,unconnected-(U2-PIN21-Pad21)*%
X196649999Y-144637499D03*
%TO.P,U2,22,PIN22*%
%TO.N,unconnected-(U2-PIN22-Pad22)*%
X196149999Y-144637499D03*
%TO.P,U2,23,PIN23*%
%TO.N,unconnected-(U2-PIN23-Pad23)*%
X195649999Y-144637499D03*
%TO.P,U2,24,PIN24*%
%TO.N,unconnected-(U2-PIN24-Pad24)*%
X195149999Y-144637499D03*
%TO.P,U2,25,GNDIO*%
%TO.N,GND*%
X194649999Y-144637499D03*
%TO.P,U2,26,XOUT32*%
%TO.N,Net-(U2-XOUT32)*%
X194149999Y-144637499D03*
%TO.P,U2,27,XIN32*%
%TO.N,Net-(U2-XIN32)*%
X193649999Y-144637499D03*
%TO.P,U2,28,VDDIO*%
%TO.N,+3V3*%
X193149999Y-144637499D03*
%TD*%
D15*
%TO.P,C11,2*%
%TO.N,Net-(U2-CAP)*%
X198750000Y-147825000D03*
%TO.P,C11,1*%
%TO.N,GND*%
X198750000Y-146275000D03*
%TD*%
D25*
%TO.P,D1,1,K*%
%TO.N,Net-(D1-K)*%
X193900000Y-129250000D03*
%TO.P,D1,2,A*%
%TO.N,VBUS*%
X191100000Y-129250000D03*
%TD*%
D13*
%TO.P,C7,1*%
%TO.N,GND*%
X197450000Y-142850000D03*
%TO.P,C7,2*%
%TO.N,Net-(U2-XOUT32)*%
X195900000Y-142850000D03*
%TD*%
D19*
%TO.P,R5,1*%
%TO.N,VBAT*%
X201675000Y-128500000D03*
%TO.P,R5,2*%
%TO.N,/D9*%
X203325000Y-128500000D03*
%TD*%
D26*
%TO.P,U3,1,VIN*%
%TO.N,Net-(D1-K)*%
X193750000Y-125450000D03*
%TO.P,U3,2,GND*%
%TO.N,GND*%
X193750000Y-124500000D03*
%TO.P,U3,3,EN*%
%TO.N,/REG_EN*%
X193750000Y-123550000D03*
%TO.P,U3,4,NC*%
%TO.N,unconnected-(U3-NC-Pad4)*%
X191475000Y-123550000D03*
%TO.P,U3,5,VOUT*%
%TO.N,+3V3*%
X191475000Y-125450000D03*
%TD*%
D12*
%TO.P,C17,1*%
%TO.N,GND*%
X201300000Y-144450000D03*
%TO.P,C17,2*%
%TO.N,Net-(U6-PA00)*%
X201300000Y-142900000D03*
%TD*%
D27*
%TO.P,U6,1,PA00*%
%TO.N,Net-(U6-PA00)*%
X201662500Y-139320000D03*
%TO.P,U6,2,PA01*%
%TO.N,Net-(U6-PA01)*%
X201662500Y-138820000D03*
%TO.P,U6,3,PA02*%
%TO.N,/A0*%
X201662500Y-138320000D03*
%TO.P,U6,4,PA03*%
%TO.N,/AREF*%
X201662500Y-137820000D03*
%TO.P,U6,5,GNDANA*%
%TO.N,GND*%
X201662500Y-137320000D03*
%TO.P,U6,6,VDDANA*%
%TO.N,+3V3*%
X201662500Y-136820000D03*
%TO.P,U6,7,PB08*%
%TO.N,/A1*%
X201662500Y-136320000D03*
%TO.P,U6,8,PB09*%
%TO.N,/A2*%
X201662500Y-135820000D03*
%TO.P,U6,9,PA04*%
%TO.N,/A3*%
X201662500Y-135320000D03*
%TO.P,U6,10,PA05*%
%TO.N,/A4*%
X201662500Y-134820000D03*
%TO.P,U6,11,PA06*%
%TO.N,/D8_CS*%
X201662500Y-134320000D03*
%TO.P,U6,12,PA07*%
%TO.N,/D9*%
X201662500Y-133820000D03*
D28*
%TO.P,U6,13,PA08*%
%TO.N,/D4_RST*%
X200250000Y-132407500D03*
%TO.P,U6,14,PA09*%
%TO.N,/D3_IRQ*%
X199750000Y-132407500D03*
%TO.P,U6,15,PA10*%
%TO.N,/D1*%
X199250000Y-132407500D03*
%TO.P,U6,16,PA11*%
%TO.N,/D0*%
X198750000Y-132407500D03*
%TO.P,U6,17,VDDIO*%
%TO.N,+3V3*%
X198250000Y-132407500D03*
%TO.P,U6,18,GND*%
%TO.N,GND*%
X197750000Y-132407500D03*
%TO.P,U6,19,PB10*%
%TO.N,/MOSI*%
X197250000Y-132407500D03*
%TO.P,U6,20,PB11*%
%TO.N,/SCK*%
X196750000Y-132407500D03*
%TO.P,U6,21,PA12*%
%TO.N,/MISO*%
X196250000Y-132407500D03*
%TO.P,U6,22,PA13*%
%TO.N,unconnected-(U6-PA13-Pad22)*%
X195750000Y-132407500D03*
%TO.P,U6,23,PA14*%
%TO.N,/D2*%
X195250000Y-132407500D03*
%TO.P,U6,24,PA15*%
%TO.N,/D5*%
X194750000Y-132407500D03*
D27*
%TO.P,U6,25,PA16*%
%TO.N,/D11*%
X193337500Y-133820000D03*
%TO.P,U6,26,PA17*%
%TO.N,/D13*%
X193337500Y-134320000D03*
%TO.P,U6,27,PA18*%
%TO.N,/D10*%
X193337500Y-134820000D03*
%TO.P,U6,28,PA19*%
%TO.N,/D12*%
X193337500Y-135320000D03*
%TO.P,U6,29,PA20*%
%TO.N,/D6*%
X193337500Y-135820000D03*
%TO.P,U6,30,PA21*%
%TO.N,/D7*%
X193337500Y-136320000D03*
%TO.P,U6,31,PA22*%
%TO.N,/SDA*%
X193337500Y-136820000D03*
%TO.P,U6,32,PA23*%
%TO.N,/SCL*%
X193337500Y-137320000D03*
%TO.P,U6,33,PA24*%
%TO.N,/D-*%
X193337500Y-137820000D03*
%TO.P,U6,34,PA25*%
%TO.N,/D+*%
X193337500Y-138320000D03*
%TO.P,U6,35,GND*%
%TO.N,GND*%
X193337500Y-138820000D03*
%TO.P,U6,36,VDDIO*%
%TO.N,+3V3*%
X193337500Y-139320000D03*
D28*
%TO.P,U6,37,PB22*%
%TO.N,unconnected-(U6-PB22-Pad37)*%
X194750000Y-140732500D03*
%TO.P,U6,38,PB23*%
%TO.N,unconnected-(U6-PB23-Pad38)*%
X195250000Y-140732500D03*
%TO.P,U6,39,PA27*%
%TO.N,unconnected-(U6-PA27-Pad39)*%
X195750000Y-140732500D03*
%TO.P,U6,40,~{RESET}*%
%TO.N,/~{RESET}*%
X196250000Y-140732500D03*
%TO.P,U6,41,PA28*%
%TO.N,unconnected-(U6-PA28-Pad41)*%
X196750000Y-140732500D03*
%TO.P,U6,42,GND*%
%TO.N,GND*%
X197250000Y-140732500D03*
%TO.P,U6,43,VDDCORE*%
%TO.N,Net-(U6-VDDCORE)*%
X197750000Y-140732500D03*
%TO.P,U6,44,VDDIN*%
%TO.N,+3V3*%
X198250000Y-140732500D03*
%TO.P,U6,45,PA30*%
%TO.N,/SWCLK*%
X198750000Y-140732500D03*
%TO.P,U6,46,PA31*%
%TO.N,/SWDIO*%
X199250000Y-140732500D03*
%TO.P,U6,47,PB02*%
%TO.N,/A5*%
X199750000Y-140732500D03*
%TO.P,U6,48,PB03*%
%TO.N,unconnected-(U6-PB03-Pad48)*%
X200250000Y-140732500D03*
%TD*%
D29*
%TO.P,D4,1,K*%
%TO.N,GND*%
X179200000Y-146787500D03*
%TO.P,D4,2,A*%
%TO.N,/LED_D13*%
X179200000Y-145212500D03*
%TD*%
D13*
%TO.P,C13,1*%
%TO.N,+3V3*%
X193275000Y-132000000D03*
%TO.P,C13,2*%
%TO.N,GND*%
X191725000Y-132000000D03*
%TD*%
D30*
%TO.P,X1,1,1*%
%TO.N,Net-(U2-XOUT32)*%
X194549999Y-143099999D03*
%TO.P,X1,2,2*%
%TO.N,Net-(U2-XIN32)*%
X193149999Y-143099999D03*
%TD*%
D19*
%TO.P,R12,1*%
%TO.N,Net-(J3-CC2)*%
X186425000Y-139840000D03*
%TO.P,R12,2*%
%TO.N,GND*%
X188075000Y-139840000D03*
%TD*%
D31*
%TO.P,J3,A1,GND*%
%TO.N,GND*%
X184379999Y-135389999D03*
%TO.P,J3,A4,VBUS*%
%TO.N,VBUS*%
X184379999Y-136189999D03*
D32*
%TO.P,J3,A5,CC1*%
%TO.N,Net-(J3-CC1)*%
X184379999Y-137339999D03*
%TO.P,J3,A6,D+*%
%TO.N,/D+*%
X184379999Y-138339999D03*
%TO.P,J3,A7,D-*%
%TO.N,/D-*%
X184379999Y-138839999D03*
%TO.P,J3,A8,SBU1*%
%TO.N,unconnected-(J3-SBU1-PadA8)*%
X184379999Y-139839999D03*
D31*
%TO.P,J3,A9,VBUS*%
%TO.N,VBUS*%
X184379999Y-140989999D03*
%TO.P,J3,A12,GND*%
%TO.N,GND*%
X184379999Y-141789999D03*
%TO.P,J3,B1,GND*%
X184379999Y-141789999D03*
%TO.P,J3,B4,VBUS*%
%TO.N,VBUS*%
X184379999Y-140989999D03*
D32*
%TO.P,J3,B5,CC2*%
%TO.N,Net-(J3-CC2)*%
X184379999Y-140339999D03*
%TO.P,J3,B6,D+*%
%TO.N,/D+*%
X184379999Y-139339999D03*
%TO.P,J3,B7,D-*%
%TO.N,/D-*%
X184379999Y-137839999D03*
%TO.P,J3,B8,SBU2*%
%TO.N,unconnected-(J3-SBU2-PadB8)*%
X184379999Y-136839999D03*
D31*
%TO.P,J3,B9,VBUS*%
%TO.N,VBUS*%
X184379999Y-136189999D03*
%TO.P,J3,B12,GND*%
%TO.N,GND*%
X184379999Y-135389999D03*
D33*
%TO.P,J3,S1,SHIELD*%
%TO.N,unconnected-(J3-SHIELD-PadS1)*%
X183804999Y-134269999D03*
D34*
X179624999Y-134269999D03*
D33*
X183804999Y-142909999D03*
D34*
X179624999Y-142909999D03*
%TD*%
D30*
%TO.P,X2,1,1*%
%TO.N,Net-(U6-PA00)*%
X201299999Y-141249999D03*
%TO.P,X2,2,2*%
%TO.N,Net-(U6-PA01)*%
X202699999Y-141249999D03*
%TD*%
D35*
%TO.P,SW1,1,1*%
%TO.N,/~{RESET}*%
X184199999Y-149449999D03*
%TO.P,SW1,2,2*%
%TO.N,GND*%
X180799999Y-149449999D03*
%TD*%
D29*
%TO.P,D3,1,K*%
%TO.N,Net-(D3-K)*%
X179200000Y-150287500D03*
%TO.P,D3,2,A*%
%TO.N,VBUS*%
X179200000Y-148712500D03*
%TD*%
D19*
%TO.P,R2,1*%
%TO.N,+3V3*%
X186425000Y-141300000D03*
%TO.P,R2,2*%
%TO.N,/SDA*%
X188075000Y-141300000D03*
%TD*%
D22*
%TO.P,R11,1*%
%TO.N,/D13*%
X182575000Y-145250000D03*
%TO.P,R11,2*%
%TO.N,/LED_D13*%
X180925000Y-145250000D03*
%TD*%
D19*
%TO.P,R13,1*%
%TO.N,Net-(J3-CC1)*%
X186425000Y-136550000D03*
%TO.P,R13,2*%
%TO.N,GND*%
X188075000Y-136550000D03*
%TD*%
D36*
%TO.P,R9,1*%
%TO.N,/~{RESET}*%
X184000000Y-146825000D03*
%TO.P,R9,2*%
%TO.N,+3V3*%
X184000000Y-145175000D03*
%TD*%
D26*
%TO.P,U4,1,STAT*%
%TO.N,/STAT*%
X201475000Y-125400000D03*
%TO.P,U4,2,V_{SS}*%
%TO.N,GND*%
X201475000Y-124450000D03*
%TO.P,U4,3,V_{BAT}*%
%TO.N,VBAT*%
X201475000Y-123500000D03*
%TO.P,U4,4,V_{DD}*%
%TO.N,VBUS*%
X199200000Y-123500000D03*
%TO.P,U4,5,PROG*%
%TO.N,Net-(U4-PROG)*%
X199200000Y-125400000D03*
%TD*%
D19*
%TO.P,R8,1*%
%TO.N,Net-(U4-PROG)*%
X198425000Y-127000000D03*
%TO.P,R8,2*%
%TO.N,GND*%
X200075000Y-127000000D03*
%TD*%
D14*
%TO.P,C6,1*%
%TO.N,GND*%
X190275000Y-142830000D03*
%TO.P,C6,2*%
%TO.N,Net-(U2-XIN32)*%
X191825000Y-142830000D03*
%TD*%
D12*
%TO.P,C15,1*%
%TO.N,GND*%
X198900000Y-144450000D03*
%TO.P,C15,2*%
%TO.N,Net-(U6-VDDCORE)*%
X198900000Y-142900000D03*
%TD*%
%TO.P,C10,1*%
%TO.N,+3V3*%
X189500000Y-125275000D03*
%TO.P,C10,2*%
%TO.N,GND*%
X189500000Y-123725000D03*
%TD*%
%TO.P,C8,1*%
%TO.N,Net-(D1-K)*%
X195700000Y-125275000D03*
%TO.P,C8,2*%
%TO.N,GND*%
X195700000Y-123725000D03*
%TD*%
D37*
%TO.N,GND*%
X207300000Y-125550000D03*
X185075000Y-150525000D03*
X192875000Y-140975000D03*
X192500000Y-129200000D03*
X201100000Y-132575000D03*
%TO.N,+3V3*%
X191875000Y-130875000D03*
X190000000Y-127000000D03*
X188750000Y-135000000D03*
X188950000Y-138850000D03*
%TO.N,GND*%
X202500000Y-127650000D03*
X200300000Y-142100000D03*
X191300000Y-146250000D03*
X181200000Y-125950000D03*
X201800000Y-151900000D03*
X186000000Y-127650000D03*
X190250000Y-137300000D03*
X188850000Y-139700000D03*
X182150000Y-147950000D03*
X177550000Y-150400000D03*
X181250000Y-129950000D03*
X181300000Y-135750000D03*
X203300000Y-149850000D03*
X190600000Y-134300000D03*
X188150000Y-123950000D03*
X184700000Y-151900000D03*
X200250000Y-125800000D03*
X196600000Y-142000000D03*
X181700000Y-144250000D03*
X203360000Y-132750000D03*
X203475000Y-140750000D03*
X188750000Y-143600000D03*
X185750000Y-145000000D03*
X188100000Y-126000000D03*
X180850000Y-152000000D03*
X189550000Y-141775000D03*
X181400000Y-139700000D03*
X203200000Y-147750000D03*
X198750000Y-135600000D03*
X203200000Y-146000000D03*
X182450000Y-142000000D03*
X195300000Y-136750000D03*
X199050000Y-145400000D03*
X198000000Y-123900000D03*
X184850000Y-132900000D03*
X201950000Y-147750000D03*
X199250000Y-127725000D03*
X194000000Y-126550000D03*
X188200000Y-146600000D03*
X199625000Y-129775000D03*
X182450000Y-150000000D03*
X195530000Y-150480000D03*
X188400000Y-130700000D03*
X202600000Y-124550000D03*
X196975000Y-130700000D03*
X196800000Y-134800000D03*
X195500000Y-145700000D03*
X197200000Y-138200000D03*
X196150000Y-148850000D03*
X183950000Y-123950000D03*
X201950000Y-146000000D03*
X188450000Y-149975000D03*
X192000000Y-150100000D03*
X177500000Y-146150000D03*
X193450000Y-145500000D03*
X179250000Y-147700000D03*
X199400000Y-138100000D03*
X200700000Y-147750000D03*
X200700000Y-146000000D03*
X178450000Y-141750000D03*
X192550000Y-125900000D03*
X200350000Y-123700000D03*
%TO.N,/~{RESET}*%
X183300000Y-145975000D03*
X192810378Y-141876428D03*
%TO.N,/D13*%
X192000000Y-134300000D03*
X183600000Y-144150000D03*
%TO.N,/SCL*%
X198150000Y-145400000D03*
X191900000Y-137250000D03*
X191600000Y-138850000D03*
%TO.N,/SDA*%
X190600000Y-138850000D03*
X191100000Y-136850000D03*
X197150000Y-143750000D03*
%TO.N,/D8_CS*%
X200250000Y-134500000D03*
%TO.N,/D4_RST*%
X199250000Y-134500000D03*
%TO.N,/D3_IRQ*%
X199300000Y-131223500D03*
%TO.N,/MOSI*%
X197537115Y-133907423D03*
%TO.N,/SCK*%
X196750000Y-133750000D03*
%TO.N,/MISO*%
X195750000Y-133750000D03*
%TO.N,/D2*%
X195050000Y-131150000D03*
%TO.N,/D5*%
X194300000Y-131250000D03*
%TO.N,/D11*%
X192450000Y-132800000D03*
%TO.N,/STAT*%
X181800000Y-146025000D03*
X199900000Y-124400000D03*
%TO.N,Net-(U2-~{BOOT_LOAD_PIN})*%
X194300000Y-146000000D03*
X190250000Y-144950000D03*
%TD*%
D38*
%TO.N,GND*%
X207300000Y-126650000D02*
X207300000Y-125550000D01*
%TO.N,VBAT*%
X204650000Y-126150000D02*
X204650000Y-127150000D01*
X204650000Y-127150000D02*
X206150000Y-128650000D01*
X204400000Y-126150000D02*
X201304709Y-126150000D01*
X204650000Y-126150000D02*
X204400000Y-126150000D01*
D39*
%TO.N,+3V3*%
X186425000Y-142800000D02*
X186425000Y-142050000D01*
X198250000Y-137072092D02*
X198250000Y-140732500D01*
X193275000Y-132097092D02*
X197063954Y-135886046D01*
X190950000Y-127000000D02*
X190950000Y-125975000D01*
D40*
X192512500Y-146050000D02*
X191850000Y-146050000D01*
D39*
X198250000Y-132407500D02*
X198250000Y-131528209D01*
X191850000Y-148081000D02*
X192669000Y-148900000D01*
X190700000Y-151000000D02*
X189940144Y-151000000D01*
X190952000Y-143287225D02*
X191147225Y-143287225D01*
X190550000Y-147375000D02*
X191775000Y-147375000D01*
X198250000Y-131528209D02*
X199453209Y-130325000D01*
X188750000Y-135000000D02*
X188750000Y-133860775D01*
X186425000Y-141300000D02*
X187448000Y-140277000D01*
X191850000Y-143990000D02*
X192921000Y-143990000D01*
X189425000Y-144300000D02*
X188025000Y-144300000D01*
X187900000Y-138850000D02*
X188950000Y-138850000D01*
X191775000Y-147375000D02*
X191850000Y-147450000D01*
X192669000Y-148900000D02*
X195300000Y-148900000D01*
X191850000Y-147450000D02*
X191850000Y-147850000D01*
X191850000Y-146050000D02*
X191850000Y-147450000D01*
X189940144Y-151000000D02*
X189671800Y-150731656D01*
X201662500Y-136820000D02*
X202615000Y-136820000D01*
X198250000Y-137072092D02*
X198502092Y-136820000D01*
X193275000Y-132000000D02*
X193275000Y-132097092D01*
X192921000Y-143990000D02*
X193150000Y-144219000D01*
X188750000Y-133860775D02*
X191735775Y-130875000D01*
X192150000Y-130875000D02*
X193275000Y-132000000D01*
X189671800Y-150731656D02*
X189671800Y-149268344D01*
X191875000Y-130875000D02*
X192150000Y-130875000D01*
X190550000Y-147375000D02*
X187550000Y-147375000D01*
X191850000Y-147850000D02*
X190700000Y-149000000D01*
X189940144Y-149000000D02*
X190700000Y-149000000D01*
X193150000Y-144219000D02*
X193150000Y-144637500D01*
X190952000Y-141823000D02*
X191825000Y-140950000D01*
X194880000Y-139320000D02*
X193337500Y-139320000D01*
X202615000Y-136820000D02*
X203380000Y-136055000D01*
X186425000Y-142050000D02*
X186425000Y-141300000D01*
X197063954Y-135886046D02*
X197688954Y-136511046D01*
X189671800Y-149268344D02*
X189940144Y-149000000D01*
X187448000Y-139302000D02*
X187900000Y-138850000D01*
X190950000Y-127000000D02*
X190000000Y-127000000D01*
X186425000Y-142050000D02*
X186425000Y-142750000D01*
X191850000Y-147850000D02*
X191850000Y-148081000D01*
X197063954Y-135886046D02*
X198250000Y-134700000D01*
X189500000Y-125275000D02*
X191300000Y-125275000D01*
X191850000Y-143990000D02*
X191850000Y-146050000D01*
X199453209Y-130325000D02*
X200250000Y-130325000D01*
X190950000Y-125975000D02*
X191475000Y-125450000D01*
X195300000Y-148900000D02*
X196800000Y-150400000D01*
X186300000Y-151000000D02*
X190700000Y-151000000D01*
X197688954Y-136511046D02*
X198250000Y-137072092D01*
X186425000Y-142750000D02*
X184000000Y-145175000D01*
X198250000Y-134700000D02*
X198250000Y-132407500D01*
X191147225Y-143287225D02*
X191850000Y-143990000D01*
X197688954Y-136511046D02*
X194880000Y-139320000D01*
X189939225Y-144300000D02*
X189425000Y-144300000D01*
X187448000Y-140277000D02*
X187448000Y-139302000D01*
X191735775Y-130875000D02*
X191875000Y-130875000D01*
X191825000Y-140950000D02*
X191825000Y-140832500D01*
X190952000Y-143287225D02*
X189939225Y-144300000D01*
X198502092Y-136820000D02*
X201662500Y-136820000D01*
X191825000Y-140832500D02*
X193337500Y-139320000D01*
X190952000Y-143287225D02*
X190952000Y-141823000D01*
D41*
%TO.N,GND*%
X190975000Y-146250000D02*
X190550000Y-145825000D01*
X194832500Y-148609500D02*
X195909500Y-148609500D01*
X189550000Y-141675000D02*
X190275000Y-140950000D01*
X188200000Y-146475000D02*
X187550000Y-145825000D01*
X203300000Y-125250000D02*
X202600000Y-124550000D01*
X192650000Y-147498000D02*
X192898000Y-147250000D01*
X194650000Y-147962500D02*
X194650000Y-148427000D01*
X199625000Y-129625000D02*
X200250000Y-129000000D01*
X203300000Y-125275000D02*
X203300000Y-125250000D01*
X188200000Y-146600000D02*
X188200000Y-146475000D01*
X188275000Y-146600000D02*
X189050000Y-145825000D01*
X197250000Y-142000000D02*
X196600000Y-142000000D01*
X202500000Y-127650000D02*
X202325000Y-127650000D01*
X199250000Y-127725000D02*
X199350000Y-127725000D01*
X197375000Y-123900000D02*
X197200000Y-123725000D01*
X182568500Y-142118500D02*
X182450000Y-142000000D01*
X202325000Y-127650000D02*
X201675000Y-127000000D01*
X199625000Y-129775000D02*
X199625000Y-129625000D01*
X195500000Y-145700000D02*
X195300000Y-145500000D01*
X196450000Y-147050000D02*
X196000000Y-146600000D01*
X189550000Y-141775000D02*
X189550000Y-141675000D01*
X195300000Y-145500000D02*
X194650000Y-145500000D01*
X202600000Y-124550000D02*
X202500000Y-124450000D01*
X186050000Y-145825000D02*
X186050000Y-145300000D01*
X197250000Y-142000000D02*
X197250000Y-140732500D01*
X197250000Y-142650000D02*
X197250000Y-142000000D01*
X198000000Y-123900000D02*
X197375000Y-123900000D01*
X195909500Y-148609500D02*
X196150000Y-148850000D01*
X202500000Y-124450000D02*
X201475000Y-124450000D01*
X184810000Y-135390000D02*
X185550000Y-134650000D01*
X192650000Y-147962500D02*
X192650000Y-147498000D01*
X194650000Y-145500000D02*
X193450000Y-145500000D01*
X194650000Y-148427000D02*
X194832500Y-148609500D01*
X192898000Y-147250000D02*
X193850000Y-147250000D01*
X184380000Y-135390000D02*
X184810000Y-135390000D01*
X188200000Y-146600000D02*
X188275000Y-146600000D01*
X197287500Y-147050000D02*
X196450000Y-147050000D01*
X194650000Y-144637500D02*
X194650000Y-145500000D01*
X185775000Y-145000000D02*
X186475000Y-144300000D01*
X184051500Y-142118500D02*
X182568500Y-142118500D01*
X191300000Y-146250000D02*
X190975000Y-146250000D01*
X197450000Y-142850000D02*
X197250000Y-142650000D01*
X184380000Y-141790000D02*
X184051500Y-142118500D01*
X199350000Y-127725000D02*
X200075000Y-127000000D01*
X185750000Y-145000000D02*
X185775000Y-145000000D01*
X186050000Y-145300000D02*
X185750000Y-145000000D01*
D38*
%TO.N,VBAT*%
X201475000Y-123500000D02*
X203075000Y-123500000D01*
X200948000Y-126506709D02*
X200948000Y-127773000D01*
X203300000Y-123725000D02*
X204650000Y-125075000D01*
X199925000Y-127975000D02*
X198650000Y-129250000D01*
X200746000Y-127975000D02*
X199925000Y-127975000D01*
X200948000Y-127773000D02*
X201675000Y-128500000D01*
X204650000Y-125075000D02*
X204650000Y-126150000D01*
X201304709Y-126150000D02*
X200948000Y-126506709D01*
X200948000Y-127773000D02*
X200746000Y-127975000D01*
D41*
%TO.N,/DRV_REG*%
X186050000Y-148750000D02*
X186300000Y-149000000D01*
X186050000Y-147375000D02*
X186050000Y-148750000D01*
%TO.N,/AREF*%
X203025000Y-137820000D02*
X201662500Y-137820000D01*
X203380000Y-137465000D02*
X203025000Y-137820000D01*
D39*
%TO.N,VBUS*%
X183050000Y-138950000D02*
X183050000Y-137800000D01*
D38*
X199200000Y-123500000D02*
X199200000Y-124062920D01*
X197527000Y-128989001D02*
X196366001Y-130150000D01*
D39*
X178850000Y-144100000D02*
X178150000Y-144800000D01*
X178150000Y-144800000D02*
X178150000Y-147662500D01*
D38*
X197987920Y-125275000D02*
X197200000Y-125275000D01*
X199200000Y-124062920D02*
X197987920Y-125275000D01*
D39*
X181200000Y-142100000D02*
X181200000Y-143500000D01*
X178150000Y-147662500D02*
X179200000Y-148712500D01*
D38*
X191100000Y-130199000D02*
X185109000Y-136190000D01*
D39*
X183050000Y-140250000D02*
X183050000Y-138950000D01*
X180600000Y-144100000D02*
X178850000Y-144100000D01*
X183050000Y-140250000D02*
X181200000Y-142100000D01*
X183790000Y-140990000D02*
X183050000Y-140250000D01*
X183050000Y-137800000D02*
X183050000Y-136991000D01*
D38*
X192000000Y-130150000D02*
X191100000Y-129250000D01*
D39*
X184380000Y-140990000D02*
X183790000Y-140990000D01*
D38*
X197527000Y-125602000D02*
X197527000Y-128989001D01*
X191100000Y-129250000D02*
X191100000Y-130199000D01*
X197200000Y-125275000D02*
X197527000Y-125602000D01*
X185109000Y-136190000D02*
X184380000Y-136190000D01*
D39*
X183851000Y-136190000D02*
X184380000Y-136190000D01*
X183050000Y-136991000D02*
X183851000Y-136190000D01*
X181200000Y-143500000D02*
X180600000Y-144100000D01*
D38*
X196366001Y-130150000D02*
X192000000Y-130150000D01*
D39*
%TO.N,/D+*%
X184380000Y-139340000D02*
X185211400Y-139340000D01*
X185258200Y-139293200D02*
X185258200Y-138508200D01*
X184380000Y-138340000D02*
X185242501Y-138340000D01*
X185211400Y-139340000D02*
X185258200Y-139293200D01*
X185090000Y-138340000D02*
X184380000Y-138340000D01*
X185242501Y-138340000D02*
X185267501Y-138315000D01*
X185267501Y-138315000D02*
X192766660Y-138315000D01*
X185258200Y-138508200D02*
X185090000Y-138340000D01*
D42*
%TO.N,/D-*%
X183652600Y-138840000D02*
X183601800Y-138789200D01*
X184380000Y-138840000D02*
X183652600Y-138840000D01*
X183601800Y-138789200D02*
X183601800Y-137986800D01*
D39*
X185242501Y-137840000D02*
X185267501Y-137865000D01*
D42*
X183601800Y-137986800D02*
X183748600Y-137840000D01*
D39*
X185267501Y-137865000D02*
X192766660Y-137865000D01*
X184380000Y-137840000D02*
X185242501Y-137840000D01*
D42*
X183748600Y-137840000D02*
X184380000Y-137840000D01*
D41*
%TO.N,/~{RESET}*%
X183300000Y-145975000D02*
X183300000Y-146125000D01*
D39*
X185400000Y-151600000D02*
X200680000Y-151600000D01*
D41*
X192836806Y-141850000D02*
X195745474Y-141850000D01*
X195745474Y-141850000D02*
X196250000Y-141345474D01*
X183300000Y-146125000D02*
X184000000Y-146825000D01*
D39*
X184200000Y-150400000D02*
X185400000Y-151600000D01*
X184200000Y-147025000D02*
X184000000Y-146825000D01*
D41*
X192810378Y-141876428D02*
X192836806Y-141850000D01*
D39*
X184200000Y-150400000D02*
X184200000Y-149400000D01*
X184200000Y-149400000D02*
X184200000Y-147025000D01*
X200680000Y-151600000D02*
X201880000Y-150400000D01*
D41*
X196250000Y-141345474D02*
X196250000Y-140732500D01*
D39*
%TO.N,/D9*%
X203325000Y-128500000D02*
X203325000Y-127000000D01*
X202250000Y-133232500D02*
X202250000Y-129575000D01*
X202250000Y-129575000D02*
X203325000Y-128500000D01*
X201662500Y-133820000D02*
X202250000Y-133232500D01*
D41*
%TO.N,/D13*%
X192020000Y-134320000D02*
X192000000Y-134300000D01*
X182575000Y-145250000D02*
X182575000Y-145175000D01*
X193337500Y-134320000D02*
X192020000Y-134320000D01*
X182575000Y-145175000D02*
X183600000Y-144150000D01*
D40*
%TO.N,/SCL*%
X198000000Y-145550000D02*
X198150000Y-145400000D01*
X187227000Y-149189737D02*
X187227000Y-148177000D01*
X191600000Y-138850000D02*
X191098000Y-139352000D01*
X186873000Y-147823000D02*
X186873000Y-145227000D01*
X188920869Y-140920869D02*
X188920869Y-141954131D01*
X188920869Y-141954131D02*
X188075000Y-142800000D01*
X186873000Y-145227000D02*
X187373000Y-144727000D01*
X187227000Y-148177000D02*
X186873000Y-147823000D01*
X186916737Y-149500000D02*
X187227000Y-149189737D01*
X187373000Y-144727000D02*
X187373000Y-143502000D01*
X191098000Y-139352000D02*
X190489738Y-139352000D01*
X197287500Y-145550000D02*
X198000000Y-145550000D01*
X187373000Y-143502000D02*
X188075000Y-142800000D01*
X186300000Y-149500000D02*
X186916737Y-149500000D01*
X193267500Y-137250000D02*
X193337500Y-137320000D01*
X190489738Y-139352000D02*
X188920869Y-140920869D01*
X191900000Y-137250000D02*
X193267500Y-137250000D01*
%TO.N,/SDA*%
X186876869Y-143623000D02*
X186073131Y-143623000D01*
X188075000Y-141300000D02*
X188150000Y-141300000D01*
X186073131Y-143623000D02*
X185150000Y-144546131D01*
X185150000Y-144546131D02*
X185150000Y-149466737D01*
X185150000Y-149466737D02*
X185683263Y-150000000D01*
X188075000Y-141300000D02*
X187076935Y-142298065D01*
D41*
X197150000Y-144637500D02*
X197150000Y-143750000D01*
D40*
X191100000Y-136850000D02*
X191353000Y-136597000D01*
X187076935Y-142298065D02*
X187076935Y-143422934D01*
X192696000Y-136820000D02*
X193337500Y-136820000D01*
X185683263Y-150000000D02*
X186300000Y-150000000D01*
X192473000Y-136597000D02*
X192696000Y-136820000D01*
X188150000Y-141300000D02*
X190600000Y-138850000D01*
X191353000Y-136597000D02*
X192473000Y-136597000D01*
X187076935Y-143422934D02*
X186876869Y-143623000D01*
D41*
%TO.N,/SWCLK*%
X199565500Y-150174500D02*
X199340000Y-150400000D01*
X198750000Y-141687394D02*
X199565500Y-142502894D01*
X198750000Y-140732500D02*
X198750000Y-141687394D01*
X199565500Y-142502894D02*
X199565500Y-150174500D01*
%TO.N,/SWDIO*%
X199250000Y-141828184D02*
X199850000Y-142428184D01*
X199850000Y-149640000D02*
X200610000Y-150400000D01*
X199250000Y-140732500D02*
X199250000Y-141828184D01*
X199850000Y-142428184D02*
X199850000Y-149640000D01*
D39*
%TO.N,/D8_CS*%
X200430000Y-134320000D02*
X200250000Y-134500000D01*
X201662500Y-134320000D02*
X200430000Y-134320000D01*
%TO.N,/D4_RST*%
X199250000Y-134179856D02*
X200250000Y-133179856D01*
X199250000Y-134500000D02*
X199250000Y-134179856D01*
X200250000Y-133179856D02*
X200250000Y-132407500D01*
%TO.N,/D3_IRQ*%
X199750000Y-132407500D02*
X199750000Y-131673500D01*
X199750000Y-131673500D02*
X199300000Y-131223500D01*
%TO.N,/MOSI*%
X197250000Y-133396946D02*
X197250000Y-132407500D01*
X197537115Y-133684061D02*
X197250000Y-133396946D01*
X197537115Y-133907423D02*
X197537115Y-133684061D01*
%TO.N,/SCK*%
X196750000Y-132407500D02*
X196750000Y-133750000D01*
%TO.N,/MISO*%
X196250000Y-133250000D02*
X195750000Y-133750000D01*
X196250000Y-132407500D02*
X196250000Y-133250000D01*
D41*
%TO.N,/D2*%
X195250000Y-132407500D02*
X195250000Y-131350000D01*
X195250000Y-131350000D02*
X195050000Y-131150000D01*
%TO.N,/D5*%
X194750000Y-132407500D02*
X194750000Y-131700000D01*
X194750000Y-131700000D02*
X194300000Y-131250000D01*
%TO.N,/D11*%
X193337500Y-133820000D02*
X193337500Y-133437500D01*
X193337500Y-133437500D02*
X192450000Y-132800000D01*
D39*
%TO.N,/STAT*%
X201475000Y-125400000D02*
X200900000Y-125400000D01*
X200900000Y-125400000D02*
X199900000Y-124400000D01*
D41*
X181800000Y-146025000D02*
X182575000Y-146800000D01*
D39*
%TO.N,/REG_EN*%
X187478200Y-124521800D02*
X184000000Y-128000000D01*
X191806622Y-124521800D02*
X187478200Y-124521800D01*
X192778422Y-123550000D02*
X191806622Y-124521800D01*
X193750000Y-123550000D02*
X192778422Y-123550000D01*
%TO.N,Net-(D1-K)*%
X195850000Y-129250000D02*
X195850000Y-127725000D01*
X196575000Y-127000000D02*
X196575000Y-126150000D01*
X195850000Y-129250000D02*
X193900000Y-129250000D01*
X196575000Y-126150000D02*
X195700000Y-125275000D01*
X195850000Y-127725000D02*
X196575000Y-127000000D01*
X193750000Y-125450000D02*
X195825000Y-125450000D01*
D41*
%TO.N,Net-(U2-XIN32)*%
X192075000Y-143100000D02*
X191825000Y-142850000D01*
X193650000Y-144637500D02*
X193650000Y-143600000D01*
X193150000Y-143100000D02*
X192075000Y-143100000D01*
X193650000Y-143600000D02*
X193150000Y-143100000D01*
%TO.N,Net-(U2-XOUT32)*%
X194550000Y-143100000D02*
X195650000Y-143100000D01*
X194150000Y-144637500D02*
X194150000Y-143500000D01*
X195650000Y-143100000D02*
X195900000Y-142850000D01*
X194150000Y-143500000D02*
X194550000Y-143100000D01*
%TO.N,Net-(U2-CAP)*%
X194248000Y-147400000D02*
X198325000Y-147400000D01*
X194150000Y-147962500D02*
X194150000Y-147498000D01*
X194150000Y-147498000D02*
X194248000Y-147400000D01*
X198325000Y-147400000D02*
X198750000Y-147825000D01*
%TO.N,Net-(U6-VDDCORE)*%
X197750000Y-140732500D02*
X197750000Y-141625000D01*
X197750000Y-141625000D02*
X198900000Y-142775000D01*
%TO.N,Net-(U6-PA00)*%
X201300000Y-139682500D02*
X201662500Y-139320000D01*
X201300000Y-142900000D02*
X201300000Y-141250000D01*
X201300000Y-141250000D02*
X201300000Y-139682500D01*
%TO.N,Net-(U6-PA01)*%
X201662500Y-138820000D02*
X202275474Y-138820000D01*
X202275474Y-138820000D02*
X202700000Y-139244526D01*
X202700000Y-142800000D02*
X202700000Y-141250000D01*
X202700000Y-139244526D02*
X202700000Y-141250000D01*
X202800000Y-142900000D02*
X202700000Y-142800000D01*
D43*
%TO.N,Net-(J1-Pin_1)*%
X192600001Y-150899999D02*
X193100000Y-150400000D01*
X191460000Y-150500000D02*
X191859999Y-150899999D01*
X191859999Y-150899999D02*
X192600001Y-150899999D01*
X190700000Y-150500000D02*
X191460000Y-150500000D01*
%TO.N,Net-(J1-Pin_2)*%
X194177106Y-149500000D02*
X194370000Y-149692894D01*
X190700000Y-149500000D02*
X194177106Y-149500000D01*
X194370000Y-149692894D02*
X194370000Y-150400000D01*
D41*
%TO.N,Net-(D3-K)*%
X180000000Y-149487500D02*
X180000000Y-147725000D01*
X179200000Y-150287500D02*
X180000000Y-149487500D01*
X180000000Y-147725000D02*
X180925000Y-146800000D01*
%TO.N,/LED_D13*%
X179200000Y-145212500D02*
X180887500Y-145212500D01*
X180887500Y-145212500D02*
X180925000Y-145250000D01*
D39*
%TO.N,/REG_ON*%
X194925000Y-127000000D02*
X193925000Y-128000000D01*
X193925000Y-128000000D02*
X186750000Y-128000000D01*
X186750000Y-128000000D02*
X184250000Y-130500000D01*
%TO.N,Net-(U4-PROG)*%
X198425000Y-126175000D02*
X199200000Y-125400000D01*
X198425000Y-127000000D02*
X198425000Y-126175000D01*
D40*
%TO.N,Net-(U2-~{BOOT_LOAD_PIN})*%
X191075000Y-144300000D02*
X190900000Y-144300000D01*
X193750000Y-146550000D02*
X192512500Y-146550000D01*
X190900000Y-144300000D02*
X190250000Y-144950000D01*
X194300000Y-146000000D02*
X193750000Y-146550000D01*
D41*
%TO.N,Net-(J3-CC1)*%
X184380000Y-137340000D02*
X185635000Y-137340000D01*
X185635000Y-137340000D02*
X186425000Y-136550000D01*
%TO.N,Net-(J3-CC2)*%
X184380000Y-140340000D02*
X185935000Y-140340000D01*
X185935000Y-140340000D02*
X186425000Y-139850000D01*
%TD*%
%TA.AperFunction,Conductor*%
%TO.N,GND*%
G36*
X188787720Y-122715355D02*
G01*
X188832470Y-122756361D01*
X188852397Y-122813693D01*
X188842728Y-122873615D01*
X188805777Y-122921768D01*
X188792161Y-122932533D01*
X188682537Y-123042157D01*
X188673632Y-123053419D01*
X188592246Y-123185366D01*
X188586180Y-123198374D01*
X188537272Y-123345969D01*
X188534456Y-123359125D01*
X188525319Y-123448555D01*
X188525000Y-123454832D01*
X188525000Y-123458674D01*
X188528450Y-123471549D01*
X188541326Y-123475000D01*
X189626000Y-123475000D01*
X189688000Y-123491613D01*
X189733387Y-123537000D01*
X189750000Y-123599000D01*
X189750000Y-123851000D01*
X189733387Y-123913000D01*
X189688000Y-123958387D01*
X189626000Y-123975000D01*
X188541327Y-123975000D01*
X188528451Y-123978450D01*
X188525001Y-123991326D01*
X188525001Y-123995165D01*
X188525320Y-124001444D01*
X188533826Y-124084698D01*
X188521813Y-124151874D01*
X188476076Y-124202522D01*
X188410468Y-124221300D01*
X187530057Y-124221300D01*
X187526476Y-124221051D01*
X187520436Y-124219027D01*
X187508960Y-124219557D01*
X187508957Y-124219557D01*
X187474121Y-124221168D01*
X187468395Y-124221300D01*
X187450356Y-124221300D01*
X187444730Y-124222351D01*
X187443839Y-124222434D01*
X187438132Y-124222831D01*
X187419682Y-124223684D01*
X187419679Y-124223684D01*
X187408209Y-124224215D01*
X187397703Y-124228853D01*
X187390340Y-124230585D01*
X187386125Y-124231890D01*
X187379057Y-124234628D01*
X187367767Y-124236739D01*
X187358001Y-124242784D01*
X187357994Y-124242788D01*
X187345054Y-124250800D01*
X187329875Y-124258801D01*
X187315944Y-124264952D01*
X187315937Y-124264956D01*
X187305435Y-124269594D01*
X187297315Y-124277712D01*
X187291057Y-124282000D01*
X187287622Y-124284721D01*
X187282013Y-124289833D01*
X187272248Y-124295881D01*
X187265324Y-124305048D01*
X187265322Y-124305051D01*
X187256149Y-124317198D01*
X187244879Y-124330148D01*
X185856346Y-125718682D01*
X185800759Y-125750776D01*
X185736573Y-125750776D01*
X185733677Y-125750000D01*
X184266326Y-125750000D01*
X184253450Y-125753450D01*
X184250000Y-125766326D01*
X184250000Y-126608674D01*
X184253450Y-126621549D01*
X184266326Y-126625000D01*
X184650667Y-126625000D01*
X184706962Y-126638515D01*
X184750985Y-126676115D01*
X184773140Y-126729602D01*
X184768598Y-126787318D01*
X184738348Y-126836681D01*
X184436848Y-127138181D01*
X184396620Y-127165061D01*
X184349167Y-127174500D01*
X182730252Y-127174500D01*
X182724277Y-127175688D01*
X182724271Y-127175689D01*
X182683747Y-127183750D01*
X182683745Y-127183750D01*
X182671769Y-127186133D01*
X182661618Y-127192915D01*
X182661615Y-127192917D01*
X182615601Y-127223663D01*
X182615598Y-127223665D01*
X182605448Y-127230448D01*
X182598665Y-127240598D01*
X182598663Y-127240601D01*
X182567917Y-127286615D01*
X182567915Y-127286618D01*
X182561133Y-127296769D01*
X182558750Y-127308745D01*
X182558750Y-127308747D01*
X182550689Y-127349271D01*
X182550688Y-127349277D01*
X182549500Y-127355252D01*
X182549500Y-128644748D01*
X182550688Y-128650723D01*
X182550689Y-128650728D01*
X182558750Y-128691252D01*
X182561133Y-128703231D01*
X182567916Y-128713383D01*
X182567917Y-128713384D01*
X182589634Y-128745886D01*
X182605448Y-128769552D01*
X182671769Y-128813867D01*
X182730252Y-128825500D01*
X182736348Y-128825500D01*
X185200167Y-128825500D01*
X185256462Y-128839015D01*
X185300485Y-128876615D01*
X185322640Y-128930102D01*
X185318098Y-128987818D01*
X185287848Y-129037181D01*
X184686848Y-129638181D01*
X184646620Y-129665061D01*
X184599167Y-129674500D01*
X182730252Y-129674500D01*
X182724277Y-129675688D01*
X182724271Y-129675689D01*
X182683747Y-129683750D01*
X182683745Y-129683750D01*
X182671769Y-129686133D01*
X182661618Y-129692915D01*
X182661615Y-129692917D01*
X182615601Y-129723663D01*
X182615598Y-129723665D01*
X182605448Y-129730448D01*
X182598665Y-129740598D01*
X182598663Y-129740601D01*
X182567917Y-129786615D01*
X182567915Y-129786618D01*
X182561133Y-129796769D01*
X182558750Y-129808745D01*
X182558750Y-129808747D01*
X182550689Y-129849271D01*
X182550689Y-129849273D01*
X182549500Y-129855252D01*
X182549500Y-131144748D01*
X182550688Y-131150723D01*
X182550689Y-131150728D01*
X182557754Y-131186246D01*
X182561133Y-131203231D01*
X182567916Y-131213383D01*
X182567917Y-131213384D01*
X182593462Y-131251615D01*
X182605448Y-131269552D01*
X182671769Y-131313867D01*
X182730252Y-131325500D01*
X185263652Y-131325500D01*
X185269748Y-131325500D01*
X185328231Y-131313867D01*
X185394552Y-131269552D01*
X185438867Y-131203231D01*
X185450500Y-131144748D01*
X185450500Y-129855252D01*
X185441732Y-129811172D01*
X185444688Y-129750987D01*
X185475666Y-129699303D01*
X186838151Y-128336819D01*
X186878380Y-128309939D01*
X186925833Y-128300500D01*
X190562354Y-128300500D01*
X190628326Y-128319506D01*
X190674074Y-128370699D01*
X190685574Y-128438384D01*
X190659301Y-128501813D01*
X190603308Y-128541542D01*
X190595886Y-128544138D01*
X190595880Y-128544140D01*
X190587118Y-128547207D01*
X190579646Y-128552720D01*
X190579641Y-128552724D01*
X190485327Y-128622331D01*
X190485324Y-128622333D01*
X190477850Y-128627850D01*
X190472333Y-128635324D01*
X190472331Y-128635327D01*
X190402724Y-128729641D01*
X190402720Y-128729646D01*
X190397207Y-128737118D01*
X190394140Y-128745880D01*
X190394138Y-128745886D01*
X190354844Y-128858182D01*
X190354842Y-128858189D01*
X190352354Y-128865301D01*
X190351650Y-128872807D01*
X190351649Y-128872812D01*
X190349770Y-128892850D01*
X190349500Y-128895734D01*
X190349500Y-129604266D01*
X190349769Y-129607134D01*
X190349770Y-129607149D01*
X190351649Y-129627187D01*
X190351649Y-129627191D01*
X190352354Y-129634699D01*
X190354842Y-129641811D01*
X190354844Y-129641817D01*
X190394138Y-129754113D01*
X190394139Y-129754116D01*
X190397207Y-129762882D01*
X190402722Y-129770355D01*
X190402724Y-129770358D01*
X190432848Y-129811174D01*
X190477850Y-129872150D01*
X190582055Y-129949056D01*
X190616948Y-129988844D01*
X190632073Y-130039558D01*
X190624675Y-130091961D01*
X190596101Y-130136506D01*
X185661120Y-135071485D01*
X185600876Y-135104731D01*
X185532182Y-135100739D01*
X185476193Y-135060741D01*
X185450149Y-134997051D01*
X185449427Y-134990335D01*
X185445888Y-134975358D01*
X185401452Y-134856222D01*
X185393037Y-134840810D01*
X185317501Y-134739907D01*
X185305092Y-134727498D01*
X185204189Y-134651962D01*
X185188777Y-134643547D01*
X185105100Y-134612337D01*
X185055919Y-134578721D01*
X185028091Y-134526050D01*
X185028036Y-134466483D01*
X185055500Y-134355056D01*
X185055500Y-134184944D01*
X185014790Y-134019775D01*
X184935734Y-133869148D01*
X184913885Y-133844486D01*
X184869056Y-133793884D01*
X184822929Y-133741817D01*
X184816760Y-133737558D01*
X184816758Y-133737557D01*
X184689106Y-133649445D01*
X184689105Y-133649444D01*
X184682930Y-133645182D01*
X184675915Y-133642521D01*
X184675912Y-133642520D01*
X184530888Y-133587520D01*
X184530882Y-133587518D01*
X184523872Y-133584860D01*
X184516427Y-133583956D01*
X184516423Y-133583955D01*
X184401092Y-133569951D01*
X184401080Y-133569950D01*
X184397372Y-133569500D01*
X183212628Y-133569500D01*
X183208920Y-133569950D01*
X183208907Y-133569951D01*
X183093576Y-133583955D01*
X183093570Y-133583956D01*
X183086128Y-133584860D01*
X183079119Y-133587517D01*
X183079111Y-133587520D01*
X182934087Y-133642520D01*
X182934081Y-133642523D01*
X182927070Y-133645182D01*
X182920897Y-133649442D01*
X182920893Y-133649445D01*
X182793241Y-133737557D01*
X182793235Y-133737562D01*
X182787071Y-133741817D01*
X182782099Y-133747428D01*
X182782098Y-133747430D01*
X182679241Y-133863531D01*
X182679236Y-133863537D01*
X182674266Y-133869148D01*
X182670780Y-133875788D01*
X182670779Y-133875791D01*
X182598695Y-134013133D01*
X182598692Y-134013140D01*
X182595210Y-134019775D01*
X182593416Y-134027050D01*
X182593415Y-134027055D01*
X182556294Y-134177662D01*
X182556293Y-134177668D01*
X182554500Y-134184944D01*
X182554500Y-134355056D01*
X182556293Y-134362332D01*
X182556294Y-134362337D01*
X182587887Y-134490514D01*
X182595210Y-134520225D01*
X182598693Y-134526862D01*
X182598695Y-134526866D01*
X182646239Y-134617451D01*
X182674266Y-134670852D01*
X182787071Y-134798183D01*
X182927070Y-134894818D01*
X182934088Y-134897479D01*
X182934089Y-134897480D01*
X183061750Y-134945895D01*
X183110096Y-134979050D01*
X183137809Y-135030709D01*
X183138695Y-135089325D01*
X183112556Y-135141797D01*
X183065233Y-135176398D01*
X183022276Y-135194191D01*
X183022272Y-135194193D01*
X183014767Y-135197302D01*
X183008328Y-135202242D01*
X183008319Y-135202248D01*
X182900991Y-135284605D01*
X182900987Y-135284608D01*
X182894549Y-135289549D01*
X182889608Y-135295987D01*
X182889605Y-135295991D01*
X182807248Y-135403319D01*
X182807242Y-135403328D01*
X182802302Y-135409767D01*
X182799193Y-135417272D01*
X182799191Y-135417276D01*
X182747423Y-135542254D01*
X182747421Y-135542259D01*
X182744313Y-135549764D01*
X182743252Y-135557815D01*
X182743251Y-135557823D01*
X182732433Y-135640000D01*
X182724534Y-135700000D01*
X182725595Y-135708059D01*
X182743251Y-135842176D01*
X182743252Y-135842182D01*
X182744313Y-135850236D01*
X182747422Y-135857742D01*
X182747423Y-135857745D01*
X182797723Y-135979179D01*
X182802302Y-135990233D01*
X182807245Y-135996674D01*
X182807248Y-135996680D01*
X182872215Y-136081345D01*
X182894549Y-136110451D01*
X182903670Y-136117450D01*
X183008319Y-136197751D01*
X183008322Y-136197753D01*
X183014767Y-136202698D01*
X183125140Y-136248416D01*
X183173541Y-136284312D01*
X183199305Y-136338786D01*
X183196349Y-136398972D01*
X183165369Y-136450658D01*
X182874187Y-136741840D01*
X182871471Y-136744203D01*
X182865772Y-136747042D01*
X182858039Y-136755523D01*
X182858034Y-136755528D01*
X182834521Y-136781320D01*
X182830575Y-136785452D01*
X182821877Y-136794151D01*
X182821873Y-136794155D01*
X182817826Y-136798203D01*
X182814592Y-136802921D01*
X182814006Y-136803628D01*
X182810259Y-136807934D01*
X182797822Y-136821578D01*
X182790084Y-136830067D01*
X182785935Y-136840773D01*
X182781956Y-136847201D01*
X182779895Y-136851112D01*
X182776834Y-136858043D01*
X182770344Y-136867519D01*
X182767714Y-136878696D01*
X182767711Y-136878705D01*
X182764228Y-136893516D01*
X182759150Y-136909915D01*
X182753651Y-136924109D01*
X182753650Y-136924114D01*
X182749500Y-136934827D01*
X182749500Y-136946317D01*
X182748103Y-136953791D01*
X182747603Y-136958094D01*
X182747251Y-136965697D01*
X182744621Y-136976881D01*
X182746208Y-136988258D01*
X182746208Y-136988262D01*
X182748311Y-137003333D01*
X182749500Y-137020465D01*
X182749500Y-140074167D01*
X182740061Y-140121620D01*
X182713181Y-140161848D01*
X181024187Y-141850840D01*
X181021471Y-141853203D01*
X181015772Y-141856042D01*
X181008039Y-141864523D01*
X181008034Y-141864528D01*
X180984521Y-141890320D01*
X180980575Y-141894452D01*
X180971877Y-141903151D01*
X180971873Y-141903155D01*
X180967826Y-141907203D01*
X180964592Y-141911921D01*
X180964006Y-141912628D01*
X180960259Y-141916934D01*
X180951957Y-141926042D01*
X180940084Y-141939067D01*
X180935935Y-141949773D01*
X180931956Y-141956201D01*
X180929895Y-141960112D01*
X180926834Y-141967043D01*
X180920344Y-141976519D01*
X180917714Y-141987696D01*
X180917711Y-141987705D01*
X180914228Y-142002516D01*
X180909150Y-142018915D01*
X180903651Y-142033109D01*
X180903650Y-142033114D01*
X180899500Y-142043827D01*
X180899500Y-142055317D01*
X180898103Y-142062791D01*
X180897603Y-142067094D01*
X180897251Y-142074697D01*
X180894621Y-142085881D01*
X180896208Y-142097258D01*
X180896208Y-142097262D01*
X180898311Y-142112333D01*
X180899500Y-142129465D01*
X180899500Y-142565784D01*
X180882384Y-142628647D01*
X180835762Y-142674156D01*
X180772504Y-142689748D01*
X180710073Y-142671118D01*
X180665704Y-142623410D01*
X180662797Y-142617872D01*
X180605734Y-142509148D01*
X180492929Y-142381817D01*
X180486760Y-142377558D01*
X180486758Y-142377557D01*
X180359106Y-142289445D01*
X180359105Y-142289444D01*
X180352930Y-142285182D01*
X180345915Y-142282521D01*
X180345912Y-142282520D01*
X180200888Y-142227520D01*
X180200882Y-142227518D01*
X180193872Y-142224860D01*
X180186427Y-142223956D01*
X180186423Y-142223955D01*
X180071092Y-142209951D01*
X180071080Y-142209950D01*
X180067372Y-142209500D01*
X179182628Y-142209500D01*
X179178920Y-142209950D01*
X179178907Y-142209951D01*
X179063576Y-142223955D01*
X179063570Y-142223956D01*
X179056128Y-142224860D01*
X179049119Y-142227517D01*
X179049111Y-142227520D01*
X178904087Y-142282520D01*
X178904081Y-142282523D01*
X178897070Y-142285182D01*
X178890897Y-142289442D01*
X178890893Y-142289445D01*
X178763241Y-142377557D01*
X178763235Y-142377562D01*
X178757071Y-142381817D01*
X178752099Y-142387428D01*
X178752098Y-142387430D01*
X178649241Y-142503531D01*
X178649236Y-142503537D01*
X178644266Y-142509148D01*
X178640780Y-142515788D01*
X178640779Y-142515791D01*
X178568695Y-142653133D01*
X178568692Y-142653140D01*
X178565210Y-142659775D01*
X178563416Y-142667050D01*
X178563415Y-142667055D01*
X178526294Y-142817662D01*
X178526293Y-142817668D01*
X178524500Y-142824944D01*
X178524500Y-142995056D01*
X178526293Y-143002332D01*
X178526294Y-143002337D01*
X178557822Y-143130252D01*
X178565210Y-143160225D01*
X178568693Y-143166862D01*
X178568695Y-143166866D01*
X178614541Y-143254216D01*
X178644266Y-143310852D01*
X178649239Y-143316466D01*
X178649241Y-143316468D01*
X178668929Y-143338691D01*
X178757071Y-143438183D01*
X178763240Y-143442441D01*
X178763241Y-143442442D01*
X178778476Y-143452958D01*
X178897070Y-143534818D01*
X178904088Y-143537479D01*
X178904089Y-143537480D01*
X178962304Y-143559558D01*
X179016861Y-143600211D01*
X179041755Y-143663532D01*
X179029491Y-143730456D01*
X178983761Y-143780834D01*
X178918334Y-143799500D01*
X178901856Y-143799500D01*
X178898275Y-143799251D01*
X178892235Y-143797227D01*
X178880759Y-143797757D01*
X178880756Y-143797757D01*
X178845920Y-143799368D01*
X178840194Y-143799500D01*
X178822156Y-143799500D01*
X178816530Y-143800551D01*
X178815639Y-143800634D01*
X178809932Y-143801031D01*
X178791485Y-143801884D01*
X178791482Y-143801884D01*
X178780008Y-143802415D01*
X178769499Y-143807054D01*
X178762127Y-143808788D01*
X178757921Y-143810091D01*
X178750855Y-143812828D01*
X178739567Y-143814939D01*
X178729802Y-143820984D01*
X178729796Y-143820987D01*
X178716851Y-143829001D01*
X178701676Y-143837000D01*
X178687747Y-143843151D01*
X178687743Y-143843153D01*
X178677234Y-143847794D01*
X178669111Y-143855915D01*
X178662866Y-143860194D01*
X178659410Y-143862932D01*
X178653813Y-143868034D01*
X178644048Y-143874081D01*
X178637125Y-143883247D01*
X178637122Y-143883251D01*
X178627951Y-143895395D01*
X178616680Y-143908347D01*
X177974187Y-144550840D01*
X177971471Y-144553203D01*
X177965772Y-144556042D01*
X177958039Y-144564523D01*
X177958034Y-144564528D01*
X177934521Y-144590320D01*
X177930575Y-144594452D01*
X177921877Y-144603151D01*
X177921873Y-144603155D01*
X177917826Y-144607203D01*
X177914592Y-144611921D01*
X177914006Y-144612628D01*
X177910259Y-144616934D01*
X177897822Y-144630578D01*
X177890084Y-144639067D01*
X177885935Y-144649773D01*
X177881956Y-144656201D01*
X177879895Y-144660112D01*
X177876834Y-144667043D01*
X177870344Y-144676519D01*
X177867714Y-144687696D01*
X177867711Y-144687705D01*
X177864228Y-144702516D01*
X177859150Y-144718915D01*
X177853651Y-144733109D01*
X177853650Y-144733114D01*
X177849500Y-144743827D01*
X177849500Y-144755317D01*
X177848103Y-144762791D01*
X177847603Y-144767094D01*
X177847251Y-144774697D01*
X177844621Y-144785881D01*
X177846208Y-144797258D01*
X177846208Y-144797262D01*
X177848311Y-144812333D01*
X177849500Y-144829465D01*
X177849500Y-147610644D01*
X177849251Y-147614224D01*
X177847227Y-147620265D01*
X177847757Y-147631739D01*
X177847757Y-147631743D01*
X177849368Y-147666580D01*
X177849500Y-147672306D01*
X177849500Y-147690344D01*
X177850552Y-147695971D01*
X177850635Y-147696868D01*
X177851031Y-147702572D01*
X177851884Y-147721016D01*
X177852415Y-147732492D01*
X177857054Y-147742999D01*
X177858792Y-147750388D01*
X177860082Y-147754552D01*
X177862827Y-147761637D01*
X177864939Y-147772933D01*
X177879001Y-147795646D01*
X177887003Y-147810827D01*
X177893152Y-147824754D01*
X177893153Y-147824756D01*
X177897794Y-147835265D01*
X177905917Y-147843388D01*
X177910209Y-147849653D01*
X177912915Y-147853069D01*
X177918031Y-147858681D01*
X177924081Y-147868452D01*
X177933249Y-147875375D01*
X177945396Y-147884548D01*
X177958351Y-147895822D01*
X178488181Y-148425652D01*
X178515061Y-148465880D01*
X178524500Y-148513333D01*
X178524500Y-148964246D01*
X178525262Y-148969060D01*
X178525263Y-148969066D01*
X178538521Y-149052778D01*
X178538522Y-149052783D01*
X178540049Y-149062420D01*
X178600342Y-149180751D01*
X178694249Y-149274658D01*
X178812580Y-149334951D01*
X178910754Y-149350500D01*
X178915632Y-149350500D01*
X179464286Y-149350500D01*
X179520581Y-149364015D01*
X179564604Y-149401615D01*
X179586759Y-149455102D01*
X179582217Y-149512818D01*
X179551967Y-149562181D01*
X179500967Y-149613181D01*
X179460739Y-149640061D01*
X179413286Y-149649500D01*
X178910754Y-149649500D01*
X178905940Y-149650262D01*
X178905933Y-149650263D01*
X178822221Y-149663521D01*
X178822214Y-149663523D01*
X178812580Y-149665049D01*
X178803884Y-149669479D01*
X178803883Y-149669480D01*
X178702944Y-149720911D01*
X178702941Y-149720913D01*
X178694249Y-149725342D01*
X178687350Y-149732240D01*
X178687347Y-149732243D01*
X178607243Y-149812347D01*
X178607240Y-149812350D01*
X178600342Y-149819249D01*
X178595913Y-149827941D01*
X178595911Y-149827944D01*
X178545390Y-149927098D01*
X178540049Y-149937580D01*
X178538523Y-149947214D01*
X178538521Y-149947221D01*
X178525263Y-150030933D01*
X178525262Y-150030940D01*
X178524500Y-150035754D01*
X178524500Y-150539246D01*
X178525262Y-150544060D01*
X178525263Y-150544066D01*
X178538521Y-150627778D01*
X178538522Y-150627783D01*
X178540049Y-150637420D01*
X178556181Y-150669081D01*
X178582590Y-150720912D01*
X178600342Y-150755751D01*
X178694249Y-150849658D01*
X178812580Y-150909951D01*
X178910754Y-150925500D01*
X179484368Y-150925500D01*
X179489246Y-150925500D01*
X179587420Y-150909951D01*
X179705751Y-150849658D01*
X179799658Y-150755751D01*
X179822469Y-150710981D01*
X179856534Y-150669624D01*
X179904868Y-150646499D01*
X179958447Y-150645925D01*
X180007265Y-150668010D01*
X180100805Y-150738035D01*
X180116222Y-150746452D01*
X180235358Y-150790888D01*
X180250332Y-150794426D01*
X180298885Y-150799646D01*
X180305482Y-150800000D01*
X180533674Y-150800000D01*
X180546549Y-150796549D01*
X180550000Y-150783674D01*
X181050000Y-150783674D01*
X181053450Y-150796549D01*
X181066326Y-150800000D01*
X181294518Y-150800000D01*
X181301114Y-150799646D01*
X181349667Y-150794426D01*
X181364641Y-150790888D01*
X181483777Y-150746452D01*
X181499189Y-150738037D01*
X181600092Y-150662501D01*
X181612501Y-150650092D01*
X181688037Y-150549189D01*
X181696452Y-150533777D01*
X181740888Y-150414641D01*
X181744426Y-150399667D01*
X181749646Y-150351114D01*
X181750000Y-150344518D01*
X181750000Y-149716326D01*
X181746549Y-149703450D01*
X181733674Y-149700000D01*
X181066326Y-149700000D01*
X181053450Y-149703450D01*
X181050000Y-149716326D01*
X181050000Y-150783674D01*
X180550000Y-150783674D01*
X180550000Y-149183674D01*
X181050000Y-149183674D01*
X181053450Y-149196549D01*
X181066326Y-149200000D01*
X181733674Y-149200000D01*
X181746549Y-149196549D01*
X181750000Y-149183674D01*
X181750000Y-148555482D01*
X181749646Y-148548885D01*
X181744426Y-148500330D01*
X181740888Y-148485358D01*
X181696452Y-148366222D01*
X181688037Y-148350810D01*
X181612501Y-148249907D01*
X181600092Y-148237498D01*
X181499189Y-148161962D01*
X181483777Y-148153547D01*
X181364641Y-148109111D01*
X181349667Y-148105573D01*
X181301114Y-148100353D01*
X181294518Y-148100000D01*
X181066326Y-148100000D01*
X181053450Y-148103450D01*
X181050000Y-148116326D01*
X181050000Y-149183674D01*
X180550000Y-149183674D01*
X180550000Y-148116326D01*
X180546549Y-148103450D01*
X180533674Y-148100000D01*
X180388000Y-148100000D01*
X180326000Y-148083387D01*
X180280613Y-148038000D01*
X180264000Y-147976000D01*
X180264000Y-147885714D01*
X180273439Y-147838261D01*
X180300319Y-147798033D01*
X180383084Y-147715268D01*
X180656535Y-147441815D01*
X180696760Y-147414938D01*
X180744208Y-147405499D01*
X181166518Y-147405499D01*
X181260304Y-147390646D01*
X181373342Y-147333050D01*
X181463050Y-147243342D01*
X181520646Y-147130304D01*
X181535500Y-147036519D01*
X181535499Y-146634607D01*
X181548615Y-146579104D01*
X181585189Y-146535342D01*
X181637483Y-146512579D01*
X181694430Y-146515631D01*
X181728039Y-146525500D01*
X181736910Y-146525500D01*
X181860500Y-146525500D01*
X181922500Y-146542113D01*
X181967887Y-146587500D01*
X181984500Y-146649500D01*
X181984500Y-147031647D01*
X181984500Y-147031659D01*
X181984501Y-147036518D01*
X181985261Y-147041320D01*
X181985262Y-147041326D01*
X181987885Y-147057887D01*
X181999354Y-147130304D01*
X182003780Y-147138991D01*
X182003782Y-147138996D01*
X182052519Y-147234646D01*
X182056950Y-147243342D01*
X182146658Y-147333050D01*
X182259696Y-147390646D01*
X182353481Y-147405500D01*
X182816518Y-147405499D01*
X182910304Y-147390646D01*
X183023342Y-147333050D01*
X183113050Y-147243342D01*
X183139420Y-147191587D01*
X183185113Y-147142156D01*
X183249903Y-147123883D01*
X183314693Y-147142155D01*
X183360388Y-147191588D01*
X183392516Y-147254642D01*
X183392519Y-147254646D01*
X183396950Y-147263342D01*
X183486658Y-147353050D01*
X183599696Y-147410646D01*
X183693481Y-147425500D01*
X183775500Y-147425500D01*
X183837500Y-147442113D01*
X183882887Y-147487500D01*
X183899500Y-147549500D01*
X183899500Y-148275500D01*
X183882887Y-148337500D01*
X183837500Y-148382887D01*
X183775500Y-148399500D01*
X183730252Y-148399500D01*
X183724277Y-148400688D01*
X183724271Y-148400689D01*
X183683747Y-148408750D01*
X183683745Y-148408750D01*
X183671769Y-148411133D01*
X183661618Y-148417915D01*
X183661615Y-148417917D01*
X183615601Y-148448663D01*
X183615598Y-148448665D01*
X183605448Y-148455448D01*
X183598665Y-148465598D01*
X183598663Y-148465601D01*
X183567917Y-148511615D01*
X183567915Y-148511618D01*
X183561133Y-148521769D01*
X183558750Y-148533745D01*
X183558750Y-148533747D01*
X183550689Y-148574271D01*
X183550688Y-148574277D01*
X183549500Y-148580252D01*
X183549500Y-150319748D01*
X183550688Y-150325723D01*
X183550689Y-150325728D01*
X183557160Y-150358258D01*
X183561133Y-150378231D01*
X183567916Y-150388382D01*
X183567917Y-150388384D01*
X183582731Y-150410555D01*
X183605448Y-150444552D01*
X183671769Y-150488867D01*
X183730252Y-150500500D01*
X183835489Y-150500500D01*
X183893309Y-150514806D01*
X183937788Y-150554422D01*
X183943151Y-150562251D01*
X183947794Y-150572765D01*
X183955920Y-150580891D01*
X183960214Y-150587159D01*
X183962915Y-150590569D01*
X183968031Y-150596181D01*
X183974081Y-150605952D01*
X183983249Y-150612875D01*
X183995396Y-150622048D01*
X184008351Y-150633322D01*
X185150841Y-151775812D01*
X185153202Y-151778525D01*
X185156042Y-151784228D01*
X185164530Y-151791966D01*
X185164531Y-151791967D01*
X185190317Y-151815474D01*
X185194459Y-151819430D01*
X185207203Y-151832174D01*
X185211930Y-151835412D01*
X185212621Y-151835986D01*
X185216928Y-151839733D01*
X185239067Y-151859916D01*
X185249782Y-151864067D01*
X185256246Y-151868069D01*
X185260074Y-151870087D01*
X185267039Y-151873162D01*
X185276519Y-151879656D01*
X185287706Y-151882287D01*
X185302506Y-151885768D01*
X185318912Y-151890848D01*
X185333108Y-151896348D01*
X185333111Y-151896348D01*
X185343827Y-151900500D01*
X185355320Y-151900500D01*
X185362794Y-151901897D01*
X185367094Y-151902396D01*
X185374692Y-151902747D01*
X185385881Y-151905379D01*
X185412332Y-151901689D01*
X185429465Y-151900500D01*
X200628144Y-151900500D01*
X200631724Y-151900748D01*
X200637765Y-151902773D01*
X200684079Y-151900632D01*
X200689806Y-151900500D01*
X200702111Y-151900500D01*
X200707844Y-151900500D01*
X200713478Y-151899445D01*
X200714351Y-151899365D01*
X200720072Y-151898967D01*
X200749992Y-151897585D01*
X200760506Y-151892941D01*
X200767908Y-151891201D01*
X200772038Y-151889922D01*
X200779135Y-151887172D01*
X200790433Y-151885061D01*
X200813144Y-151870998D01*
X200828319Y-151862999D01*
X200852765Y-151852206D01*
X200860892Y-151844077D01*
X200867175Y-151839774D01*
X200870555Y-151837096D01*
X200876176Y-151831970D01*
X200885952Y-151825919D01*
X200902053Y-151804595D01*
X200913314Y-151791655D01*
X201592683Y-151112286D01*
X201647064Y-151080523D01*
X201710035Y-151079572D01*
X201794944Y-151100500D01*
X201957556Y-151100500D01*
X201965056Y-151100500D01*
X202130225Y-151059790D01*
X202280852Y-150980734D01*
X202408183Y-150867929D01*
X202504818Y-150727930D01*
X202565140Y-150568872D01*
X202585645Y-150400000D01*
X202565140Y-150231128D01*
X202560523Y-150218955D01*
X202507479Y-150079087D01*
X202504818Y-150072070D01*
X202408183Y-149932071D01*
X202292387Y-149829485D01*
X202286468Y-149824241D01*
X202286466Y-149824239D01*
X202280852Y-149819266D01*
X202243992Y-149799920D01*
X202136866Y-149743695D01*
X202136862Y-149743693D01*
X202130225Y-149740210D01*
X202122947Y-149738416D01*
X202122944Y-149738415D01*
X201972337Y-149701294D01*
X201972332Y-149701293D01*
X201965056Y-149699500D01*
X201794944Y-149699500D01*
X201787668Y-149701293D01*
X201787662Y-149701294D01*
X201637055Y-149738415D01*
X201637050Y-149738416D01*
X201629775Y-149740210D01*
X201623140Y-149743692D01*
X201623133Y-149743695D01*
X201485791Y-149815779D01*
X201485788Y-149815780D01*
X201479148Y-149819266D01*
X201473537Y-149824236D01*
X201473531Y-149824241D01*
X201357430Y-149927098D01*
X201351817Y-149932071D01*
X201347562Y-149938234D01*
X201347555Y-149938243D01*
X201347049Y-149938978D01*
X201346380Y-149939569D01*
X201342581Y-149943859D01*
X201342060Y-149943397D01*
X201302625Y-149978334D01*
X201245000Y-149992537D01*
X201187375Y-149978334D01*
X201147939Y-149943397D01*
X201147419Y-149943859D01*
X201143619Y-149939569D01*
X201142951Y-149938978D01*
X201142444Y-149938243D01*
X201142440Y-149938239D01*
X201138183Y-149932071D01*
X201022387Y-149829485D01*
X201016468Y-149824241D01*
X201016466Y-149824239D01*
X201010852Y-149819266D01*
X200973992Y-149799920D01*
X200866866Y-149743695D01*
X200866862Y-149743693D01*
X200860225Y-149740210D01*
X200852947Y-149738416D01*
X200852944Y-149738415D01*
X200702337Y-149701294D01*
X200702332Y-149701293D01*
X200695056Y-149699500D01*
X200524944Y-149699500D01*
X200517669Y-149701292D01*
X200517661Y-149701294D01*
X200398626Y-149730634D01*
X200335653Y-149729683D01*
X200281270Y-149697918D01*
X200150319Y-149566967D01*
X200123439Y-149526739D01*
X200114000Y-149479286D01*
X200114000Y-144923662D01*
X200133226Y-144857341D01*
X200184942Y-144811587D01*
X200253112Y-144800586D01*
X200316595Y-144827752D01*
X200355706Y-144884658D01*
X200386181Y-144976628D01*
X200392246Y-144989633D01*
X200473632Y-145121580D01*
X200482537Y-145132842D01*
X200592157Y-145242462D01*
X200603419Y-145251367D01*
X200735366Y-145332753D01*
X200748374Y-145338819D01*
X200895969Y-145387727D01*
X200909125Y-145390543D01*
X200998555Y-145399680D01*
X201004832Y-145400000D01*
X201033674Y-145400000D01*
X201046549Y-145396549D01*
X201050000Y-145383674D01*
X201050000Y-145383673D01*
X201550000Y-145383673D01*
X201553450Y-145396548D01*
X201566326Y-145399999D01*
X201595165Y-145399999D01*
X201601447Y-145399678D01*
X201690867Y-145390544D01*
X201704036Y-145387725D01*
X201851625Y-145338819D01*
X201864633Y-145332753D01*
X201984903Y-145258570D01*
X202050000Y-145240108D01*
X202115097Y-145258570D01*
X202235366Y-145332753D01*
X202248374Y-145338819D01*
X202395969Y-145387727D01*
X202409125Y-145390543D01*
X202498555Y-145399680D01*
X202504832Y-145400000D01*
X202533674Y-145400000D01*
X202546549Y-145396549D01*
X202550000Y-145383674D01*
X202550000Y-144716326D01*
X202546549Y-144703450D01*
X202533674Y-144700000D01*
X201566326Y-144700000D01*
X201553450Y-144703450D01*
X201550000Y-144716326D01*
X201550000Y-145383673D01*
X201050000Y-145383673D01*
X201050000Y-144324000D01*
X201066613Y-144262000D01*
X201112000Y-144216613D01*
X201174000Y-144200000D01*
X202926000Y-144200000D01*
X202988000Y-144216613D01*
X203033387Y-144262000D01*
X203050000Y-144324000D01*
X203050000Y-145383673D01*
X203053450Y-145396548D01*
X203066326Y-145399999D01*
X203095165Y-145399999D01*
X203101447Y-145399678D01*
X203190867Y-145390544D01*
X203204036Y-145387725D01*
X203351625Y-145338819D01*
X203364633Y-145332753D01*
X203496580Y-145251367D01*
X203507842Y-145242462D01*
X203617462Y-145132842D01*
X203626367Y-145121580D01*
X203707753Y-144989633D01*
X203713819Y-144976625D01*
X203758294Y-144842409D01*
X203797405Y-144785502D01*
X203860888Y-144758336D01*
X203929058Y-144769337D01*
X203980774Y-144815091D01*
X204000000Y-144881412D01*
X204000000Y-152175500D01*
X203983387Y-152237500D01*
X203938000Y-152282887D01*
X203876000Y-152299500D01*
X178504875Y-152299500D01*
X178495146Y-152299118D01*
X178306440Y-152284266D01*
X178287222Y-152281222D01*
X178107921Y-152238176D01*
X178089415Y-152232163D01*
X177919053Y-152161596D01*
X177901716Y-152152762D01*
X177744495Y-152056417D01*
X177728753Y-152044980D01*
X177588535Y-151925222D01*
X177574777Y-151911464D01*
X177455019Y-151771246D01*
X177443582Y-151755504D01*
X177347237Y-151598283D01*
X177338403Y-151580946D01*
X177324272Y-151546833D01*
X177267833Y-151410577D01*
X177261825Y-151392085D01*
X177218776Y-151212772D01*
X177215733Y-151193559D01*
X177214862Y-151182495D01*
X177200881Y-151004853D01*
X177200500Y-150995125D01*
X177200500Y-134355056D01*
X178524500Y-134355056D01*
X178526293Y-134362332D01*
X178526294Y-134362337D01*
X178557887Y-134490514D01*
X178565210Y-134520225D01*
X178568693Y-134526862D01*
X178568695Y-134526866D01*
X178616239Y-134617451D01*
X178644266Y-134670852D01*
X178757071Y-134798183D01*
X178897070Y-134894818D01*
X178953018Y-134916036D01*
X179031750Y-134945895D01*
X179056128Y-134955140D01*
X179182628Y-134970500D01*
X180063623Y-134970500D01*
X180067372Y-134970500D01*
X180193872Y-134955140D01*
X180352930Y-134894818D01*
X180492929Y-134798183D01*
X180605734Y-134670852D01*
X180684790Y-134520225D01*
X180725500Y-134355056D01*
X180725500Y-134184944D01*
X180684790Y-134019775D01*
X180605734Y-133869148D01*
X180583885Y-133844486D01*
X180539056Y-133793884D01*
X180492929Y-133741817D01*
X180486760Y-133737558D01*
X180486758Y-133737557D01*
X180359106Y-133649445D01*
X180359105Y-133649444D01*
X180352930Y-133645182D01*
X180345915Y-133642521D01*
X180345912Y-133642520D01*
X180200888Y-133587520D01*
X180200882Y-133587518D01*
X180193872Y-133584860D01*
X180186427Y-133583956D01*
X180186423Y-133583955D01*
X180071092Y-133569951D01*
X180071080Y-133569950D01*
X180067372Y-133569500D01*
X179182628Y-133569500D01*
X179178920Y-133569950D01*
X179178907Y-133569951D01*
X179063576Y-133583955D01*
X179063570Y-133583956D01*
X179056128Y-133584860D01*
X179049119Y-133587517D01*
X179049111Y-133587520D01*
X178904087Y-133642520D01*
X178904081Y-133642523D01*
X178897070Y-133645182D01*
X178890897Y-133649442D01*
X178890893Y-133649445D01*
X178763241Y-133737557D01*
X178763235Y-133737562D01*
X178757071Y-133741817D01*
X178752099Y-133747428D01*
X178752098Y-133747430D01*
X178649241Y-133863531D01*
X178649236Y-133863537D01*
X178644266Y-133869148D01*
X178640780Y-133875788D01*
X178640779Y-133875791D01*
X178568695Y-134013133D01*
X178568692Y-134013140D01*
X178565210Y-134019775D01*
X178563416Y-134027050D01*
X178563415Y-134027055D01*
X178526294Y-134177662D01*
X178526293Y-134177668D01*
X178524500Y-134184944D01*
X178524500Y-134355056D01*
X177200500Y-134355056D01*
X177200500Y-131485056D01*
X180549500Y-131485056D01*
X180551293Y-131492332D01*
X180551294Y-131492337D01*
X180588415Y-131642944D01*
X180590210Y-131650225D01*
X180593693Y-131656862D01*
X180593695Y-131656866D01*
X180651558Y-131767113D01*
X180669266Y-131800852D01*
X180782071Y-131928183D01*
X180922070Y-132024818D01*
X181081128Y-132085140D01*
X181207628Y-132100500D01*
X181288623Y-132100500D01*
X181292372Y-132100500D01*
X181418872Y-132085140D01*
X181577930Y-132024818D01*
X181717929Y-131928183D01*
X181830734Y-131800852D01*
X181909790Y-131650225D01*
X181950500Y-131485056D01*
X181950500Y-131314944D01*
X181909790Y-131149775D01*
X181830734Y-130999148D01*
X181717929Y-130871817D01*
X181711760Y-130867558D01*
X181711758Y-130867557D01*
X181584106Y-130779445D01*
X181584105Y-130779444D01*
X181577930Y-130775182D01*
X181570915Y-130772521D01*
X181570912Y-130772520D01*
X181425888Y-130717520D01*
X181425882Y-130717518D01*
X181418872Y-130714860D01*
X181411427Y-130713956D01*
X181411423Y-130713955D01*
X181296092Y-130699951D01*
X181296080Y-130699950D01*
X181292372Y-130699500D01*
X181207628Y-130699500D01*
X181203920Y-130699950D01*
X181203907Y-130699951D01*
X181088576Y-130713955D01*
X181088570Y-130713956D01*
X181081128Y-130714860D01*
X181074119Y-130717517D01*
X181074111Y-130717520D01*
X180929087Y-130772520D01*
X180929081Y-130772523D01*
X180922070Y-130775182D01*
X180915897Y-130779442D01*
X180915893Y-130779445D01*
X180788241Y-130867557D01*
X180788235Y-130867562D01*
X180782071Y-130871817D01*
X180777099Y-130877428D01*
X180777098Y-130877430D01*
X180674241Y-130993531D01*
X180674236Y-130993537D01*
X180669266Y-130999148D01*
X180665780Y-131005788D01*
X180665779Y-131005791D01*
X180593695Y-131143133D01*
X180593692Y-131143140D01*
X180590210Y-131149775D01*
X180588416Y-131157050D01*
X180588415Y-131157055D01*
X180551294Y-131307662D01*
X180551293Y-131307668D01*
X180549500Y-131314944D01*
X180549500Y-131485056D01*
X177200500Y-131485056D01*
X177200500Y-126169518D01*
X182250000Y-126169518D01*
X182250353Y-126176114D01*
X182255573Y-126224667D01*
X182259111Y-126239641D01*
X182303547Y-126358777D01*
X182311962Y-126374189D01*
X182387498Y-126475092D01*
X182399907Y-126487501D01*
X182500810Y-126563037D01*
X182516222Y-126571452D01*
X182635358Y-126615888D01*
X182650332Y-126619426D01*
X182698885Y-126624646D01*
X182705482Y-126625000D01*
X183733674Y-126625000D01*
X183746549Y-126621549D01*
X183750000Y-126608674D01*
X183750000Y-125766326D01*
X183746549Y-125753450D01*
X183733674Y-125750000D01*
X182266326Y-125750000D01*
X182253450Y-125753450D01*
X182250000Y-125766326D01*
X182250000Y-126169518D01*
X177200500Y-126169518D01*
X177200500Y-124685056D01*
X180549500Y-124685056D01*
X180551293Y-124692332D01*
X180551294Y-124692337D01*
X180588415Y-124842944D01*
X180590210Y-124850225D01*
X180593693Y-124856862D01*
X180593695Y-124856866D01*
X180617754Y-124902705D01*
X180669266Y-125000852D01*
X180674239Y-125006466D01*
X180674241Y-125006468D01*
X180678868Y-125011691D01*
X180782071Y-125128183D01*
X180788240Y-125132441D01*
X180788241Y-125132442D01*
X180811660Y-125148607D01*
X180922070Y-125224818D01*
X180929088Y-125227479D01*
X180929087Y-125227479D01*
X181032755Y-125266795D01*
X181081128Y-125285140D01*
X181207628Y-125300500D01*
X181288623Y-125300500D01*
X181292372Y-125300500D01*
X181418872Y-125285140D01*
X181554578Y-125233674D01*
X182250000Y-125233674D01*
X182253450Y-125246549D01*
X182266326Y-125250000D01*
X183733674Y-125250000D01*
X183746549Y-125246549D01*
X183750000Y-125233674D01*
X184250000Y-125233674D01*
X184253450Y-125246549D01*
X184266326Y-125250000D01*
X185733674Y-125250000D01*
X185746549Y-125246549D01*
X185750000Y-125233674D01*
X185750000Y-124830482D01*
X185749646Y-124823885D01*
X185744426Y-124775332D01*
X185740888Y-124760358D01*
X185696452Y-124641222D01*
X185688037Y-124625810D01*
X185612501Y-124524907D01*
X185600092Y-124512498D01*
X185499189Y-124436962D01*
X185483777Y-124428547D01*
X185364641Y-124384111D01*
X185349667Y-124380573D01*
X185301114Y-124375353D01*
X185294518Y-124375000D01*
X184266326Y-124375000D01*
X184253450Y-124378450D01*
X184250000Y-124391326D01*
X184250000Y-125233674D01*
X183750000Y-125233674D01*
X183750000Y-124391326D01*
X183746549Y-124378450D01*
X183733674Y-124375000D01*
X182705482Y-124375000D01*
X182698885Y-124375353D01*
X182650332Y-124380573D01*
X182635358Y-124384111D01*
X182516222Y-124428547D01*
X182500810Y-124436962D01*
X182399907Y-124512498D01*
X182387498Y-124524907D01*
X182311962Y-124625810D01*
X182303547Y-124641222D01*
X182259111Y-124760358D01*
X182255573Y-124775332D01*
X182250353Y-124823885D01*
X182250000Y-124830482D01*
X182250000Y-125233674D01*
X181554578Y-125233674D01*
X181577930Y-125224818D01*
X181717929Y-125128183D01*
X181830734Y-125000852D01*
X181909790Y-124850225D01*
X181950500Y-124685056D01*
X181950500Y-124514944D01*
X181909790Y-124349775D01*
X181830734Y-124199148D01*
X181717929Y-124071817D01*
X181711760Y-124067558D01*
X181711758Y-124067557D01*
X181584106Y-123979445D01*
X181584105Y-123979444D01*
X181577930Y-123975182D01*
X181570915Y-123972521D01*
X181570912Y-123972520D01*
X181425888Y-123917520D01*
X181425882Y-123917518D01*
X181418872Y-123914860D01*
X181411427Y-123913956D01*
X181411423Y-123913955D01*
X181296092Y-123899951D01*
X181296080Y-123899950D01*
X181292372Y-123899500D01*
X181207628Y-123899500D01*
X181203920Y-123899950D01*
X181203907Y-123899951D01*
X181088576Y-123913955D01*
X181088570Y-123913956D01*
X181081128Y-123914860D01*
X181074119Y-123917517D01*
X181074111Y-123917520D01*
X180929087Y-123972520D01*
X180929081Y-123972523D01*
X180922070Y-123975182D01*
X180915897Y-123979442D01*
X180915893Y-123979445D01*
X180788241Y-124067557D01*
X180788235Y-124067562D01*
X180782071Y-124071817D01*
X180777099Y-124077428D01*
X180777098Y-124077430D01*
X180674241Y-124193531D01*
X180674236Y-124193537D01*
X180669266Y-124199148D01*
X180665780Y-124205788D01*
X180665779Y-124205791D01*
X180593695Y-124343133D01*
X180593692Y-124343140D01*
X180590210Y-124349775D01*
X180588416Y-124357050D01*
X180588415Y-124357055D01*
X180551294Y-124507662D01*
X180551293Y-124507668D01*
X180549500Y-124514944D01*
X180549500Y-124685056D01*
X177200500Y-124685056D01*
X177200500Y-124004875D01*
X177200882Y-123995146D01*
X177201350Y-123989198D01*
X177215733Y-123806434D01*
X177218775Y-123787229D01*
X177261826Y-123607910D01*
X177267832Y-123589425D01*
X177338404Y-123419050D01*
X177347237Y-123401716D01*
X177349222Y-123398478D01*
X177443583Y-123244492D01*
X177455019Y-123228753D01*
X177476187Y-123203969D01*
X177574781Y-123088530D01*
X177588530Y-123074781D01*
X177728755Y-122955017D01*
X177744495Y-122943582D01*
X177901719Y-122847235D01*
X177919050Y-122838404D01*
X178089425Y-122767832D01*
X178107910Y-122761826D01*
X178287229Y-122718775D01*
X178306434Y-122715733D01*
X178495146Y-122700881D01*
X178504875Y-122700500D01*
X188728869Y-122700500D01*
X188787720Y-122715355D01*
G37*
%TD.AperFunction*%
%TA.AperFunction,Conductor*%
G36*
X195171620Y-149209939D02*
G01*
X195211848Y-149236819D01*
X196084207Y-150109178D01*
X196115971Y-150163560D01*
X196116910Y-150225720D01*
X196114860Y-150231128D01*
X196113957Y-150238563D01*
X196113956Y-150238568D01*
X196100365Y-150350500D01*
X196094355Y-150400000D01*
X196095259Y-150407445D01*
X196113955Y-150561423D01*
X196113956Y-150561427D01*
X196114860Y-150568872D01*
X196117518Y-150575882D01*
X196117520Y-150575888D01*
X196172520Y-150720912D01*
X196175182Y-150727930D01*
X196179444Y-150734105D01*
X196179445Y-150734106D01*
X196267053Y-150861028D01*
X196271817Y-150867929D01*
X196399148Y-150980734D01*
X196549775Y-151059790D01*
X196553137Y-151060618D01*
X196606271Y-151100213D01*
X196631163Y-151163534D01*
X196618899Y-151230457D01*
X196573169Y-151280834D01*
X196507742Y-151299500D01*
X194662258Y-151299500D01*
X194596831Y-151280834D01*
X194551101Y-151230457D01*
X194538837Y-151163534D01*
X194563729Y-151100213D01*
X194616862Y-151060618D01*
X194620225Y-151059790D01*
X194770852Y-150980734D01*
X194898183Y-150867929D01*
X194994818Y-150727930D01*
X195055140Y-150568872D01*
X195075645Y-150400000D01*
X195055140Y-150231128D01*
X195050523Y-150218955D01*
X194997479Y-150079087D01*
X194994818Y-150072070D01*
X194898183Y-149932071D01*
X194770852Y-149819266D01*
X194771497Y-149818537D01*
X194735888Y-149777497D01*
X194723010Y-149717269D01*
X194725042Y-149707579D01*
X194722565Y-149687710D01*
X194721350Y-149677959D01*
X194720820Y-149672859D01*
X194720500Y-149668998D01*
X194720500Y-149663854D01*
X194717327Y-149644846D01*
X194716594Y-149639810D01*
X194711844Y-149601699D01*
X194710573Y-149591501D01*
X194707313Y-149584833D01*
X194706092Y-149577513D01*
X194682924Y-149534704D01*
X194680579Y-149530148D01*
X194659198Y-149486410D01*
X194653949Y-149481161D01*
X194650418Y-149474636D01*
X194614612Y-149441674D01*
X194610914Y-149438126D01*
X194584969Y-149412181D01*
X194554719Y-149362818D01*
X194550177Y-149305102D01*
X194572332Y-149251615D01*
X194616355Y-149214015D01*
X194672650Y-149200500D01*
X195124167Y-149200500D01*
X195171620Y-149209939D01*
G37*
%TD.AperFunction*%
%TA.AperFunction,Conductor*%
G36*
X189864790Y-147723346D02*
G01*
X189910485Y-147772778D01*
X189947041Y-147844525D01*
X189947043Y-147844528D01*
X189951472Y-147853220D01*
X190046780Y-147948528D01*
X190166874Y-148009719D01*
X190266512Y-148025500D01*
X190828610Y-148025500D01*
X190833488Y-148025500D01*
X190933126Y-148009719D01*
X190938535Y-148006962D01*
X191001716Y-148003982D01*
X191059551Y-148034603D01*
X191093745Y-148090400D01*
X191094773Y-148155833D01*
X191062350Y-148212677D01*
X190661846Y-148613181D01*
X190621618Y-148640061D01*
X190574165Y-148649500D01*
X190028957Y-148649500D01*
X190028946Y-148649500D01*
X190022868Y-148649501D01*
X190016904Y-148650687D01*
X190016896Y-148650688D01*
X189954483Y-148663102D01*
X189954480Y-148663103D01*
X189942505Y-148665485D01*
X189932354Y-148672266D01*
X189932350Y-148672269D01*
X189910161Y-148687096D01*
X189875484Y-148702168D01*
X189870153Y-148702415D01*
X189859644Y-148707054D01*
X189852273Y-148708788D01*
X189848069Y-148710090D01*
X189841001Y-148712828D01*
X189829711Y-148714939D01*
X189819945Y-148720984D01*
X189819938Y-148720988D01*
X189806998Y-148729000D01*
X189791819Y-148737001D01*
X189777888Y-148743152D01*
X189777881Y-148743156D01*
X189767379Y-148747794D01*
X189759259Y-148755912D01*
X189753001Y-148760200D01*
X189749566Y-148762921D01*
X189743957Y-148768033D01*
X189734192Y-148774081D01*
X189727268Y-148783248D01*
X189727266Y-148783251D01*
X189718093Y-148795398D01*
X189706823Y-148808348D01*
X189495987Y-149019184D01*
X189493271Y-149021547D01*
X189487572Y-149024386D01*
X189479839Y-149032867D01*
X189479834Y-149032872D01*
X189456321Y-149058664D01*
X189452375Y-149062796D01*
X189443677Y-149071495D01*
X189443673Y-149071499D01*
X189439626Y-149075547D01*
X189436392Y-149080265D01*
X189435806Y-149080972D01*
X189432059Y-149085278D01*
X189419622Y-149098922D01*
X189411884Y-149107411D01*
X189407735Y-149118117D01*
X189403756Y-149124545D01*
X189401695Y-149128456D01*
X189398634Y-149135387D01*
X189392144Y-149144863D01*
X189389514Y-149156040D01*
X189389511Y-149156049D01*
X189386028Y-149170860D01*
X189380950Y-149187259D01*
X189375451Y-149201453D01*
X189375450Y-149201458D01*
X189371300Y-149212171D01*
X189371300Y-149223661D01*
X189369903Y-149231135D01*
X189369403Y-149235438D01*
X189369051Y-149243041D01*
X189366421Y-149254225D01*
X189368008Y-149265602D01*
X189368008Y-149265606D01*
X189370111Y-149280677D01*
X189371300Y-149297809D01*
X189371300Y-150575500D01*
X189354687Y-150637500D01*
X189309300Y-150682887D01*
X189247300Y-150699500D01*
X187613092Y-150699500D01*
X187561916Y-150688447D01*
X187519863Y-150657258D01*
X187517314Y-150654352D01*
X187502384Y-150650000D01*
X186982210Y-150650000D01*
X186978806Y-150649832D01*
X186977133Y-150649500D01*
X186972031Y-150649500D01*
X185627959Y-150649500D01*
X185627938Y-150649500D01*
X185622868Y-150649501D01*
X185621200Y-150649832D01*
X185617801Y-150650000D01*
X185097616Y-150650000D01*
X185082684Y-150654352D01*
X185074961Y-150663159D01*
X185019020Y-150699661D01*
X184952260Y-150701846D01*
X184894052Y-150669081D01*
X184816430Y-150591459D01*
X184786691Y-150543636D01*
X184781172Y-150487591D01*
X184801008Y-150434889D01*
X184838867Y-150378231D01*
X184842840Y-150358255D01*
X184873827Y-150298081D01*
X184864511Y-150287458D01*
X184850500Y-150230201D01*
X184850500Y-149856215D01*
X184864015Y-149799920D01*
X184901615Y-149755897D01*
X184955102Y-149733742D01*
X185012818Y-149738284D01*
X185062181Y-149768534D01*
X185192814Y-149899167D01*
X185223394Y-149949560D01*
X185227249Y-150008379D01*
X185203510Y-150062333D01*
X185152687Y-150128568D01*
X185144626Y-150142529D01*
X185089800Y-150274895D01*
X185087813Y-150274072D01*
X185065922Y-150313974D01*
X185064562Y-150314882D01*
X185074382Y-150336180D01*
X185082684Y-150345647D01*
X185097616Y-150350000D01*
X185617790Y-150350000D01*
X185621191Y-150350166D01*
X185622867Y-150350500D01*
X186977132Y-150350499D01*
X186978801Y-150350166D01*
X186982199Y-150350000D01*
X187502384Y-150350000D01*
X187515671Y-150346126D01*
X187517777Y-150332447D01*
X187511261Y-150282957D01*
X187507087Y-150267380D01*
X187455373Y-150142529D01*
X187447315Y-150128571D01*
X187365038Y-150021347D01*
X187353652Y-150009961D01*
X187265754Y-149942514D01*
X187235939Y-149909617D01*
X187219623Y-149868327D01*
X187217214Y-149856215D01*
X187209515Y-149817505D01*
X187202728Y-149807347D01*
X187198629Y-149797451D01*
X187189191Y-149749998D01*
X187198630Y-149702546D01*
X187202727Y-149692652D01*
X187209515Y-149682495D01*
X187223447Y-149612450D01*
X187235703Y-149578198D01*
X187257378Y-149548973D01*
X187393990Y-149412361D01*
X187412772Y-149396947D01*
X187425624Y-149388361D01*
X187445081Y-149359243D01*
X187480894Y-149305644D01*
X187486515Y-149297232D01*
X187502500Y-149216870D01*
X187502500Y-149216869D01*
X187507897Y-149189737D01*
X187504882Y-149174584D01*
X187502500Y-149150393D01*
X187502500Y-148216348D01*
X187504882Y-148192158D01*
X187505515Y-148188976D01*
X187507897Y-148177000D01*
X187505515Y-148165024D01*
X187505515Y-148152810D01*
X187507751Y-148152810D01*
X187508576Y-148119360D01*
X187533008Y-148070830D01*
X187575843Y-148037404D01*
X187628857Y-148025500D01*
X187828610Y-148025500D01*
X187833488Y-148025500D01*
X187933126Y-148009719D01*
X188053220Y-147948528D01*
X188148528Y-147853220D01*
X188189515Y-147772777D01*
X188235210Y-147723346D01*
X188300000Y-147705073D01*
X188364790Y-147723346D01*
X188410485Y-147772778D01*
X188447041Y-147844525D01*
X188447043Y-147844528D01*
X188451472Y-147853220D01*
X188546780Y-147948528D01*
X188666874Y-148009719D01*
X188766512Y-148025500D01*
X189328610Y-148025500D01*
X189333488Y-148025500D01*
X189433126Y-148009719D01*
X189553220Y-147948528D01*
X189648528Y-147853220D01*
X189689515Y-147772777D01*
X189735210Y-147723346D01*
X189800000Y-147705073D01*
X189864790Y-147723346D01*
G37*
%TD.AperFunction*%
%TA.AperFunction,Conductor*%
G36*
X198012500Y-147680613D02*
G01*
X198057887Y-147726000D01*
X198074500Y-147788000D01*
X198074500Y-148083488D01*
X198075262Y-148088302D01*
X198075263Y-148088308D01*
X198088753Y-148173484D01*
X198088754Y-148173489D01*
X198090281Y-148183126D01*
X198151472Y-148303220D01*
X198246780Y-148398528D01*
X198366874Y-148459719D01*
X198466512Y-148475500D01*
X199028610Y-148475500D01*
X199033488Y-148475500D01*
X199133126Y-148459719D01*
X199140312Y-148456057D01*
X199196899Y-148451604D01*
X199250386Y-148473759D01*
X199287985Y-148517782D01*
X199301500Y-148574077D01*
X199301500Y-149590877D01*
X199289528Y-149644035D01*
X199255923Y-149686928D01*
X199207175Y-149711273D01*
X199187510Y-149716120D01*
X199097055Y-149738415D01*
X199097050Y-149738416D01*
X199089775Y-149740210D01*
X199083139Y-149743692D01*
X199083136Y-149743694D01*
X198992147Y-149791449D01*
X198937955Y-149805604D01*
X198883062Y-149794470D01*
X198838669Y-149760317D01*
X198784390Y-149694178D01*
X198775821Y-149685609D01*
X198632970Y-149568374D01*
X198622882Y-149561633D01*
X198459905Y-149474520D01*
X198448712Y-149469883D01*
X198333896Y-149435054D01*
X198322612Y-149434361D01*
X198320000Y-149445363D01*
X198320000Y-150526000D01*
X198303387Y-150588000D01*
X198258000Y-150633387D01*
X198196000Y-150650000D01*
X197944000Y-150650000D01*
X197882000Y-150633387D01*
X197836613Y-150588000D01*
X197820000Y-150526000D01*
X197820000Y-149445363D01*
X197817387Y-149434361D01*
X197806103Y-149435054D01*
X197691287Y-149469883D01*
X197680094Y-149474520D01*
X197517117Y-149561633D01*
X197507029Y-149568374D01*
X197364178Y-149685609D01*
X197355613Y-149694174D01*
X197301330Y-149760318D01*
X197256936Y-149794470D01*
X197202044Y-149805604D01*
X197147852Y-149791449D01*
X197050225Y-149740210D01*
X197042947Y-149738416D01*
X197042944Y-149738415D01*
X196892337Y-149701294D01*
X196892332Y-149701293D01*
X196885056Y-149699500D01*
X196714944Y-149699500D01*
X196707664Y-149701294D01*
X196707658Y-149701295D01*
X196630036Y-149720426D01*
X196567064Y-149719474D01*
X196512682Y-149687710D01*
X195549155Y-148724184D01*
X195546797Y-148721474D01*
X195543958Y-148715772D01*
X195535467Y-148708031D01*
X195528814Y-148699220D01*
X195504301Y-148635935D01*
X195516775Y-148569225D01*
X195562497Y-148519072D01*
X195627773Y-148500500D01*
X195790652Y-148500500D01*
X195796748Y-148500500D01*
X195855231Y-148488867D01*
X195859495Y-148486017D01*
X195900000Y-148477960D01*
X195940504Y-148486017D01*
X195944769Y-148488867D01*
X196003252Y-148500500D01*
X196290652Y-148500500D01*
X196296748Y-148500500D01*
X196355231Y-148488867D01*
X196359495Y-148486017D01*
X196400000Y-148477960D01*
X196440504Y-148486017D01*
X196444769Y-148488867D01*
X196503252Y-148500500D01*
X196503120Y-148501160D01*
X196545981Y-148514683D01*
X196584372Y-148548401D01*
X196660498Y-148650092D01*
X196672907Y-148662501D01*
X196773810Y-148738037D01*
X196789222Y-148746452D01*
X196908358Y-148790888D01*
X196923332Y-148794426D01*
X196971885Y-148799646D01*
X196978482Y-148800000D01*
X197006674Y-148800000D01*
X197019549Y-148796549D01*
X197023000Y-148783674D01*
X197277000Y-148783674D01*
X197280450Y-148796549D01*
X197293326Y-148800000D01*
X197321518Y-148800000D01*
X197328114Y-148799646D01*
X197376667Y-148794426D01*
X197391641Y-148790888D01*
X197510777Y-148746452D01*
X197526189Y-148738037D01*
X197627092Y-148662501D01*
X197639501Y-148650092D01*
X197715037Y-148549189D01*
X197723452Y-148533777D01*
X197767888Y-148414641D01*
X197771426Y-148399667D01*
X197776646Y-148351114D01*
X197777000Y-148344518D01*
X197777000Y-148105826D01*
X197773549Y-148092950D01*
X197760674Y-148089500D01*
X197293326Y-148089500D01*
X197280450Y-148092950D01*
X197277000Y-148105826D01*
X197277000Y-148783674D01*
X197023000Y-148783674D01*
X197023000Y-147959500D01*
X197039613Y-147897500D01*
X197085000Y-147852113D01*
X197147000Y-147835500D01*
X197760674Y-147835500D01*
X197773549Y-147832049D01*
X197777000Y-147819174D01*
X197777000Y-147788000D01*
X197793613Y-147726000D01*
X197839000Y-147680613D01*
X197901000Y-147664000D01*
X197950500Y-147664000D01*
X198012500Y-147680613D01*
G37*
%TD.AperFunction*%
%TA.AperFunction,Conductor*%
G36*
X192456009Y-149868383D02*
G01*
X192501656Y-149916875D01*
X192515633Y-149981988D01*
X192493908Y-150044941D01*
X192479446Y-150065892D01*
X192479444Y-150065894D01*
X192475182Y-150072070D01*
X192472523Y-150079081D01*
X192472520Y-150079087D01*
X192417520Y-150224111D01*
X192417517Y-150224119D01*
X192414860Y-150231128D01*
X192413957Y-150238568D01*
X192413955Y-150238576D01*
X192400365Y-150350500D01*
X192394355Y-150400000D01*
X192395259Y-150407445D01*
X192395259Y-150407450D01*
X192395636Y-150410555D01*
X192395259Y-150412875D01*
X192395259Y-150414947D01*
X192394922Y-150414947D01*
X192384567Y-150478659D01*
X192338813Y-150530303D01*
X192272540Y-150549499D01*
X192056543Y-150549499D01*
X192009090Y-150540060D01*
X191968862Y-150513180D01*
X191901593Y-150445911D01*
X191874713Y-150405683D01*
X191865274Y-150358230D01*
X191874713Y-150310777D01*
X191907088Y-150232616D01*
X191911261Y-150217042D01*
X191917777Y-150167552D01*
X191915671Y-150153873D01*
X191902384Y-150150000D01*
X191521484Y-150150000D01*
X191519454Y-150149831D01*
X191518488Y-150149500D01*
X191515452Y-150149500D01*
X191514963Y-150149500D01*
X191510038Y-150149194D01*
X191503954Y-150147383D01*
X191493689Y-150147807D01*
X191493685Y-150147807D01*
X191455332Y-150149394D01*
X191450208Y-150149500D01*
X190674000Y-150149500D01*
X190612000Y-150132887D01*
X190566613Y-150087500D01*
X190550000Y-150025500D01*
X190550000Y-149974500D01*
X190566613Y-149912500D01*
X190612000Y-149867113D01*
X190674000Y-149850500D01*
X192391859Y-149850500D01*
X192456009Y-149868383D01*
G37*
%TD.AperFunction*%
%TA.AperFunction,Conductor*%
G36*
X179388000Y-146554113D02*
G01*
X179433387Y-146599500D01*
X179450000Y-146661500D01*
X179450000Y-147708673D01*
X179453450Y-147721548D01*
X179466326Y-147724999D01*
X179500993Y-147724999D01*
X179507273Y-147724679D01*
X179599398Y-147715268D01*
X179666575Y-147727281D01*
X179717222Y-147773018D01*
X179736000Y-147838626D01*
X179736000Y-147969260D01*
X179722484Y-148025556D01*
X179684883Y-148069580D01*
X179631394Y-148091734D01*
X179587698Y-148088293D01*
X179587420Y-148090049D01*
X179494066Y-148075263D01*
X179494060Y-148075262D01*
X179489246Y-148074500D01*
X179484368Y-148074500D01*
X179038333Y-148074500D01*
X178990880Y-148065061D01*
X178950652Y-148038181D01*
X178849152Y-147936681D01*
X178818902Y-147887318D01*
X178814360Y-147829602D01*
X178836515Y-147776115D01*
X178880538Y-147738515D01*
X178917986Y-147729524D01*
X178917906Y-147729225D01*
X178946549Y-147721549D01*
X178950000Y-147708674D01*
X178950000Y-146661500D01*
X178966613Y-146599500D01*
X179012000Y-146554113D01*
X179074000Y-146537500D01*
X179326000Y-146537500D01*
X179388000Y-146554113D01*
G37*
%TD.AperFunction*%
%TA.AperFunction,Conductor*%
G36*
X194715000Y-147680613D02*
G01*
X194760387Y-147726000D01*
X194777000Y-147788000D01*
X194777000Y-147965500D01*
X194760387Y-148027500D01*
X194715000Y-148072887D01*
X194653000Y-148089500D01*
X194647000Y-148089500D01*
X194585000Y-148072887D01*
X194539613Y-148027500D01*
X194523000Y-147965500D01*
X194523000Y-147788000D01*
X194539613Y-147726000D01*
X194585000Y-147680613D01*
X194647000Y-147664000D01*
X194653000Y-147664000D01*
X194715000Y-147680613D01*
G37*
%TD.AperFunction*%
%TA.AperFunction,Conductor*%
G36*
X196440504Y-145161017D02*
G01*
X196444769Y-145163867D01*
X196503252Y-145175500D01*
X196509348Y-145175500D01*
X196648247Y-145175500D01*
X196706700Y-145190142D01*
X196751350Y-145230610D01*
X196771650Y-145287347D01*
X196763702Y-145340923D01*
X196761133Y-145344769D01*
X196758749Y-145356749D01*
X196758749Y-145356752D01*
X196750689Y-145397271D01*
X196750688Y-145397277D01*
X196749500Y-145403252D01*
X196749500Y-145696748D01*
X196750688Y-145702723D01*
X196750689Y-145702728D01*
X196758749Y-145743250D01*
X196758750Y-145743253D01*
X196761133Y-145755231D01*
X196763983Y-145759496D01*
X196772039Y-145799997D01*
X196763982Y-145840503D01*
X196761133Y-145844769D01*
X196758751Y-145856743D01*
X196758750Y-145856746D01*
X196750689Y-145897271D01*
X196750688Y-145897277D01*
X196749500Y-145903252D01*
X196749500Y-146196748D01*
X196750688Y-146202723D01*
X196750689Y-146202728D01*
X196758750Y-146243255D01*
X196758751Y-146243258D01*
X196761133Y-146255231D01*
X196763982Y-146259495D01*
X196772039Y-146300000D01*
X196763982Y-146340504D01*
X196761133Y-146344769D01*
X196758751Y-146356739D01*
X196758750Y-146356744D01*
X196749500Y-146403252D01*
X196748842Y-146403121D01*
X196735311Y-146445989D01*
X196701599Y-146484371D01*
X196599908Y-146560497D01*
X196587498Y-146572907D01*
X196511962Y-146673810D01*
X196503547Y-146689222D01*
X196459111Y-146808358D01*
X196455573Y-146823332D01*
X196450353Y-146871885D01*
X196450000Y-146878482D01*
X196450000Y-146906674D01*
X196453788Y-146920813D01*
X196457294Y-146924319D01*
X196487544Y-146973682D01*
X196492086Y-147031398D01*
X196469931Y-147084885D01*
X196425908Y-147122485D01*
X196369613Y-147136000D01*
X194914083Y-147136000D01*
X194885564Y-147132676D01*
X194876665Y-147130573D01*
X194828114Y-147125353D01*
X194821518Y-147125000D01*
X194793326Y-147125000D01*
X194768042Y-147131775D01*
X194735948Y-147136000D01*
X194564052Y-147136000D01*
X194531958Y-147131775D01*
X194506674Y-147125000D01*
X194478482Y-147125000D01*
X194471885Y-147125353D01*
X194423334Y-147130573D01*
X194414436Y-147132676D01*
X194385917Y-147136000D01*
X194286213Y-147136000D01*
X194262030Y-147133618D01*
X194248000Y-147130828D01*
X194221997Y-147136000D01*
X194221998Y-147136000D01*
X194156967Y-147148934D01*
X194156961Y-147148936D01*
X194144992Y-147151317D01*
X194134839Y-147158100D01*
X194134839Y-147158101D01*
X194067817Y-147202884D01*
X194067814Y-147202886D01*
X194057667Y-147209667D01*
X194050885Y-147219815D01*
X194050882Y-147219819D01*
X194049718Y-147221562D01*
X194034302Y-147240344D01*
X193990344Y-147284302D01*
X193971562Y-147299718D01*
X193969819Y-147300882D01*
X193969815Y-147300885D01*
X193959667Y-147307667D01*
X193952885Y-147317815D01*
X193952883Y-147317818D01*
X193944938Y-147329709D01*
X193944936Y-147329712D01*
X193917273Y-147371110D01*
X193867189Y-147414311D01*
X193802208Y-147425586D01*
X193796748Y-147424500D01*
X193503252Y-147424500D01*
X193497275Y-147425688D01*
X193497273Y-147425689D01*
X193489169Y-147427301D01*
X193427925Y-147424014D01*
X193375748Y-147391779D01*
X193345401Y-147338481D01*
X193344440Y-147284466D01*
X193343598Y-147284376D01*
X193344319Y-147277668D01*
X193344310Y-147277158D01*
X193344427Y-147276661D01*
X193349646Y-147228114D01*
X193350000Y-147221518D01*
X193350000Y-147193326D01*
X193346549Y-147180450D01*
X193333674Y-147177000D01*
X192509500Y-147177000D01*
X192447500Y-147160387D01*
X192402113Y-147115000D01*
X192385500Y-147053000D01*
X192385500Y-147047000D01*
X192402113Y-146985000D01*
X192447500Y-146939613D01*
X192509500Y-146923000D01*
X193333674Y-146923000D01*
X193346549Y-146919549D01*
X193347124Y-146917407D01*
X193371909Y-146869795D01*
X193414494Y-146837118D01*
X193466899Y-146825500D01*
X193710656Y-146825500D01*
X193734847Y-146827882D01*
X193750000Y-146830897D01*
X193777132Y-146825500D01*
X193777133Y-146825500D01*
X193857495Y-146809515D01*
X193900107Y-146781042D01*
X193925622Y-146763994D01*
X193925627Y-146763989D01*
X193948624Y-146748624D01*
X193957210Y-146735772D01*
X193972624Y-146716990D01*
X194152796Y-146536818D01*
X194193024Y-146509939D01*
X194240477Y-146500500D01*
X194363090Y-146500500D01*
X194371961Y-146500500D01*
X194510053Y-146459953D01*
X194631128Y-146382143D01*
X194725377Y-146273373D01*
X194785165Y-146142457D01*
X194805647Y-146000000D01*
X194785165Y-145857543D01*
X194725377Y-145726627D01*
X194685150Y-145680202D01*
X194656125Y-145616646D01*
X194666069Y-145547488D01*
X194711824Y-145494684D01*
X194778863Y-145475000D01*
X194821518Y-145475000D01*
X194828114Y-145474646D01*
X194876667Y-145469426D01*
X194891641Y-145465888D01*
X195010777Y-145421452D01*
X195026189Y-145413037D01*
X195127092Y-145337501D01*
X195139501Y-145325092D01*
X195215627Y-145223401D01*
X195254019Y-145189683D01*
X195296879Y-145176159D01*
X195296748Y-145175500D01*
X195355231Y-145163867D01*
X195359495Y-145161017D01*
X195400000Y-145152960D01*
X195440504Y-145161017D01*
X195444769Y-145163867D01*
X195503252Y-145175500D01*
X195790652Y-145175500D01*
X195796748Y-145175500D01*
X195855231Y-145163867D01*
X195859495Y-145161017D01*
X195900000Y-145152960D01*
X195940504Y-145161017D01*
X195944769Y-145163867D01*
X196003252Y-145175500D01*
X196290652Y-145175500D01*
X196296748Y-145175500D01*
X196355231Y-145163867D01*
X196359495Y-145161017D01*
X196400000Y-145152960D01*
X196440504Y-145161017D01*
G37*
%TD.AperFunction*%
%TA.AperFunction,Conductor*%
G36*
X191498385Y-146524849D02*
G01*
X191535985Y-146568872D01*
X191549500Y-146625167D01*
X191549500Y-146950500D01*
X191532887Y-147012500D01*
X191487500Y-147057887D01*
X191425500Y-147074500D01*
X191315068Y-147074500D01*
X191250278Y-147056227D01*
X191204583Y-147006794D01*
X191189515Y-146977221D01*
X191148528Y-146896780D01*
X191129574Y-146877826D01*
X191100129Y-146830856D01*
X191094093Y-146775749D01*
X191112675Y-146723519D01*
X191152159Y-146684606D01*
X191246582Y-146626365D01*
X191257842Y-146617462D01*
X191337819Y-146537486D01*
X191387182Y-146507236D01*
X191444898Y-146502694D01*
X191498385Y-146524849D01*
G37*
%TD.AperFunction*%
%TA.AperFunction,Conductor*%
G36*
X188365097Y-146633569D02*
G01*
X188447841Y-146684606D01*
X188487324Y-146723519D01*
X188505905Y-146775748D01*
X188499871Y-146830854D01*
X188470427Y-146877824D01*
X188451472Y-146896780D01*
X188447043Y-146905471D01*
X188447041Y-146905475D01*
X188410485Y-146977221D01*
X188364790Y-147026653D01*
X188300000Y-147044926D01*
X188235210Y-147026653D01*
X188189515Y-146977221D01*
X188174455Y-146947666D01*
X188148528Y-146896780D01*
X188129574Y-146877826D01*
X188100129Y-146830856D01*
X188094093Y-146775749D01*
X188112675Y-146723519D01*
X188152159Y-146684606D01*
X188234904Y-146633569D01*
X188300000Y-146615108D01*
X188365097Y-146633569D01*
G37*
%TD.AperFunction*%
%TA.AperFunction,Conductor*%
G36*
X197890167Y-143816741D02*
G01*
X197944139Y-143851886D01*
X197973202Y-143909361D01*
X197969516Y-143973661D01*
X197937273Y-144070966D01*
X197934456Y-144084125D01*
X197925319Y-144173555D01*
X197925000Y-144179832D01*
X197925000Y-144183674D01*
X197928450Y-144196549D01*
X197941326Y-144200000D01*
X199026000Y-144200000D01*
X199088000Y-144216613D01*
X199133387Y-144262000D01*
X199150000Y-144324000D01*
X199150000Y-145316000D01*
X199133387Y-145378000D01*
X199088000Y-145423387D01*
X199026000Y-145440000D01*
X199016326Y-145440000D01*
X199003450Y-145443450D01*
X199000000Y-145456326D01*
X199000000Y-146401000D01*
X198983387Y-146463000D01*
X198938000Y-146508387D01*
X198876000Y-146525000D01*
X198624000Y-146525000D01*
X198562000Y-146508387D01*
X198516613Y-146463000D01*
X198500000Y-146401000D01*
X198500000Y-145806613D01*
X198507818Y-145763280D01*
X198530287Y-145725411D01*
X198569245Y-145680450D01*
X198575377Y-145673373D01*
X198635165Y-145542457D01*
X198655647Y-145400000D01*
X198645006Y-145325990D01*
X198647970Y-145276248D01*
X198650000Y-145268673D01*
X198650000Y-144716326D01*
X198646549Y-144703450D01*
X198633674Y-144700000D01*
X197941327Y-144700000D01*
X197928451Y-144703450D01*
X197925001Y-144716326D01*
X197925001Y-144720165D01*
X197925321Y-144726447D01*
X197934455Y-144815867D01*
X197937273Y-144829031D01*
X197937814Y-144830662D01*
X197937982Y-144832343D01*
X197938691Y-144835652D01*
X197938322Y-144835730D01*
X197943217Y-144884495D01*
X197925183Y-144935504D01*
X197887146Y-144973979D01*
X197826333Y-145013060D01*
X197826323Y-145013068D01*
X197818872Y-145017857D01*
X197813070Y-145024551D01*
X197813065Y-145024557D01*
X197730431Y-145119923D01*
X197730428Y-145119927D01*
X197724623Y-145126627D01*
X197720941Y-145134687D01*
X197720939Y-145134692D01*
X197713943Y-145150013D01*
X197668188Y-145202816D01*
X197601149Y-145222500D01*
X197578753Y-145222500D01*
X197520300Y-145207858D01*
X197475650Y-145167390D01*
X197455350Y-145110653D01*
X197463297Y-145057076D01*
X197465867Y-145053231D01*
X197477500Y-144994748D01*
X197477500Y-144280252D01*
X197466057Y-144222724D01*
X197467804Y-144166797D01*
X197493958Y-144117335D01*
X197575377Y-144023373D01*
X197633652Y-143895767D01*
X197674186Y-143846511D01*
X197733845Y-143823923D01*
X197815864Y-143815544D01*
X197825848Y-143813407D01*
X197890167Y-143816741D01*
G37*
%TD.AperFunction*%
%TA.AperFunction,Conductor*%
G36*
X193940504Y-145161017D02*
G01*
X193944769Y-145163867D01*
X194003252Y-145175500D01*
X194003120Y-145176160D01*
X194045981Y-145189683D01*
X194084372Y-145223401D01*
X194160498Y-145325092D01*
X194162870Y-145327464D01*
X194164941Y-145331027D01*
X194165811Y-145332189D01*
X194165675Y-145332290D01*
X194194770Y-145382338D01*
X194195338Y-145445809D01*
X194164424Y-145501245D01*
X194110128Y-145534121D01*
X194098460Y-145537547D01*
X194098457Y-145537548D01*
X194089947Y-145540047D01*
X194082484Y-145544842D01*
X194082484Y-145544843D01*
X193976329Y-145613064D01*
X193976325Y-145613066D01*
X193968872Y-145617857D01*
X193963070Y-145624551D01*
X193963065Y-145624557D01*
X193880431Y-145719923D01*
X193880428Y-145719927D01*
X193874623Y-145726627D01*
X193870941Y-145734689D01*
X193870938Y-145734694D01*
X193819199Y-145847987D01*
X193814835Y-145857543D01*
X193813573Y-145866316D01*
X193813572Y-145866322D01*
X193805064Y-145925500D01*
X193794353Y-146000000D01*
X193795615Y-146008777D01*
X193795615Y-146008778D01*
X193800105Y-146040008D01*
X193795021Y-146096813D01*
X193765050Y-146145333D01*
X193672200Y-146238183D01*
X193631975Y-146265061D01*
X193584522Y-146274500D01*
X193258732Y-146274500D01*
X193199305Y-146259332D01*
X193154417Y-146217540D01*
X193135048Y-146159346D01*
X193145938Y-146098989D01*
X193184421Y-146051233D01*
X193200092Y-146039501D01*
X193212501Y-146027092D01*
X193288037Y-145926189D01*
X193296452Y-145910777D01*
X193340888Y-145791641D01*
X193344426Y-145776667D01*
X193349646Y-145728114D01*
X193350000Y-145721518D01*
X193350000Y-145693326D01*
X193346549Y-145680450D01*
X193333674Y-145677000D01*
X192509500Y-145677000D01*
X192447500Y-145660387D01*
X192402113Y-145615000D01*
X192385500Y-145553000D01*
X192385500Y-145547000D01*
X192402113Y-145485000D01*
X192447500Y-145439613D01*
X192509500Y-145423000D01*
X193333674Y-145423000D01*
X193346549Y-145419549D01*
X193350000Y-145406674D01*
X193350000Y-145378482D01*
X193349646Y-145371885D01*
X193344427Y-145323337D01*
X193344309Y-145322837D01*
X193344318Y-145322322D01*
X193343598Y-145315624D01*
X193344439Y-145315533D01*
X193345403Y-145261514D01*
X193375752Y-145208216D01*
X193427932Y-145175982D01*
X193489175Y-145172700D01*
X193503252Y-145175500D01*
X193790652Y-145175500D01*
X193796748Y-145175500D01*
X193855231Y-145163867D01*
X193859495Y-145161017D01*
X193900000Y-145152960D01*
X193940504Y-145161017D01*
G37*
%TD.AperFunction*%
%TA.AperFunction,Conductor*%
G36*
X190738000Y-145591613D02*
G01*
X190783387Y-145637000D01*
X190800000Y-145699000D01*
X190800000Y-145951000D01*
X190783387Y-146013000D01*
X190738000Y-146058387D01*
X190676000Y-146075000D01*
X187272500Y-146075000D01*
X187210500Y-146058387D01*
X187165113Y-146013000D01*
X187148500Y-145951000D01*
X187148500Y-145699000D01*
X187165113Y-145637000D01*
X187210500Y-145591613D01*
X187272500Y-145575000D01*
X190676000Y-145575000D01*
X190738000Y-145591613D01*
G37*
%TD.AperFunction*%
%TA.AperFunction,Conductor*%
G36*
X186535500Y-145591613D02*
G01*
X186580887Y-145637000D01*
X186597500Y-145699000D01*
X186597500Y-145951000D01*
X186580887Y-146013000D01*
X186535500Y-146058387D01*
X186473500Y-146075000D01*
X185924000Y-146075000D01*
X185862000Y-146058387D01*
X185816613Y-146013000D01*
X185800000Y-145951000D01*
X185800000Y-145699000D01*
X185816613Y-145637000D01*
X185862000Y-145591613D01*
X185924000Y-145575000D01*
X186473500Y-145575000D01*
X186535500Y-145591613D01*
G37*
%TD.AperFunction*%
%TA.AperFunction,Conductor*%
G36*
X182676363Y-141144355D02*
G01*
X182732335Y-141181753D01*
X182760519Y-141242885D01*
X182752608Y-141309736D01*
X182747424Y-141322251D01*
X182747422Y-141322257D01*
X182744313Y-141329764D01*
X182743252Y-141337815D01*
X182743251Y-141337823D01*
X182732152Y-141422132D01*
X182724534Y-141480000D01*
X182725595Y-141488059D01*
X182743251Y-141622176D01*
X182743252Y-141622182D01*
X182744313Y-141630236D01*
X182747422Y-141637742D01*
X182747423Y-141637745D01*
X182796625Y-141756528D01*
X182802302Y-141770233D01*
X182807245Y-141776674D01*
X182807248Y-141776680D01*
X182856230Y-141840513D01*
X182894549Y-141890451D01*
X182910968Y-141903050D01*
X183008319Y-141977751D01*
X183008322Y-141977753D01*
X183014767Y-141982698D01*
X183065234Y-142003602D01*
X183112554Y-142038201D01*
X183138695Y-142090673D01*
X183137810Y-142149289D01*
X183110097Y-142200948D01*
X183061751Y-142234104D01*
X182934087Y-142282520D01*
X182934081Y-142282523D01*
X182927070Y-142285182D01*
X182920897Y-142289442D01*
X182920893Y-142289445D01*
X182793241Y-142377557D01*
X182793235Y-142377562D01*
X182787071Y-142381817D01*
X182782099Y-142387428D01*
X182782098Y-142387430D01*
X182679241Y-142503531D01*
X182679236Y-142503537D01*
X182674266Y-142509148D01*
X182670780Y-142515788D01*
X182670779Y-142515791D01*
X182598695Y-142653133D01*
X182598692Y-142653140D01*
X182595210Y-142659775D01*
X182593416Y-142667050D01*
X182593415Y-142667055D01*
X182556294Y-142817662D01*
X182556293Y-142817668D01*
X182554500Y-142824944D01*
X182554500Y-142995056D01*
X182556293Y-143002332D01*
X182556294Y-143002337D01*
X182587822Y-143130252D01*
X182595210Y-143160225D01*
X182598693Y-143166862D01*
X182598695Y-143166866D01*
X182644541Y-143254216D01*
X182674266Y-143310852D01*
X182679239Y-143316466D01*
X182679241Y-143316468D01*
X182698929Y-143338691D01*
X182787071Y-143438183D01*
X182793240Y-143442441D01*
X182793241Y-143442442D01*
X182808476Y-143452958D01*
X182927070Y-143534818D01*
X182971002Y-143551479D01*
X183070222Y-143589108D01*
X183086128Y-143595140D01*
X183143656Y-143602125D01*
X183155447Y-143603557D01*
X183216705Y-143628833D01*
X183256199Y-143682045D01*
X183262649Y-143747998D01*
X183234214Y-143807854D01*
X183174623Y-143876627D01*
X183170941Y-143884689D01*
X183170938Y-143884694D01*
X183118520Y-143999473D01*
X183114835Y-144007543D01*
X183113573Y-144016316D01*
X183113572Y-144016322D01*
X183101708Y-144098842D01*
X183094353Y-144150000D01*
X183095615Y-144158777D01*
X183095615Y-144158778D01*
X183102149Y-144204227D01*
X183097065Y-144261033D01*
X183067092Y-144309554D01*
X182838465Y-144538181D01*
X182798237Y-144565061D01*
X182750784Y-144574500D01*
X182348352Y-144574500D01*
X182348339Y-144574500D01*
X182343482Y-144574501D01*
X182338680Y-144575261D01*
X182338673Y-144575262D01*
X182259331Y-144587828D01*
X182259330Y-144587828D01*
X182249696Y-144589354D01*
X182241010Y-144593779D01*
X182241003Y-144593782D01*
X182145353Y-144642519D01*
X182145349Y-144642521D01*
X182136658Y-144646950D01*
X182129759Y-144653848D01*
X182129756Y-144653851D01*
X182053851Y-144729756D01*
X182053848Y-144729759D01*
X182046950Y-144736658D01*
X182042521Y-144745349D01*
X182042519Y-144745353D01*
X181996470Y-144835730D01*
X181989354Y-144849696D01*
X181987827Y-144859330D01*
X181987826Y-144859337D01*
X181975263Y-144938660D01*
X181975262Y-144938667D01*
X181974500Y-144943481D01*
X181974500Y-144948353D01*
X181974500Y-144948359D01*
X181974500Y-145400500D01*
X181957887Y-145462500D01*
X181912500Y-145507887D01*
X181850500Y-145524500D01*
X181728039Y-145524500D01*
X181719532Y-145526997D01*
X181719530Y-145526998D01*
X181684432Y-145537304D01*
X181627481Y-145540355D01*
X181575188Y-145517592D01*
X181538615Y-145473830D01*
X181525499Y-145418329D01*
X181525499Y-144943482D01*
X181510646Y-144849696D01*
X181491228Y-144811587D01*
X181466365Y-144762791D01*
X181453050Y-144736658D01*
X181363342Y-144646950D01*
X181339859Y-144634985D01*
X181259000Y-144593785D01*
X181250304Y-144589354D01*
X181240667Y-144587827D01*
X181240662Y-144587826D01*
X181161339Y-144575263D01*
X181161333Y-144575262D01*
X181156519Y-144574500D01*
X181151641Y-144574500D01*
X180844951Y-144574500D01*
X180784612Y-144558829D01*
X180739524Y-144515777D01*
X180721083Y-144456226D01*
X180733951Y-144395227D01*
X180770530Y-144353192D01*
X180772765Y-144352206D01*
X180780894Y-144344076D01*
X180787179Y-144339771D01*
X180790555Y-144337096D01*
X180796176Y-144331970D01*
X180805952Y-144325919D01*
X180822053Y-144304595D01*
X180833314Y-144291655D01*
X181375823Y-143749146D01*
X181378522Y-143746798D01*
X181384228Y-143743958D01*
X181415487Y-143709667D01*
X181419402Y-143705567D01*
X181432174Y-143692797D01*
X181435422Y-143688054D01*
X181435965Y-143687401D01*
X181439733Y-143683072D01*
X181452174Y-143669425D01*
X181452173Y-143669425D01*
X181459916Y-143660933D01*
X181464067Y-143650214D01*
X181468070Y-143643751D01*
X181470077Y-143639944D01*
X181473158Y-143632965D01*
X181479656Y-143623481D01*
X181485772Y-143597472D01*
X181490843Y-143581097D01*
X181500500Y-143556173D01*
X181500500Y-143544677D01*
X181501896Y-143537210D01*
X181502396Y-143532905D01*
X181502747Y-143525307D01*
X181505379Y-143514119D01*
X181501689Y-143487667D01*
X181500500Y-143470535D01*
X181500500Y-142275833D01*
X181509939Y-142228380D01*
X181536819Y-142188152D01*
X182043030Y-141681941D01*
X182550367Y-141174603D01*
X182609098Y-141141712D01*
X182676363Y-141144355D01*
G37*
%TD.AperFunction*%
%TA.AperFunction,Conductor*%
G36*
X185852973Y-140622273D02*
G01*
X185898668Y-140671708D01*
X185911799Y-140737734D01*
X185894254Y-140785284D01*
X185896950Y-140786658D01*
X185856581Y-140865887D01*
X185839354Y-140899696D01*
X185837827Y-140909330D01*
X185837826Y-140909337D01*
X185825263Y-140988660D01*
X185825262Y-140988667D01*
X185824500Y-140993481D01*
X185824500Y-140998358D01*
X185824500Y-140998359D01*
X185824500Y-141601647D01*
X185824500Y-141601659D01*
X185824501Y-141606518D01*
X185825261Y-141611320D01*
X185825262Y-141611326D01*
X185832480Y-141656898D01*
X185839354Y-141700304D01*
X185843780Y-141708991D01*
X185843782Y-141708996D01*
X185882235Y-141784463D01*
X185896950Y-141813342D01*
X185986658Y-141903050D01*
X186009695Y-141914788D01*
X186056795Y-141938787D01*
X186106228Y-141984482D01*
X186124500Y-142049272D01*
X186124500Y-142050728D01*
X186106228Y-142115518D01*
X186056795Y-142161213D01*
X185995353Y-142192519D01*
X185995349Y-142192521D01*
X185986658Y-142196950D01*
X185979759Y-142203848D01*
X185979756Y-142203851D01*
X185903851Y-142279756D01*
X185903848Y-142279759D01*
X185896950Y-142286658D01*
X185892521Y-142295349D01*
X185892519Y-142295353D01*
X185843785Y-142390999D01*
X185839354Y-142399696D01*
X185837827Y-142409330D01*
X185837826Y-142409337D01*
X185825263Y-142488660D01*
X185825262Y-142488667D01*
X185824500Y-142493481D01*
X185824500Y-142498359D01*
X185824500Y-142874166D01*
X185815061Y-142921619D01*
X185788181Y-142961847D01*
X184258121Y-144491906D01*
X184198525Y-144525003D01*
X184130441Y-144521597D01*
X184074446Y-144482718D01*
X184047462Y-144420116D01*
X184057645Y-144352715D01*
X184085165Y-144292457D01*
X184105647Y-144150000D01*
X184085165Y-144007543D01*
X184025377Y-143876627D01*
X183972584Y-143815700D01*
X183943561Y-143752146D01*
X183953505Y-143682988D01*
X183999260Y-143630184D01*
X184066299Y-143610500D01*
X184393623Y-143610500D01*
X184397372Y-143610500D01*
X184523872Y-143595140D01*
X184682930Y-143534818D01*
X184822929Y-143438183D01*
X184935734Y-143310852D01*
X185014790Y-143160225D01*
X185055500Y-142995056D01*
X185055500Y-142824944D01*
X185028036Y-142713516D01*
X185028091Y-142653948D01*
X185055920Y-142601277D01*
X185105101Y-142567662D01*
X185188776Y-142536453D01*
X185204189Y-142528037D01*
X185305092Y-142452501D01*
X185317501Y-142440092D01*
X185393037Y-142339189D01*
X185401452Y-142323777D01*
X185445888Y-142204641D01*
X185449426Y-142189667D01*
X185454646Y-142141114D01*
X185455000Y-142134518D01*
X185455000Y-142056326D01*
X185451549Y-142043450D01*
X185438674Y-142040000D01*
X183852146Y-142040000D01*
X183786666Y-142021301D01*
X183740934Y-141970844D01*
X183728743Y-141903846D01*
X183753770Y-141840513D01*
X183768456Y-141821374D01*
X183807698Y-141770233D01*
X183865687Y-141630236D01*
X183865916Y-141628496D01*
X183888927Y-141584294D01*
X183931511Y-141551618D01*
X183983916Y-141540000D01*
X184113674Y-141540000D01*
X184127813Y-141536211D01*
X184137206Y-141526819D01*
X184177434Y-141499939D01*
X184224887Y-141490500D01*
X184535113Y-141490500D01*
X184582566Y-141499939D01*
X184622794Y-141526819D01*
X184632186Y-141536211D01*
X184646326Y-141540000D01*
X185438674Y-141540000D01*
X185451549Y-141536549D01*
X185455000Y-141523674D01*
X185455000Y-141445482D01*
X185454646Y-141438885D01*
X185449426Y-141390332D01*
X185445888Y-141375358D01*
X185401452Y-141256222D01*
X185393037Y-141240810D01*
X185317501Y-141139907D01*
X185305092Y-141127498D01*
X185205189Y-141052711D01*
X185168616Y-141008948D01*
X185155500Y-140953444D01*
X185155500Y-140728000D01*
X185172113Y-140666000D01*
X185217500Y-140620613D01*
X185279500Y-140604000D01*
X185788182Y-140604000D01*
X185852973Y-140622273D01*
G37*
%TD.AperFunction*%
%TA.AperFunction,Conductor*%
G36*
X203568000Y-138781613D02*
G01*
X203613387Y-138827000D01*
X203630000Y-138889000D01*
X203630000Y-139948673D01*
X203633450Y-139961548D01*
X203646326Y-139964999D01*
X203675165Y-139964999D01*
X203681447Y-139964678D01*
X203770867Y-139955544D01*
X203784036Y-139952725D01*
X203836997Y-139935176D01*
X203894863Y-139930325D01*
X203948593Y-139952352D01*
X203986403Y-139996427D01*
X204000000Y-140052882D01*
X204000000Y-144018588D01*
X203980774Y-144084909D01*
X203929058Y-144130663D01*
X203860888Y-144141664D01*
X203797405Y-144114498D01*
X203758294Y-144057591D01*
X203713819Y-143923374D01*
X203707753Y-143910366D01*
X203626367Y-143778419D01*
X203617462Y-143767157D01*
X203507842Y-143657537D01*
X203496580Y-143648632D01*
X203402158Y-143590392D01*
X203362674Y-143551478D01*
X203344093Y-143499248D01*
X203350129Y-143444140D01*
X203379572Y-143397175D01*
X203398528Y-143378220D01*
X203459719Y-143258126D01*
X203475500Y-143158488D01*
X203475500Y-142641512D01*
X203459719Y-142541874D01*
X203398528Y-142421780D01*
X203303220Y-142326472D01*
X203183126Y-142265281D01*
X203173489Y-142263754D01*
X203173484Y-142263753D01*
X203088297Y-142250261D01*
X203088288Y-142250260D01*
X203083488Y-142249500D01*
X203078623Y-142249500D01*
X203078267Y-142249472D01*
X203020463Y-142229849D01*
X202979026Y-142185022D01*
X202964000Y-142125855D01*
X202964000Y-142113353D01*
X202976787Y-142058510D01*
X203012512Y-142014978D01*
X203063804Y-141991736D01*
X203078231Y-141988867D01*
X203144552Y-141944552D01*
X203188867Y-141878231D01*
X203200500Y-141819748D01*
X203200500Y-140680252D01*
X203188867Y-140621769D01*
X203144552Y-140555448D01*
X203106965Y-140530333D01*
X203088384Y-140517917D01*
X203088383Y-140517916D01*
X203078231Y-140511133D01*
X203063804Y-140508263D01*
X203012512Y-140485022D01*
X202976787Y-140441490D01*
X202964000Y-140386647D01*
X202964000Y-140089000D01*
X202980613Y-140027000D01*
X203026000Y-139981613D01*
X203088000Y-139965000D01*
X203113674Y-139965000D01*
X203126549Y-139961549D01*
X203130000Y-139948674D01*
X203130000Y-138889000D01*
X203146613Y-138827000D01*
X203192000Y-138781613D01*
X203254000Y-138765000D01*
X203506000Y-138765000D01*
X203568000Y-138781613D01*
G37*
%TD.AperFunction*%
%TA.AperFunction,Conductor*%
G36*
X200740290Y-141483793D02*
G01*
X200783690Y-141528931D01*
X200799500Y-141589520D01*
X200799500Y-141819748D01*
X200800688Y-141825723D01*
X200800689Y-141825728D01*
X200808407Y-141864528D01*
X200811133Y-141878231D01*
X200817916Y-141888383D01*
X200817917Y-141888384D01*
X200834342Y-141912966D01*
X200855448Y-141944552D01*
X200921769Y-141988867D01*
X200936195Y-141991736D01*
X200987488Y-142014978D01*
X201023213Y-142058510D01*
X201036000Y-142113353D01*
X201036000Y-142140508D01*
X201022484Y-142196804D01*
X200984884Y-142240827D01*
X200931398Y-142262980D01*
X200916874Y-142265281D01*
X200908178Y-142269711D01*
X200908177Y-142269712D01*
X200805475Y-142322041D01*
X200805471Y-142322043D01*
X200796780Y-142326472D01*
X200789881Y-142333370D01*
X200789878Y-142333373D01*
X200708373Y-142414878D01*
X200708370Y-142414881D01*
X200701472Y-142421780D01*
X200697043Y-142430471D01*
X200697041Y-142430475D01*
X200644712Y-142533177D01*
X200640281Y-142541874D01*
X200638755Y-142551508D01*
X200638753Y-142551515D01*
X200625263Y-142636691D01*
X200625262Y-142636698D01*
X200624500Y-142641512D01*
X200624500Y-143158488D01*
X200625262Y-143163302D01*
X200625263Y-143163308D01*
X200638753Y-143248484D01*
X200638754Y-143248489D01*
X200640281Y-143258126D01*
X200656546Y-143290047D01*
X200694226Y-143364000D01*
X200701472Y-143378220D01*
X200708373Y-143385121D01*
X200720425Y-143397173D01*
X200749870Y-143444143D01*
X200755906Y-143499249D01*
X200737325Y-143551479D01*
X200697842Y-143590392D01*
X200603416Y-143648635D01*
X200592157Y-143657537D01*
X200482537Y-143767157D01*
X200473632Y-143778419D01*
X200392246Y-143910366D01*
X200386181Y-143923371D01*
X200355706Y-144015342D01*
X200316595Y-144072248D01*
X200253112Y-144099414D01*
X200184942Y-144088413D01*
X200133226Y-144042659D01*
X200114000Y-143976338D01*
X200114000Y-142466396D01*
X200116382Y-142442206D01*
X200116789Y-142440160D01*
X200119171Y-142428184D01*
X200114000Y-142402186D01*
X200114000Y-142402182D01*
X200108977Y-142376928D01*
X200101065Y-142337151D01*
X200101064Y-142337150D01*
X200098683Y-142325176D01*
X200040333Y-142237851D01*
X200030182Y-142231068D01*
X200030181Y-142231067D01*
X200028439Y-142229903D01*
X200009651Y-142214483D01*
X199677348Y-141882180D01*
X199647098Y-141832817D01*
X199642556Y-141775101D01*
X199664711Y-141721614D01*
X199708734Y-141684014D01*
X199765027Y-141670499D01*
X199852132Y-141670499D01*
X199932495Y-141654515D01*
X199942655Y-141647725D01*
X199952543Y-141643630D01*
X199999998Y-141634190D01*
X200047453Y-141643629D01*
X200057345Y-141647726D01*
X200067505Y-141654515D01*
X200147867Y-141670500D01*
X200352132Y-141670499D01*
X200432495Y-141654515D01*
X200523624Y-141593624D01*
X200572398Y-141520628D01*
X200619205Y-141479035D01*
X200680368Y-141465616D01*
X200740290Y-141483793D01*
G37*
%TD.AperFunction*%
%TA.AperFunction,Conductor*%
G36*
X190463000Y-140716613D02*
G01*
X190508387Y-140762000D01*
X190525000Y-140824000D01*
X190525000Y-142956000D01*
X190508387Y-143018000D01*
X190463000Y-143063387D01*
X190401000Y-143080000D01*
X189341327Y-143080000D01*
X189328451Y-143083450D01*
X189325001Y-143096326D01*
X189325001Y-143125165D01*
X189325321Y-143131447D01*
X189334455Y-143220867D01*
X189337274Y-143234036D01*
X189386180Y-143381625D01*
X189392243Y-143394627D01*
X189417394Y-143435403D01*
X189435825Y-143497795D01*
X189420133Y-143560931D01*
X189374635Y-143607433D01*
X189311856Y-143624500D01*
X189198353Y-143624500D01*
X189198340Y-143624500D01*
X189193482Y-143624501D01*
X189188680Y-143625261D01*
X189188673Y-143625262D01*
X189109331Y-143637828D01*
X189109330Y-143637828D01*
X189099696Y-143639354D01*
X189091010Y-143643779D01*
X189091003Y-143643782D01*
X188995353Y-143692519D01*
X188995349Y-143692521D01*
X188986658Y-143696950D01*
X188979759Y-143703848D01*
X188979756Y-143703851D01*
X188903851Y-143779756D01*
X188903848Y-143779759D01*
X188896950Y-143786658D01*
X188892522Y-143795347D01*
X188892517Y-143795355D01*
X188855644Y-143867723D01*
X188809949Y-143917155D01*
X188745160Y-143935427D01*
X188680370Y-143917154D01*
X188634675Y-143867722D01*
X188612358Y-143823923D01*
X188598528Y-143796780D01*
X188503220Y-143701472D01*
X188494527Y-143697042D01*
X188494522Y-143697039D01*
X188432276Y-143665323D01*
X188382844Y-143619628D01*
X188364572Y-143554838D01*
X188382845Y-143490048D01*
X188432277Y-143444354D01*
X188513342Y-143403050D01*
X188603050Y-143313342D01*
X188660646Y-143200304D01*
X188675500Y-143106519D01*
X188675499Y-142640476D01*
X188684938Y-142593024D01*
X188711815Y-142552799D01*
X189087859Y-142176755D01*
X189106641Y-142161341D01*
X189119493Y-142152755D01*
X189137965Y-142125111D01*
X189180384Y-142061626D01*
X189180383Y-142061626D01*
X189196369Y-141981264D01*
X189196369Y-141981260D01*
X189201765Y-141954131D01*
X189198750Y-141938977D01*
X189196369Y-141914788D01*
X189196369Y-141634303D01*
X189212623Y-141572929D01*
X189257124Y-141527645D01*
X189318205Y-141510322D01*
X189379853Y-141525502D01*
X189425907Y-141569206D01*
X189473632Y-141646580D01*
X189482537Y-141657842D01*
X189592157Y-141767462D01*
X189603415Y-141776364D01*
X189616545Y-141784463D01*
X189659723Y-141829570D01*
X189675445Y-141890000D01*
X189659723Y-141950430D01*
X189616545Y-141995537D01*
X189603415Y-142003635D01*
X189592157Y-142012537D01*
X189482537Y-142122157D01*
X189473632Y-142133419D01*
X189392246Y-142265366D01*
X189386180Y-142278374D01*
X189337272Y-142425969D01*
X189334456Y-142439125D01*
X189325319Y-142528555D01*
X189325000Y-142534832D01*
X189325000Y-142563674D01*
X189328450Y-142576549D01*
X189341326Y-142580000D01*
X190008674Y-142580000D01*
X190021549Y-142576549D01*
X190025000Y-142563674D01*
X190025000Y-140824000D01*
X190041613Y-140762000D01*
X190087000Y-140716613D01*
X190149000Y-140700000D01*
X190401000Y-140700000D01*
X190463000Y-140716613D01*
G37*
%TD.AperFunction*%
%TA.AperFunction,Conductor*%
G36*
X196547453Y-141643629D02*
G01*
X196557345Y-141647726D01*
X196567505Y-141654515D01*
X196618334Y-141664625D01*
X196659618Y-141680939D01*
X196692514Y-141710754D01*
X196759961Y-141798652D01*
X196771349Y-141810040D01*
X196786120Y-141821374D01*
X196823203Y-141867746D01*
X196834475Y-141926042D01*
X196817353Y-141982895D01*
X196783046Y-142017849D01*
X196784080Y-142019157D01*
X196767157Y-142032537D01*
X196657537Y-142142157D01*
X196648635Y-142153416D01*
X196590392Y-142247842D01*
X196551479Y-142287325D01*
X196499249Y-142305906D01*
X196444143Y-142299870D01*
X196397173Y-142270425D01*
X196385121Y-142258373D01*
X196378220Y-142251472D01*
X196351487Y-142237851D01*
X196305625Y-142214483D01*
X196258126Y-142190281D01*
X196248489Y-142188754D01*
X196248484Y-142188753D01*
X196163308Y-142175263D01*
X196163302Y-142175262D01*
X196158488Y-142174500D01*
X196093687Y-142174500D01*
X196037392Y-142160985D01*
X195993369Y-142123385D01*
X195971214Y-142069898D01*
X195975756Y-142012182D01*
X196006006Y-141962819D01*
X196124970Y-141843856D01*
X196262007Y-141706818D01*
X196302236Y-141679938D01*
X196340108Y-141672404D01*
X196339980Y-141671096D01*
X196346041Y-141670499D01*
X196352132Y-141670499D01*
X196432495Y-141654515D01*
X196442655Y-141647725D01*
X196452543Y-141643630D01*
X196499998Y-141634190D01*
X196547453Y-141643629D01*
G37*
%TD.AperFunction*%
%TA.AperFunction,Conductor*%
G36*
X194503654Y-139636310D02*
G01*
X194548792Y-139679710D01*
X194566969Y-139739631D01*
X194553550Y-139800794D01*
X194511956Y-139847602D01*
X194486529Y-139864591D01*
X194486526Y-139864593D01*
X194476376Y-139871376D01*
X194469593Y-139881526D01*
X194469591Y-139881529D01*
X194422269Y-139952351D01*
X194422269Y-139952352D01*
X194415485Y-139962505D01*
X194413102Y-139974481D01*
X194413102Y-139974483D01*
X194400689Y-140036886D01*
X194400688Y-140036892D01*
X194399500Y-140042867D01*
X194399500Y-140048958D01*
X194399500Y-140048962D01*
X194399500Y-141416042D01*
X194399500Y-141416052D01*
X194399501Y-141422132D01*
X194400687Y-141428096D01*
X194400688Y-141428103D01*
X194402619Y-141437807D01*
X194401286Y-141492128D01*
X194376856Y-141540664D01*
X194334019Y-141574094D01*
X194281002Y-141586000D01*
X193277606Y-141586000D01*
X193226095Y-141574794D01*
X193183893Y-141543203D01*
X193181118Y-141540000D01*
X193141506Y-141494285D01*
X193020431Y-141416475D01*
X192965241Y-141400269D01*
X192890851Y-141378427D01*
X192890848Y-141378426D01*
X192882339Y-141375928D01*
X192738417Y-141375928D01*
X192729909Y-141378426D01*
X192729903Y-141378427D01*
X192627085Y-141408617D01*
X192565359Y-141410711D01*
X192510280Y-141382770D01*
X192475511Y-141331725D01*
X192469678Y-141270244D01*
X192475500Y-141233488D01*
X192475500Y-140666512D01*
X192475582Y-140666512D01*
X192482567Y-140616010D01*
X192511220Y-140571249D01*
X193375652Y-139706818D01*
X193415880Y-139679938D01*
X193463333Y-139670499D01*
X194021042Y-139670499D01*
X194027132Y-139670499D01*
X194107495Y-139654515D01*
X194127125Y-139641398D01*
X194160022Y-139625839D01*
X194196017Y-139620500D01*
X194443065Y-139620500D01*
X194503654Y-139636310D01*
G37*
%TD.AperFunction*%
%TA.AperFunction,Conductor*%
G36*
X197776634Y-137023697D02*
G01*
X197913181Y-137160244D01*
X197940061Y-137200472D01*
X197949500Y-137247925D01*
X197949500Y-139576447D01*
X197935985Y-139632742D01*
X197898385Y-139676765D01*
X197844898Y-139698920D01*
X197787182Y-139694378D01*
X197737819Y-139664128D01*
X197728652Y-139654961D01*
X197621428Y-139572684D01*
X197607470Y-139564626D01*
X197482619Y-139512912D01*
X197467042Y-139508738D01*
X197417552Y-139502222D01*
X197403873Y-139504328D01*
X197400000Y-139517616D01*
X197400000Y-140037790D01*
X197399832Y-140041194D01*
X197399500Y-140042867D01*
X197399500Y-140728000D01*
X197399501Y-140758500D01*
X197382888Y-140820500D01*
X197337501Y-140865887D01*
X197275501Y-140882500D01*
X197224500Y-140882500D01*
X197162500Y-140865887D01*
X197117113Y-140820500D01*
X197100500Y-140758500D01*
X197100499Y-140047959D01*
X197100499Y-140042868D01*
X197100166Y-140041198D01*
X197100000Y-140037801D01*
X197100000Y-139517616D01*
X197096126Y-139504328D01*
X197082447Y-139502222D01*
X197032957Y-139508738D01*
X197017380Y-139512912D01*
X196892529Y-139564626D01*
X196878571Y-139572684D01*
X196771347Y-139654961D01*
X196759956Y-139666352D01*
X196692513Y-139754245D01*
X196659618Y-139784059D01*
X196618329Y-139800375D01*
X196579482Y-139808101D01*
X196579473Y-139808104D01*
X196567505Y-139810485D01*
X196557357Y-139817265D01*
X196547448Y-139821370D01*
X196499998Y-139830808D01*
X196452548Y-139821370D01*
X196442649Y-139817269D01*
X196432495Y-139810485D01*
X196420517Y-139808102D01*
X196420514Y-139808101D01*
X196358113Y-139795689D01*
X196358108Y-139795688D01*
X196352133Y-139794500D01*
X196346036Y-139794500D01*
X196153958Y-139794500D01*
X196153948Y-139794500D01*
X196147868Y-139794501D01*
X196141905Y-139795687D01*
X196141895Y-139795688D01*
X196079479Y-139808103D01*
X196079477Y-139808103D01*
X196067505Y-139810485D01*
X196057356Y-139817266D01*
X196047448Y-139821370D01*
X195999998Y-139830808D01*
X195952548Y-139821370D01*
X195942649Y-139817269D01*
X195932495Y-139810485D01*
X195920517Y-139808102D01*
X195920514Y-139808101D01*
X195858113Y-139795689D01*
X195858108Y-139795688D01*
X195852133Y-139794500D01*
X195846036Y-139794500D01*
X195653958Y-139794500D01*
X195653948Y-139794500D01*
X195647868Y-139794501D01*
X195641905Y-139795687D01*
X195641895Y-139795688D01*
X195579479Y-139808103D01*
X195579477Y-139808103D01*
X195567505Y-139810485D01*
X195557356Y-139817266D01*
X195547448Y-139821370D01*
X195499998Y-139830808D01*
X195452548Y-139821370D01*
X195442649Y-139817269D01*
X195432495Y-139810485D01*
X195420517Y-139808102D01*
X195420514Y-139808101D01*
X195358113Y-139795689D01*
X195358108Y-139795688D01*
X195352133Y-139794500D01*
X195346036Y-139794500D01*
X195153958Y-139794500D01*
X195153948Y-139794500D01*
X195147868Y-139794501D01*
X195141899Y-139795688D01*
X195135832Y-139796286D01*
X195135647Y-139794413D01*
X195077915Y-139789933D01*
X195023545Y-139750714D01*
X194997534Y-139688926D01*
X195007487Y-139622629D01*
X195047831Y-139574384D01*
X195052765Y-139572206D01*
X195060894Y-139564075D01*
X195067178Y-139559771D01*
X195070555Y-139557096D01*
X195076176Y-139551970D01*
X195085952Y-139545919D01*
X195102053Y-139524595D01*
X195113314Y-139511655D01*
X197601276Y-137023694D01*
X197656859Y-136991603D01*
X197721047Y-136991603D01*
X197776634Y-137023697D01*
G37*
%TD.AperFunction*%
%TA.AperFunction,Conductor*%
G36*
X200388084Y-137131553D02*
G01*
X200430137Y-137162742D01*
X200432685Y-137165647D01*
X200447616Y-137170000D01*
X200967790Y-137170000D01*
X200971191Y-137170166D01*
X200972867Y-137170500D01*
X201688501Y-137170499D01*
X201750500Y-137187112D01*
X201795887Y-137232499D01*
X201812500Y-137294499D01*
X201812500Y-137345500D01*
X201795887Y-137407500D01*
X201750500Y-137452887D01*
X201688500Y-137469500D01*
X200977959Y-137469500D01*
X200977938Y-137469500D01*
X200972868Y-137469501D01*
X200971200Y-137469832D01*
X200967801Y-137470000D01*
X200447616Y-137470000D01*
X200434328Y-137473873D01*
X200432222Y-137487552D01*
X200438738Y-137537042D01*
X200442912Y-137552619D01*
X200494626Y-137677470D01*
X200502684Y-137691428D01*
X200584961Y-137798652D01*
X200596347Y-137810038D01*
X200684245Y-137877485D01*
X200714059Y-137910381D01*
X200730376Y-137951671D01*
X200740485Y-138002495D01*
X200747268Y-138012647D01*
X200751370Y-138022550D01*
X200760808Y-138070000D01*
X200751370Y-138117450D01*
X200747267Y-138127353D01*
X200740485Y-138137505D01*
X200738103Y-138149479D01*
X200738102Y-138149482D01*
X200725689Y-138211886D01*
X200725688Y-138211892D01*
X200724500Y-138217867D01*
X200724500Y-138223962D01*
X200724500Y-138223963D01*
X200724500Y-138416041D01*
X200724500Y-138416050D01*
X200724501Y-138422132D01*
X200725687Y-138428095D01*
X200725688Y-138428104D01*
X200738102Y-138490518D01*
X200738103Y-138490521D01*
X200740485Y-138502495D01*
X200747267Y-138512646D01*
X200751370Y-138522550D01*
X200760808Y-138570000D01*
X200751370Y-138617450D01*
X200747267Y-138627353D01*
X200740485Y-138637505D01*
X200738103Y-138649479D01*
X200738102Y-138649482D01*
X200725689Y-138711886D01*
X200725688Y-138711892D01*
X200724500Y-138717867D01*
X200724500Y-138723962D01*
X200724500Y-138723963D01*
X200724500Y-138916041D01*
X200724500Y-138916050D01*
X200724501Y-138922132D01*
X200725687Y-138928095D01*
X200725688Y-138928104D01*
X200738102Y-138990518D01*
X200738103Y-138990521D01*
X200740485Y-139002495D01*
X200747267Y-139012646D01*
X200751370Y-139022550D01*
X200760808Y-139070000D01*
X200751370Y-139117450D01*
X200747267Y-139127353D01*
X200740485Y-139137505D01*
X200738103Y-139149479D01*
X200738102Y-139149482D01*
X200725689Y-139211886D01*
X200725688Y-139211892D01*
X200724500Y-139217867D01*
X200724500Y-139223962D01*
X200724500Y-139223963D01*
X200724500Y-139416041D01*
X200724500Y-139416050D01*
X200724501Y-139422132D01*
X200725687Y-139428095D01*
X200725688Y-139428104D01*
X200738102Y-139490518D01*
X200738103Y-139490521D01*
X200740485Y-139502495D01*
X200747268Y-139512647D01*
X200747269Y-139512648D01*
X200792216Y-139579916D01*
X200801376Y-139593624D01*
X200892505Y-139654515D01*
X200928832Y-139661741D01*
X200936192Y-139663205D01*
X200987487Y-139686447D01*
X201023212Y-139729978D01*
X201036000Y-139784822D01*
X201036000Y-140386647D01*
X201023213Y-140441490D01*
X200987488Y-140485022D01*
X200936195Y-140508263D01*
X200921769Y-140511133D01*
X200911618Y-140517915D01*
X200911615Y-140517917D01*
X200865601Y-140548663D01*
X200865598Y-140548665D01*
X200855448Y-140555448D01*
X200848665Y-140565598D01*
X200848663Y-140565601D01*
X200827600Y-140597124D01*
X200780792Y-140638717D01*
X200719629Y-140652135D01*
X200659708Y-140633958D01*
X200616309Y-140588820D01*
X200600499Y-140528231D01*
X200600499Y-140048958D01*
X200600499Y-140042868D01*
X200584515Y-139962505D01*
X200523624Y-139871376D01*
X200481478Y-139843215D01*
X200442648Y-139817269D01*
X200442647Y-139817268D01*
X200432495Y-139810485D01*
X200420517Y-139808102D01*
X200420516Y-139808102D01*
X200358113Y-139795689D01*
X200358108Y-139795688D01*
X200352133Y-139794500D01*
X200346036Y-139794500D01*
X200153958Y-139794500D01*
X200153948Y-139794500D01*
X200147868Y-139794501D01*
X200141905Y-139795687D01*
X200141895Y-139795688D01*
X200079479Y-139808103D01*
X200079477Y-139808103D01*
X200067505Y-139810485D01*
X200057356Y-139817266D01*
X200047448Y-139821370D01*
X199999998Y-139830808D01*
X199952548Y-139821370D01*
X199942649Y-139817269D01*
X199932495Y-139810485D01*
X199920517Y-139808102D01*
X199920514Y-139808101D01*
X199858113Y-139795689D01*
X199858108Y-139795688D01*
X199852133Y-139794500D01*
X199846036Y-139794500D01*
X199653958Y-139794500D01*
X199653948Y-139794500D01*
X199647868Y-139794501D01*
X199641905Y-139795687D01*
X199641895Y-139795688D01*
X199579479Y-139808103D01*
X199579477Y-139808103D01*
X199567505Y-139810485D01*
X199557356Y-139817266D01*
X199547448Y-139821370D01*
X199499998Y-139830808D01*
X199452548Y-139821370D01*
X199442649Y-139817269D01*
X199432495Y-139810485D01*
X199420517Y-139808102D01*
X199420514Y-139808101D01*
X199358113Y-139795689D01*
X199358108Y-139795688D01*
X199352133Y-139794500D01*
X199346036Y-139794500D01*
X199153958Y-139794500D01*
X199153948Y-139794500D01*
X199147868Y-139794501D01*
X199141905Y-139795687D01*
X199141895Y-139795688D01*
X199079479Y-139808103D01*
X199079477Y-139808103D01*
X199067505Y-139810485D01*
X199057356Y-139817266D01*
X199047448Y-139821370D01*
X198999998Y-139830808D01*
X198952548Y-139821370D01*
X198942649Y-139817269D01*
X198932495Y-139810485D01*
X198920517Y-139808102D01*
X198920514Y-139808101D01*
X198858113Y-139795689D01*
X198858108Y-139795688D01*
X198852133Y-139794500D01*
X198846037Y-139794500D01*
X198814087Y-139794500D01*
X198674500Y-139794500D01*
X198612500Y-139777888D01*
X198567113Y-139732501D01*
X198550500Y-139670501D01*
X198550500Y-137247925D01*
X198559939Y-137200472D01*
X198586819Y-137160244D01*
X198590244Y-137156819D01*
X198630472Y-137129939D01*
X198677925Y-137120500D01*
X200336908Y-137120500D01*
X200388084Y-137131553D01*
G37*
%TD.AperFunction*%
%TA.AperFunction,Conductor*%
G36*
X190052004Y-138635185D02*
G01*
X190097759Y-138687988D01*
X190107703Y-138757147D01*
X190094353Y-138850000D01*
X190095615Y-138858777D01*
X190100105Y-138890006D01*
X190095021Y-138946812D01*
X190065048Y-138995334D01*
X189006702Y-140053681D01*
X188966474Y-140080561D01*
X188919021Y-140090000D01*
X187949000Y-140090000D01*
X187887000Y-140073387D01*
X187841613Y-140028000D01*
X187825000Y-139966000D01*
X187825000Y-139714000D01*
X187841613Y-139652000D01*
X187887000Y-139606613D01*
X187949000Y-139590000D01*
X188958673Y-139590000D01*
X188971548Y-139586549D01*
X188974999Y-139573674D01*
X188974999Y-139511247D01*
X188974743Y-139505615D01*
X188971464Y-139469522D01*
X188979257Y-139413693D01*
X189010960Y-139367083D01*
X189060018Y-139339325D01*
X189160053Y-139309953D01*
X189281128Y-139232143D01*
X189375377Y-139123373D01*
X189435165Y-138992457D01*
X189455647Y-138850000D01*
X189442296Y-138757147D01*
X189452241Y-138687988D01*
X189497996Y-138635185D01*
X189565035Y-138615500D01*
X189984965Y-138615500D01*
X190052004Y-138635185D01*
G37*
%TD.AperFunction*%
%TA.AperFunction,Conductor*%
G36*
X194437817Y-133703993D02*
G01*
X194487180Y-133734243D01*
X196813875Y-136060938D01*
X196821590Y-136069400D01*
X196823173Y-136071307D01*
X196828765Y-136081345D01*
X196856896Y-136104704D01*
X196865346Y-136112409D01*
X197176302Y-136423365D01*
X197208396Y-136478952D01*
X197208396Y-136543140D01*
X197176302Y-136598727D01*
X194791848Y-138983181D01*
X194751620Y-139010061D01*
X194704167Y-139019500D01*
X194663092Y-139019500D01*
X194611916Y-139008447D01*
X194569863Y-138977258D01*
X194567314Y-138974352D01*
X194552384Y-138970000D01*
X194032210Y-138970000D01*
X194028806Y-138969832D01*
X194027133Y-138969500D01*
X194022031Y-138969500D01*
X194016610Y-138969500D01*
X193311498Y-138969500D01*
X193249500Y-138952888D01*
X193204113Y-138907501D01*
X193187500Y-138845501D01*
X193187500Y-138794500D01*
X193204113Y-138732500D01*
X193249500Y-138687113D01*
X193311500Y-138670500D01*
X194016629Y-138670499D01*
X194027132Y-138670499D01*
X194028801Y-138670166D01*
X194032199Y-138670000D01*
X194552384Y-138670000D01*
X194565671Y-138666126D01*
X194567777Y-138652447D01*
X194561261Y-138602957D01*
X194557087Y-138587380D01*
X194505373Y-138462529D01*
X194497315Y-138448571D01*
X194415038Y-138341347D01*
X194403652Y-138329961D01*
X194315754Y-138262514D01*
X194285939Y-138229617D01*
X194269623Y-138188327D01*
X194259515Y-138137505D01*
X194252728Y-138127347D01*
X194248629Y-138117451D01*
X194239191Y-138069998D01*
X194248630Y-138022546D01*
X194252728Y-138012652D01*
X194259515Y-138002495D01*
X194275500Y-137922133D01*
X194275499Y-137717868D01*
X194259515Y-137637505D01*
X194252728Y-137627348D01*
X194248629Y-137617451D01*
X194239191Y-137569998D01*
X194248630Y-137522546D01*
X194252728Y-137512652D01*
X194259515Y-137502495D01*
X194275500Y-137422133D01*
X194275499Y-137217868D01*
X194271261Y-137196563D01*
X194261898Y-137149486D01*
X194261897Y-137149485D01*
X194259515Y-137137505D01*
X194252728Y-137127348D01*
X194248629Y-137117451D01*
X194239191Y-137069998D01*
X194248630Y-137022546D01*
X194252728Y-137012652D01*
X194259515Y-137002495D01*
X194275500Y-136922133D01*
X194275499Y-136717868D01*
X194259515Y-136637505D01*
X194252728Y-136627348D01*
X194248629Y-136617451D01*
X194239191Y-136569998D01*
X194248630Y-136522546D01*
X194252728Y-136512652D01*
X194259515Y-136502495D01*
X194275500Y-136422133D01*
X194275499Y-136217868D01*
X194273100Y-136205809D01*
X194261898Y-136149486D01*
X194261897Y-136149485D01*
X194259515Y-136137505D01*
X194252728Y-136127348D01*
X194248629Y-136117451D01*
X194239191Y-136069998D01*
X194248630Y-136022546D01*
X194252728Y-136012652D01*
X194259515Y-136002495D01*
X194275500Y-135922133D01*
X194275499Y-135717868D01*
X194259515Y-135637505D01*
X194252728Y-135627348D01*
X194248629Y-135617451D01*
X194239191Y-135569998D01*
X194248630Y-135522546D01*
X194252728Y-135512652D01*
X194259515Y-135502495D01*
X194275500Y-135422133D01*
X194275499Y-135217868D01*
X194259515Y-135137505D01*
X194252728Y-135127348D01*
X194248629Y-135117451D01*
X194239191Y-135069998D01*
X194248630Y-135022546D01*
X194252728Y-135012652D01*
X194259515Y-135002495D01*
X194275500Y-134922133D01*
X194275499Y-134717868D01*
X194259515Y-134637505D01*
X194252728Y-134627348D01*
X194248629Y-134617451D01*
X194239191Y-134569998D01*
X194248630Y-134522546D01*
X194252728Y-134512652D01*
X194259515Y-134502495D01*
X194275500Y-134422133D01*
X194275499Y-134217868D01*
X194268950Y-134184944D01*
X194261898Y-134149486D01*
X194261897Y-134149485D01*
X194259515Y-134137505D01*
X194252726Y-134127345D01*
X194248629Y-134117453D01*
X194239190Y-134069998D01*
X194248630Y-134022544D01*
X194252726Y-134012654D01*
X194259515Y-134002495D01*
X194275500Y-133922133D01*
X194275499Y-133821922D01*
X194289014Y-133765630D01*
X194326613Y-133721606D01*
X194380101Y-133699451D01*
X194437817Y-133703993D01*
G37*
%TD.AperFunction*%
%TA.AperFunction,Conductor*%
G36*
X191913000Y-131766613D02*
G01*
X191958387Y-131812000D01*
X191975000Y-131874000D01*
X191975000Y-132609576D01*
X191969977Y-132644512D01*
X191968519Y-132649475D01*
X191964835Y-132657543D01*
X191963573Y-132666316D01*
X191963572Y-132666322D01*
X191959222Y-132696580D01*
X191944353Y-132800000D01*
X191945615Y-132808777D01*
X191963572Y-132933677D01*
X191963573Y-132933681D01*
X191964835Y-132942457D01*
X191968519Y-132950525D01*
X191968520Y-132950526D01*
X191974616Y-132963875D01*
X191981595Y-132983289D01*
X191981858Y-132984272D01*
X191987913Y-132992992D01*
X192020938Y-133065306D01*
X192020941Y-133065310D01*
X192024623Y-133073373D01*
X192030431Y-133080076D01*
X192030432Y-133080077D01*
X192113065Y-133175442D01*
X192113067Y-133175444D01*
X192118872Y-133182143D01*
X192239947Y-133259953D01*
X192378039Y-133300500D01*
X192386910Y-133300500D01*
X192435582Y-133300500D01*
X192496171Y-133316310D01*
X192541309Y-133359710D01*
X192559486Y-133419631D01*
X192546067Y-133480794D01*
X192504473Y-133527602D01*
X192486529Y-133539591D01*
X192486526Y-133539593D01*
X192476376Y-133546376D01*
X192469593Y-133556526D01*
X192469591Y-133556529D01*
X192422269Y-133627351D01*
X192422267Y-133627353D01*
X192415485Y-133637505D01*
X192413102Y-133649481D01*
X192413102Y-133649483D01*
X192400689Y-133711886D01*
X192400688Y-133711892D01*
X192399500Y-133717867D01*
X192399500Y-133723962D01*
X192399500Y-133723963D01*
X192399500Y-133735004D01*
X192384333Y-133794430D01*
X192342541Y-133839319D01*
X192284348Y-133858688D01*
X192223991Y-133847800D01*
X192217516Y-133844843D01*
X192210053Y-133840047D01*
X192153923Y-133823566D01*
X192080473Y-133801999D01*
X192080470Y-133801998D01*
X192071961Y-133799500D01*
X191928039Y-133799500D01*
X191919530Y-133801998D01*
X191919526Y-133801999D01*
X191798461Y-133837547D01*
X191789947Y-133840047D01*
X191782484Y-133844842D01*
X191782484Y-133844843D01*
X191676329Y-133913064D01*
X191676325Y-133913066D01*
X191668872Y-133917857D01*
X191663070Y-133924551D01*
X191663065Y-133924557D01*
X191580431Y-134019923D01*
X191580428Y-134019927D01*
X191574623Y-134026627D01*
X191570941Y-134034689D01*
X191570938Y-134034694D01*
X191524246Y-134136935D01*
X191514835Y-134157543D01*
X191513573Y-134166316D01*
X191513572Y-134166322D01*
X191497887Y-134275420D01*
X191494353Y-134300000D01*
X191495615Y-134308777D01*
X191513572Y-134433677D01*
X191513573Y-134433681D01*
X191514835Y-134442457D01*
X191518519Y-134450525D01*
X191518520Y-134450526D01*
X191557719Y-134536360D01*
X191574623Y-134573373D01*
X191580430Y-134580075D01*
X191580431Y-134580076D01*
X191663065Y-134675442D01*
X191663067Y-134675444D01*
X191668872Y-134682143D01*
X191789947Y-134759953D01*
X191928039Y-134800500D01*
X192063090Y-134800500D01*
X192071961Y-134800500D01*
X192210053Y-134759953D01*
X192217517Y-134755156D01*
X192223988Y-134752201D01*
X192284345Y-134741311D01*
X192342538Y-134760679D01*
X192384331Y-134805567D01*
X192399500Y-134864993D01*
X192399500Y-134916041D01*
X192399500Y-134916050D01*
X192399501Y-134922132D01*
X192400687Y-134928095D01*
X192400688Y-134928104D01*
X192413102Y-134990518D01*
X192413103Y-134990521D01*
X192415485Y-135002495D01*
X192422267Y-135012646D01*
X192426370Y-135022550D01*
X192435808Y-135070000D01*
X192426370Y-135117450D01*
X192422267Y-135127353D01*
X192415485Y-135137505D01*
X192413103Y-135149479D01*
X192413102Y-135149482D01*
X192400689Y-135211886D01*
X192400688Y-135211892D01*
X192399500Y-135217867D01*
X192399500Y-135223958D01*
X192399500Y-135223963D01*
X192399500Y-135416041D01*
X192399500Y-135416050D01*
X192399501Y-135422132D01*
X192400687Y-135428095D01*
X192400688Y-135428104D01*
X192413102Y-135490518D01*
X192413103Y-135490521D01*
X192415485Y-135502495D01*
X192422267Y-135512646D01*
X192426370Y-135522550D01*
X192435808Y-135570000D01*
X192426370Y-135617450D01*
X192422267Y-135627353D01*
X192415485Y-135637505D01*
X192413103Y-135649479D01*
X192413102Y-135649482D01*
X192400689Y-135711886D01*
X192400688Y-135711892D01*
X192399500Y-135717867D01*
X192399500Y-135723958D01*
X192399500Y-135723963D01*
X192399500Y-135916041D01*
X192399500Y-135916050D01*
X192399501Y-135922132D01*
X192400687Y-135928095D01*
X192400688Y-135928104D01*
X192413102Y-135990518D01*
X192413103Y-135990521D01*
X192415485Y-136002495D01*
X192422267Y-136012646D01*
X192426370Y-136022550D01*
X192435808Y-136070000D01*
X192426370Y-136117450D01*
X192422267Y-136127353D01*
X192415485Y-136137505D01*
X192413103Y-136149479D01*
X192413102Y-136149482D01*
X192399500Y-136217867D01*
X192398074Y-136217583D01*
X192380604Y-136266397D01*
X192335956Y-136306860D01*
X192277506Y-136321500D01*
X191392344Y-136321500D01*
X191368152Y-136319117D01*
X191364980Y-136318486D01*
X191353000Y-136316103D01*
X191341020Y-136318486D01*
X191325868Y-136321500D01*
X191325867Y-136321500D01*
X191257483Y-136335102D01*
X191257481Y-136335102D01*
X191245505Y-136337485D01*
X191237178Y-136343048D01*
X191176112Y-136350718D01*
X191171961Y-136349500D01*
X191028039Y-136349500D01*
X191019530Y-136351998D01*
X191019526Y-136351999D01*
X190898461Y-136387547D01*
X190889947Y-136390047D01*
X190882484Y-136394842D01*
X190882484Y-136394843D01*
X190776329Y-136463064D01*
X190776325Y-136463066D01*
X190768872Y-136467857D01*
X190763070Y-136474551D01*
X190763065Y-136474557D01*
X190680431Y-136569923D01*
X190680428Y-136569927D01*
X190674623Y-136576627D01*
X190670941Y-136584689D01*
X190670938Y-136584694D01*
X190618520Y-136699473D01*
X190614835Y-136707543D01*
X190613573Y-136716316D01*
X190613572Y-136716322D01*
X190598439Y-136821578D01*
X190594353Y-136850000D01*
X190595615Y-136858777D01*
X190613572Y-136983677D01*
X190613573Y-136983681D01*
X190614835Y-136992457D01*
X190618519Y-137000525D01*
X190618520Y-137000526D01*
X190669587Y-137112347D01*
X190674623Y-137123373D01*
X190680430Y-137130075D01*
X190680431Y-137130076D01*
X190763065Y-137225442D01*
X190763067Y-137225444D01*
X190768872Y-137232143D01*
X190889947Y-137309953D01*
X190929352Y-137321523D01*
X190979987Y-137350757D01*
X191011597Y-137399943D01*
X191017155Y-137458147D01*
X190995424Y-137512427D01*
X190951237Y-137550716D01*
X190894417Y-137564500D01*
X188824811Y-137564500D01*
X188768516Y-137550985D01*
X188724493Y-137513385D01*
X188702338Y-137459898D01*
X188706880Y-137402182D01*
X188737130Y-137352819D01*
X188824771Y-137265177D01*
X188833954Y-137253456D01*
X188914135Y-137120820D01*
X188920251Y-137107232D01*
X188966638Y-136958372D01*
X188969184Y-136945568D01*
X188974744Y-136884384D01*
X188975000Y-136878756D01*
X188975000Y-136816326D01*
X188971549Y-136803450D01*
X188958674Y-136800000D01*
X187949000Y-136800000D01*
X187887000Y-136783387D01*
X187841613Y-136738000D01*
X187825000Y-136676000D01*
X187825000Y-135591327D01*
X187821549Y-135578451D01*
X187811143Y-135575662D01*
X187754429Y-135580815D01*
X187741630Y-135583361D01*
X187592767Y-135629748D01*
X187579179Y-135635864D01*
X187446543Y-135716045D01*
X187434822Y-135725228D01*
X187325228Y-135834822D01*
X187316045Y-135846543D01*
X187235864Y-135979179D01*
X187229750Y-135992764D01*
X187206863Y-136066209D01*
X187177002Y-136116148D01*
X187127649Y-136146967D01*
X187069671Y-136151883D01*
X187015835Y-136129810D01*
X186977993Y-136085611D01*
X186965421Y-136060938D01*
X186953050Y-136036658D01*
X186863342Y-135946950D01*
X186826372Y-135928113D01*
X186759000Y-135893785D01*
X186750304Y-135889354D01*
X186740667Y-135887827D01*
X186740662Y-135887826D01*
X186661339Y-135875263D01*
X186661333Y-135875262D01*
X186656519Y-135874500D01*
X186651641Y-135874500D01*
X186290254Y-135874500D01*
X186233959Y-135860985D01*
X186189936Y-135823385D01*
X186167781Y-135769898D01*
X186172323Y-135712182D01*
X186202571Y-135662821D01*
X188276019Y-133589373D01*
X188335309Y-133556349D01*
X188403104Y-133559483D01*
X188459095Y-133597837D01*
X188486510Y-133659921D01*
X188477135Y-133727139D01*
X188476836Y-133727815D01*
X188470344Y-133737294D01*
X188467713Y-133748475D01*
X188467711Y-133748482D01*
X188464228Y-133763291D01*
X188459150Y-133779690D01*
X188453651Y-133793884D01*
X188453650Y-133793889D01*
X188449500Y-133804602D01*
X188449500Y-133816092D01*
X188448103Y-133823566D01*
X188447603Y-133827869D01*
X188447251Y-133835472D01*
X188444621Y-133846656D01*
X188446208Y-133858033D01*
X188446208Y-133858037D01*
X188448311Y-133873108D01*
X188449500Y-133890240D01*
X188449500Y-134536360D01*
X188438274Y-134587917D01*
X188417029Y-134616260D01*
X188418872Y-134617857D01*
X188330431Y-134719923D01*
X188330428Y-134719927D01*
X188324623Y-134726627D01*
X188320941Y-134734689D01*
X188320938Y-134734694D01*
X188268520Y-134849473D01*
X188264835Y-134857543D01*
X188263573Y-134866316D01*
X188263572Y-134866322D01*
X188248594Y-134970500D01*
X188244353Y-135000000D01*
X188245615Y-135008777D01*
X188263572Y-135133677D01*
X188263573Y-135133681D01*
X188264835Y-135142457D01*
X188268519Y-135150525D01*
X188268520Y-135150526D01*
X188302055Y-135223958D01*
X188324623Y-135273373D01*
X188330430Y-135280075D01*
X188330431Y-135280076D01*
X188410160Y-135372089D01*
X188437768Y-135427654D01*
X188435000Y-135489639D01*
X188402550Y-135542522D01*
X188348542Y-135573065D01*
X188328450Y-135578448D01*
X188325000Y-135591326D01*
X188325000Y-136283674D01*
X188328450Y-136296549D01*
X188341326Y-136300000D01*
X188958673Y-136300000D01*
X188971548Y-136296549D01*
X188974999Y-136283674D01*
X188974999Y-136221247D01*
X188974743Y-136215613D01*
X188969184Y-136154429D01*
X188966638Y-136141630D01*
X188920251Y-135992767D01*
X188914135Y-135979179D01*
X188833954Y-135846543D01*
X188824771Y-135834822D01*
X188715177Y-135725228D01*
X188711196Y-135722109D01*
X188673988Y-135674019D01*
X188664114Y-135614023D01*
X188683949Y-135556545D01*
X188728723Y-135515407D01*
X188787671Y-135500500D01*
X188813090Y-135500500D01*
X188821961Y-135500500D01*
X188960053Y-135459953D01*
X189081128Y-135382143D01*
X189175377Y-135273373D01*
X189235165Y-135142457D01*
X189255647Y-135000000D01*
X189235165Y-134857543D01*
X189175377Y-134726627D01*
X189081128Y-134617857D01*
X189081128Y-134617856D01*
X189082970Y-134616260D01*
X189061726Y-134587917D01*
X189050500Y-134536360D01*
X189050500Y-134036608D01*
X189059939Y-133989155D01*
X189086819Y-133948927D01*
X189336295Y-133699451D01*
X190606407Y-132429337D01*
X190660250Y-132397727D01*
X190722679Y-132396364D01*
X190777856Y-132425599D01*
X190811789Y-132478017D01*
X190836182Y-132551630D01*
X190842246Y-132564633D01*
X190923632Y-132696580D01*
X190932537Y-132707842D01*
X191042157Y-132817462D01*
X191053419Y-132826367D01*
X191185366Y-132907753D01*
X191198374Y-132913819D01*
X191345969Y-132962727D01*
X191359125Y-132965543D01*
X191448555Y-132974680D01*
X191454832Y-132975000D01*
X191458674Y-132975000D01*
X191471549Y-132971549D01*
X191475000Y-132958674D01*
X191475000Y-131874000D01*
X191491613Y-131812000D01*
X191537000Y-131766613D01*
X191599000Y-131750000D01*
X191851000Y-131750000D01*
X191913000Y-131766613D01*
G37*
%TD.AperFunction*%
%TA.AperFunction,Conductor*%
G36*
X198750088Y-134646202D02*
G01*
X198788241Y-134693709D01*
X198820256Y-134763812D01*
X198824623Y-134773373D01*
X198830430Y-134780075D01*
X198830431Y-134780076D01*
X198913065Y-134875442D01*
X198913067Y-134875444D01*
X198918872Y-134882143D01*
X199039947Y-134959953D01*
X199178039Y-135000500D01*
X199313090Y-135000500D01*
X199321961Y-135000500D01*
X199460053Y-134959953D01*
X199581128Y-134882143D01*
X199656287Y-134795403D01*
X199698488Y-134763812D01*
X199750000Y-134752606D01*
X199801512Y-134763812D01*
X199843712Y-134795403D01*
X199849811Y-134802442D01*
X199913065Y-134875442D01*
X199913067Y-134875444D01*
X199918872Y-134882143D01*
X200039947Y-134959953D01*
X200178039Y-135000500D01*
X200313090Y-135000500D01*
X200321961Y-135000500D01*
X200460053Y-134959953D01*
X200548056Y-134903396D01*
X200604590Y-134884159D01*
X200663564Y-134893579D01*
X200711295Y-134929475D01*
X200736710Y-134983519D01*
X200738066Y-134990335D01*
X200740485Y-135002495D01*
X200747268Y-135012647D01*
X200751370Y-135022550D01*
X200760808Y-135070000D01*
X200751370Y-135117450D01*
X200747267Y-135127353D01*
X200740485Y-135137505D01*
X200738103Y-135149479D01*
X200738102Y-135149482D01*
X200725689Y-135211886D01*
X200725688Y-135211892D01*
X200724500Y-135217867D01*
X200724500Y-135223958D01*
X200724500Y-135223963D01*
X200724500Y-135416041D01*
X200724500Y-135416050D01*
X200724501Y-135422132D01*
X200725687Y-135428095D01*
X200725688Y-135428104D01*
X200738102Y-135490518D01*
X200738103Y-135490521D01*
X200740485Y-135502495D01*
X200747267Y-135512646D01*
X200751370Y-135522550D01*
X200760808Y-135570000D01*
X200751370Y-135617450D01*
X200747267Y-135627353D01*
X200740485Y-135637505D01*
X200738103Y-135649479D01*
X200738102Y-135649482D01*
X200725689Y-135711886D01*
X200725688Y-135711892D01*
X200724500Y-135717867D01*
X200724500Y-135723958D01*
X200724500Y-135723963D01*
X200724500Y-135916041D01*
X200724500Y-135916050D01*
X200724501Y-135922132D01*
X200725687Y-135928095D01*
X200725688Y-135928104D01*
X200738102Y-135990518D01*
X200738103Y-135990521D01*
X200740485Y-136002495D01*
X200747267Y-136012646D01*
X200751370Y-136022550D01*
X200760808Y-136070000D01*
X200751370Y-136117450D01*
X200747267Y-136127353D01*
X200740485Y-136137505D01*
X200738103Y-136149479D01*
X200738102Y-136149482D01*
X200725689Y-136211886D01*
X200725688Y-136211892D01*
X200724500Y-136217867D01*
X200724500Y-136319117D01*
X200724501Y-136395499D01*
X200707888Y-136457500D01*
X200662501Y-136502887D01*
X200600501Y-136519500D01*
X198553949Y-136519500D01*
X198550368Y-136519251D01*
X198544328Y-136517227D01*
X198532852Y-136517757D01*
X198532849Y-136517757D01*
X198498013Y-136519368D01*
X198492287Y-136519500D01*
X198474248Y-136519500D01*
X198468622Y-136520551D01*
X198467731Y-136520634D01*
X198462024Y-136521031D01*
X198443574Y-136521884D01*
X198443571Y-136521884D01*
X198432101Y-136522415D01*
X198421595Y-136527053D01*
X198414232Y-136528785D01*
X198410017Y-136530090D01*
X198402949Y-136532828D01*
X198391659Y-136534939D01*
X198381893Y-136540984D01*
X198381886Y-136540988D01*
X198368946Y-136549000D01*
X198353767Y-136557001D01*
X198339836Y-136563152D01*
X198339829Y-136563156D01*
X198329327Y-136567794D01*
X198321415Y-136575705D01*
X198268693Y-136596131D01*
X198212155Y-136590892D01*
X198163880Y-136561001D01*
X197941162Y-136338283D01*
X197941160Y-136338280D01*
X197939025Y-136336145D01*
X197931308Y-136327680D01*
X197929732Y-136325783D01*
X197924143Y-136315747D01*
X197915307Y-136308409D01*
X197915305Y-136308407D01*
X197896023Y-136292396D01*
X197887560Y-136284680D01*
X197576606Y-135973726D01*
X197544512Y-135918139D01*
X197544512Y-135853951D01*
X197576606Y-135798364D01*
X197999528Y-135375442D01*
X198425823Y-134949146D01*
X198428522Y-134946798D01*
X198434228Y-134943958D01*
X198465487Y-134909667D01*
X198469402Y-134905567D01*
X198482174Y-134892797D01*
X198485422Y-134888054D01*
X198485965Y-134887401D01*
X198489733Y-134883072D01*
X198502174Y-134869425D01*
X198502173Y-134869425D01*
X198509916Y-134860933D01*
X198514067Y-134850214D01*
X198518070Y-134843751D01*
X198520077Y-134839944D01*
X198523158Y-134832965D01*
X198529656Y-134823481D01*
X198535772Y-134797472D01*
X198540843Y-134781097D01*
X198550500Y-134756173D01*
X198550500Y-134744677D01*
X198551894Y-134737221D01*
X198553791Y-134720870D01*
X198554497Y-134717867D01*
X198554738Y-134716840D01*
X198582828Y-134662773D01*
X198633280Y-134628611D01*
X198693914Y-134622604D01*
X198750088Y-134646202D01*
G37*
%TD.AperFunction*%
%TA.AperFunction,Conductor*%
G36*
X184559158Y-134970193D02*
G01*
X184610804Y-135015947D01*
X184630000Y-135082221D01*
X184630000Y-135516000D01*
X184613387Y-135578000D01*
X184568000Y-135623387D01*
X184506000Y-135640000D01*
X183983916Y-135640000D01*
X183931511Y-135628382D01*
X183888927Y-135595706D01*
X183865916Y-135551503D01*
X183865687Y-135549764D01*
X183807698Y-135409767D01*
X183753770Y-135339487D01*
X183728743Y-135276154D01*
X183740934Y-135209156D01*
X183786666Y-135158699D01*
X183852146Y-135140000D01*
X184113674Y-135140000D01*
X184126549Y-135136549D01*
X184130000Y-135123674D01*
X184130000Y-135094500D01*
X184146613Y-135032500D01*
X184192000Y-134987113D01*
X184254000Y-134970500D01*
X184393623Y-134970500D01*
X184397372Y-134970500D01*
X184491053Y-134959125D01*
X184559158Y-134970193D01*
G37*
%TD.AperFunction*%
%TA.AperFunction,Conductor*%
G36*
X196301512Y-134013812D02*
G01*
X196343713Y-134045404D01*
X196413065Y-134125442D01*
X196413067Y-134125444D01*
X196418872Y-134132143D01*
X196539947Y-134209953D01*
X196678039Y-134250500D01*
X196813090Y-134250500D01*
X196821961Y-134250500D01*
X196960053Y-134209953D01*
X196983318Y-134195001D01*
X197038572Y-134175877D01*
X197096446Y-134184197D01*
X197144073Y-134218113D01*
X197200180Y-134282865D01*
X197200182Y-134282867D01*
X197205987Y-134289566D01*
X197327062Y-134367376D01*
X197465154Y-134407923D01*
X197600205Y-134407923D01*
X197609076Y-134407923D01*
X197747168Y-134367376D01*
X197758459Y-134360119D01*
X197821072Y-134340513D01*
X197884925Y-134355601D01*
X197932141Y-134401160D01*
X197949500Y-134464434D01*
X197949500Y-134524166D01*
X197940061Y-134571619D01*
X197913181Y-134611847D01*
X197151634Y-135373393D01*
X197096047Y-135405487D01*
X197031859Y-135405487D01*
X196976272Y-135373393D01*
X195979235Y-134376356D01*
X195949979Y-134329928D01*
X195943627Y-134275420D01*
X195961421Y-134223508D01*
X195999875Y-134184360D01*
X196081128Y-134132143D01*
X196156287Y-134045403D01*
X196198488Y-134013812D01*
X196250000Y-134002606D01*
X196301512Y-134013812D01*
G37*
%TD.AperFunction*%
%TA.AperFunction,Conductor*%
G36*
X203948885Y-129065436D02*
G01*
X203986485Y-129109459D01*
X204000000Y-129165754D01*
X204000000Y-133467118D01*
X203986403Y-133523573D01*
X203948593Y-133567648D01*
X203894863Y-133589675D01*
X203836997Y-133584824D01*
X203784030Y-133567272D01*
X203770874Y-133564456D01*
X203681444Y-133555319D01*
X203675168Y-133555000D01*
X203646326Y-133555000D01*
X203633450Y-133558450D01*
X203630000Y-133571326D01*
X203630000Y-134631000D01*
X203613387Y-134693000D01*
X203568000Y-134738387D01*
X203506000Y-134755000D01*
X203254000Y-134755000D01*
X203192000Y-134738387D01*
X203146613Y-134693000D01*
X203130000Y-134631000D01*
X203130000Y-133571327D01*
X203126549Y-133558451D01*
X203113674Y-133555001D01*
X203084835Y-133555001D01*
X203078552Y-133555321D01*
X202989132Y-133564455D01*
X202975963Y-133567274D01*
X202828374Y-133616180D01*
X202815372Y-133622243D01*
X202746439Y-133664762D01*
X202686450Y-133683118D01*
X202625155Y-133669762D01*
X202578240Y-133628114D01*
X202530408Y-133556529D01*
X202523624Y-133546376D01*
X202519753Y-133543789D01*
X202494030Y-133502952D01*
X202487702Y-133448397D01*
X202504589Y-133399276D01*
X202509916Y-133393433D01*
X202514067Y-133382714D01*
X202518070Y-133376251D01*
X202520077Y-133372444D01*
X202523158Y-133365465D01*
X202529656Y-133355981D01*
X202535772Y-133329972D01*
X202540843Y-133313597D01*
X202550500Y-133288673D01*
X202550500Y-133277177D01*
X202551896Y-133269710D01*
X202552396Y-133265405D01*
X202552747Y-133257807D01*
X202555379Y-133246619D01*
X202551689Y-133220167D01*
X202550500Y-133203035D01*
X202550500Y-129750833D01*
X202559939Y-129703380D01*
X202586819Y-129663152D01*
X202699471Y-129550500D01*
X203038154Y-129211815D01*
X203078379Y-129184938D01*
X203125827Y-129175499D01*
X203556518Y-129175499D01*
X203650304Y-129160646D01*
X203763342Y-129103050D01*
X203788319Y-129078072D01*
X203837682Y-129047823D01*
X203895398Y-129043281D01*
X203948885Y-129065436D01*
G37*
%TD.AperFunction*%
%TA.AperFunction,Conductor*%
G36*
X201443481Y-129175500D02*
G01*
X201906518Y-129175499D01*
X201911326Y-129174737D01*
X201916188Y-129174355D01*
X201916313Y-129175954D01*
X201967318Y-129180296D01*
X202017403Y-129212338D01*
X202046815Y-129264013D01*
X202048790Y-129323438D01*
X202022874Y-129376951D01*
X202021875Y-129378153D01*
X202017826Y-129382203D01*
X202014592Y-129386921D01*
X202014006Y-129387628D01*
X202010259Y-129391934D01*
X202007852Y-129394575D01*
X201990084Y-129414067D01*
X201985935Y-129424773D01*
X201981956Y-129431201D01*
X201979895Y-129435112D01*
X201976834Y-129442043D01*
X201970344Y-129451519D01*
X201967714Y-129462696D01*
X201967711Y-129462705D01*
X201964228Y-129477516D01*
X201959150Y-129493915D01*
X201953651Y-129508109D01*
X201953650Y-129508114D01*
X201949500Y-129518827D01*
X201949500Y-129530317D01*
X201948103Y-129537791D01*
X201947603Y-129542094D01*
X201947251Y-129549697D01*
X201944621Y-129560881D01*
X201946208Y-129572258D01*
X201946208Y-129572262D01*
X201948311Y-129587333D01*
X201949500Y-129604465D01*
X201949500Y-133056666D01*
X201940061Y-133104119D01*
X201913181Y-133144347D01*
X201624346Y-133433181D01*
X201584118Y-133460061D01*
X201536665Y-133469500D01*
X200978957Y-133469500D01*
X200978946Y-133469500D01*
X200972868Y-133469501D01*
X200966904Y-133470687D01*
X200966896Y-133470688D01*
X200904481Y-133483102D01*
X200904476Y-133483103D01*
X200892505Y-133485485D01*
X200882353Y-133492267D01*
X200882351Y-133492269D01*
X200811529Y-133539591D01*
X200811526Y-133539593D01*
X200801376Y-133546376D01*
X200794593Y-133556526D01*
X200794591Y-133556529D01*
X200747269Y-133627351D01*
X200747267Y-133627353D01*
X200740485Y-133637505D01*
X200738102Y-133649481D01*
X200738102Y-133649483D01*
X200725689Y-133711886D01*
X200725688Y-133711892D01*
X200724500Y-133717867D01*
X200724500Y-133723961D01*
X200724500Y-133723962D01*
X200724501Y-133895499D01*
X200707888Y-133957500D01*
X200662501Y-134002887D01*
X200600501Y-134019500D01*
X200481856Y-134019500D01*
X200478275Y-134019251D01*
X200472235Y-134017227D01*
X200460759Y-134017757D01*
X200460756Y-134017757D01*
X200425920Y-134019368D01*
X200420194Y-134019500D01*
X200407903Y-134019500D01*
X200372969Y-134014477D01*
X200370704Y-134013812D01*
X200359200Y-134010434D01*
X200330473Y-134001999D01*
X200330471Y-134001998D01*
X200321961Y-133999500D01*
X200178039Y-133999500D01*
X200169529Y-134001998D01*
X200168414Y-134002159D01*
X200107433Y-133995603D01*
X200057054Y-133960623D01*
X200029601Y-133905779D01*
X200031790Y-133844486D01*
X200063085Y-133791741D01*
X200425827Y-133428999D01*
X200428523Y-133426653D01*
X200434228Y-133423814D01*
X200465456Y-133389557D01*
X200469389Y-133385438D01*
X200482175Y-133372653D01*
X200485422Y-133367910D01*
X200485967Y-133367255D01*
X200489719Y-133362941D01*
X200509916Y-133340789D01*
X200514068Y-133330067D01*
X200518081Y-133323587D01*
X200520080Y-133319796D01*
X200523161Y-133312817D01*
X200529657Y-133303336D01*
X200535773Y-133277328D01*
X200540847Y-133260943D01*
X200550500Y-133236029D01*
X200550500Y-133236028D01*
X200550501Y-133236025D01*
X200552238Y-133236698D01*
X200563614Y-133208775D01*
X200567450Y-133203035D01*
X200584515Y-133177495D01*
X200600500Y-133097133D01*
X200600499Y-131717868D01*
X200584515Y-131637505D01*
X200523624Y-131546376D01*
X200448785Y-131496370D01*
X200442648Y-131492269D01*
X200442647Y-131492268D01*
X200432495Y-131485485D01*
X200420517Y-131483102D01*
X200420516Y-131483102D01*
X200358113Y-131470689D01*
X200358108Y-131470688D01*
X200352133Y-131469500D01*
X200346036Y-131469500D01*
X200153958Y-131469500D01*
X200153948Y-131469500D01*
X200147868Y-131469501D01*
X200141905Y-131470687D01*
X200141895Y-131470688D01*
X200068352Y-131485316D01*
X200016470Y-131484566D01*
X199969437Y-131462653D01*
X199954603Y-131451451D01*
X199941648Y-131440177D01*
X199913652Y-131412181D01*
X199883402Y-131362818D01*
X199878860Y-131305102D01*
X199901015Y-131251615D01*
X199945038Y-131214015D01*
X200001333Y-131200500D01*
X200528610Y-131200500D01*
X200533488Y-131200500D01*
X200633126Y-131184719D01*
X200753220Y-131123528D01*
X200848528Y-131028220D01*
X200909719Y-130908126D01*
X200925500Y-130808488D01*
X200925500Y-130291512D01*
X200909719Y-130191874D01*
X200848528Y-130071780D01*
X200829574Y-130052826D01*
X200800129Y-130005856D01*
X200794093Y-129950749D01*
X200812675Y-129898519D01*
X200852159Y-129859606D01*
X200946582Y-129801365D01*
X200957842Y-129792462D01*
X201067462Y-129682842D01*
X201076367Y-129671580D01*
X201157753Y-129539633D01*
X201163819Y-129526625D01*
X201212727Y-129379030D01*
X201215543Y-129365874D01*
X201224993Y-129273376D01*
X201249175Y-129211546D01*
X201301788Y-129171052D01*
X201367747Y-129163505D01*
X201443481Y-129175500D01*
G37*
%TD.AperFunction*%
%TA.AperFunction,Conductor*%
G36*
X197848385Y-129381938D02*
G01*
X197885985Y-129425961D01*
X197899500Y-129482256D01*
X197899500Y-129604266D01*
X197899769Y-129607134D01*
X197899770Y-129607149D01*
X197901649Y-129627187D01*
X197901649Y-129627191D01*
X197902354Y-129634699D01*
X197904842Y-129641811D01*
X197904844Y-129641817D01*
X197944138Y-129754113D01*
X197944139Y-129754116D01*
X197947207Y-129762882D01*
X197952722Y-129770355D01*
X197952724Y-129770358D01*
X197982848Y-129811174D01*
X198027850Y-129872150D01*
X198137118Y-129952793D01*
X198265301Y-129997646D01*
X198295734Y-130000500D01*
X199001373Y-130000500D01*
X199004266Y-130000500D01*
X199034699Y-129997646D01*
X199036118Y-129997149D01*
X199096247Y-129999679D01*
X199149806Y-130032981D01*
X199180055Y-130088321D01*
X199179172Y-130151382D01*
X199147383Y-130205852D01*
X198170397Y-131182838D01*
X198130169Y-131209718D01*
X198082717Y-131219157D01*
X198035264Y-131209719D01*
X197982612Y-131187910D01*
X197967042Y-131183738D01*
X197917552Y-131177222D01*
X197903873Y-131179328D01*
X197900000Y-131192616D01*
X197900000Y-131712790D01*
X197899832Y-131716194D01*
X197899500Y-131717867D01*
X197899500Y-132397727D01*
X197899501Y-132433500D01*
X197882888Y-132495500D01*
X197837501Y-132540887D01*
X197775501Y-132557500D01*
X197724500Y-132557500D01*
X197662500Y-132540887D01*
X197617113Y-132495500D01*
X197600500Y-132433500D01*
X197600499Y-131722959D01*
X197600499Y-131717868D01*
X197600166Y-131716198D01*
X197600000Y-131712801D01*
X197600000Y-131192616D01*
X197596126Y-131179328D01*
X197582447Y-131177222D01*
X197532957Y-131183738D01*
X197517380Y-131187912D01*
X197392529Y-131239626D01*
X197378571Y-131247684D01*
X197271347Y-131329961D01*
X197259956Y-131341352D01*
X197192513Y-131429245D01*
X197159618Y-131459059D01*
X197118329Y-131475375D01*
X197079482Y-131483101D01*
X197079473Y-131483104D01*
X197067505Y-131485485D01*
X197057356Y-131492265D01*
X197047448Y-131496370D01*
X196999998Y-131505808D01*
X196952548Y-131496370D01*
X196942648Y-131492269D01*
X196932495Y-131485485D01*
X196920517Y-131483102D01*
X196920514Y-131483101D01*
X196858113Y-131470689D01*
X196858108Y-131470688D01*
X196852133Y-131469500D01*
X196846036Y-131469500D01*
X196653958Y-131469500D01*
X196653948Y-131469500D01*
X196647868Y-131469501D01*
X196641905Y-131470687D01*
X196641895Y-131470688D01*
X196579479Y-131483103D01*
X196579477Y-131483103D01*
X196567505Y-131485485D01*
X196557356Y-131492266D01*
X196547448Y-131496370D01*
X196499998Y-131505808D01*
X196452548Y-131496370D01*
X196442648Y-131492269D01*
X196432495Y-131485485D01*
X196420517Y-131483102D01*
X196420514Y-131483101D01*
X196358113Y-131470689D01*
X196358108Y-131470688D01*
X196352133Y-131469500D01*
X196346036Y-131469500D01*
X196153958Y-131469500D01*
X196153948Y-131469500D01*
X196147868Y-131469501D01*
X196141905Y-131470687D01*
X196141895Y-131470688D01*
X196079479Y-131483103D01*
X196079477Y-131483103D01*
X196067505Y-131485485D01*
X196057356Y-131492266D01*
X196047448Y-131496370D01*
X195999998Y-131505808D01*
X195952548Y-131496370D01*
X195942648Y-131492269D01*
X195932495Y-131485485D01*
X195920517Y-131483102D01*
X195920514Y-131483101D01*
X195858113Y-131470689D01*
X195858108Y-131470688D01*
X195852133Y-131469500D01*
X195846036Y-131469500D01*
X195647868Y-131469501D01*
X195647867Y-131467085D01*
X195595858Y-131458421D01*
X195546269Y-131417555D01*
X195523792Y-131357356D01*
X195531791Y-131309857D01*
X195528982Y-131309033D01*
X195531479Y-131300526D01*
X195535165Y-131292457D01*
X195555647Y-131150000D01*
X195535165Y-131007543D01*
X195475377Y-130876627D01*
X195381128Y-130767857D01*
X195377894Y-130765779D01*
X195345262Y-130719486D01*
X195337622Y-130660363D01*
X195358456Y-130604508D01*
X195402948Y-130564830D01*
X195460814Y-130550500D01*
X196419678Y-130550500D01*
X196429434Y-130550500D01*
X196450496Y-130543656D01*
X196469424Y-130539111D01*
X196491305Y-130535646D01*
X196511046Y-130525586D01*
X196529015Y-130518143D01*
X196550091Y-130511296D01*
X196568017Y-130498271D01*
X196584603Y-130488107D01*
X196604343Y-130478050D01*
X196626906Y-130455486D01*
X196626910Y-130455484D01*
X197687818Y-129394575D01*
X197737182Y-129364325D01*
X197794898Y-129359783D01*
X197848385Y-129381938D01*
G37*
%TD.AperFunction*%
%TA.AperFunction,Conductor*%
G36*
X193428326Y-128319506D02*
G01*
X193474074Y-128370699D01*
X193485574Y-128438384D01*
X193459301Y-128501813D01*
X193403308Y-128541542D01*
X193395886Y-128544138D01*
X193395880Y-128544140D01*
X193387118Y-128547207D01*
X193379646Y-128552720D01*
X193379641Y-128552724D01*
X193285327Y-128622331D01*
X193285324Y-128622333D01*
X193277850Y-128627850D01*
X193272333Y-128635324D01*
X193272331Y-128635327D01*
X193202724Y-128729641D01*
X193202720Y-128729646D01*
X193197207Y-128737118D01*
X193194140Y-128745880D01*
X193194138Y-128745886D01*
X193154844Y-128858182D01*
X193154842Y-128858189D01*
X193152354Y-128865301D01*
X193151650Y-128872807D01*
X193151649Y-128872812D01*
X193149770Y-128892850D01*
X193149500Y-128895734D01*
X193149500Y-129604266D01*
X193150405Y-129613919D01*
X193137991Y-129680686D01*
X193092266Y-129730902D01*
X193026948Y-129749500D01*
X192217254Y-129749500D01*
X192169801Y-129740061D01*
X192129573Y-129713181D01*
X191886819Y-129470427D01*
X191859939Y-129430199D01*
X191850500Y-129382746D01*
X191850500Y-128898627D01*
X191850500Y-128895734D01*
X191847646Y-128865301D01*
X191802793Y-128737118D01*
X191777783Y-128703231D01*
X191747979Y-128662847D01*
X191722150Y-128627850D01*
X191714672Y-128622331D01*
X191620358Y-128552724D01*
X191620355Y-128552722D01*
X191612882Y-128547207D01*
X191604116Y-128544139D01*
X191604113Y-128544138D01*
X191596692Y-128541542D01*
X191540699Y-128501813D01*
X191514426Y-128438384D01*
X191525926Y-128370699D01*
X191571674Y-128319506D01*
X191637646Y-128300500D01*
X193362354Y-128300500D01*
X193428326Y-128319506D01*
G37*
%TD.AperFunction*%
%TA.AperFunction,Conductor*%
G36*
X200438000Y-128392113D02*
G01*
X200483387Y-128437500D01*
X200500000Y-128499500D01*
X200500000Y-129126000D01*
X200483387Y-129188000D01*
X200438000Y-129233387D01*
X200376000Y-129250000D01*
X200124000Y-129250000D01*
X200062000Y-129233387D01*
X200016613Y-129188000D01*
X200000000Y-129126000D01*
X200000000Y-128517754D01*
X200009439Y-128470301D01*
X200036319Y-128430073D01*
X200054573Y-128411819D01*
X200094801Y-128384939D01*
X200142254Y-128375500D01*
X200376000Y-128375500D01*
X200438000Y-128392113D01*
G37*
%TD.AperFunction*%
%TA.AperFunction,Conductor*%
G36*
X202734163Y-127420188D02*
G01*
X202772006Y-127464387D01*
X202791792Y-127503220D01*
X202796950Y-127513342D01*
X202886658Y-127603050D01*
X202907568Y-127613704D01*
X202956795Y-127638787D01*
X203006228Y-127684482D01*
X203024500Y-127749272D01*
X203024500Y-127750728D01*
X203006228Y-127815518D01*
X202956795Y-127861213D01*
X202895353Y-127892519D01*
X202895349Y-127892521D01*
X202886658Y-127896950D01*
X202879759Y-127903848D01*
X202879756Y-127903851D01*
X202803851Y-127979756D01*
X202803848Y-127979759D01*
X202796950Y-127986658D01*
X202792521Y-127995349D01*
X202792519Y-127995353D01*
X202743785Y-128090999D01*
X202739354Y-128099696D01*
X202737827Y-128109330D01*
X202737826Y-128109337D01*
X202725263Y-128188660D01*
X202725262Y-128188667D01*
X202724500Y-128193481D01*
X202724500Y-128198359D01*
X202724500Y-128624166D01*
X202715061Y-128671619D01*
X202688181Y-128711847D01*
X202485507Y-128914520D01*
X202432396Y-128945923D01*
X202370726Y-128947842D01*
X202315766Y-128919802D01*
X202281122Y-128868747D01*
X202276216Y-128816332D01*
X202274355Y-128816186D01*
X202274735Y-128811343D01*
X202275500Y-128806519D01*
X202275499Y-128193482D01*
X202260646Y-128099696D01*
X202219564Y-128019069D01*
X202206098Y-127959280D01*
X202222913Y-127900342D01*
X202265901Y-127856657D01*
X202303456Y-127833954D01*
X202315177Y-127824771D01*
X202424771Y-127715177D01*
X202433954Y-127703456D01*
X202514135Y-127570820D01*
X202520251Y-127557232D01*
X202543136Y-127483792D01*
X202572996Y-127433853D01*
X202622349Y-127403032D01*
X202680326Y-127398116D01*
X202734163Y-127420188D01*
G37*
%TD.AperFunction*%
%TA.AperFunction,Conductor*%
G36*
X188761989Y-124833690D02*
G01*
X188804365Y-124865768D01*
X188829419Y-124912641D01*
X188832548Y-124965698D01*
X188825263Y-125011691D01*
X188825262Y-125011698D01*
X188824500Y-125016512D01*
X188824500Y-125533488D01*
X188825262Y-125538302D01*
X188825263Y-125538308D01*
X188838753Y-125623484D01*
X188838754Y-125623489D01*
X188840281Y-125633126D01*
X188901472Y-125753220D01*
X188996780Y-125848528D01*
X189116874Y-125909719D01*
X189216512Y-125925500D01*
X189778610Y-125925500D01*
X189783488Y-125925500D01*
X189883126Y-125909719D01*
X190003220Y-125848528D01*
X190098528Y-125753220D01*
X190154582Y-125643206D01*
X190200278Y-125593773D01*
X190265068Y-125575500D01*
X190496342Y-125575500D01*
X190553092Y-125589248D01*
X190597258Y-125627445D01*
X190619046Y-125681620D01*
X190621927Y-125701393D01*
X190626154Y-125710041D01*
X190626156Y-125710045D01*
X190659017Y-125777262D01*
X190670841Y-125817882D01*
X190668322Y-125860114D01*
X190664229Y-125877515D01*
X190659150Y-125893915D01*
X190653651Y-125908109D01*
X190653650Y-125908114D01*
X190649500Y-125918827D01*
X190649500Y-125930317D01*
X190648103Y-125937791D01*
X190647603Y-125942094D01*
X190647251Y-125949697D01*
X190644621Y-125960881D01*
X190646208Y-125972258D01*
X190646208Y-125972262D01*
X190648311Y-125987333D01*
X190649500Y-126004465D01*
X190649500Y-126234932D01*
X190631227Y-126299722D01*
X190581794Y-126345417D01*
X190480477Y-126397040D01*
X190480473Y-126397042D01*
X190471780Y-126401472D01*
X190464881Y-126408370D01*
X190464878Y-126408373D01*
X190383374Y-126489877D01*
X190383371Y-126489880D01*
X190376472Y-126496780D01*
X190372041Y-126505474D01*
X190371663Y-126505996D01*
X190329213Y-126542777D01*
X190274890Y-126557056D01*
X190219840Y-126545903D01*
X190217507Y-126544837D01*
X190210053Y-126540047D01*
X190201550Y-126537550D01*
X190201545Y-126537548D01*
X190080473Y-126501999D01*
X190080470Y-126501998D01*
X190071961Y-126499500D01*
X189928039Y-126499500D01*
X189919530Y-126501998D01*
X189919526Y-126501999D01*
X189798461Y-126537547D01*
X189789947Y-126540047D01*
X189782484Y-126544842D01*
X189782484Y-126544843D01*
X189676329Y-126613064D01*
X189676325Y-126613066D01*
X189668872Y-126617857D01*
X189663070Y-126624551D01*
X189663065Y-126624557D01*
X189580431Y-126719923D01*
X189580428Y-126719927D01*
X189574623Y-126726627D01*
X189570941Y-126734689D01*
X189570938Y-126734694D01*
X189524362Y-126836681D01*
X189514835Y-126857543D01*
X189513573Y-126866316D01*
X189513572Y-126866322D01*
X189497120Y-126980754D01*
X189494353Y-127000000D01*
X189495615Y-127008777D01*
X189513572Y-127133677D01*
X189513573Y-127133681D01*
X189514835Y-127142457D01*
X189518519Y-127150525D01*
X189518520Y-127150526D01*
X189563948Y-127250000D01*
X189574623Y-127273373D01*
X189580430Y-127280075D01*
X189580431Y-127280076D01*
X189663065Y-127375442D01*
X189663067Y-127375444D01*
X189668872Y-127382143D01*
X189789947Y-127459953D01*
X189798461Y-127462453D01*
X189799011Y-127462704D01*
X189849859Y-127505507D01*
X189871300Y-127568419D01*
X189857172Y-127633366D01*
X189811536Y-127681687D01*
X189747502Y-127699500D01*
X186801857Y-127699500D01*
X186798276Y-127699251D01*
X186792236Y-127697227D01*
X186780760Y-127697757D01*
X186780757Y-127697757D01*
X186745921Y-127699368D01*
X186740195Y-127699500D01*
X186722156Y-127699500D01*
X186716530Y-127700551D01*
X186715639Y-127700634D01*
X186709932Y-127701031D01*
X186691482Y-127701884D01*
X186691479Y-127701884D01*
X186680009Y-127702415D01*
X186669503Y-127707053D01*
X186662140Y-127708785D01*
X186657925Y-127710090D01*
X186650857Y-127712828D01*
X186639567Y-127714939D01*
X186629801Y-127720984D01*
X186629794Y-127720988D01*
X186616854Y-127729000D01*
X186601675Y-127737001D01*
X186587744Y-127743152D01*
X186587737Y-127743156D01*
X186577235Y-127747794D01*
X186569115Y-127755912D01*
X186562857Y-127760200D01*
X186559422Y-127762921D01*
X186553813Y-127768033D01*
X186544048Y-127774081D01*
X186537124Y-127783248D01*
X186537122Y-127783251D01*
X186527949Y-127795398D01*
X186516679Y-127808348D01*
X185662181Y-128662847D01*
X185612818Y-128693097D01*
X185555102Y-128697639D01*
X185501615Y-128675484D01*
X185464015Y-128631461D01*
X185450500Y-128575166D01*
X185450500Y-127361348D01*
X185450500Y-127355252D01*
X185438867Y-127296769D01*
X185394552Y-127230448D01*
X185384398Y-127223663D01*
X185380534Y-127219799D01*
X185348440Y-127164212D01*
X185348440Y-127100024D01*
X185380534Y-127044437D01*
X186429116Y-125995856D01*
X187566352Y-124858619D01*
X187606581Y-124831739D01*
X187654034Y-124822300D01*
X188710075Y-124822300D01*
X188761989Y-124833690D01*
G37*
%TD.AperFunction*%
%TA.AperFunction,Conductor*%
G36*
X199127649Y-127403031D02*
G01*
X199177002Y-127433851D01*
X199206863Y-127483790D01*
X199229750Y-127557236D01*
X199235864Y-127570820D01*
X199316045Y-127703456D01*
X199325228Y-127715177D01*
X199384148Y-127774097D01*
X199416242Y-127829684D01*
X199416242Y-127893872D01*
X199384148Y-127949459D01*
X198870426Y-128463181D01*
X198830198Y-128490061D01*
X198782745Y-128499500D01*
X198295734Y-128499500D01*
X198292859Y-128499769D01*
X198292850Y-128499770D01*
X198272812Y-128501649D01*
X198272807Y-128501650D01*
X198265301Y-128502354D01*
X198258189Y-128504842D01*
X198258182Y-128504844D01*
X198145886Y-128544138D01*
X198145880Y-128544140D01*
X198137118Y-128547207D01*
X198129646Y-128552720D01*
X198129641Y-128552724D01*
X198125132Y-128556053D01*
X198061921Y-128579843D01*
X197995618Y-128566976D01*
X197945894Y-128521269D01*
X197927500Y-128456282D01*
X197927500Y-127773762D01*
X197941015Y-127717467D01*
X197978615Y-127673444D01*
X198032102Y-127651289D01*
X198089818Y-127655831D01*
X198090999Y-127656214D01*
X198099696Y-127660646D01*
X198193481Y-127675500D01*
X198656518Y-127675499D01*
X198750304Y-127660646D01*
X198863342Y-127603050D01*
X198953050Y-127513342D01*
X198977994Y-127464386D01*
X199015834Y-127420189D01*
X199069671Y-127398117D01*
X199127649Y-127403031D01*
G37*
%TD.AperFunction*%
%TA.AperFunction,Conductor*%
G36*
X192596212Y-124246857D02*
G01*
X192607356Y-124250000D01*
X193876000Y-124250000D01*
X193938000Y-124266613D01*
X193983387Y-124312000D01*
X194000000Y-124374000D01*
X194000000Y-124626000D01*
X193983387Y-124688000D01*
X193938000Y-124733387D01*
X193876000Y-124750000D01*
X192607356Y-124750000D01*
X192594213Y-124753706D01*
X192592807Y-124760776D01*
X192634041Y-124902705D01*
X192640189Y-124916912D01*
X192715844Y-125044838D01*
X192725335Y-125057074D01*
X192830423Y-125162162D01*
X192839000Y-125168815D01*
X192874355Y-125212242D01*
X192887000Y-125266795D01*
X192887000Y-125633260D01*
X192887645Y-125637690D01*
X192887646Y-125637697D01*
X192893681Y-125679116D01*
X192896927Y-125701393D01*
X192901154Y-125710041D01*
X192901156Y-125710045D01*
X192943789Y-125797253D01*
X192943791Y-125797256D01*
X192948302Y-125806483D01*
X192955567Y-125813748D01*
X192965131Y-125823312D01*
X192996137Y-125875084D01*
X192999032Y-125935361D01*
X192973132Y-125989867D01*
X192924570Y-126025691D01*
X192864848Y-126034351D01*
X192776447Y-126025319D01*
X192770168Y-126025000D01*
X192766326Y-126025000D01*
X192753450Y-126028450D01*
X192750000Y-126041326D01*
X192750000Y-126733674D01*
X192753450Y-126746549D01*
X192766326Y-126750000D01*
X193433673Y-126750000D01*
X193446548Y-126746549D01*
X193449999Y-126733674D01*
X193449999Y-126704835D01*
X193449678Y-126698552D01*
X193440544Y-126609132D01*
X193437725Y-126595963D01*
X193388819Y-126448374D01*
X193382753Y-126435366D01*
X193301367Y-126303419D01*
X193292462Y-126292157D01*
X193182838Y-126182533D01*
X193169223Y-126171768D01*
X193132272Y-126123615D01*
X193122603Y-126063693D01*
X193142530Y-126006361D01*
X193187280Y-125965355D01*
X193246131Y-125950500D01*
X194291278Y-125950500D01*
X194295760Y-125950500D01*
X194363893Y-125940573D01*
X194468983Y-125889198D01*
X194551698Y-125806483D01*
X194554528Y-125800693D01*
X194596668Y-125764249D01*
X194653419Y-125750500D01*
X195047390Y-125750500D01*
X195094843Y-125759939D01*
X195135070Y-125786818D01*
X195196780Y-125848528D01*
X195316874Y-125909719D01*
X195416512Y-125925500D01*
X195874167Y-125925500D01*
X195921620Y-125934939D01*
X195961848Y-125961819D01*
X196188427Y-126188398D01*
X196218677Y-126237760D01*
X196223219Y-126295476D01*
X196201065Y-126348963D01*
X196157042Y-126386563D01*
X196145356Y-126392517D01*
X196145350Y-126392520D01*
X196136658Y-126396950D01*
X196129759Y-126403848D01*
X196129756Y-126403851D01*
X196053851Y-126479756D01*
X196053848Y-126479759D01*
X196046950Y-126486658D01*
X196042521Y-126495349D01*
X196042519Y-126495353D01*
X196003745Y-126571452D01*
X195989354Y-126599696D01*
X195987827Y-126609330D01*
X195987826Y-126609337D01*
X195975263Y-126688660D01*
X195975262Y-126688667D01*
X195974500Y-126693481D01*
X195974500Y-126698359D01*
X195974500Y-127124166D01*
X195965061Y-127171619D01*
X195938181Y-127211847D01*
X195735507Y-127414520D01*
X195682396Y-127445923D01*
X195620726Y-127447842D01*
X195565766Y-127419802D01*
X195531122Y-127368747D01*
X195526216Y-127316332D01*
X195524355Y-127316186D01*
X195524735Y-127311343D01*
X195525500Y-127306519D01*
X195525499Y-126693482D01*
X195510646Y-126599696D01*
X195493552Y-126566148D01*
X195462903Y-126505996D01*
X195453050Y-126486658D01*
X195363342Y-126396950D01*
X195342956Y-126386563D01*
X195293191Y-126361206D01*
X195250304Y-126339354D01*
X195240667Y-126337827D01*
X195240662Y-126337826D01*
X195161339Y-126325263D01*
X195161333Y-126325262D01*
X195156519Y-126324500D01*
X195151640Y-126324500D01*
X194698352Y-126324500D01*
X194698339Y-126324500D01*
X194693482Y-126324501D01*
X194688680Y-126325261D01*
X194688673Y-126325262D01*
X194609331Y-126337828D01*
X194609330Y-126337828D01*
X194599696Y-126339354D01*
X194591010Y-126343779D01*
X194591003Y-126343782D01*
X194495353Y-126392519D01*
X194495349Y-126392521D01*
X194486658Y-126396950D01*
X194479759Y-126403848D01*
X194479756Y-126403851D01*
X194403851Y-126479756D01*
X194403848Y-126479759D01*
X194396950Y-126486658D01*
X194392521Y-126495349D01*
X194392519Y-126495353D01*
X194353745Y-126571452D01*
X194339354Y-126599696D01*
X194337827Y-126609330D01*
X194337826Y-126609337D01*
X194325263Y-126688660D01*
X194325262Y-126688667D01*
X194324500Y-126693481D01*
X194324500Y-126698359D01*
X194324500Y-127124166D01*
X194315061Y-127171619D01*
X194288181Y-127211847D01*
X193836848Y-127663181D01*
X193796620Y-127690061D01*
X193749167Y-127699500D01*
X193511539Y-127699500D01*
X193455084Y-127685903D01*
X193411009Y-127648093D01*
X193388982Y-127594364D01*
X193393833Y-127536497D01*
X193437727Y-127404030D01*
X193440543Y-127390874D01*
X193449680Y-127301444D01*
X193450000Y-127295168D01*
X193450000Y-127266326D01*
X193446549Y-127253450D01*
X193433674Y-127250000D01*
X192374000Y-127250000D01*
X192312000Y-127233387D01*
X192266613Y-127188000D01*
X192250000Y-127126000D01*
X192250000Y-126041327D01*
X192246211Y-126027187D01*
X192238783Y-126019759D01*
X192206689Y-125964171D01*
X192206689Y-125899983D01*
X192238782Y-125844398D01*
X192276698Y-125806483D01*
X192328073Y-125701393D01*
X192338000Y-125633260D01*
X192338000Y-125266740D01*
X192328073Y-125198607D01*
X192276698Y-125093517D01*
X192193983Y-125010802D01*
X192184756Y-125006291D01*
X192184753Y-125006289D01*
X192097545Y-124963656D01*
X192097541Y-124963654D01*
X192088893Y-124959427D01*
X192079361Y-124958038D01*
X192070165Y-124955197D01*
X192070539Y-124953985D01*
X192016624Y-124929462D01*
X191978806Y-124871672D01*
X191977768Y-124802615D01*
X192010650Y-124748910D01*
X192012574Y-124747719D01*
X192028675Y-124726395D01*
X192039936Y-124713455D01*
X192474874Y-124278517D01*
X192531244Y-124246219D01*
X192596212Y-124246857D01*
G37*
%TD.AperFunction*%
%TA.AperFunction,Conductor*%
G36*
X200225318Y-125169403D02*
G01*
X200274681Y-125199653D01*
X200576077Y-125501049D01*
X200601164Y-125537162D01*
X200612000Y-125579482D01*
X200612000Y-125583260D01*
X200621927Y-125651393D01*
X200626154Y-125660041D01*
X200626156Y-125660045D01*
X200668789Y-125747253D01*
X200668791Y-125747256D01*
X200673302Y-125756483D01*
X200756017Y-125839198D01*
X200765246Y-125843710D01*
X200765248Y-125843711D01*
X200796850Y-125859160D01*
X200841797Y-125896436D01*
X200864700Y-125950151D01*
X200860479Y-126008391D01*
X200830072Y-126058242D01*
X200783875Y-126104439D01*
X200737821Y-126133562D01*
X200683729Y-126140130D01*
X200632044Y-126122875D01*
X200570820Y-126085864D01*
X200557232Y-126079748D01*
X200408372Y-126033361D01*
X200395568Y-126030815D01*
X200338856Y-126025661D01*
X200328450Y-126028450D01*
X200325000Y-126041326D01*
X200325000Y-126733674D01*
X200328450Y-126746549D01*
X200341326Y-126750000D01*
X200423500Y-126750000D01*
X200485500Y-126766613D01*
X200530887Y-126812000D01*
X200547500Y-126874000D01*
X200547500Y-127126000D01*
X200530887Y-127188000D01*
X200485500Y-127233387D01*
X200423500Y-127250000D01*
X200341326Y-127250000D01*
X200328450Y-127253450D01*
X200325000Y-127266326D01*
X200325000Y-127450500D01*
X200308387Y-127512500D01*
X200263000Y-127557887D01*
X200201000Y-127574500D01*
X199949000Y-127574500D01*
X199887000Y-127557887D01*
X199841613Y-127512500D01*
X199825000Y-127450500D01*
X199825000Y-126041325D01*
X199814429Y-126001876D01*
X199812613Y-125945450D01*
X199836002Y-125894068D01*
X199879743Y-125858380D01*
X199918983Y-125839198D01*
X200001698Y-125756483D01*
X200053073Y-125651393D01*
X200063000Y-125583260D01*
X200063000Y-125287334D01*
X200076515Y-125231039D01*
X200114115Y-125187016D01*
X200167602Y-125164861D01*
X200225318Y-125169403D01*
G37*
%TD.AperFunction*%
%TA.AperFunction,Conductor*%
G36*
X201863000Y-126766613D02*
G01*
X201908387Y-126812000D01*
X201925000Y-126874000D01*
X201925000Y-127126000D01*
X201908387Y-127188000D01*
X201863000Y-127233387D01*
X201801000Y-127250000D01*
X201472500Y-127250000D01*
X201410500Y-127233387D01*
X201365113Y-127188000D01*
X201348500Y-127126000D01*
X201348500Y-126874000D01*
X201365113Y-126812000D01*
X201410500Y-126766613D01*
X201472500Y-126750000D01*
X201801000Y-126750000D01*
X201863000Y-126766613D01*
G37*
%TD.AperFunction*%
%TA.AperFunction,Conductor*%
G36*
X198352532Y-123816039D02*
G01*
X198396638Y-123853079D01*
X198398302Y-123856483D01*
X198481017Y-123939198D01*
X198490244Y-123943709D01*
X198490246Y-123943710D01*
X198510575Y-123953648D01*
X198555522Y-123990925D01*
X198578424Y-124044639D01*
X198574203Y-124102879D01*
X198543796Y-124152730D01*
X198319697Y-124376829D01*
X198262714Y-124409288D01*
X198197144Y-124408144D01*
X198141328Y-124373716D01*
X198110878Y-124315634D01*
X198114310Y-124250144D01*
X198162727Y-124104027D01*
X198165543Y-124090874D01*
X198174680Y-124001444D01*
X198174999Y-123995168D01*
X198174999Y-123927890D01*
X198190435Y-123867973D01*
X198232900Y-123822974D01*
X198291823Y-123804096D01*
X198352532Y-123816039D01*
G37*
%TD.AperFunction*%
%TA.AperFunction,Conductor*%
G36*
X203938000Y-122717113D02*
G01*
X203983387Y-122762500D01*
X204000000Y-122824500D01*
X204000000Y-123052964D01*
X203981727Y-123117754D01*
X203932295Y-123163449D01*
X203866271Y-123176582D01*
X203806149Y-123154401D01*
X203803220Y-123151472D01*
X203683126Y-123090281D01*
X203673489Y-123088754D01*
X203673484Y-123088753D01*
X203588308Y-123075263D01*
X203588302Y-123075262D01*
X203583488Y-123074500D01*
X203016512Y-123074500D01*
X203011698Y-123075262D01*
X203011691Y-123075263D01*
X202926516Y-123088753D01*
X202926510Y-123088754D01*
X202916874Y-123090281D01*
X202910046Y-123093759D01*
X202873803Y-123099500D01*
X202284043Y-123099500D01*
X202236590Y-123090061D01*
X202210577Y-123072679D01*
X202209609Y-123074037D01*
X202201247Y-123068066D01*
X202193983Y-123060802D01*
X202184756Y-123056291D01*
X202184753Y-123056289D01*
X202097545Y-123013656D01*
X202097541Y-123013654D01*
X202088893Y-123009427D01*
X202069365Y-123006581D01*
X202025197Y-123000146D01*
X202025190Y-123000145D01*
X202020760Y-122999500D01*
X200929240Y-122999500D01*
X200924810Y-123000145D01*
X200924802Y-123000146D01*
X200870640Y-123008038D01*
X200861107Y-123009427D01*
X200852460Y-123013654D01*
X200852454Y-123013656D01*
X200765246Y-123056289D01*
X200765240Y-123056292D01*
X200756017Y-123060802D01*
X200748754Y-123068064D01*
X200748751Y-123068067D01*
X200680567Y-123136251D01*
X200680564Y-123136254D01*
X200673302Y-123143517D01*
X200668792Y-123152740D01*
X200668789Y-123152746D01*
X200626156Y-123239954D01*
X200626154Y-123239960D01*
X200621927Y-123248607D01*
X200620538Y-123258139D01*
X200620538Y-123258140D01*
X200612646Y-123312302D01*
X200612645Y-123312310D01*
X200612000Y-123316740D01*
X200612000Y-123321222D01*
X200612000Y-123683205D01*
X200599355Y-123737758D01*
X200564000Y-123781185D01*
X200555423Y-123787837D01*
X200450335Y-123892925D01*
X200440844Y-123905160D01*
X200400303Y-123973711D01*
X200353101Y-124019364D01*
X200289205Y-124034511D01*
X200226533Y-124014903D01*
X200117516Y-123944842D01*
X200117509Y-123944839D01*
X200110053Y-123940047D01*
X200102786Y-123937913D01*
X200053201Y-123896605D01*
X200031210Y-123835186D01*
X200043436Y-123771105D01*
X200053073Y-123751393D01*
X200063000Y-123683260D01*
X200063000Y-123316740D01*
X200053073Y-123248607D01*
X200048258Y-123238758D01*
X200006210Y-123152746D01*
X200006209Y-123152744D01*
X200001698Y-123143517D01*
X199918983Y-123060802D01*
X199909756Y-123056291D01*
X199909753Y-123056289D01*
X199822545Y-123013656D01*
X199822541Y-123013654D01*
X199813893Y-123009427D01*
X199794365Y-123006581D01*
X199750197Y-123000146D01*
X199750190Y-123000145D01*
X199745760Y-122999500D01*
X198654240Y-122999500D01*
X198649810Y-123000145D01*
X198649802Y-123000146D01*
X198595640Y-123008038D01*
X198586107Y-123009427D01*
X198577460Y-123013654D01*
X198577454Y-123013656D01*
X198490246Y-123056289D01*
X198490240Y-123056292D01*
X198481017Y-123060802D01*
X198473754Y-123068064D01*
X198473751Y-123068067D01*
X198405567Y-123136251D01*
X198405564Y-123136254D01*
X198398302Y-123143517D01*
X198393790Y-123152745D01*
X198393788Y-123152749D01*
X198351409Y-123239436D01*
X198314330Y-123284234D01*
X198260904Y-123307202D01*
X198202883Y-123303287D01*
X198153027Y-123273350D01*
X198122302Y-123223976D01*
X198113817Y-123198370D01*
X198107753Y-123185366D01*
X198026367Y-123053419D01*
X198017462Y-123042157D01*
X197907838Y-122932533D01*
X197894223Y-122921768D01*
X197857272Y-122873615D01*
X197847603Y-122813693D01*
X197867530Y-122756361D01*
X197912280Y-122715355D01*
X197971131Y-122700500D01*
X203876000Y-122700500D01*
X203938000Y-122717113D01*
G37*
%TD.AperFunction*%
%TA.AperFunction,Conductor*%
G36*
X197388000Y-123491613D02*
G01*
X197433387Y-123537000D01*
X197450000Y-123599000D01*
X197450000Y-123851000D01*
X197433387Y-123913000D01*
X197388000Y-123958387D01*
X197326000Y-123975000D01*
X195574000Y-123975000D01*
X195512000Y-123958387D01*
X195466613Y-123913000D01*
X195450000Y-123851000D01*
X195450000Y-123599000D01*
X195466613Y-123537000D01*
X195512000Y-123491613D01*
X195574000Y-123475000D01*
X197326000Y-123475000D01*
X197388000Y-123491613D01*
G37*
%TD.AperFunction*%
%TD*%
M02*
