%TF.GenerationSoftware,KiCad,Pcbnew,(7.0.0-0)*%
%TF.CreationDate,2023-03-07T12:57:00-05:00*%
%TF.ProjectId,Spatial Sense Module,53706174-6961-46c2-9053-656e7365204d,rev?*%
%TF.SameCoordinates,Original*%
%TF.FileFunction,Soldermask,Top*%
%TF.FilePolarity,Negative*%
%FSLAX46Y46*%
G04 Gerber Fmt 4.6, Leading zero omitted, Abs format (unit mm)*
G04 Created by KiCad (PCBNEW (7.0.0-0)) date 2023-03-07 12:57:00*
%MOMM*%
%LPD*%
G01*
G04 APERTURE LIST*
G04 Aperture macros list*
%AMRoundRect*
0 Rectangle with rounded corners*
0 $1 Rounding radius*
0 $2 $3 $4 $5 $6 $7 $8 $9 X,Y pos of 4 corners*
0 Add a 4 corners polygon primitive as box body*
4,1,4,$2,$3,$4,$5,$6,$7,$8,$9,$2,$3,0*
0 Add four circle primitives for the rounded corners*
1,1,$1+$1,$2,$3*
1,1,$1+$1,$4,$5*
1,1,$1+$1,$6,$7*
1,1,$1+$1,$8,$9*
0 Add four rect primitives between the rounded corners*
20,1,$1+$1,$2,$3,$4,$5,0*
20,1,$1+$1,$4,$5,$6,$7,0*
20,1,$1+$1,$6,$7,$8,$9,0*
20,1,$1+$1,$8,$9,$2,$3,0*%
G04 Aperture macros list end*
%ADD10RoundRect,0.250001X1.449999X-0.499999X1.449999X0.499999X-1.449999X0.499999X-1.449999X-0.499999X0*%
%ADD11RoundRect,0.250000X1.500000X-0.250000X1.500000X0.250000X-1.500000X0.250000X-1.500000X-0.250000X0*%
%ADD12RoundRect,0.225000X0.250000X-0.225000X0.250000X0.225000X-0.250000X0.225000X-0.250000X-0.225000X0*%
%ADD13RoundRect,0.225000X0.225000X0.250000X-0.225000X0.250000X-0.225000X-0.250000X0.225000X-0.250000X0*%
%ADD14RoundRect,0.225000X-0.225000X-0.250000X0.225000X-0.250000X0.225000X0.250000X-0.225000X0.250000X0*%
%ADD15RoundRect,0.225000X-0.250000X0.225000X-0.250000X-0.225000X0.250000X-0.225000X0.250000X0.225000X0*%
%ADD16C,1.000000*%
%ADD17O,1.000000X1.000000*%
%ADD18RoundRect,0.250000X-0.300000X-0.300000X0.300000X-0.300000X0.300000X0.300000X-0.300000X0.300000X0*%
%ADD19RoundRect,0.200000X-0.200000X-0.275000X0.200000X-0.275000X0.200000X0.275000X-0.200000X0.275000X0*%
%ADD20C,0.900000*%
%ADD21R,2.500000X1.250000*%
%ADD22RoundRect,0.075000X-0.650000X-0.075000X0.650000X-0.075000X0.650000X0.075000X-0.650000X0.075000X0*%
%ADD23RoundRect,0.200000X0.200000X0.275000X-0.200000X0.275000X-0.200000X-0.275000X0.200000X-0.275000X0*%
%ADD24R,0.254000X0.675000*%
%ADD25R,0.675000X0.254000*%
%ADD26RoundRect,0.250000X0.300000X0.300000X-0.300000X0.300000X-0.300000X-0.300000X0.300000X-0.300000X0*%
%ADD27RoundRect,0.150000X0.512500X0.150000X-0.512500X0.150000X-0.512500X-0.150000X0.512500X-0.150000X0*%
%ADD28RoundRect,0.075000X0.662500X0.075000X-0.662500X0.075000X-0.662500X-0.075000X0.662500X-0.075000X0*%
%ADD29RoundRect,0.075000X0.075000X0.662500X-0.075000X0.662500X-0.075000X-0.662500X0.075000X-0.662500X0*%
%ADD30RoundRect,0.218750X0.256250X-0.218750X0.256250X0.218750X-0.256250X0.218750X-0.256250X-0.218750X0*%
%ADD31R,0.600000X1.100000*%
%ADD32C,0.650000*%
%ADD33R,1.150000X0.600000*%
%ADD34R,1.150000X0.300000*%
%ADD35O,2.100000X1.000000*%
%ADD36O,1.800000X1.000000*%
%ADD37R,0.900000X1.700000*%
%ADD38RoundRect,0.200000X0.275000X-0.200000X0.275000X0.200000X-0.275000X0.200000X-0.275000X-0.200000X0*%
G04 APERTURE END LIST*
D10*
%TO.C,J2*%
X213050000Y-131000000D03*
X213050000Y-124300000D03*
D11*
X207300000Y-126650000D03*
X207300000Y-128650000D03*
%TD*%
D12*
%TO.C,C3*%
X189050000Y-147375000D03*
X189050000Y-145825000D03*
%TD*%
%TO.C,C23*%
X200250000Y-130550000D03*
X200250000Y-129000000D03*
%TD*%
D13*
%TO.C,C22*%
X191825000Y-140950000D03*
X190275000Y-140950000D03*
%TD*%
D14*
%TO.C,C9*%
X190950000Y-127000000D03*
X192500000Y-127000000D03*
%TD*%
D12*
%TO.C,C1*%
X190550000Y-147375000D03*
X190550000Y-145825000D03*
%TD*%
%TO.C,C5*%
X186050000Y-147375000D03*
X186050000Y-145825000D03*
%TD*%
D15*
%TO.C,C12*%
X203380000Y-137465000D03*
X203380000Y-139015000D03*
%TD*%
D12*
%TO.C,C18*%
X202800000Y-144450000D03*
X202800000Y-142900000D03*
%TD*%
D14*
%TO.C,C4*%
X186475000Y-144300000D03*
X188025000Y-144300000D03*
%TD*%
D16*
%TO.C,J1*%
X193100000Y-150400000D03*
D17*
X194369999Y-150399999D03*
%TD*%
D12*
%TO.C,C24*%
X203380000Y-136055000D03*
X203380000Y-134505000D03*
%TD*%
D18*
%TO.C,D2*%
X195850000Y-129250000D03*
X198650000Y-129250000D03*
%TD*%
D19*
%TO.C,R6*%
X180935000Y-146730000D03*
X182585000Y-146730000D03*
%TD*%
D15*
%TO.C,C16*%
X203300000Y-123725000D03*
X203300000Y-125275000D03*
%TD*%
D19*
%TO.C,R3*%
X189425000Y-144300000D03*
X191075000Y-144300000D03*
%TD*%
%TO.C,R4*%
X194925000Y-127000000D03*
X196575000Y-127000000D03*
%TD*%
D20*
%TO.C,SW2*%
X181250000Y-124600000D03*
X181250000Y-131400000D03*
D21*
X183999999Y-125499999D03*
X183999999Y-127999999D03*
X183999999Y-130499999D03*
%TD*%
D19*
%TO.C,R1*%
X186425000Y-142800000D03*
X188075000Y-142800000D03*
%TD*%
D16*
%TO.C,J4*%
X196800000Y-150400000D03*
D17*
X198069999Y-150399999D03*
X199339999Y-150399999D03*
X200609999Y-150399999D03*
X201879999Y-150399999D03*
%TD*%
D22*
%TO.C,U1*%
X186300000Y-149000000D03*
X186300000Y-149500000D03*
X186300000Y-150000000D03*
X186300000Y-150500000D03*
X186300000Y-151000000D03*
X190700000Y-151000000D03*
X190700000Y-150500000D03*
X190700000Y-150000000D03*
X190700000Y-149500000D03*
X190700000Y-149000000D03*
%TD*%
D23*
%TO.C,R7*%
X203325000Y-127000000D03*
X201675000Y-127000000D03*
%TD*%
D12*
%TO.C,C14*%
X197200000Y-125275000D03*
X197200000Y-123725000D03*
%TD*%
%TO.C,C2*%
X187550000Y-147375000D03*
X187550000Y-145825000D03*
%TD*%
D24*
%TO.C,U2*%
X192649999Y-144637499D03*
D25*
X192512499Y-145549999D03*
X192512499Y-146049999D03*
X192512499Y-146549999D03*
X192512499Y-147049999D03*
D24*
X192649999Y-147962499D03*
X193149999Y-147962499D03*
X193649999Y-147962499D03*
X194149999Y-147962499D03*
X194649999Y-147962499D03*
X195149999Y-147962499D03*
X195649999Y-147962499D03*
X196149999Y-147962499D03*
X196649999Y-147962499D03*
X197149999Y-147962499D03*
D25*
X197287499Y-147049999D03*
X197287499Y-146549999D03*
X197287499Y-146049999D03*
X197287499Y-145549999D03*
D24*
X197149999Y-144637499D03*
X196649999Y-144637499D03*
X196149999Y-144637499D03*
X195649999Y-144637499D03*
X195149999Y-144637499D03*
X194649999Y-144637499D03*
X194149999Y-144637499D03*
X193649999Y-144637499D03*
X193149999Y-144637499D03*
%TD*%
D15*
%TO.C,C11*%
X198750000Y-147825000D03*
X198750000Y-146275000D03*
%TD*%
D26*
%TO.C,D1*%
X193900000Y-129250000D03*
X191100000Y-129250000D03*
%TD*%
D13*
%TO.C,C7*%
X197450000Y-142850000D03*
X195900000Y-142850000D03*
%TD*%
D19*
%TO.C,R5*%
X201675000Y-128500000D03*
X203325000Y-128500000D03*
%TD*%
D27*
%TO.C,U3*%
X193750000Y-125450000D03*
X193750000Y-124500000D03*
X193750000Y-123550000D03*
X191475000Y-123550000D03*
X191475000Y-125450000D03*
%TD*%
D12*
%TO.C,C17*%
X201300000Y-144450000D03*
X201300000Y-142900000D03*
%TD*%
D28*
%TO.C,U6*%
X201662500Y-139320000D03*
X201662500Y-138820000D03*
X201662500Y-138320000D03*
X201662500Y-137820000D03*
X201662500Y-137320000D03*
X201662500Y-136820000D03*
X201662500Y-136320000D03*
X201662500Y-135820000D03*
X201662500Y-135320000D03*
X201662500Y-134820000D03*
X201662500Y-134320000D03*
X201662500Y-133820000D03*
D29*
X200250000Y-132407500D03*
X199750000Y-132407500D03*
X199250000Y-132407500D03*
X198750000Y-132407500D03*
X198250000Y-132407500D03*
X197750000Y-132407500D03*
X197250000Y-132407500D03*
X196750000Y-132407500D03*
X196250000Y-132407500D03*
X195750000Y-132407500D03*
X195250000Y-132407500D03*
X194750000Y-132407500D03*
D28*
X193337500Y-133820000D03*
X193337500Y-134320000D03*
X193337500Y-134820000D03*
X193337500Y-135320000D03*
X193337500Y-135820000D03*
X193337500Y-136320000D03*
X193337500Y-136820000D03*
X193337500Y-137320000D03*
X193337500Y-137820000D03*
X193337500Y-138320000D03*
X193337500Y-138820000D03*
X193337500Y-139320000D03*
D29*
X194750000Y-140732500D03*
X195250000Y-140732500D03*
X195750000Y-140732500D03*
X196250000Y-140732500D03*
X196750000Y-140732500D03*
X197250000Y-140732500D03*
X197750000Y-140732500D03*
X198250000Y-140732500D03*
X198750000Y-140732500D03*
X199250000Y-140732500D03*
X199750000Y-140732500D03*
X200250000Y-140732500D03*
%TD*%
D30*
%TO.C,D4*%
X179200000Y-146787500D03*
X179200000Y-145212500D03*
%TD*%
D13*
%TO.C,C13*%
X193275000Y-132000000D03*
X191725000Y-132000000D03*
%TD*%
D31*
%TO.C,X1*%
X194549999Y-143099999D03*
X193149999Y-143099999D03*
%TD*%
D19*
%TO.C,R12*%
X186425000Y-139840000D03*
X188075000Y-139840000D03*
%TD*%
D32*
%TO.C,J3*%
X183305000Y-135700000D03*
X183305000Y-141480000D03*
D33*
X184379999Y-135389999D03*
X184379999Y-136189999D03*
D34*
X184379999Y-137339999D03*
X184379999Y-138339999D03*
X184379999Y-138839999D03*
X184379999Y-139839999D03*
D33*
X184379999Y-140989999D03*
X184379999Y-141789999D03*
X184379999Y-141789999D03*
X184379999Y-140989999D03*
D34*
X184379999Y-140339999D03*
X184379999Y-139339999D03*
X184379999Y-137839999D03*
X184379999Y-136839999D03*
D33*
X184379999Y-136189999D03*
X184379999Y-135389999D03*
D35*
X183804999Y-134269999D03*
D36*
X179624999Y-134269999D03*
D35*
X183804999Y-142909999D03*
D36*
X179624999Y-142909999D03*
%TD*%
D31*
%TO.C,X2*%
X201299999Y-141249999D03*
X202699999Y-141249999D03*
%TD*%
D37*
%TO.C,SW1*%
X184199999Y-149449999D03*
X180799999Y-149449999D03*
%TD*%
D30*
%TO.C,D3*%
X179200000Y-150287500D03*
X179200000Y-148712500D03*
%TD*%
D19*
%TO.C,R2*%
X186425000Y-141300000D03*
X188075000Y-141300000D03*
%TD*%
D23*
%TO.C,R11*%
X182575000Y-145250000D03*
X180925000Y-145250000D03*
%TD*%
D19*
%TO.C,R13*%
X186425000Y-136550000D03*
X188075000Y-136550000D03*
%TD*%
D38*
%TO.C,R9*%
X184000000Y-146825000D03*
X184000000Y-145175000D03*
%TD*%
D27*
%TO.C,U4*%
X201475000Y-125400000D03*
X201475000Y-124450000D03*
X201475000Y-123500000D03*
X199200000Y-123500000D03*
X199200000Y-125400000D03*
%TD*%
D19*
%TO.C,R8*%
X198425000Y-127000000D03*
X200075000Y-127000000D03*
%TD*%
D14*
%TO.C,C6*%
X190275000Y-142830000D03*
X191825000Y-142830000D03*
%TD*%
D12*
%TO.C,C15*%
X198900000Y-144450000D03*
X198900000Y-142900000D03*
%TD*%
%TO.C,C10*%
X189500000Y-125275000D03*
X189500000Y-123725000D03*
%TD*%
%TO.C,C8*%
X195700000Y-125275000D03*
X195700000Y-123725000D03*
%TD*%
G36*
X214498230Y-131748928D02*
G01*
X214498350Y-131750852D01*
X214496789Y-131751984D01*
X214496781Y-131751985D01*
X214496533Y-131752000D01*
X211603467Y-131752000D01*
X211602053Y-131751414D01*
X211602052Y-131751413D01*
X211601466Y-131749999D01*
X211602052Y-131748585D01*
X211603466Y-131747999D01*
X214496541Y-131747999D01*
X214498230Y-131748928D01*
G37*
G36*
X214498230Y-125048928D02*
G01*
X214498350Y-125050852D01*
X214496789Y-125051984D01*
X214496781Y-125051985D01*
X214496533Y-125052000D01*
X211603467Y-125052000D01*
X211602053Y-125051414D01*
X211602052Y-125051413D01*
X211601466Y-125049999D01*
X211602052Y-125048585D01*
X211603466Y-125047999D01*
X214496541Y-125047999D01*
X214498230Y-125048928D01*
G37*
M02*
