M48
; DRILL file {KiCad (7.0.0-0)} date Tuesday, March 07, 2023 at 12:57:02 PM
; FORMAT={-:-/ absolute / metric / decimal}
; #@! TF.CreationDate,2023-03-07T12:57:02-05:00
; #@! TF.GenerationSoftware,Kicad,Pcbnew,(7.0.0-0)
; #@! TF.FileFunction,Plated,1,4,PTH
FMAT,2
METRIC
; #@! TA.AperFunction,Plated,PTH,ViaDrill
T1C0.300
; #@! TA.AperFunction,Plated,PTH,ComponentDrill
T2C0.600
; #@! TA.AperFunction,Plated,PTH,ComponentDrill
T3C0.650
%
G90
G05
T1
X177.5Y-146.15
X177.55Y-150.4
X178.45Y-141.75
X179.25Y-147.7
X180.85Y-152.0
X181.2Y-125.95
X181.25Y-129.95
X181.3Y-135.75
X181.4Y-139.7
X181.7Y-144.25
X181.8Y-146.025
X182.15Y-147.95
X182.45Y-142.0
X182.45Y-150.0
X183.3Y-145.975
X183.6Y-144.15
X183.95Y-123.95
X184.7Y-151.9
X184.85Y-132.9
X185.075Y-150.525
X185.75Y-145.0
X186.0Y-127.65
X188.1Y-126.0
X188.15Y-123.95
X188.2Y-146.6
X188.4Y-130.7
X188.45Y-149.975
X188.75Y-135.0
X188.75Y-143.6
X188.85Y-139.7
X188.95Y-138.85
X189.55Y-141.775
X190.0Y-127.0
X190.25Y-137.3
X190.25Y-144.95
X190.6Y-134.3
X190.6Y-138.85
X191.1Y-136.85
X191.3Y-146.25
X191.6Y-138.85
X191.875Y-130.875
X191.9Y-137.25
X192.0Y-134.3
X192.0Y-150.1
X192.45Y-132.8
X192.5Y-129.2
X192.55Y-125.9
X192.81Y-141.876
X192.875Y-140.975
X193.45Y-145.5
X194.0Y-126.55
X194.3Y-131.25
X194.3Y-146.0
X195.05Y-131.15
X195.3Y-136.75
X195.5Y-145.7
X195.53Y-150.48
X195.75Y-133.75
X196.15Y-148.85
X196.6Y-142.0
X196.75Y-133.75
X196.8Y-134.8
X196.975Y-130.7
X197.15Y-143.75
X197.2Y-138.2
X197.537Y-133.907
X198.0Y-123.9
X198.15Y-145.4
X198.75Y-135.6
X199.05Y-145.4
X199.25Y-127.725
X199.25Y-134.5
X199.3Y-131.224
X199.4Y-138.1
X199.625Y-129.775
X199.9Y-124.4
X200.25Y-125.8
X200.25Y-134.5
X200.3Y-142.1
X200.35Y-123.7
X200.7Y-146.0
X200.7Y-147.75
X201.1Y-132.575
X201.8Y-151.9
X201.95Y-146.0
X201.95Y-147.75
X202.5Y-127.65
X202.6Y-124.55
X203.2Y-146.0
X203.2Y-147.75
X203.3Y-149.85
X203.36Y-132.75
X203.475Y-140.75
X207.3Y-125.55
T3
X193.1Y-150.4
X194.37Y-150.4
X196.8Y-150.4
X198.07Y-150.4
X199.34Y-150.4
X200.61Y-150.4
X201.88Y-150.4
T2
X180.025Y-134.27G85X179.225Y-134.27
G05
X180.025Y-142.91G85X179.225Y-142.91
G05
X184.355Y-134.27G85X183.255Y-134.27
G05
X184.355Y-142.91G85X183.255Y-142.91
G05
T0
M30
